<svg width="24" height="24" viewBox="0 0 24 24" fill="none" xmlns="http://www.w3.org/2000/svg">
<path d="M7.3392 10.0848L12 5.424L16.6632 10.0872L19.3752 7.3752L12 0L4.6272 7.3728L7.3392 10.0848ZM0 12L2.712 9.288L5.424 12L2.712 14.712L0 12ZM7.3392 13.9152L12 18.576L16.6632 13.9128L19.3752 16.6236L12 24L4.6272 16.6272L4.6236 16.6236L7.3392 13.9152ZM18.576 12L21.288 9.288L24 12L21.288 14.712L18.576 12ZM14.7504 11.9976H14.7528V12L12 14.7528L9.2508 12.0048L9.246 12L9.2508 11.9964L9.732 11.514L9.966 11.28L12 9.2472L14.7516 11.9988L14.7504 11.9976Z" fill="#F3BA2F"/>
</svg>
