<svg width="91" height="87" viewBox="0 0 91 87" fill="none" xmlns="http://www.w3.org/2000/svg">
<path d="M2 19.7974H42.539V85.0553L2 67.2577V19.7974Z" fill="#EFEFEF" stroke="#C4C4C4" stroke-width="3" stroke-linejoin="round"/>
<path d="M51.4379 81.1485L42.5391 85.0553V19.7974L83.0781 20.2917L83.0781 38.5837" stroke="#C4C4C4" stroke-width="3" stroke-linecap="round" stroke-linejoin="round"/>
<path d="M2 19.6423L42.1852 2L83.078 19.953L42.8929 37.5952L2 19.6423Z" fill="#EFEFEF" stroke="#C4C4C4" stroke-width="3" stroke-linejoin="round"/>
<rect x="54.4062" y="45.5044" width="35.5952" height="35.5952" rx="17.7976" fill="#111111"/>
<path fill-rule="evenodd" clip-rule="evenodd" d="M64.7295 56.5376C64.1214 57.1457 64.1214 58.1317 64.7295 58.7399L69.6054 63.6158L65.0431 68.1782C64.4349 68.7863 64.4349 69.7723 65.0431 70.3805C65.6513 70.9887 66.6373 70.9887 67.2454 70.3805L71.8078 65.8182L76.6851 70.6955C77.2933 71.3036 78.2793 71.3036 78.8875 70.6955C79.4956 70.0873 79.4956 69.1013 78.8875 68.4931L74.0101 63.6158L79.201 58.4249C79.8092 57.8168 79.8092 56.8307 79.201 56.2226C78.5929 55.6144 77.6068 55.6144 76.9987 56.2226L71.8078 61.4135L66.9319 56.5376C66.3237 55.9294 65.3377 55.9294 64.7295 56.5376Z" fill="white"/>
<path d="M26.0449 9.40186L66.2699 27.213" stroke="#C4C4C4" stroke-width="3" stroke-linecap="round"/>
<path d="M2.05661 55.393L14.8547 60.8312" stroke="#C4C4C4" stroke-width="3" stroke-linecap="round"/>
</svg>
