<svg width="19" height="19" viewBox="0 0 19 19" fill="none" xmlns="http://www.w3.org/2000/svg">
<path d="M9.07058 1.31331C9.40456 1.26692 9.74783 1.31145 10.0688 1.41165C10.349 1.50442 10.6069 1.66028 10.8184 1.86624C12.9188 3.96477 15.0174 6.06331 17.1159 8.1637C17.4684 8.5218 17.6707 9.01907 17.6744 9.52004C17.6837 9.93567 17.5612 10.3513 17.3367 10.7001C17.2235 10.8801 17.0769 11.0378 16.9248 11.1844L11.0763 17.0328C10.8611 17.2555 10.5995 17.4373 10.3119 17.5505C9.75896 17.7769 9.10398 17.7546 8.57517 17.4707C8.3822 17.3687 8.2115 17.2314 8.05935 17.0755C6.01277 15.0252 3.96433 12.9768 1.91589 10.9283C1.76375 10.7799 1.62644 10.6129 1.52439 10.4255C1.41677 10.2288 1.34441 10.0136 1.3073 9.7928C1.25906 9.54973 1.25164 9.29924 1.2906 9.05432C1.54109 7.3343 1.79343 5.61428 2.04392 3.89426C2.12 3.38772 2.38347 2.91272 2.77312 2.57874C3.08113 2.31155 3.46335 2.13528 3.86599 2.07405C5.60085 1.81985 7.33572 1.56565 9.07058 1.31331ZM7.33386 4.97415C6.84402 5.00012 6.3616 5.17268 5.96638 5.46585C5.53406 5.78499 5.20749 6.24514 5.05164 6.75911C4.90691 7.23225 4.9032 7.74993 5.04607 8.22493C5.14812 8.56819 5.32253 8.88919 5.55818 9.16008C5.91443 9.572 6.40613 9.86516 6.93865 9.97835C7.5324 10.1082 8.16882 10.0155 8.69949 9.72044C9.24314 9.41985 9.6699 8.91516 9.86843 8.32512C10.0651 7.75549 10.0484 7.11721 9.8239 6.55872C9.58269 5.95383 9.09841 5.44915 8.50095 5.18753C8.13728 5.02424 7.73279 4.95374 7.33386 4.97415ZM12.403 8.05794C12.3214 8.07463 12.2471 8.11917 12.1896 8.17854L8.14285 12.2253C8.00554 12.3552 7.97771 12.5834 8.08162 12.743C8.15583 12.8617 8.29499 12.9397 8.43601 12.9341C8.54548 12.9378 8.65124 12.8877 8.72917 12.8116C10.0818 11.459 11.4344 10.1064 12.7852 8.75374C12.8984 8.64055 12.9355 8.46057 12.878 8.31213C12.8093 8.12473 12.596 8.01155 12.403 8.05794ZM13.8428 9.49963C13.7575 9.51819 13.6814 9.56458 13.622 9.62766L9.59197 13.6577C9.46023 13.7783 9.42126 13.9843 9.50105 14.1439C9.56228 14.2738 9.69587 14.3647 9.83874 14.374C9.95193 14.3832 10.0688 14.3424 10.1523 14.2645L14.2306 10.1862C14.3086 10.1064 14.3494 9.99505 14.3438 9.88372C14.342 9.72229 14.2306 9.56829 14.0766 9.51448C14.0043 9.48665 13.9208 9.48479 13.8428 9.49963Z" fill="black"/>
<path d="M7.29821 5.81702C7.66559 5.75579 8.05153 5.81702 8.37995 5.99329C8.85866 6.24564 9.20563 6.73734 9.27243 7.27542C9.32067 7.61869 9.25758 7.97679 9.09801 8.2848C8.84938 8.7765 8.3484 9.13089 7.80104 9.19955C7.45221 9.24593 7.0904 9.18099 6.77868 9.01586C6.50221 8.86927 6.26657 8.64662 6.107 8.37757C5.94372 8.10482 5.86022 7.78568 5.86764 7.46839C5.87506 7.0639 6.03092 6.66497 6.30182 6.36624C6.55788 6.07679 6.91598 5.87825 7.29821 5.81702Z" fill="black"/>
</svg>
