<svg width="16" height="16" viewBox="0 0 16 16" fill="none" xmlns="http://www.w3.org/2000/svg">
<path d="M7.99994 16C3.58862 16 0 12.4114 0 7.99995C0 3.58862 3.5886 0 7.99994 0C12.4114 0 16 3.5886 16 7.99995C16 12.4114 12.4114 16 7.99994 16ZM7.99994 1.14798C4.22172 1.14798 1.148 4.2217 1.148 7.99993C1.148 11.7777 4.22172 14.852 7.99994 14.852C11.7777 14.852 14.852 11.7777 14.852 7.99993C14.852 4.2217 11.7777 1.14798 7.99994 1.14798Z" fill="black"/>
<path fill-rule="evenodd" clip-rule="evenodd" d="M7.32314 8.1003C7.32215 8.08468 7.32164 8.06892 7.32164 8.05305L7.32164 3.66076C7.32164 3.25646 7.64939 2.92871 8.05369 2.92871C8.45799 2.92871 8.78574 3.25646 8.78574 3.66076L8.78574 7.74328L12.4922 9.8832C12.8423 10.0853 12.9623 10.5331 12.7601 10.8832C12.558 11.2333 12.1103 11.3533 11.7601 11.1511L7.68646 8.7992C7.43176 8.65215 7.29885 8.37515 7.32314 8.1003Z" fill="black"/>
</svg>
