<svg width="16" height="16" viewBox="0 0 16 16" fill="none" xmlns="http://www.w3.org/2000/svg">
<path d="M7.78581 12.8799L3.14581 8.23987C2.95914 8.0532 3.09247 7.70653 3.35914 7.70653H5.86581C6.05247 7.70653 6.18581 7.5732 6.18581 7.38654V0.853203C6.18581 0.666536 6.31914 0.533203 6.50581 0.533203H9.46581C9.65247 0.533203 9.78581 0.666536 9.78581 0.853203V7.38654C9.78581 7.5732 9.91914 7.70653 10.1058 7.70653H12.6125C12.9058 7.70653 13.0391 8.0532 12.8258 8.23987L8.21247 12.8799C8.10581 12.9865 7.89248 12.9865 7.78581 12.8799ZM14.3191 15.4665H1.67914C1.38581 15.4665 1.11914 15.2265 1.11914 14.9065C1.11914 14.6132 1.35914 14.3465 1.67914 14.3465H14.3458C14.6391 14.3465 14.9058 14.5865 14.9058 14.9065C14.8791 15.2265 14.6391 15.4665 14.3191 15.4665Z" fill="#3861FB"/>
</svg>
