<svg width="19" height="18" viewBox="0 0 19 18" fill="none" xmlns="http://www.w3.org/2000/svg">
<path d="M5.35123 5.0905C4.88421 5.0905 4.50427 5.47021 4.50427 5.93692C4.50427 6.40394 4.88421 6.78389 5.35123 6.78389C5.81826 6.78389 6.19822 6.40394 6.19822 5.93692C6.19824 5.47019 5.81826 5.0905 5.35123 5.0905ZM7.70243 5.0905C7.23541 5.0905 6.85546 5.47021 6.85546 5.93692C6.85546 6.40394 7.23541 6.78389 7.70243 6.78389C8.16914 6.78389 8.54885 6.40394 8.54885 5.93692C8.54885 5.47019 8.16914 5.0905 7.70243 5.0905ZM10.0536 5.16715C9.5866 5.16715 9.20664 5.54712 9.20664 6.01414C9.20664 6.48085 9.5866 6.86054 10.0536 6.86054C10.5203 6.86054 10.9 6.48085 10.9 6.01414C10.9 5.54711 10.5203 5.16715 10.0536 5.16715ZM15.6081 6.70637H13.9244V3.11814C13.9244 2.10474 13.1 1.28027 12.0865 1.28027H3.31778C2.30469 1.28027 1.48047 2.10473 1.48047 3.11814V9.03446C1.48047 10.0372 2.28731 10.8549 3.28569 10.8721L3.26606 13.5123L7.07674 10.8801V12.9684C7.07674 13.8255 7.77408 14.5229 8.6312 14.5229H12.5802L15.7427 16.7079L15.7272 14.5183C16.5289 14.4573 17.1625 13.7854 17.1625 12.9684V8.26078C17.1625 7.40366 16.4652 6.70637 15.6081 6.70637ZM6.80734 9.97175L4.17914 11.7868L4.19262 9.97175H3.3178C2.80128 9.97175 2.38105 9.55128 2.38105 9.03446V3.11814C2.38105 2.6013 2.80126 2.18082 3.3178 2.18082H12.0865C12.6034 2.18082 13.0239 2.6013 13.0239 3.11814V9.03446C13.0239 9.55128 12.6034 9.97175 12.0865 9.97175H6.80734ZM16.262 12.9684C16.262 13.3289 15.9687 13.6223 15.6081 13.6223H14.8198L14.8298 14.9825L12.8608 13.6223H8.6312C8.27065 13.6223 7.9773 13.3289 7.9773 12.9684V10.8724H12.0865C13.0999 10.8724 13.9244 10.0479 13.9244 9.03446V7.60693H15.6081C15.9687 7.60693 16.262 7.90025 16.262 8.26078V12.9684Z" fill="white"/>
</svg>
