<svg width="25" height="24" viewBox="0 0 25 24" fill="none" xmlns="http://www.w3.org/2000/svg">
<path d="M15.125 0L22.125 7V21.1997C22.125 22.7465 20.6931 24 19.1745 24H5.0363C3.51772 24 2.125 22.5457 2.125 21V3C2.12512 1.45322 3.5177 0 5.0363 0H15.125Z" fill="#7C8EEE"/>
<path d="M22.125 7H17.6985C16.3461 7 15.125 5.77994 15.125 4.42633V0L22.125 7Z" fill="white" fill-opacity="0.4"/>
<path d="M16.625 11.634C17.2917 12.0189 17.2917 12.9811 16.625 13.366L9.875 17.2631C9.20833 17.648 8.375 17.1669 8.375 16.3971L8.375 8.60289C8.375 7.83308 9.20833 7.35196 9.875 7.73686L16.625 11.634Z" fill="white"/>
</svg>
