<svg width="19" height="19" viewBox="0 0 19 19" fill="none" xmlns="http://www.w3.org/2000/svg">
<path d="M14.1678 16.5293H4.83219C3.26771 16.5293 2 15.2616 2 13.6971V7.41715C2 5.85267 3.26771 4.58496 4.83219 4.58496H14.1678C15.7323 4.58496 17 5.85267 17 7.41715V13.698C17 15.2616 15.7323 16.5293 14.1678 16.5293Z" fill="#111111"/>
<rect x="3.64844" y="7.29395" width="11.7245" height="0.73278" rx="0.36639" fill="white"/>
<circle cx="9.46544" cy="12.0309" r="1.96935" stroke="white" stroke-width="0.8"/>
<path fill-rule="evenodd" clip-rule="evenodd" d="M7.07218 2C6.06043 2 5.24023 2.82019 5.24023 3.83195V5.7555H6.06461V3.83195C6.06461 3.32607 6.47471 2.91597 6.98059 2.91597H12.11C12.6159 2.91597 13.026 3.32607 13.026 3.83195V5.7555H13.8504V3.83195C13.8504 2.82019 13.0302 2 12.0184 2H7.07218Z" fill="#111111"/>
</svg>
