<svg width="44" height="44" viewBox="0 0 44 44" fill="none" xmlns="http://www.w3.org/2000/svg">
<circle opacity="0.8" cx="22" cy="22" r="22" fill="#111111"/>
<path opacity="0.8" d="M20.1667 13.0167V30.9833C20.1663 31.3236 20.0213 31.6498 19.7636 31.8904C19.5058 32.131 19.1563 32.2663 18.7917 32.2667H16.0417C15.6772 32.2663 15.3277 32.131 15.0699 31.8904C14.8122 31.6498 14.6672 31.3236 14.6667 30.9833V13.0167C14.6672 12.6764 14.8122 12.3502 15.0699 12.1096C15.3277 11.8691 15.6772 11.7337 16.0417 11.7333H18.7917C19.1563 11.7337 19.5058 11.8691 19.7636 12.1096C20.0213 12.3502 20.1663 12.6764 20.1667 13.0167ZM28.6917 11.7333H25.9417C25.5772 11.7337 25.2277 11.8691 24.9699 12.1096C24.7122 12.3502 24.5672 12.6764 24.5667 13.0167V30.9833C24.5672 31.3236 24.7122 31.6498 24.9699 31.8904C25.2277 32.131 25.5772 32.2663 25.9417 32.2667H28.6917C29.0563 32.2663 29.4058 32.131 29.6636 31.8904C29.9213 31.6498 30.0663 31.3236 30.0667 30.9833V13.0167C30.0663 12.6764 29.9213 12.3502 29.6636 12.1096C29.4058 11.8691 29.0563 11.7337 28.6917 11.7333Z" fill="white"/>
</svg>
