<svg width="147" height="198" viewBox="0 0 147 198" fill="none" xmlns="http://www.w3.org/2000/svg"><path fill-rule="evenodd" clip-rule="evenodd" d="M25.235 127.84l92.713 7.346.097.629c1.554 10.099 2.338 16.95 2.354 20.554v.111c0 3.573 1.099 9.256 3.297 17.049l.136.48-98.726.172-1.165-23.457 1.294-22.884zm54.889-50.334c3.77.186 7.569 1.799 7.862 2.83.654 2.296 1.705 12.124 5.16 13.634 3.457 1.51 10.836.134 12.945 3.74 2.11 3.606 9.038 18.306 9.038 21.731 0 2.283-22.578 3.076-67.734 2.378.576-18.393 2.98-28.06 7.21-29.005l.377-.083c6.118-1.334 9.774-1.377 11.86-3.527 2.13-2.194 2.517-5.96 3.4-8.868.487-1.602 5.256-3.058 9.882-2.83z" fill="#fff"/><path fill-rule="evenodd" clip-rule="evenodd" d="M88.388 83.255c.014-.011.029-.014.044-.007.294.141.355.423.456.716.147.429.318.847.476 1.272.314.853.615 1.704.965 2.542.36.863.733 1.71 1.16 2.543.206.403.427.798.652 1.19.155.273.3.648.505.904.015-.082.037-.16.063-.231a.74.74 0 0 0-.078.042c-.051.032-.114-.032-.082-.082.11-.184.256-.308.421-.392.459-.507 10.556 1.915 13.316 4.636 4.999 4.927 8.373 11.019 10.593 17.501 1.225 3.576 2.353 7.187 3.519 10.783 1.232 3.803 2.518 7.588 3.753 11.388.27.836-.32 1.595-1.065 1.87a93.939 93.939 0 0 1-4.198 1.439c.685 2.623 1.164 5.302 1.508 7.988.71 5.54.799 11.192 1.919 16.674.257 1.258.582 2.498.926 3.735l.079.285c.205.726.391 1.458.642 2.169.216.611.496 1.227.647 1.857.177.742-.084 1.551-.779 1.932-.558.306-1.356.18-1.693-.395a.987.987 0 0 1-.126-.374 4.178 4.178 0 0 1-.139-.33 2.59 2.59 0 0 1-.044-.133l-.04-.134c-.098-.32-.189-.643-.279-.966a51.866 51.866 0 0 0-.46-1.548l-.084-.257a54.388 54.388 0 0 1-1.087-3.74c-1.134-4.52-1.375-9.2-1.687-13.832l-.016-.24c-.282-4.151-.45-8.293-.105-12.435l-.047.015-.047.014c-.449.137-.899.272-1.351.402l-.041.014c-.289.09-.587.175-.889.253l-.182.047-.128.035-.135.038c-.427.124-.864.267-1.308.252-.735.118-1.482.189-2.217.192.226 3.695.487 7.388.799 11.076.313 3.708.729 7.402 1.16 11.096.212 1.825.44 3.646.691 5.465.126.922.258 1.839.427 2.754.173.935.48 1.934.295 2.88l-.012-.003c-.062.274-.228.52-.516.689-.529.308-1.27.128-1.574-.412a3.093 3.093 0 0 1-.074-.14c-.311.133-.653.185-1.072.189l-5.686.057c-2.584.025-5.168.053-7.754.09-8.117.119-16.234.257-24.352.355l-3.044.035c-4.565.048-9.133.142-13.698.141-2.284 0-4.565-.008-6.85-.063-1.106-.028-2.21-.07-3.314-.115l-.196-.009c-.882-.044-1.818-.125-2.681.072-.238.462-.846.558-1.165.085-.727-1.081-.925-2.591-1.06-3.913l-.047-.476a128.01 128.01 0 0 1-.377-4.447c-.344-5.258-.47-10.521-.312-15.789.08-2.685.328-5.355.62-8.025.092-.833.188-1.665.291-2.495l.002-.295c0-.095 0-.185-.003-.27l-.026-.801c-.021-.668-.041-1.336-.05-2.005l-.003-.401-.004-.746c-.639-.061-1.321-.273-1.872-.375-.894-.166-1.786-.346-2.675-.536a81.38 81.38 0 0 1-5.291-1.334l-.372-.107c-1.615-.464-3.251-.959-4.778-1.653-.598-.273-1.195-.58-1.719-.983-.03.423-.079.846-.107 1.266-.057.83-.124 1.658-.18 2.488l-.053.791a100.412 100.412 0 0 0-.202 3.952c-.158 5.761-.185 11.546.12 17.302.152 2.882.368 5.763.68 8.633.152 1.412.314 2.827.513 4.234.206 1.445.578 2.881.691 4.337.11 1.404-2.041 1.608-2.395.324-.423-1.539-.53-3.2-.753-4.783l-.026-.175a112.79 112.79 0 0 1-.616-5.061 114.338 114.338 0 0 1-.433-17.546c.147-2.803.495-5.596.917-8.37l.05-.32c.192-1.242.371-2.484.589-3.721l.083-.463c.196-1.063.346-2.219.663-3.282l-.094-.087a3.444 3.444 0 0 1-.507-.558c-.478-.064-.886-.408-.835-1.032.164-2.049.914-4.134 1.583-6.069a55.886 55.886 0 0 1 2.333-5.714c3.105-6.536 7.576-12.471 13.043-17.226 2.9-2.522 6.078-4.76 9.59-6.352 1.731-.786 3.522-1.395 5.398-1.723.93-.162 1.868-.289 2.812-.316.767-.452 1.677-.262 2.419.233l.04.028h.001l.19.037c.047.01.046.083 0 .093a.023.023 0 0 0-.009.003c.122.095.237.198.345.307.354.362.353.799.17 1.151 1.086 1.005 1.772 2.295 2.49 3.596a12.526 12.526 0 0 0 3.005 3.611c4.497 3.722 11.11 5.369 16.744 3.611 4.144-1.291 7.683-4.788 8.661-8.997a1.062 1.062 0 0 1-.72.01c-1.119-.397-1.545-1.617-1.973-2.637l-.02-.049a22.981 22.981 0 0 1-1.046-3.027 16.752 16.752 0 0 1-.512-3.23c-.027-.428-.015-.855.007-1.281l.02-.353c.015-.32.01-.647.28-.858zm-18.192-2.88c.016-.038.076-.059.1-.012.99 2.038.34 4.83-.596 6.774-.98 2.033-2.454 3.575-4.203 4.91-.24.183-.487.364-.738.54-1.459 1.029-2.758-1.743-1.074-2.273 1.754-.89 3.18-2.476 4.171-4.142.536-.9 1.011-1.838 1.375-2.822.362-.981.58-2.003.965-2.974z" fill="#000"/><path fill-rule="evenodd" clip-rule="evenodd" d="M99.01 54.575c.067-3.24-.234-6.562-1.812-9.459-1.37-2.719-3.403-5.075-5.49-7.27-.87-.914-2.033-1.837-1.924-3.224.114-1.456.992-4.61 1.127-6.08.266-2.888-1.805-3.683-4.227-5.056-2.92-1.656-6.41-1.464-9.576-.72-5.904 1.405-12.919 3.739-15.15 9.983-.536 1.54-.402 3.16-.509 4.758-.1 1.495-.7 2.92-1.274 4.286-3.04 6.752-3.012 14.209-2.46 21.457-1.623.374-3.192 1.64-3.55 3.319-.599 2.94 2.49 4.299 4.315 5.888 2.225 1.938 3.845 4.446 5.868 6.575 13.126 14.445 42.089 7.797 36.068-14.703-.817-3.198-1.527-6.432-1.405-9.754z" fill="#fff"/><path fill-rule="evenodd" clip-rule="evenodd" d="M73.046 23.078c3.26-1.265 6.783-1.8 10.268-1.351 1.875.24 3.694.744 5.409 1.543.827.386 1.62.843 2.364 1.37l.068.049c.59.424 1.19.948 1.121 1.652.046.148.054.31.018.471-.581 2.603-1.19 5.197-1.793 7.794-.126.547-.249 1.094-.37 1.641 4.094 3.077 7.943 7.284 9.4 12.283 1.427 4.893.802 10.047 1.307 15.055.119 1.187.321 2.364.638 3.515.341 1.235.91 2.403 1.197 3.652.579 2.514-.26 4.982-1.589 7.113-2.464 3.95-6.185 7.285-10.513 9.055-2.214.906-4.651 1.398-7.047 1.36-2.349-.038-5.023-.52-6.99-1.873-1.33-.914-.193-2.715 1.237-2.112l.388.164c.992.414 1.977.798 3.04 1.019 1.189.246 2.41.298 3.62.223 2.346-.147 4.571-.927 6.597-2.097 1.828-1.057 3.456-2.421 4.91-3.946l.162-.17c1.377-1.458 2.763-3.12 3.537-4.974.398-.954.614-2.004.442-3.033-.199-1.187-.729-2.305-1.038-3.464-.586-2.203-.784-4.5-.852-6.773l-.004-.175c-.125-4.664.23-9.388-1.426-13.847-1.499-4.037-4.589-7.126-7.116-10.524l-.373 1.687c-.15.67-.287 1.346-.45 2.015l-.012.048c.049.144.032.308-.1.411l-.043.032c-.134.309-.342.546-.74.644a.74.74 0 0 1-.85-.344l-1.987.01c-1.261.007-2.645.152-3.886-.105-.19-.04-.166-.31 0-.362 1.172-.365 2.541-.356 3.758-.47l1.918-.178a8.22 8.22 0 0 0 .256-.029l.128-.016.667-2.961c.265-1.175.542-2.348.783-3.527.436-2.127.914-4.244 1.391-6.362-1.5-.367-3.03-.531-4.58-.466l-.18.008c-.6.029-1.245.089-1.747.437-.624.431-.669 1.322-.807 2.008-.379 1.883-.65 3.784-.888 5.69-.115.922-.201 1.846-.303 2.768-.047.42-.075.845-.138 1.261-.059.396-.201.782-.282 1.173.139.598-.69 1.165-1.154.635-.572-.657-1.074-1.342-1.713-1.942a12.221 12.221 0 0 0-2.098-1.58c-1.536-.919-3.13-1.483-4.846-1.96a.148.148 0 0 1-.105-.093 24.125 24.125 0 0 0-4.937 1.986c-3.6 1.957-6.435 5.335-7.508 9.303-.667 2.464-.814 5.067-.823 7.61-.005 1.18.02 2.373.208 3.54.208 1.303.682 2.468 1.063 3.718.1.327.076.618-.03.861l.097.015c.78.122 2.306.465 2.445 1.313.039.238-.094.424-.34.444-.435.037-.709-.279-1.056-.494-.063-.039-.127-.074-.191-.11a.056.056 0 0 1-.062 0c-2.056-1.168-4.569.62-5.026 2.694-.428 1.936.3 4.178 2.174 5.025.943.426 1.946.693 2.813 1.275.73.49 1.376 1.09 1.938 1.763 1.16 1.386 2.033 2.966 3.06 4.446.45.649.95 1.262 1.545 1.787.652.575 1.558.801 1.834 1.7.107.351-.072.772-.388.951-1.157.654-2.468-.483-3.278-1.254-.831-.791-1.51-1.749-2.132-2.707-1.042-1.606-1.932-3.438-3.46-4.654-.918-.73-2.062-1.007-3.094-1.524-1.186-.592-2.027-1.564-2.53-2.778-.926-2.235-.683-5.085 1.072-6.864a3.94 3.94 0 0 1 2.045-1.096c-.78-1.36-1.069-3.076-1.264-4.6-.197-1.53-.218-3.07-.137-4.608l.017-.299c.154-2.744.467-5.562 1.462-8.138.837-2.169 2.108-4.158 3.797-5.765.175-.166.353-.328.535-.488a1.075 1.075 0 0 1-.137-.123c-.473-.514-.372-1.208-.309-1.847.07-.71.183-1.418.354-2.112 1.188-4.837 4.84-8.784 9.542-10.417a20.737 20.737 0 0 1 2.097-.605zm-15.84 42.809c.76-.48 1.922-.296 2.715.019.933.37 1.927 1.06 2.294 2.023.34.893-.93 1.21-1.403.59-.292-.381-.51-.75-.787-1.083a.998.998 0 0 0-.099.11l-.021.03c-.118.173-.333.353-.562.322l-.062-.008c-.232-.031-.487-.144-.551-.395l-.006-.029-.009-.045c-.053-.28.03-.588.3-.734.017-.01.036-.018.054-.027-.592-.31-1.202-.406-1.845-.63-.063-.021-.078-.105-.018-.143zm21.156-41.624c-3.965-.099-8.315 1.118-11.246 3.86-1.388 1.298-2.328 2.808-3.17 4.491-.399.795-.655 1.675-.845 2.541a11.14 11.14 0 0 0-.223 1.435c-.008.093-.006.191-.02.283-.013.079-.028.1-.042.094.007.022.04.067.071.11 2.97-2.132 6.644-3.372 10.278-2.564.115.026.115.208 0 .234-.186.04-.372.087-.557.133 1.59.034 3.224.532 4.597 1.271 1.373.74 2.816 1.784 3.81 3.054a4.32 4.32 0 0 1-.054-.56c-.011-.503 0-1.009.019-1.512.04-1.09.115-2.181.205-3.269l.04-.474c.16-1.901.358-3.856.743-5.716.225-1.084.826-1.745 1.633-2.132-1.499-.966-3.534-1.236-5.24-1.279zm7.353-.632a18.122 18.122 0 0 0-5.508-.738 8.05 8.05 0 0 1 1.948.761c.793.441 1.352 1.025 1.852 1.72.47-.163.994-.253 1.545-.292a16.873 16.873 0 0 1 3.82.177 15.588 15.588 0 0 0-.718-.416 15.393 15.393 0 0 0-2.939-1.212z" fill="#000"/><path fill-rule="evenodd" clip-rule="evenodd" d="M88.882 79.686c.979-.136 2.03-.689 2.965-.24.436.21.644.929.348 1.328-.45.61-.916.71-1.648.77a8.48 8.48 0 0 1-1.648-.017l-.14-.017c-.976-.126-1.991-.398-2.748-1.053-.155-.134-.075-.424.123-.465.899-.19 1.839-.18 2.748-.306zm-1.151-2.25c0-.008.011-.008.012 0 .023.558.18 1.075.47 1.552.005.007-.006.013-.01.006-.29-.477-.449-1-.472-1.558zm3.084-11.514c.977.593 2.466 1.975 1.415 3.445-1.237 1.296-3.019-.19-3.897-.862-.814-.521-1.728.818-.973 1.427 6.344 4.687 8.918-3.855 3.95-4.707-.548-.094-.751.513-.495.697zm5-6.637c.23 0 .45.078.65.222.196.141.374.348.522.606.281.487.457 1.16.457 1.905 0 .745-.176 1.418-.457 1.906a1.914 1.914 0 0 1-.523.606c-.2.143-.419.221-.648.221-.23 0-.45-.078-.65-.221a1.914 1.914 0 0 1-.522-.606c-.281-.488-.457-1.161-.457-1.906 0-.744.176-1.418.457-1.905.148-.258.326-.465.523-.606.2-.144.419-.222.648-.222zm-10.626.76l.086-.016c.504-.092.758-.061 1.197.282.33.257.236.765 0 1.036-.41.472-.81.388-1.372.406l-.04.002c-.467.019-.936.032-1.404.04-.128.001-.257 0-.385.002.014 1.183-.67 2.084-1.57 2.769-.581.442-1.317-.069-1.525-.62-.172-.456-.209-1.017-.12-1.516.034-.184.102-.384.207-.555l.03-.045-.005-.066v-.048a38.316 38.316 0 0 1-2.497-.24l-.277-.035c-.709-.094-1.75-.124-2.324-.584-.018-.014-.011-.047.008-.057.315-.17.635-.16.988-.175l.05-.003c.384-.02.767-.036 1.15-.05l.384-.011c.98-.028 1.963-.076 2.943-.128l.512-.03c.178-.075.368-.12.555-.128.155-.007.305.015.445.06.358-.028.716-.058 1.073-.09l.358-.034c.504-.048 1.034-.069 1.532-.166zm6.194-8.867c1.078-.53 2.39-.542 3.5-.104l.074.03c1.121.464 2.473 1.537 2.18 2.873-.268 1.224-2.19 1.017-2.288-.14-.62-.858-2.013-1.047-2.888-.5-.53.33-.894.888-1.143 1.45-.213.48-.253 1.07-.578 1.488-.011.014-.032.016-.048.012-.972-.224-.994-1.766-.829-2.514.241-1.087 1.014-2.102 2.02-2.595z" fill="#000"/></svg>
