<svg width="40" height="40" viewBox="0 0 40 40" fill="none" xmlns="http://www.w3.org/2000/svg">
<g clip-path="url(#clip0_8996_73952)">
<g opacity="0.3" filter="url(#filter0_f_8996_73952)">
<path d="M6.47884 22.7737C9.86896 17.8704 16.5921 16.6437 21.4954 20.0339L22.1807 20.5077C25.459 22.7743 26.2792 27.2694 24.0125 30.5477L23.1425 31.8062C20.3953 35.7795 14.9472 36.7735 10.9739 34.0264L8.17942 32.0943C5.13601 29.9901 4.37463 25.8171 6.47884 22.7737Z" fill="#FFA457"/>
</g>
<g opacity="0.17" filter="url(#filter1_f_8996_73952)">
<path d="M21 25.1064C21 18.9725 25.9725 14 32.1064 14H33.9574C38.3992 14 42 17.6008 42 22.0426V23C42 27.9706 37.9706 32 33 32H27.8936C24.0864 32 21 28.9136 21 25.1064Z" fill="#4174FD" style="mix-blend-mode:multiply"/>
</g>
<g opacity="0.2" filter="url(#filter2_f_8996_73952)">
<ellipse cx="31.7461" cy="6" rx="8.5" ry="8" fill="#3AE090"/>
</g>
<g filter="url(#filter3_b_8996_73952)">
<circle cx="20" cy="20" r="20" fill="white" fill-opacity="0.3"/>
</g>
<g filter="url(#filter4_b_8996_73952)">
<path d="M27.1279 5.7583L14.6438 18.2279L14.6438 6.25928C13.2657 6.25928 12.1484 7.37646 12.1484 8.75463L12.1484 31.2447C12.1484 32.6091 13.2434 33.7177 14.6025 33.7397L14.6438 33.7401V21.7714L27.1279 34.241L27.1299 34.239C28.0936 33.2742 28.1023 31.7169 27.1568 30.7414L27.1279 30.712L16.4031 19.9997L27.1299 9.28525C28.0936 8.32049 28.1023 6.76318 27.1568 5.78768L27.1279 5.7583H27.1279Z" fill="#AAAAAA"/>
</g>
</g>
<defs>
<filter id="filter0_f_8996_73952" x="-4.71094" y="8.11768" width="40.0039" height="37.4614" filterUnits="userSpaceOnUse" color-interpolation-filters="sRGB">
<feFlood flood-opacity="0" result="BackgroundImageFix"/>
<feBlend mode="normal" in="SourceGraphic" in2="BackgroundImageFix" result="shape"/>
<feGaussianBlur stdDeviation="5" result="effect1_foregroundBlur_8996_73952"/>
</filter>
<filter id="filter1_f_8996_73952" x="11" y="4" width="41" height="38" filterUnits="userSpaceOnUse" color-interpolation-filters="sRGB">
<feFlood flood-opacity="0" result="BackgroundImageFix"/>
<feBlend mode="normal" in="SourceGraphic" in2="BackgroundImageFix" result="shape"/>
<feGaussianBlur stdDeviation="5" result="effect1_foregroundBlur_8996_73952"/>
</filter>
<filter id="filter2_f_8996_73952" x="13.2461" y="-12" width="37" height="36" filterUnits="userSpaceOnUse" color-interpolation-filters="sRGB">
<feFlood flood-opacity="0" result="BackgroundImageFix"/>
<feBlend mode="normal" in="SourceGraphic" in2="BackgroundImageFix" result="shape"/>
<feGaussianBlur stdDeviation="5" result="effect1_foregroundBlur_8996_73952"/>
</filter>
<filter id="filter3_b_8996_73952" x="-20" y="-20" width="80" height="80" filterUnits="userSpaceOnUse" color-interpolation-filters="sRGB">
<feFlood flood-opacity="0" result="BackgroundImageFix"/>
<feGaussianBlur in="BackgroundImage" stdDeviation="10"/>
<feComposite in2="SourceAlpha" operator="in" result="effect1_backgroundBlur_8996_73952"/>
<feBlend mode="normal" in="SourceGraphic" in2="effect1_backgroundBlur_8996_73952" result="shape"/>
</filter>
<filter id="filter4_b_8996_73952" x="-41.8516" y="-48.2417" width="123.711" height="136.483" filterUnits="userSpaceOnUse" color-interpolation-filters="sRGB">
<feFlood flood-opacity="0" result="BackgroundImageFix"/>
<feGaussianBlur in="BackgroundImage" stdDeviation="27"/>
<feComposite in2="SourceAlpha" operator="in" result="effect1_backgroundBlur_8996_73952"/>
<feBlend mode="normal" in="SourceGraphic" in2="effect1_backgroundBlur_8996_73952" result="shape"/>
</filter>
<clipPath id="clip0_8996_73952">
<rect width="40" height="40" rx="20" fill="white"/>
</clipPath>
</defs>
</svg>
