<svg width="147" height="198" viewBox="0 0 147 198" fill="none" xmlns="http://www.w3.org/2000/svg">
<path fill-rule="evenodd" clip-rule="evenodd" d="M33.8132 174.46C35.3623 174.555 36.9113 174.631 38.4602 174.688C58.7154 175.442 78.9543 173.137 99.1971 172.633C106.246 172.447 113.26 172.54 120.291 173.105C120.98 173.16 121.768 172.42 121.683 171.715C120.384 160.523 118.759 149.361 117.917 138.123C117.916 137.528 117.993 136.935 118.198 136.375C118.236 136.331 118.436 135.839 118.614 135.808C118.556 135.851 118.819 135.776 118.652 135.788C119.668 135.622 120.665 134.527 119.928 133.479C112.328 121.853 101.953 111.241 98.6151 97.4315C97.8266 93.698 94.9782 93.4672 91.9437 91.927C90.997 91.365 88.6819 89.8082 88.3051 88.7258C87.4051 84.8248 88.99 81.0032 84.3596 79.4247C81.3029 78.5789 75.9001 77.8632 72.8073 78.7553C69.0346 80.0085 69.317 84.2519 67.1287 87.1713C65.9969 88.8598 64.0675 91.1718 62.2859 91.4305C61.4224 91.5559 60.7864 89.8126 59.9242 89.9326C46.4854 93.1903 28.1759 115.414 22.3999 127.716C21.0983 131.588 25.2961 130.42 25.0382 134.312C24.7203 141.695 24.0249 151.146 24.4373 158.537C24.8236 162.828 24.5377 167.323 25.8738 171.451C25.5142 171.887 26.0309 172.328 26.4525 172.517C26.9837 173.419 32.2105 174.335 33.8132 174.46Z" fill="white"/>
<path fill-rule="evenodd" clip-rule="evenodd" d="M68.8004 82.5218C69.1498 80.9526 71.6511 81.6255 71.2228 83.1882C70.559 85.6049 69.1821 87.8884 67.2387 89.4913C65.7375 90.7286 63.6918 91.8328 61.6626 92.0369C61.8529 92.2217 62.0353 92.4193 62.2268 92.6078C62.659 93.0366 63.1184 93.4344 63.592 93.8167C64.5652 94.602 65.577 95.3085 66.6821 95.9C71.096 98.2637 76.082 98.8088 81.012 98.2585C83.3516 97.9976 85.7261 97.5547 87.9259 96.7008C88.9458 96.3057 89.9368 95.7864 90.8117 95.1304L91.0407 94.9588C91.5006 94.6121 92.1144 94.123 92.4019 93.5882C91.5272 93.7844 90.4208 92.8545 89.8139 92.3134C89.1502 91.7193 88.5911 90.9532 88.1783 90.168C87.3695 88.6272 86.9412 86.6395 87.6194 84.9874C87.6646 84.8776 87.8095 84.8958 87.8224 85.0147C88.023 86.9404 88.5432 88.7461 89.9279 90.172C90.5426 90.8036 91.2787 91.3331 92.0823 91.7011L92.1954 91.7529C92.5378 91.911 92.8982 92.0964 93.0425 92.4347C93.0982 92.4282 93.1538 92.4334 93.2068 92.4477C93.2547 92.4605 93.2987 92.4749 93.3414 92.4904C93.2456 92.3031 93.1953 92.0822 93.2042 91.8212C93.238 90.8099 94.6291 90.779 94.8217 91.6792C94.7868 91.5604 94.7402 91.6754 94.8282 91.7115C94.8268 91.701 94.8244 91.6895 94.8217 91.6792L94.8243 91.6887L94.8296 91.7115L94.8282 91.7115C94.8318 91.7278 94.8346 91.7448 94.8365 91.7619L94.8383 91.7844L94.8372 91.7656C94.836 91.7516 94.8343 91.7391 94.8324 91.7278L94.8295 91.7115C94.8424 91.7179 94.8606 91.7219 94.8813 91.7219L94.8898 91.7252C94.9222 91.7392 95.0366 91.7924 95.0703 91.8058C95.3018 91.8911 95.5606 91.9181 95.7974 91.9917C96.3113 92.1494 96.7642 92.4103 97.0773 92.8545C97.3025 93.1736 97.4279 93.5391 97.4796 93.9187C99.7532 95.0102 101.905 96.4283 103.708 98.1837C107.731 102.1 110.536 107.001 112.838 112.075C114.01 114.658 115.054 117.295 116.075 119.94L116.236 120.358C117.331 123.2 118.299 126.074 118.537 129.13C118.559 129.404 118.469 129.661 118.312 129.874C118.368 130.104 118.396 130.334 118.388 130.558C118.387 130.593 118.385 130.628 118.382 130.663C118.749 130.657 119.109 130.81 119.451 131.242C119.589 131.198 119.739 131.193 119.887 131.24C120.786 131.527 120.931 132.513 121.101 133.338C121.275 134.19 121.352 135.064 121.353 135.933C121.353 136.244 121.174 136.637 120.872 136.77C120.302 137.02 119.689 137.184 119.1 137.412C118.657 137.582 118.214 137.744 117.766 137.895C118.014 138.327 118.095 138.929 118.229 139.385C118.44 140.097 118.61 140.811 118.752 141.54C119.717 146.493 120.386 151.499 121.29 156.463C121.741 158.949 122.267 161.418 122.802 163.888C123.066 165.102 123.347 166.313 123.648 167.52C123.809 168.163 123.976 168.806 124.148 169.445C124.198 169.632 124.249 169.819 124.3 170.005L124.39 170.33C124.587 170.439 124.755 170.603 124.871 170.827C125.297 171.649 125.053 172.575 124.236 173.037C123.348 173.541 122.289 173.066 121.799 172.248C121.455 171.671 121.343 170.906 121.173 170.264C120.982 169.544 120.799 168.819 120.623 168.095C119.428 163.172 118.627 158.163 118.023 153.136L117.981 152.776C117.674 150.188 117.378 147.593 117.186 144.993C117.092 143.716 117.017 142.439 116.97 141.158C116.947 140.5 116.984 139.837 117.022 139.18C117.039 138.892 117.063 138.602 117.072 138.315L117.075 138.274C117.078 138.244 117.081 138.206 117.084 138.166L117.087 138.117C116.194 138.396 115.288 138.628 114.373 138.825C112.427 139.244 110.435 139.478 108.449 139.359C108.726 142.643 109.087 145.918 109.592 149.171C110.078 152.305 110.64 155.432 111.274 158.539C111.591 160.101 111.934 161.659 112.295 163.211C112.489 164.04 112.71 164.864 112.885 165.697C112.988 166.193 113.021 166.608 112.812 167.072C113.042 167.695 113.246 168.322 113.446 168.912L113.506 169.088C113.861 170.121 114.533 171.177 113.831 172.193C113.467 172.717 112.875 173.017 112.278 173.035C112.268 173.041 112.256 173.049 112.244 173.055C111.923 173.227 111.553 173.261 111.201 173.187C110.667 173.292 110.131 173.393 109.594 173.484C108.268 173.713 106.935 173.901 105.6 174.06C103.057 174.363 100.497 174.528 97.9392 174.62C88.5729 174.957 79.1965 174.365 69.8267 174.536C65.0529 174.622 60.2793 174.837 55.5135 175.121C53.1351 175.263 50.7554 175.415 48.3757 175.533L47.6391 175.569C45.511 175.67 43.3813 175.749 41.2547 175.594C41.2133 175.591 41.181 175.574 41.159 175.551C40.4253 175.468 39.6878 174.794 39.7614 174.015C40.0785 170.698 40.3955 167.382 40.7138 164.063C41.2793 158.152 41.85 152.24 42.4271 146.33L42.5105 145.477C42.7044 143.485 42.8896 141.489 42.9835 139.49C42.5099 139.456 42.0377 139.414 41.5653 139.362C36.4468 138.803 31.5399 137.257 26.8284 135.228L26.6376 135.145C26.2131 134.96 25.7486 134.775 25.2724 134.578C25.2803 135.481 25.2504 136.385 25.2465 137.279C25.24 138.763 25.2517 140.247 25.2555 141.729C25.2646 144.785 25.3811 147.842 25.5338 150.893C25.8016 156.282 26.1161 161.662 26.5923 167.038C26.7126 168.39 26.8758 169.74 26.9908 171.092C27.0595 171.889 26.8951 172.553 26.1641 172.972C25.8042 173.178 25.526 173.092 25.1688 172.925C24.2967 172.517 24.2721 171.552 24.1893 170.713C24.126 170.08 24.0676 169.447 24.0107 168.813C23.8892 167.46 23.7842 166.108 23.6988 164.753C23.3612 159.37 23.2628 153.992 23.4957 148.602C23.6038 146.081 23.7599 143.554 23.9672 141.038L24.0159 140.457C24.1867 138.446 24.2967 136.336 24.6499 134.312C23.2252 133.682 21.8135 132.88 21.1587 131.546C20.31 129.816 21.2428 128.336 22.5718 127.317C22.5588 127.145 22.5718 126.974 22.608 126.819C22.9897 125.17 23.629 123.54 24.2462 121.967C24.8686 120.386 25.5558 118.83 26.3115 117.307C29.3446 111.207 33.4881 105.632 38.4273 100.936C40.8808 98.6034 43.5658 96.4476 46.4321 94.6394C47.8529 93.7445 49.31 92.9177 50.8188 92.1817L51.0419 92.0733C52.0922 91.5645 53.2703 91.0236 54.4383 90.7403C54.5598 90.6499 54.6827 90.5646 54.8069 90.4832C55.2663 90.1783 55.89 90.3992 56.1618 90.8344C56.2939 90.7324 56.4465 90.6421 56.6212 90.5606L56.7938 90.4819C57.8419 90.0109 59.1003 89.5705 60.2379 89.8801C60.9445 90.0725 61.5009 90.5917 61.7508 91.253C62.3239 90.9508 62.8868 90.6395 63.4367 90.2585C64.3205 89.6489 65.1215 88.8919 65.841 88.0976C67.2838 86.5 68.332 84.6285 68.8004 82.5218ZM118.865 132.894C118.766 132.922 118.663 132.932 118.555 132.919C118.749 132.942 118.361 133.057 118.254 133.112L118.246 133.116C118.052 133.227 117.857 133.334 117.658 133.437C117.197 133.68 116.724 133.898 116.244 134.104C115.298 134.506 114.321 134.814 113.318 135.04C112.338 135.261 111.309 135.39 110.303 135.411C109.63 135.424 108.832 135.393 108.136 135.195C108.216 136.413 108.305 137.63 108.405 138.845L109.78 138.531C111.155 138.216 112.528 137.893 113.885 137.501C114.904 137.206 115.908 136.861 116.9 136.489C117.42 136.294 117.937 136.088 118.447 135.866C118.7 135.755 118.938 135.624 119.173 135.49L119.374 135.376C119.328 134.832 119.242 134.299 119.118 133.762C119.054 133.478 118.943 133.186 118.865 132.894ZM24.7146 127.158C24.54 127.724 24.2721 128.252 23.6613 128.38C23.4452 128.425 23.2642 128.4 23.114 128.327L23.0779 128.399C22.5757 129.428 22.4283 130.514 23.5837 131.306C24.1053 131.664 24.6732 131.974 25.2607 132.252C26.3113 132.751 27.4301 133.152 28.485 133.56L28.695 133.642C30.5817 134.38 32.4981 135.053 34.4443 135.616C36.4191 136.186 38.4286 136.643 40.4629 136.934C41.3207 137.055 42.1851 137.14 43.051 137.196C43.0651 136.034 43.0586 134.87 43.0547 133.707C42.7467 133.669 42.4413 133.627 42.1464 133.592C41.2483 133.488 40.3528 133.36 39.4625 133.201C37.603 132.869 35.7629 132.411 33.9681 131.824C30.6425 130.735 27.5485 129.179 24.7146 127.158ZM61.1761 91.5513C60.4204 90.7532 58.975 91.0412 58.0628 91.4287C57.7871 91.5462 57.5088 91.665 57.2449 91.8084L57.1937 91.837C56.8863 92.0137 56.8879 92.1187 57.038 92.4709C57.2332 92.9347 57.505 93.3827 57.7638 93.8128C58.8716 95.6586 60.3298 97.2654 61.9952 98.6227C67.8933 103.427 76.3665 105.122 83.7424 103.513C87.2823 102.741 90.6969 101.184 93.3028 98.6295L93.5401 98.3939C94.5909 97.3444 96.0332 95.8254 95.932 94.2702C95.8841 93.5222 95.2721 93.4796 94.6471 93.3351C94.391 93.2756 94.1463 93.1916 93.934 93.0729C94.1049 93.8078 93.1953 94.9003 92.7254 95.359C91.7407 96.3211 90.5554 97.0728 89.3016 97.6347C86.9153 98.7055 84.3197 99.2118 81.7354 99.532C78.8031 99.8963 75.8075 99.864 72.8973 99.3254C70.3649 98.8566 67.8687 97.9693 65.6896 96.5873C64.6906 95.9543 63.7059 95.2323 62.8725 94.3916L62.6954 94.2129C62.0938 93.6045 61.3937 92.869 61.0337 92.0706C60.8966 92.0719 60.7607 92.0679 60.6248 92.0588C60.5291 92.0538 60.4774 91.9181 60.5731 91.8677C60.6805 91.8109 60.7879 91.7542 60.8953 91.6986C60.8773 91.6391 60.8616 91.5811 60.8487 91.5217C60.8383 91.4713 60.8914 91.4248 60.938 91.4532C61.0027 91.4918 61.0648 91.5333 61.1256 91.5771C61.1424 91.5695 61.1593 91.5604 61.1761 91.5513Z" fill="black"/>
<path fill-rule="evenodd" clip-rule="evenodd" d="M67.4807 31.4972C87.094 30.5344 100.402 45.9731 100.974 52.1295C101.372 56.4031 101.102 62.1025 101.102 65.9213C101.102 67.8705 102.087 73.7955 100.974 76.6365C98.4967 82.9599 95.6975 87.913 87.9416 87.913C80.1856 87.913 68.362 83.9007 64.302 78.7257C63.5607 77.7808 54.3493 70.8644 54.3493 65.4278C54.3493 53.8286 53.4857 32.1841 67.4807 31.4972Z" fill="white"/>
<path fill-rule="evenodd" clip-rule="evenodd" d="M54.1007 18.9697C55.2185 18.621 55.9319 19.123 56.4408 19.9008C56.553 19.879 56.6616 19.8804 56.7824 19.9094C56.8123 19.9167 56.8846 19.9439 56.9394 19.9654C56.9817 19.9831 57.0199 20.0045 57.0566 20.0272L57.0785 20.0157C57.1623 19.9244 57.2505 19.8411 57.3456 19.774C57.5593 19.6231 57.7796 19.5792 57.9886 19.6102L58.0854 19.5747C58.9127 19.2869 59.8098 19.4205 60.3707 20.1319C60.4793 20.2693 60.567 20.4223 60.6419 20.5838C60.8102 20.6388 60.968 20.7184 61.104 20.8163C61.1995 20.7715 61.3005 20.7337 61.4085 20.706C62.0189 20.5497 62.6602 20.6972 63.1576 21.0707C63.3999 21.2524 63.5781 21.48 63.7132 21.7399C63.867 21.7759 64.0191 21.8408 64.1615 21.9278C64.2839 21.867 64.4083 21.8099 64.5358 21.7708C65.0017 21.6279 65.5016 21.5753 65.9866 21.6114C67.0317 21.6887 68.0424 22.8802 67.344 23.9033L67.3223 23.9343C67.2336 24.0576 67.1565 24.1851 67.0851 24.3147C67.3352 24.4233 67.5762 24.5686 67.7987 24.7507C68.8874 25.6413 68.9854 27.0142 68.7818 28.3093L68.7731 28.3633H68.7757C69.3542 28.4181 69.8536 29.0211 69.5118 29.5882L69.4952 29.6148C69.0326 30.3281 68.6361 31.1161 68.1942 31.8668C66.9712 32.3069 65.792 32.8488 64.6816 33.5054C63.9899 34.1102 63.3314 34.7495 62.7521 35.4608C62.4629 35.816 62.1972 36.1919 61.953 36.5817C62.1483 36.6754 62.3898 36.6706 62.5937 36.482C64.4078 34.8041 66.5995 33.6266 68.9331 32.8374C69.1012 32.7805 69.2114 32.6733 69.2733 32.5464C70.3093 32.2518 71.3635 32.0234 72.4282 31.8616C72.7217 31.5825 73.0291 31.3157 73.3213 31.0377C73.6944 30.6831 74.1617 30.6882 74.5108 30.911C74.6842 30.8321 74.8615 30.7625 75.0416 30.6999L75.1533 30.6619C75.1999 30.6467 75.2444 30.629 75.2902 30.615C76.5396 30.2338 77.682 30.3753 78.9109 30.6886L79.0683 30.7294C79.6412 30.8811 80.0017 30.8569 80.5565 30.7173L80.6189 30.7013C81.2084 30.5478 81.8388 30.4342 82.4413 30.5958C83.0717 30.7649 83.4899 31.141 83.9193 31.5953L83.9623 31.641C84.1626 31.855 84.2784 31.8783 84.5407 31.8731L84.8216 31.8648C85.882 31.8358 86.9203 31.8804 87.7145 32.699C88.0081 33.0017 88.3231 33.4301 88.5122 33.8211L88.5396 33.8795C88.5484 33.8985 88.5562 33.9144 88.5634 33.9286C88.6773 33.9102 88.8546 33.8383 88.9389 33.8219C90.0945 33.5982 91.0587 33.9429 91.8008 34.8518C91.963 35.0507 92.2083 35.4413 92.3782 35.6559C92.4377 35.7063 92.4938 35.7603 92.547 35.817C92.8256 35.9946 93.2204 35.9834 93.5328 36.0456C94.3841 36.2148 95.2941 36.538 95.7269 37.3466C95.9078 37.6841 95.9747 38.0534 96.0511 38.4223C96.3373 38.6099 96.5616 38.8804 96.7357 39.1732C96.9474 39.5286 97.0375 39.964 97.2813 40.2997C97.4583 40.5436 97.7289 40.6737 97.9863 40.8228L98.0845 40.8804C98.8473 41.3337 99.4445 41.8368 99.6956 42.725L99.7174 42.8041C99.7581 42.9401 99.9011 43.3284 99.7765 43.2701C99.8838 43.3291 100.066 43.3499 100.164 43.3822C100.693 43.557 101.153 43.8393 101.435 44.3351C101.649 44.7125 101.688 45.1059 101.75 45.5219L101.776 45.6899C101.782 45.7305 101.79 45.7777 101.799 45.8235L101.807 45.8685L101.809 45.8695C101.904 45.9109 101.999 45.9557 102.091 46.004C102.53 46.2617 102.829 46.7089 102.829 47.2267C102.829 47.4781 102.751 47.6739 102.636 47.8486C102.729 47.9886 102.801 48.1378 102.855 48.304C102.961 48.6286 102.968 48.9835 102.933 49.3194C102.89 49.7223 102.786 50.0893 102.664 50.4742C102.617 50.6227 102.598 50.8303 102.527 50.9721C102.658 51.1383 102.736 51.3415 102.712 51.5419C102.677 51.8286 102.546 52.1638 102.286 52.3246C102.159 52.951 101.885 53.5911 101.615 54.1033C101.584 54.1627 101.547 54.2156 101.505 54.2595C101.543 56.3041 101.393 58.363 101.382 60.4049C101.371 62.6277 101.417 64.852 101.495 67.0721C101.626 70.7518 102.093 74.5568 101.004 78.145C100.114 81.0819 98.3309 83.6031 95.9397 85.5146C93.4914 87.4701 90.5399 88.6016 87.4056 88.7786C85.8114 88.8676 84.19 88.6867 82.6476 88.2747L82.4828 88.2301C80.9904 87.8209 79.2619 87.1957 78.1638 86.101C77.5841 85.5224 78.1703 84.2968 79.0204 84.6337C79.8628 84.9684 80.6187 85.4629 81.4545 85.8117C82.2011 86.1229 82.9802 86.3619 83.7695 86.5375C85.352 86.8927 87.0304 86.9704 88.6388 86.7494C94.4464 85.9563 98.9715 81.1427 99.8644 75.4351C100.112 73.8544 100.107 72.2479 100.09 70.6507L100.072 68.9007C100.058 67.4366 100.053 65.9718 100.106 64.5084C100.175 62.6253 100.308 60.7433 100.487 58.868L100.58 57.8923C100.69 56.7505 100.815 55.6001 101.029 54.4739C100.853 54.4831 99.4679 52.1174 98.699 50.7955C98.4184 50.5734 98.1814 50.2973 98.0899 49.9402C98.0709 49.8657 98.0611 49.7905 98.0551 49.7152C97.8882 49.4534 97.7121 49.1983 97.5263 48.9509L97.4857 48.9328C97.4545 48.9186 97.4302 48.9067 97.416 48.8987C97.0105 48.6692 96.6718 48.3215 96.4401 47.9185C96.3619 47.7826 96.2979 47.6408 96.2458 47.4958C95.9152 47.172 95.5693 46.863 95.206 46.5733C95.1702 46.5449 95.1334 46.5183 95.0974 46.4903C94.6348 46.318 94.2287 46.0584 93.9327 45.6845C93.8089 45.608 93.6843 45.5331 93.5587 45.4597C93.1816 45.4562 92.8006 45.3685 92.43 45.2165C91.752 44.9386 91.2104 44.3892 90.5293 44.1347C89.8089 43.8656 89.05 44.4771 88.2845 44.3668C88.0891 44.3386 87.8954 44.2793 87.7153 44.1933C87.2843 44.649 86.8268 45.0786 86.3226 45.4545C85.5905 46.0004 84.8421 46.2498 83.9936 46.4963C83.5732 46.8945 83.1024 47.2806 82.5347 47.3373C81.2209 48.3855 79.8157 49.2698 78.3372 50.0907C78.0994 50.2227 77.8629 50.2822 77.6386 50.2838C77.1748 50.5744 76.6686 50.798 76.1337 50.9527C75.9662 51.0011 75.7934 51.0113 75.6235 50.9905L75.1595 51.3678C74.8365 51.6303 74.492 51.7557 74.1624 51.7638C73.9619 51.9171 73.7541 52.0622 73.5402 52.2017C73.311 52.3514 73.0138 52.4134 72.7151 52.3953C72.259 52.8406 71.6675 52.8874 71.1721 52.6823C71.104 52.722 71.034 52.7598 70.9554 52.7968C70.8485 52.8473 70.7369 52.8899 70.6232 52.9244C70.1066 53.4801 69.3505 53.7715 68.5929 53.6952C68.0271 54.0411 67.3686 54.2211 66.7248 54.1806C66.6266 54.673 66.5454 55.1671 66.4767 55.663L66.4696 56.0262C66.4689 56.0851 66.4687 56.1309 66.4695 56.1612L66.4699 56.1732C66.5329 57.7656 66.5674 59.3587 66.6296 60.9514L66.6353 61.0771C66.7062 62.4685 67.0492 65.0054 65.0001 64.9501C64.2365 64.9295 63.4789 64.3683 62.8843 63.9069L62.8005 63.8417C62.7549 63.8063 62.7082 63.77 62.6613 63.7331C62.2169 63.6755 61.7787 63.5676 61.33 63.5512C60.7761 63.5318 60.1938 63.5887 59.6542 63.7139C58.7018 63.9348 57.7805 64.3676 57.1594 65.1515C57.105 65.2199 57.0545 65.2923 57.0067 65.3646C56.9627 65.5131 56.8876 65.65 56.788 65.7689C56.2005 67.0876 56.5397 68.83 57.1891 70.0363C57.963 71.4731 59.1875 72.4664 60.7273 72.9668L60.8046 72.9914C61.8566 73.3195 62.2591 73.9549 62.831 74.8384C63.3667 75.6676 63.9814 76.4399 64.6413 77.1736C65.9185 78.593 67.7109 79.7646 68.4535 81.5611C68.6036 81.9228 68.174 82.2637 67.8414 82.1708C66.5384 81.8053 65.6248 80.8792 64.6776 79.9583C64.022 79.3206 63.3916 78.6572 62.8001 77.9604C62.676 78.0176 62.5395 78.0561 62.3973 78.0734C61.7697 78.1499 61.1224 78.1181 60.573 77.7805C60.3197 77.8035 60.0559 77.7158 59.86 77.5366C59.6802 77.3718 59.5252 77.1936 59.3943 77.0038C59.1952 77.0213 58.9998 77.0266 58.8134 76.9957C58.7234 76.9873 58.6363 76.9637 58.5565 76.9249C58.4082 76.8664 58.2676 76.7763 58.1384 76.6379C57.8768 76.3577 57.7765 75.9617 57.8247 75.5853C57.773 75.5744 57.7216 75.5611 57.6709 75.544C57.3225 75.4263 57.0544 75.1927 56.8831 74.8747C56.5765 74.703 56.3005 74.4703 56.0915 74.2231C55.837 73.9222 55.645 73.5832 55.5321 73.2088C55.4155 73.1547 55.3023 73.092 55.1939 73.0187C54.4168 72.4939 53.9719 71.5087 54.2771 70.5977L54.2874 70.5691C54.3029 70.5281 54.331 70.4582 54.3653 70.3793C54.3604 70.3151 54.3552 70.2509 54.3517 70.1866L54.341 69.9926L54.1853 69.9266C53.4089 69.6184 52.8841 69.2024 52.7908 68.3305C52.7714 68.1502 52.8415 67.9662 52.9521 67.8125L52.9516 67.7642C52.9011 67.7381 52.8531 67.7114 52.8108 67.6845C52.3876 67.4147 52.1275 66.9312 52.1566 66.4311C52.1833 65.9752 52.4363 65.6118 52.7208 65.2757L52.802 65.1815C52.8088 65.1738 52.8163 65.1653 52.8244 65.1561L52.6364 65.0971C52.5144 65.0583 52.4026 65.0197 52.3222 64.9748C52.0111 64.8008 51.7474 64.5656 51.5847 64.2667C51.5611 64.2297 51.537 64.1933 51.5153 64.1537C51.3052 63.7713 51.2778 63.2813 51.4133 62.8707C51.4293 62.8222 51.45 62.7766 51.4713 62.7313C50.8993 62.5301 50.459 62.1142 50.4059 61.3478C50.3851 61.0463 50.4512 60.746 50.595 60.4889C50.5631 60.3157 50.5565 60.1361 50.5771 59.9585C50.3759 59.7688 50.2196 59.5402 50.1497 59.2613C50.0176 58.7345 50.2594 58.2332 50.6189 57.7736C50.4859 57.4101 50.479 57 50.6309 56.6341C50.5724 56.4515 50.5392 56.2584 50.5374 56.0601C50.5334 55.6211 50.6688 55.2545 50.8877 54.9425C50.5801 54.5672 50.434 54.0684 50.6157 53.601C50.7449 53.2688 50.8927 52.9649 51.063 52.6833C50.9736 52.4691 50.9216 52.2293 50.9216 51.9608C50.9216 51.4777 51.103 51.095 51.3806 50.7818C51.2601 50.2098 51.505 49.5131 52.0389 49.2612C52.2402 49.1662 52.5096 49.067 52.8064 48.9897C52.9178 48.6423 53.0342 48.2963 53.157 47.9527C53.3504 47.4119 53.5585 46.8787 53.779 46.3516C53.6521 46.4625 53.5189 46.566 53.3812 46.6597C52.9458 47.2123 52.3685 47.6909 51.8834 47.9773C50.9217 48.5451 49.8218 48.2082 49.347 47.2582C48.9008 47.5907 48.3654 47.7875 47.7941 47.7202C47.1463 47.6439 46.554 47.2252 46.3923 46.572C46.3688 46.4775 46.3547 46.3753 46.3533 46.2725C45.9818 46.5365 45.5931 46.7795 45.1667 46.9186C44.6236 47.0958 44.0692 46.6707 43.9976 46.1412C43.9692 45.9313 44.0086 45.7458 44.0923 45.5891L44.0392 45.5683C44.0304 45.5646 44.0217 45.5608 44.013 45.5567C43.7281 45.4236 43.507 45.1794 43.4019 44.8979C42.7852 45.136 42.0792 44.8569 41.8835 44.18C41.6506 43.3754 41.6365 42.5604 41.8188 41.7765C41.1653 41.3025 40.7396 40.5056 40.6672 39.6725C40.6142 39.0745 40.7572 38.5225 41.0092 38.012C40.3911 37.7814 40.1787 36.9728 40.4724 36.3903C40.0823 36.1674 39.8279 35.6948 39.8222 35.2348C39.6479 34.9713 39.5921 34.632 39.7366 34.2517C39.9272 33.7507 40.3154 33.3316 40.7599 33.0029C40.5661 32.666 40.4221 32.2987 40.3326 31.9191C39.9644 31.8115 39.6671 31.5142 39.6066 31.0677C39.5307 30.5079 39.8999 30.0334 40.3968 29.9081C40.452 29.7376 40.5192 29.5709 40.6024 29.4107C40.3566 28.8295 40.3928 28.0946 40.7099 27.4592C40.9907 26.8973 41.4474 26.5537 41.9974 26.3161C41.8576 25.8382 42.0427 25.3616 42.5085 25.0064C43.0773 24.5723 43.701 24.2405 44.3564 24.0061C44.2982 23.2282 44.624 22.4315 45.3941 22.1603C45.5999 22.0878 45.8142 22.0611 46.032 22.062C46.1901 21.7188 46.454 21.4398 46.7983 21.1929C47.3194 20.8194 48.2932 21.0476 48.5821 21.6333L48.5962 21.6634C48.611 21.6966 48.6269 21.727 48.642 21.7591C48.7003 21.4747 48.8364 21.2061 49.0552 20.9859C49.6022 20.4353 50.1797 20.4249 50.7355 20.6604C50.8375 20.408 50.9609 20.168 51.111 19.9486C51.6559 19.1524 52.5562 19.0511 53.2153 19.4822C53.4796 19.2504 53.7745 19.0716 54.1007 18.9697ZM57.9967 66.8448C59.0939 66.416 60.4254 66.5427 61.5098 66.9545L61.5893 66.9854C62.5471 67.3634 64.1031 68.2041 64.2906 69.2794C64.3877 69.8362 63.8573 70.3178 63.3188 70.0248C62.8504 69.7702 62.5877 69.2574 62.215 68.8855C61.8464 68.5175 61.4335 68.2217 60.9833 67.962C60.0438 67.4208 59.0563 67.2103 57.9967 67.0541C57.8776 67.0373 57.91 66.8783 57.9967 66.8448Z" fill="black"/>
<path fill-rule="evenodd" clip-rule="evenodd" d="M92.2288 74.7583C92.3186 74.734 92.3977 74.8544 92.3233 74.9203C92.0187 75.1901 91.8252 75.6928 91.6029 76.0354C91.3915 76.3614 91.1877 76.684 91.0017 77.0253C90.7933 77.4077 90.5919 77.7887 90.4296 78.1934L90.3975 78.275C90.4461 78.3904 90.4841 78.5044 90.5121 78.5791L90.5202 78.6002C90.7974 79.3067 90.2156 80.0919 89.5594 80.2894C88.437 80.6271 87.474 79.7071 87.4472 78.613C87.4261 77.7523 88.0106 76.9854 88.6046 76.4164C89.1241 75.9188 89.7059 75.4951 90.3567 75.1848C90.6438 75.048 90.9421 74.9336 91.2538 74.8672C91.5726 74.7994 91.9166 74.8425 92.2288 74.7583ZM90.1134 77.8775C90.1957 77.9162 90.2659 78.0109 90.3251 78.1215C90.2956 78.0277 90.2346 77.9344 90.1134 77.8775ZM90.8157 65.9183C91.7928 66.5111 93.2817 67.8935 92.2305 69.3632C90.9931 70.6591 89.2116 69.1733 88.3337 68.5013C87.5197 67.9805 86.6051 69.32 87.3603 69.9281C93.7041 74.6159 96.2785 66.0733 91.3099 65.2212C90.7628 65.1273 90.5596 65.7349 90.8157 65.9183ZM82.7833 60.2256L82.9559 60.2112C83.7048 60.1453 84.4631 60.0449 85.2015 60.214C86.1937 60.4413 86.1209 61.882 85.2015 62.1469C84.3912 62.3802 83.4933 62.2792 82.6569 62.2873C82.5253 62.2885 82.3939 62.2919 82.2625 62.2941C82.2366 62.6063 82.134 62.8754 81.9769 63.1444C81.8643 63.3373 81.7206 63.5206 81.5793 63.692C81.2434 64.0993 80.4511 64.0902 80.1121 63.692C79.8613 63.3972 79.6616 63.0582 79.6584 62.6592C79.6576 62.5571 79.67 62.4486 79.6945 62.3419L79.2379 62.3499C78.1206 62.3669 76.9946 62.3593 75.8975 62.1821C75.5072 62.2627 75.1878 61.5598 75.7265 61.3494C77.191 60.7778 78.827 60.6095 80.381 60.4378C81.1795 60.3495 81.9824 60.2887 82.7833 60.2256ZM95.2591 59.6349L95.2989 59.6309C96.268 59.5319 97.3362 59.3603 98.3072 59.459C99.7571 59.6061 99.7546 61.5624 98.3072 61.7087C97.7759 61.7624 97.2161 61.7363 96.6579 61.6849C96.9432 62.2891 96.6047 63.0107 95.9172 63.103C95.2783 63.1886 94.6161 62.5689 94.8257 61.9043L94.8355 61.8749C94.8764 61.7596 94.9132 61.6307 94.9568 61.5035L94.7256 61.484C94.0345 61.423 93.0753 61.2985 92.8209 60.7538C92.7441 60.5897 92.7619 60.4373 92.88 60.297C93.3645 59.7214 94.5587 59.7025 95.2591 59.6349ZM84.9541 55.1559C85.6555 54.9016 86.3844 55.4968 86.4753 56.1675C86.5801 56.9404 86.0216 57.4493 85.3136 57.5416L85.2781 57.5459C83.7155 57.7177 82.1646 58.0318 80.5999 58.2094C79.8892 58.2899 79.1732 58.3429 78.4578 58.362L77.9466 58.3734C77.32 58.3893 76.6481 58.4035 76.0697 58.1882L76.0719 58.1843C75.9183 58.1399 75.8476 57.9188 76.0185 57.7979C76.6344 57.3632 77.4645 57.199 78.1814 56.9924C78.9021 56.7846 79.6282 56.5931 80.3562 56.4132C81.885 56.0358 83.473 55.693 84.9541 55.1559ZM91.4224 55.3366C91.6083 54.3587 92.9961 54.2539 93.5058 54.9654C93.8352 55.0783 94.3183 55.1961 94.6176 55.2847C95.1391 55.439 95.661 55.5925 96.184 55.7411C97.2671 56.049 98.3241 56.4394 99.3889 56.8032C99.4986 56.8408 99.4685 56.9798 99.363 56.9936C97.8768 57.1866 96.4155 57.2765 94.9203 57.2146L94.6137 57.2008C93.2961 57.1496 91.0594 57.2473 91.4224 55.3366Z" fill="black"/>
</svg>
