<svg width="147" height="198" viewBox="0 0 147 198" fill="none" xmlns="http://www.w3.org/2000/svg">
<path fill-rule="evenodd" clip-rule="evenodd" d="M26.7054 166.984C26.5297 166.989 26.5851 166.938 26.6497 166.926C26.6683 166.945 26.6869 166.964 26.7054 166.984ZM31.8938 170.842C36.8034 171.424 41.719 170.891 46.6045 170.357C56.5019 169.623 66.3297 171.762 76.2466 171.11C88.64 170.587 101.067 169.606 113.419 171.259C116.836 171.338 122.285 172.26 121.046 166.969C119.419 153.367 117.243 139.832 114.912 126.334C112.936 118.767 112.793 105.678 107.384 100.416C106.593 99.6934 103.756 97.3566 103.006 97.0429C99.2779 95.6542 92.5563 94.5705 89.7832 91.6268C87.537 87.8246 88.5819 82.6362 85.0891 79.5751C82.028 77.0749 75.3466 77.6034 72.0739 79.4808C69.4917 81.1558 69.0872 84.409 67.4783 86.8148C67.0814 87.3913 66.1387 88.7809 65.6063 89.2292C64.3105 90.4772 59.7593 91.7884 58.445 92.0293C51.0281 93.5497 47.3299 94.4892 41.4964 99.4197C26.2542 114.986 28.4148 142.519 24.1973 162.875C24.0246 165.113 22.6648 168.15 25.0909 169.591C27.1806 170.592 29.6375 170.483 31.8938 170.842Z" fill="white"/>
<path fill-rule="evenodd" clip-rule="evenodd" d="M88.0832 86.4519C88.1014 86.3989 88.1864 86.3899 88.1993 86.4519C88.4073 87.4036 88.7971 88.4474 89.1922 89.3399C89.5937 90.244 90.1424 91.0745 90.8357 91.7797C92.2882 93.2572 94.1564 93.9314 96.2053 93.9327L96.2544 93.934C96.2639 93.8651 96.2745 93.7963 96.2843 93.7274L96.2983 93.624C96.4855 92.2085 98.1652 92.2498 98.4931 93.3179C98.6597 93.3709 98.8262 93.4239 98.9915 93.4794L99.0245 93.4913C99.3027 93.5972 100.245 94.0667 100.418 93.9418C100.799 93.6678 101.234 93.9818 101.379 94.3318C101.615 94.9049 101.655 95.6132 101.731 96.235L101.741 96.3156L101.753 96.4124C107.143 97.8139 110.168 103.209 111.712 108.179C112.549 110.873 113.097 113.653 113.647 116.417C114.235 119.373 114.778 122.337 115.352 125.295C116.484 131.124 117.556 136.966 118.487 142.83L118.757 144.532C119.609 149.924 120.44 155.313 121.139 160.73C121.516 163.65 121.869 166.573 122.21 169.498C122.271 170.02 122.332 170.542 122.392 171.064L122.482 171.848C122.561 172.55 122.697 173.245 122.35 173.902C121.597 175.328 119.317 175.318 119.188 173.492C119.162 173.129 119.285 172.851 119.487 172.657L119.485 172.627C119.483 172.608 119.481 172.595 119.48 172.589C119.412 172.226 119.394 171.842 119.353 171.475C119.263 170.693 119.175 169.91 119.086 169.126C118.914 167.633 118.741 166.14 118.562 164.648C118.199 161.622 117.815 158.6 117.409 155.58L117.006 152.594C115.658 142.642 114.253 132.691 112.405 122.818C111.901 120.13 111.383 117.446 110.853 114.763C110.349 112.223 109.784 109.694 108.939 107.241C107.56 103.235 105.15 99.4827 101.803 96.853C101.855 97.3554 101.893 97.8604 101.94 98.3629C102.063 99.6532 102.193 100.942 102.325 102.231C102.804 106.902 103.453 111.564 104.561 116.131C105.11 118.394 105.779 120.627 106.593 122.809C106.995 123.883 107.433 124.944 107.913 125.985C108.388 127.014 109.221 128.115 109.271 129.261C109.294 129.792 108.739 130.264 108.225 130.207C108.465 132.32 108.601 134.455 108.744 136.563C108.953 139.616 109.12 142.675 109.364 145.725C109.8 151.19 110.348 156.647 110.921 162.099C111.035 163.18 111.158 164.259 111.28 165.339L111.383 166.246C111.452 166.834 111.556 167.538 111.244 168.059C111.523 168.732 111.714 169.423 111.825 170.144C111.966 171.04 111.453 172.045 110.407 172.006C110.288 172.002 110.17 171.992 110.051 171.979C109.081 172.204 108.114 172.402 107.107 172.408C105.821 172.417 104.533 172.391 103.247 172.382C100.759 172.366 98.2711 172.349 95.7832 172.328C86.7766 172.256 77.7661 172.26 68.7609 172.115L65.1578 172.058C61.8547 172.005 58.5512 171.943 55.2497 171.823C52.9761 171.74 50.7026 171.656 48.4302 171.565L47.9676 171.547C45.9626 171.474 43.9552 171.436 41.9722 171.129C41.9225 171.121 41.901 171.069 41.9087 171.024L41.9116 171.012L41.8251 170.993C41.7747 171.21 40.7289 170.298 40.7367 169.692C40.3029 169.128 40.5056 168.226 40.552 167.572C40.5972 166.936 40.654 166.298 40.7044 165.661C40.8116 164.301 40.9032 162.94 41.013 161.579C41.4558 156.095 41.838 150.597 42.0858 145.101C42.2111 142.331 42.3118 139.559 42.4177 136.789C42.4653 135.527 42.5317 134.265 42.6554 133.009L42.6875 132.696C42.8231 131.422 42.8101 130.053 43.2788 128.853C43.2853 128.837 43.3072 128.837 43.3137 128.853C43.7875 130.021 43.8327 131.378 43.9282 132.66C43.945 132.654 43.9618 132.652 43.9799 132.648C44.6344 132.337 45.2955 132.056 45.9152 131.672C45.9991 131.62 46.0805 131.566 46.1631 131.513C47.1378 128.529 48.2675 125.595 49.3069 122.63C52.665 113.046 54.519 102.838 54.9295 92.6889C52.368 94.3409 49.5783 95.6261 46.8664 97.0062L46.6124 97.1359C43.9411 98.5024 41.3835 100.054 39.4817 102.424C37.824 104.488 36.7408 107.002 35.7273 109.427C34.6389 112.032 33.6577 114.683 32.7604 117.359C30.94 122.789 29.5301 128.352 28.4301 133.972C27.3443 139.518 26.5684 145.105 26.0493 150.731C25.7847 153.601 25.5432 156.474 25.3405 159.35C25.2373 160.806 25.1456 162.263 25.0604 163.721C25.0191 164.429 24.9881 165.138 24.9416 165.846C24.9132 166.254 24.908 166.675 24.7738 167.062C24.6614 167.385 24.4626 167.655 24.2767 167.941C23.9371 168.461 23.0799 168.555 22.761 167.941L22.6229 167.674C22.4401 167.32 22.2732 166.963 22.2484 166.553C22.2252 166.166 22.2729 165.762 22.2949 165.373C22.3375 164.586 22.3866 163.798 22.4356 163.012C22.5389 161.357 22.6538 159.703 22.7829 158.05C23.0398 154.738 23.3704 151.435 23.7861 148.139C25.2489 136.563 27.3611 125.047 31.3918 114.061C32.3885 111.345 33.5002 108.65 34.7551 106.043C35.9687 103.521 37.5038 101.141 39.7322 99.4052C41.7835 97.8069 44.1679 96.7372 46.5371 95.6988L46.8332 95.5692C49.4889 94.408 52.1395 93.1578 54.9127 92.295C54.8508 92.3028 54.7901 92.3105 54.7373 92.3286C54.6765 92.348 54.6404 92.2692 54.6779 92.2266C54.8353 92.0522 54.9011 91.8727 55.082 91.7009C55.2069 91.5821 55.3368 91.4698 55.4704 91.3616L55.6627 91.2085C56.0145 90.9291 56.3845 90.6436 56.8274 90.5462C57.4537 90.4093 57.761 90.9789 57.5853 91.4245C57.6756 91.3069 57.9184 91.3418 57.9816 91.5033C60.0422 96.8194 61.3952 102.447 64.1685 107.47C66.2161 111.181 68.9636 114.607 72.6096 116.848C74.5681 118.052 76.8096 118.977 79.1243 119.123C81.203 119.253 83.2029 118.725 84.9705 117.633C88.397 115.519 90.6345 111.807 92.2301 108.21C93.9847 104.25 95.237 100.03 95.9729 95.7526C93.6413 95.7849 91.1805 94.7206 89.6299 92.986C88.8139 92.0729 88.2058 90.9608 87.8972 89.7751C87.5861 88.5791 87.6855 87.5962 88.0832 86.4519ZM68.5218 83.3456C68.806 82.838 69.436 82.6701 69.9512 82.8768C70.523 83.1067 70.6949 83.6621 70.6135 84.2265C70.5191 84.8878 70.0944 85.6022 69.764 86.1794C69.418 86.7838 68.9725 87.3406 68.5115 87.861C67.644 88.8426 66.7156 89.7274 65.6144 90.4508C64.5183 91.1701 63.2788 91.7086 62.0046 92.0096L61.7017 92.0803C60.7105 92.307 59.3003 92.5668 58.4746 92.0278C58.4347 92.0018 58.4359 91.9489 58.4746 91.923C58.9214 91.6118 59.5193 91.5562 60.033 91.4091C60.5933 91.2477 61.1551 91.0643 61.6907 90.8342C62.7482 90.3796 63.7605 89.7803 64.6615 89.0648C65.5667 88.3468 66.4419 87.4905 67.0475 86.5023C67.3522 86.0064 67.6117 85.4858 67.8608 84.9615C68.1127 84.4357 68.2391 83.8519 68.5218 83.3456Z" fill="black"/>
<path fill-rule="evenodd" clip-rule="evenodd" d="M108.606 87.9518C107.133 81.0341 106.188 74.0272 105.343 67.0113C104.933 63.6132 104.607 60.2061 104.228 56.8053C103.875 53.637 103.463 50.4584 102.636 47.3741C101.868 44.508 100.745 41.6704 99.0897 39.1959C97.538 36.8761 95.587 34.8883 93.3471 33.2286C88.9212 29.9493 83.2611 28.2044 77.756 28.783C76.9244 28.8708 76.1007 29.0116 75.2861 29.2002C75.5456 29.124 75.8078 29.0528 76.0723 28.9909C76.1575 28.9704 76.1197 28.8556 76.0362 28.8632C53.6393 30.8989 48.3709 69.8644 47.8919 77.7211C47.8545 78.3322 47.8249 78.9417 47.803 79.5526C47.635 80.9154 47.5098 82.2819 47.4504 83.6521C47.3834 85.233 47.4157 86.8244 47.5614 88.4C47.7112 90.0156 47.8816 91.6716 48.5557 93.1569C48.9687 94.0713 68.2316 92.8186 68.4304 91.7387C68.8332 89.5585 69.0398 87.3087 68.9134 85.0911C68.854 84.028 68.7442 82.9727 68.5169 81.9317C68.455 81.6476 68.3891 81.1141 68.2227 80.6918C69.9797 77.3519 71.9125 74.1073 73.902 70.9003C78.0426 64.2228 82.4451 57.6693 85.829 50.5577C87.5256 46.9943 89.1974 43.2101 89.9979 39.3055L90.127 39.3314C90.1115 39.3779 90.1219 39.436 90.1683 39.4683C93.8466 42.0114 96.305 45.8655 97.8982 49.9922C99.7533 54.7968 100.653 59.9851 100.524 65.1334C100.319 73.3143 97.2191 83.4248 88.4486 86.0105C86.4474 86.6008 84.2863 86.7674 82.2359 86.336C81.2689 86.1319 80.3213 85.818 79.4485 85.3531C78.4802 84.8378 77.6849 84.108 76.7774 83.5076C75.9471 82.9587 74.9672 84.0292 75.4449 84.8417C76.4997 86.637 78.7694 87.7348 80.7189 88.2747C82.7989 88.852 84.9925 88.8793 87.1111 88.5125C87.2724 88.4852 87.4325 88.4542 87.5913 88.4206C87.6275 88.9528 87.856 89.4824 88.2278 89.9125C88.3944 90.1063 88.5997 90.2739 88.8295 90.4148C88.8593 90.9342 89.1937 91.4559 89.7372 91.5696C92.6408 92.174 104.699 90.5892 107.599 89.725C108.378 89.4928 108.772 88.7295 108.606 87.9518Z" fill="black"/>
<path fill-rule="evenodd" clip-rule="evenodd" d="M101.033 63.0057C100.816 52.8563 98.288 41.6202 89.6229 35.3483C89.071 34.9483 88.2427 35.142 87.7852 35.5989C87.4096 35.6722 87.0647 35.8998 86.8352 36.3183C81.7113 45.6739 76.3173 54.8816 70.6557 63.9217C67.0205 69.7669 62.6048 75.6194 62.0223 82.7044C61.9214 82.8383 60.9855 83.8954 61.5309 83.8184C61.7729 83.6917 62.0194 83.5876 62.2787 83.5106C62.9709 84.5202 64.5785 84.3615 64.9606 83.2219C66.2855 83.26 67.5967 83.5987 68.859 83.9916C71.9552 84.9611 75.1019 85.9194 78.2617 86.6604C88.6712 89.4241 99.8563 85.9078 100.688 73.7672C101.805 72.1923 101.201 65.1735 101.033 63.0057Z" fill="white"/>
<path fill-rule="evenodd" clip-rule="evenodd" d="M94.238 73.8452C93.1552 73.27 91.8848 73.3673 90.7975 73.8811C89.4685 74.5092 88.441 75.5406 87.5307 76.6747C87.1813 77.1101 86.8543 77.5641 86.5277 78.0177C86.3933 78.2044 86.2589 78.391 86.123 78.5762C86.0965 78.6109 86.0675 78.6483 86.0367 78.6879C85.8191 78.9676 85.5221 79.3544 85.4084 79.7054C85.3628 79.8464 85.3458 79.9824 85.3663 80.1063C85.3762 80.1663 85.3946 80.2238 85.4227 80.2781C85.2493 80.323 85.1334 80.2802 85.0533 80.194C84.9265 80.0575 84.8821 79.8525 84.8803 79.6172C84.8738 78.7743 85.4294 77.5456 85.6562 77.0392C85.6796 76.9871 85.6996 76.9424 85.7154 76.9062C86.5358 75.0283 87.8483 73.199 89.6727 72.1868C91.4405 71.2062 93.5327 71.0208 95.3616 71.9479C97.3821 72.9722 97.9333 75.0005 98.1622 77.085C98.1973 77.4043 98.0529 77.6988 97.8308 77.921C97.5801 78.1718 97.2278 78.3342 96.8987 78.3342C96.5568 78.3342 96.2439 78.1894 96.015 77.9604C95.7842 77.7296 95.6384 77.4127 95.6358 77.0694L95.6336 76.8695C95.6231 76.1735 95.5743 75.52 95.3217 74.9658C95.1187 74.5203 94.7864 74.1366 94.238 73.8452ZM91.5482 64.4973C92.5231 65.0902 94.0086 66.4726 92.9598 67.9423C91.7252 69.2382 89.9478 67.7524 89.0719 67.0804C88.2597 66.5596 87.3471 67.899 88.1007 68.5071C94.43 73.195 96.9986 64.6524 92.0413 63.8003C91.4954 63.7064 91.2927 64.3139 91.5482 64.4973ZM83.3415 64.6918C83.0789 64.8205 82.7877 64.8727 82.5021 64.8131C82.2463 64.7597 81.9963 64.6163 81.775 64.3637C81.4711 64.0164 81.2505 63.5232 81.3979 63.0527L81.4401 62.9317C81.49 62.7909 81.5573 62.659 81.6391 62.5393C81.6917 62.283 81.7022 62.1151 81.7122 61.9557C81.7147 61.915 81.7172 61.8748 81.72 61.8347C81.7358 61.6115 81.7685 61.3778 81.8434 61.1628C81.8575 61.1224 81.8732 61.0823 81.8902 61.0427C81.8482 61.028 81.8063 61.0133 81.7644 60.9985C81.4748 60.8964 81.1862 60.7926 80.899 60.6841C80.0825 60.3753 79.275 60.0271 78.4934 59.6376C78.1073 59.4451 77.7308 59.2285 77.3592 59.0093C77.1817 58.8912 76.7924 58.6163 76.6178 58.4683L76.4853 58.3559L76.4159 58.5152C76.3414 58.5904 76.2812 58.5962 76.2307 58.5793C76.1763 58.5612 76.1361 58.5183 76.1107 58.4669C76.0803 58.4049 76.0708 58.3294 76.0868 58.2566C76.1013 58.191 76.1371 58.1277 76.1975 58.0778C76.4278 57.8878 76.7526 57.9703 77.0225 58.0232C77.061 58.0308 77.0988 58.0382 77.1354 58.0449C77.5551 58.1216 77.9738 58.213 78.3908 58.3073L78.8927 58.4217C79.0842 58.4654 79.2757 58.5093 79.4672 58.5532C81.6422 59.0518 83.8136 59.5493 86.0363 59.7679L86.2705 59.7899C86.6667 59.8252 87.0193 59.9935 87.2516 60.2616C87.4655 60.5085 87.5748 60.8396 87.5228 61.2236C87.4721 61.5995 87.2607 61.9124 86.9699 62.1062C86.6805 62.299 86.3124 62.3738 85.9449 62.2751C85.255 62.09 84.5665 61.8953 83.8814 61.6887L84.0416 62.0696C84.1795 62.4014 84.3066 62.7453 84.3216 63.0962C84.3356 63.426 84.2389 63.7453 84.0715 64.0184C83.8934 64.3091 83.635 64.5481 83.3415 64.6918ZM98.8477 56.7559C98.6776 56.9882 98.482 57.1867 98.2872 57.3855C97.8663 57.8151 97.4455 58.2446 96.9948 58.6441C96.8314 58.789 96.6662 58.9318 96.501 59.0747C96.4397 59.1277 96.3784 59.1807 96.3172 59.2338L96.2207 59.3175L96.3032 59.4149C96.3254 59.441 96.3463 59.468 96.3637 59.4966C96.6113 59.9021 96.7488 60.3422 96.888 60.7837C96.9834 61.0861 97.0793 61.3893 97.2079 61.6837L97.2494 61.776C97.4168 62.1363 97.4619 62.5125 97.3729 62.852C97.2891 63.1718 97.0858 63.4572 96.7597 63.665C96.6777 63.7173 96.5378 63.778 96.443 63.7991C96.0692 63.882 95.6908 63.8242 95.3815 63.6485C95.0857 63.4805 94.8539 63.2045 94.7511 62.8426C94.5994 62.3077 94.5018 61.7644 94.5069 61.2348C94.5078 61.1451 94.5117 61.055 94.5182 60.9648C94.4592 61.0248 94.3913 61.0775 94.3143 61.1211C94.0748 61.2564 93.8041 61.2698 93.5496 61.2006C93.2617 61.1224 92.9934 60.9394 92.8076 60.7002C92.6441 60.4895 92.544 60.2343 92.5569 59.9676C92.5682 59.7347 92.6664 59.4949 92.8765 59.2691L93.0746 59.0671C93.2221 58.9175 93.4251 58.8024 93.6414 58.7442C93.8399 58.6908 94.0503 58.685 94.2391 58.7495C94.4936 58.6798 94.6587 58.5977 94.812 58.5213C94.9211 58.4668 95.024 58.4155 95.1158 58.3755C95.5629 58.181 96.0083 57.9827 96.4522 57.7809C96.8371 57.6057 97.2281 57.4441 97.6191 57.2823C98.031 57.112 98.4429 56.9416 98.8477 56.7559Z" fill="black"/>
<path fill-rule="evenodd" clip-rule="evenodd" d="M98.1324 56.313C101.163 56.313 102.892 56.9649 103.526 57.0157L103.545 57.0171C103.809 57.0339 104.045 57.056 104.293 57.152C105.205 57.5034 105.354 58.4605 104.822 59.0637C104.784 60.3119 104.948 61.7703 104.667 63.0224C104.319 68.3013 101.838 69.1921 100.427 69.5173C99.7191 69.6805 98.8797 69.7455 98.1275 69.5732C96.8442 69.5253 95.5755 69.1234 94.49 68.4236C92.9782 67.4482 91.8554 65.9489 91.491 64.1697C91.3183 63.3216 91.2376 62.4388 91.3316 61.5768L91.3455 61.458C90.8541 61.2228 90.2847 61.1784 89.6977 61.1576C89.4173 61.1476 89.141 61.1387 88.8725 61.1506C88.61 61.1799 88.3507 61.219 88.0906 61.2721C87.8066 61.3579 87.5384 61.4993 87.2907 61.7235L87.2736 62.0505C87.2271 62.8676 87.1199 63.6871 86.9545 64.4887C86.7103 65.6715 86.3175 66.8011 85.4815 67.6401C85.1985 68.0629 84.8484 68.4403 84.4233 68.7671C82.8791 69.9565 80.7811 70.3932 78.8557 70.2287C74.9467 69.8951 72.6872 66.7908 72.1665 65.4639L72.1354 65.3835C71.7592 64.3971 71.4595 63.1171 70.2709 62.9052L70.0181 62.8598C69.4757 62.7579 68.9752 62.6161 68.6572 62.0867C68.5178 61.8556 68.446 61.5971 68.4285 61.3336C68.2429 61.3479 68.0576 61.3615 67.873 61.3747C66.4001 61.6863 57.5655 61.9505 56.8604 61.9505C56.8604 61.9505 55.5049 62.5213 54.9326 62.0791C54.5359 61.7716 54.4054 61.3617 54.6238 60.8975C54.9532 60.1989 56.4733 59.7787 57.1482 59.6456C57.1482 59.6456 68.0404 59.7361 68.8244 59.5874C69.3094 59.0871 70.1771 59.1556 70.902 59.0765C71.5022 58.6483 72.3418 58.3616 73.0051 58.1697C73.1402 58.1184 73.2741 58.0689 73.4042 58.0222C74.62 57.589 75.8838 57.3596 77.1669 57.2364C78.49 57.1106 79.817 57.1675 81.1323 57.3478C81.6866 57.423 82.2358 57.5203 82.781 57.6475C83.7574 57.7763 84.728 57.9884 85.7047 58.2399L85.9001 58.2908C86.9286 58.5605 87.9856 58.7939 89.0503 58.611C89.917 58.4631 90.7506 58.1294 91.5498 57.7685L91.6538 57.7213C93.4111 56.9186 96.1553 56.313 98.1324 56.313ZM82.6754 59.2478C82.027 59.1051 81.7501 60.1052 82.4006 60.2482C82.8612 60.3495 83.2515 60.5819 83.5153 60.9755L83.543 61.0183C83.897 61.5817 84.7919 61.0616 84.4355 60.4946C84.0346 59.8565 83.4115 59.4096 82.6754 59.2478ZM101.665 58.6278C101.437 58.4667 101.091 58.5863 100.958 58.8139C100.812 59.0645 100.908 59.3436 101.122 59.5075L101.144 59.5236C101.34 59.662 101.531 59.9102 101.555 60.1645L101.557 60.1963C101.583 60.8617 102.617 60.8651 102.591 60.1963C102.566 59.542 102.187 58.9953 101.665 58.6278Z" fill="black"/>
</svg>
