<svg width="24" height="24" viewBox="0 0 24 24" fill="none" xmlns="http://www.w3.org/2000/svg"><path d="M12 0C5.383 0 0 5.383 0 12s5.383 12 12 12 12-5.383 12-12S18.617 0 12 0zm0 22.278c-5.667 0-10.278-4.61-10.278-10.278C1.722 6.333 6.332 1.722 12 1.722c5.667 0 10.278 4.611 10.278 10.278 0 5.667-4.611 10.278-10.278 10.278z" fill="#999"/><path d="M13.207 11.963l3.706 3.666a.857.857 0 1 1-1.205 1.219l-3.711-3.67-3.655 3.665a.856.856 0 1 1-1.214-1.21l3.65-3.66-3.68-3.641a.857.857 0 1 1 1.205-1.219l3.685 3.645 3.715-3.727a.853.853 0 0 1 1.212-.002.857.857 0 0 1 .002 1.212l-3.71 3.722z" fill="#999"/></svg>