<svg width="24" height="24" viewBox="0 0 24 24" fill="none" xmlns="http://www.w3.org/2000/svg"><path d="M12 24C5.383 24 0 18.617 0 12S5.383 0 12 0s12 5.383 12 12-5.383 12-12 12zm0-22.278C6.333 1.722 1.722 6.332 1.722 12c0 5.666 4.61 10.278 10.278 10.278 5.666 0 10.278-4.611 10.278-10.278 0-5.667-4.611-10.278-10.278-10.278z" fill="#3AE090"/><path d="M17.759 8.818a.856.856 0 0 0-1.212.007l-6.249 6.317L7.532 12.3a.857.857 0 1 0-1.229 1.195l3.376 3.469c.001.002.005.002.006.005l.005.006c.054.054.12.086.184.122.034.018.06.048.094.062a.85.85 0 0 0 .645.002c.033-.014.059-.041.09-.059.065-.036.132-.067.187-.121.001-.002.002-.006.005-.007.002-.003.004-.004.007-.005l6.863-6.938a.858.858 0 0 0-.006-1.213z" fill="#3AE090"/></svg>