<svg width="101" height="163" viewBox="0 0 101 163" fill="none" xmlns="http://www.w3.org/2000/svg"><path fill-rule="evenodd" clip-rule="evenodd" d="M87.91 96.166c-1.127-4.376-2.164-6.23-4.168-7.752-1.874-1.422-4.61-2.617-8.602-3.49-4.157-.727-4.275-2.888-5.317-6.362-.305-1.044-1.812-1.322-2.462-.57a2.994 2.994 0 0 0-.286-.27c.088-.499-.637-1.926-.613-2.403.253-4.972-1.373-7.47-5.432-8.398-.882-.202-6.878-.32-7.738-.082-3.763 1.04-7.467 4.344-6.9 8.323-1.181 1.544-2.337 2.486-4.159 2.983-4.055.515-8.11.973-12.165 1.365-7.94 1.246-15.384 5.45-20.472 11.58-.47.565-.605 1.333-.19 1.937-.325 1.39-2.151 4.761-.714 5.714-2.363 5.653-7.8 16.578-7.811 19.7-.042 13.113 1.374 30.181 14.311 37.438.518.509.592 1.072.816 1.83.57 2.387 2.635 4.094 4.896 3.954 11.137.248 21.925-1.111 33.063-1.177 4.912-.029 10.818.704 15.085 1.193 4.267.488 8.574.056 12.669-1.193.345.544 1.043.86 1.751.704 4.245-.843 7.678-3.46 10.668-6.319.913-1.663 4.481-6.399 3.063-8.048 1.286-5.436 1.219-11.277-1.066-16.453.324-.949-.266-1.992 0-2.971.193-.71.687-1.003.936-1.705.35-.988-.031-2.314-.425-3.322-.161-.502.297-1.043.425-1.556.604-2.419-.78-2.205-1.777-3.822.015-.005.274-1.159.273-1.154.153-.824-.23-1.879-.564-2.567-.225-.465-.708-.756-1.188-.703.483-1.641 1.094-3.007 1.752-4.589 1.163-2.788 2.635-5.457 4.304-7.981.684-1.033-.234-2.23-1.34-2.3a67.592 67.592 0 0 1-10.622-1.534z" fill="#fff"/><path fill-rule="evenodd" clip-rule="evenodd" d="M77.458 117.248c-1.432-.562-2.975-.872-4.525-.993.835-.146 1.672-.287 2.515-.359.59-.051 1.135-.046 1.578.401.295.298.433.681.627 1.033a3.969 3.969 0 0 0-.195-.082zm15.376-5.253c-2.347.119-4.695.677-6.817 1.688-.869.414-1.655 1.013-1.886 1.996-.116.503-.088 1.022-.026 1.529.047.385.059.875.392 1.135a.74.74 0 0 0 .182.103c-.783.353-1.529.778-2.191 1.215-.606.4-1.228 1.016-1.508 1.712a6.758 6.758 0 0 0-.07-.223c-.476-1.408-1.21-2.562-2.365-3.337.204-.092.346-.31.28-.61-.275-1.254-1.433-2.344-2.741-2.267-1.433.084-2.971.606-4.267 1.265-.472-.01-.943-.004-1.409.017-.08.002-.076.111 0 .12a31.553 31.553 0 0 1 3.803.716c1.051.272 2.138.545 3.12 1.02 1.905.923 3.084 3.336 2.842 5.436-.04.344-.174 1.385-.651 1.278-.404-.091-.564-.934-.705-1.246-.378-.828-1.059-1.369-1.875-1.736-.96-.431-1.985-.722-2.98-1.061l-1.689-.578c-.577-.197-1.126-.471-1.74-.332-.372.084-.415.527-.206.78.317.387.788.501 1.245.661l1.806.629c.93.323 1.905.596 2.812.993l-.028.064c-.074-.02-.161.053-.147.144.136.838.325 1.806.115 2.645-.165.665-.749 1.402-1.507 1.206a.404.404 0 0 0 .083-.47c-.3-.642-4.234-3.176-4.585-2.235-.012.033.025.058.053.053.299-.062.8.448 1.04.609.344.234.695.461 1.037.701.374.261.739.536 1.095.819.28.223.49.455.81.567a.677.677 0 0 0-.357.42c-.145.495-.425.916-.91 1.135-.509.228-1.082.084-1.618.14-.73.074-1.366.421-1.898.916-1.117 1.044-1.677 2.882-3.239 3.375-.933.294-1.968.109-2.913-.025-1.054-.148-2.082-.266-3.144-.111-1.017.149-1.979.501-2.908.931-.87.403-1.833.858-2.606 1.459-.16-.491-.32-.976-.441-1.477a17.61 17.61 0 0 1-.48-3.608c-.035-1.158.03-2.322.129-3.476.05-.576.127-1.149.176-1.725.013-.145.039-.301.058-.456 1.38-.814 2.829-1.438 4.29-2.08l.012-.005c.045-.021.089-.041.134-.06a.028.028 0 0 0-.005-.008.89.89 0 0 0 .353-.391c2.106-1.397 3.866-3.303 5.178-5.527.55-.932 1.079-1.899 1.798-2.716.766-.872 1.676-1.389 2.802-1.659a26.354 26.354 0 0 1 4.02-.612c.737-.058 1.56-.149 2.362-.145.559.004 1.106.052 1.609.19.743.205 1.178.771 1.645 1.343.447.549.89 1.099 1.307 1.671.395.542.768 1.103 1.091 1.691.194.352.374.714.526 1.088.053.133.123.283.155.42.032.138-.027.285.128.285-.64.009-.634 1.033.003.995 2.492-.145-1.078-5.012-1.6-5.691-.739-.96-1.5-2.213-2.684-2.66l-.051-.018c.344-.326.616-.717.876-1.115.268-.409.587-.877.675-1.363.056-.309-.329-.485-.511-.215-.265.395-.393.895-.591 1.329-.202.44-.448.855-.642 1.299a5.968 5.968 0 0 0-1.486-.231c.649-.878 1.756-2.571 1.89-2.789a65.05 65.05 0 0 0 1.754-3.085c.603-1.126 1.12-2.299 1.697-3.438a38.5 38.5 0 0 1 1.02-1.924 5.6 5.6 0 0 1 .413-.625c.03-.038.068-.07.103-.107l.105-.06c.209-.12.283-.4.43-.577.236-.286.513-.32.867-.324.756-.008 1.514.022 2.269.043 1.109.031 2.216.075 3.324.133a133.726 133.726 0 0 1 5.83.433c1.422.135 2.843.357 4.265.463-1.926 4.576-4.06 9.07-6.478 13.406a.566.566 0 0 0-.054.132zM82.15 123.784c-.31.143-.612.32-.893.522a5.31 5.31 0 0 0 .046-.979c.231.249.528.391.847.457zm13.257-7.872a.067.067 0 0 0-.053.037c-.43.886-.25 1.877.452 2.572.367.362 1.168.771 1.142 1.367-.022.481-.545.885-.77 1.283-.208.37-.285.776-.118 1.178.213.514.81.718 1.014 1.223.259.641-.162 1.414-.457 1.972-.274.516-.629 1.033-.864 1.579-1.578.817-2.99 2.07-4.203 3.342-1.329 1.392-2.47 3.03-4.58 2.988a.528.528 0 0 0-.467.262c-.587.027-1.176.038-1.763.041a84.107 84.107 0 0 1-3.097-.038c-.073-.249-.02-.588-.023-.8-.013-.679-.02-1.357-.048-2.037l-.023-.568c.37.671 1.095.977 1.921.93 1.328-.077 2.663-.295 3.978-.49a69.563 69.563 0 0 0 2.073-.343c.567-.101 1.366-.075 1.762-.53.093-.106.099-.3-.047-.371-.393-.193-.64-.086-1.07-.003a97.883 97.883 0 0 1-4.627.773c-.58.082-1.162.162-1.743.225-.507.055-1.079.128-1.488-.253-.824-.772-.362-2.065.16-2.845a.046.046 0 0 0 .006-.042c.491-.116.982-.25 1.471-.345.94-.181 1.888-.334 2.837-.469 1.948-.279 3.91-.463 5.869-.648.485-.046.49-.81 0-.765-2.814.258-5.643.502-8.42 1.045-.696.134-1.387.287-2.074.459-.325.081-.673.206-1.014.21l-.062-.001c-.666-.021-.763-.592-.397-1.067.045-.058.092-.116.14-.172.647-.772 1.453-1.287 2.284-1.82.93-.127 1.858-.409 2.769-.616 2.249-.513 4.498-1.026 6.748-1.537.441-.101.254-.779-.187-.68l-5.125 1.162-2.5.567c-.5.112-1.123.339-1.71.42-.29.04-.571.046-.825-.014-.819-.194-.86-1.218-.507-1.827.396-.683 1.144-1.11 1.808-1.497 1.15-.672 2.374-1.155 3.57-1.712l.637-.139c1.234-.272 2.645-.406 3.807-.904.348-.148.157-.696-.187-.689-.902.02-1.845.341-2.726.531l-2.863.619c-.095.021-.662.202-.747.162-.055-.026-.074-.215-.092-.339-.059-.41-.101-.839-.038-1.25.14-.92.907-1.352 1.684-1.706 1.728-.786 3.624-1.277 5.51-1.474.436-.046.87-.074 1.308-.088.513-.016.937-.107 1.197.4.409.797.634 1.822.768 2.732zm-2.4 28.913c-.377-1.303-.275-2.695-.533-4.024a21.762 21.762 0 0 0-.513-2.036c-.16-.541-.428-1.116-.458-1.681-.002-.037.043-.059.073-.042.532.305.94.963 1.243 1.479.363.619.64 1.266.863 1.946.446 1.356.811 2.991.237 4.358-.171.407-.772.488-.912 0zm-11.642-17.263c.318-.031.636-.092.955-.163-.356.347-.685.765-.867 1.228a19.464 19.464 0 0 0-.113-1.064l.025-.001zm-3.06 27.129c-.56-.392-.97-.94-1.446-1.423-.468-.476.264-1.208.732-.732.406.412.759.927 1.237 1.261.23.16.336.45.186.708-.134.228-.48.346-.709.186zm-3.13-15.061c1.025-.443 2.032-.926 3.105-1.245.64-.191.912.808.275.998-.988.294-1.914.733-2.858 1.141-.605.262-1.132-.631-.522-.894zm-10.822-.31c-.25-.619.751-.885.998-.276.285.702.61 1.386.895 2.088.25.619-.752.885-.998.275-.285-.701-.61-1.385-.895-2.087zm-10.681 12.352c-.167.222-.446.343-.709.186-.22-.132-.354-.483-.185-.709.493-.658.993-1.308 1.571-1.894.47-.476 1.2.257.732.732-.516.524-.969 1.097-1.41 1.685zm-1.528-69.308c.476.325.892.72 1.298 1.125.472.472-.26 1.204-.732.733-.343-.343-.687-.69-1.088-.963-.232-.159-.336-.453-.186-.709.134-.23.477-.343.708-.186zm15.54 16.666c-.268.538-.51 1.065-.525 1.677-.017.666-1.052.667-1.036 0 .02-.8.315-1.495.667-2.2.298-.597 1.19-.072.894.523zm5.702-13.385c.556-.371 1.074.526.523.894l-1.342.895c-.556.371-1.074-.526-.523-.894l1.342-.895zm-24.73 23.402c-.096.658-1.093.376-.999-.276.146-1.007.323-2.001.597-2.982.178-.642 1.177-.368.998.275-.274.981-.451 1.975-.597 2.983zm-3.63 11.863c-.667-.015-.667-1.05 0-1.036.603.013 1.196.172 1.777.317.647.161.371 1.16-.275.998-.492-.123-.992-.269-1.502-.279zm-1.34 23.896c-.229.112-.464.212-.695.318l-1.39.637c-.964.443-1.928.887-2.891 1.333-1.928.893-3.871 1.754-5.804 2.638-1.971.9-3.937 1.813-5.9 2.73-.925.432-1.857.848-2.787 1.269-.796.36-1.779.989-2.652 1.048-.044.003-.06-.054-.034-.083.33-.375.856-.594 1.29-.838.442-.249.893-.483 1.343-.721.936-.496 1.873-.989 2.818-1.467 1.89-.957 3.785-1.907 5.68-2.856 1.932-.968 3.861-1.943 5.81-2.876.918-.44 1.837-.878 2.756-1.315l1.494-.709c.216-.102.429-.212.649-.303.292-.121.514-.096.816-.171.491-.121.704.505.327.777-.311.224-.475.416-.83.589zm-6.91 10.62c-.107-.259.115-.573.36-.637.294-.078.53.101.637.361a5.852 5.852 0 0 0 1.209 1.86c.465.478-.267 1.21-.732.732-.652-.671-1.12-1.455-1.475-2.316zm-5.085-16.624c-.472-.472.26-1.204.732-.732l1.341 1.342c.472.472-.26 1.205-.732.733l-1.341-1.343zm-13.765-2.188c-.964.283-2.09.544-2.747 1.367-.032.04-.086-.012-.067-.052.842-1.746 3.257-2.358 4.928-2.97a39.817 39.817 0 0 1 3.62-1.112c-.123-1.396.214-2.893.331-4.282a91.03 91.03 0 0 0 .28-4.458c.053-1.518.066-3.046.016-4.564-.05-1.513-.246-3.007-.332-4.515-.008-.145.195-.152.238-.032.508 1.399.725 2.949.89 4.424.171 1.52.228 3.035.206 4.563a71.826 71.826 0 0 1-.24 4.706c-.059.743-.128 1.484-.193 2.226-.05.566-.073 1.128-.188 1.676a127.81 127.81 0 0 1 2.215-.519c2.35-.53 4.71-1.023 7.052-1.597 1.149-.281 2.281-.619 3.425-.918 1.078-.282 2.214-.624 3.32-.75.395-.045.445.495.184.678-.899.632-2.093 1.071-3.13 1.425-1.043.354-2.126.609-3.194.872-2.227.548-4.475.996-6.72 1.463-2.242.466-4.488.928-6.704 1.504-1.068.277-2.132.555-3.19.865zm-5.285-27.705c-.577.338-1.097-.557-.523-.895.752-.441 1.553-.772 2.36-1.096.62-.248.886.754.275.999-.725.291-1.437.595-2.112.992zm-2.087 38.475c-.578.335-1.099-.56-.523-.894.81-.47 1.696-.783 2.534-1.193.597-.293 1.121.601.523.894-.839.41-1.725.723-2.534 1.193zm-.939-21.841c.559.531 1.304.781 2.008 1.06.613.243.344 1.245-.276.999-.876-.348-1.768-.665-2.464-1.326-.484-.46.25-1.191.732-.733zm6.182-29.66c.614.24.345 1.242-.276.999-.688-.27-1.398-.476-2.087-.746-.614-.241-.345-1.242.276-.999.688.27 1.398.476 2.087.746zm10.905-11.781c.652-.11.93.888.275.998-.813.138-1.614.298-2.385.597-.623.24-.89-.76-.275-.999.77-.298 1.572-.46 2.385-.596zm3.603 28.684c-.599-.294-.073-1.187.522-.894a8.396 8.396 0 0 0 1.964.693c.652.139.374 1.137-.276.999-.77-.165-1.504-.451-2.21-.798zm3.403-16.158c.644-.176.917.823.275 1-1.129.308-2.291.47-3.428.745-.649.157-.923-.842-.276-.999 1.137-.275 2.3-.436 3.429-.746zm14.437-5.07c.655.121.376 1.12-.275.999-.694-.129-1.396-.13-2.099-.131-.667 0-.666-1.036 0-1.036.799 0 1.587.022 2.374.168zm47.084 5.41a133.398 133.398 0 0 0-5.082-.388l-.235-.013c-.01-.018-.021-.035-.033-.053a12.1 12.1 0 0 1-1.314-2.545c-.338-.875-.665-1.777-1.186-2.567-.593-.9-1.394-1.604-2.272-2.214-.532.358-1.026.778-1.479 1.222-.475.468-1.208-.264-.732-.732.402-.395.83-.76 1.284-1.09-.523-.318-1.057-.617-1.578-.914a78.385 78.385 0 0 0-5.993-3.088c-.948-.439-1.908-.828-2.875-1.223-.52-.212-1.034-.486-1.554-.731.037-.368-.073-.78-.355-1.022-.208-.177-.37-.243-.618-.369-.056-.02-.09-.03-.105-.037.011.002.045.013.1.03.133.062.143.044.032-.052-.007-.21-.42-.653-.514-.869-.329-.742-.43-1.526-.916-2.202a2.547 2.547 0 0 0-2.84-.967c-.108-1.12-.136-2.288-.558-3.288-.012-.027-.05-.039-.066-.01-.44.75-.478 1.585-.511 2.45-.033.812-.002 1.642.105 2.448a3.966 3.966 0 0 1-.207.149c-.334.22-.694.39-1.072.515-.72.238-1.474.342-2.228.378-1.948.093-3.955-.103-5.87-.437-1.937-.338-4.907-.846-6.63-1.815-1.138-.64-2.187-1.42-3.251-2.176.386-1.243.484-2.58.096-3.629-.047-.126-.243-.149-.281 0-.243 1.002-.314 2.01-.638 3l-.015.043a47.12 47.12 0 0 0-.303-.203c-.233-.154-.55-.038-.69.181-2.235 3.523-5.774 3.725-9.49 4.354-4.067.689-8.155 1.432-12.066 2.78-3.74 1.289-7.313 3.166-10.145 5.97-.64.635-1.24 1.311-1.806 2.017.548.07 1.09.177 1.626.345.635.2.362 1.199-.275.999a9.227 9.227 0 0 0-2.088-.377c-1.924 2.633-3.424 5.618-4.721 8.556-2.488 5.634-4.108 11.634-4.853 17.742.41-.245.826-.479 1.253-.696.593-.302 1.116.592.522.894-.66.336-1.3.706-1.92 1.107a64.661 64.661 0 0 0-.313 8.051c.151 6.406 1.016 12.999 2.971 19.11.959 3 2.23 5.975 4.123 8.509.856 1.148 1.83 2.184 2.976 3.047.555.42 1.143.794 1.763 1.11.798.409 1.838.543 2.527 1.122.226.191.4.442.533.725-.076.539-.085 1.078.062 1.617a.576.576 0 0 0 .33.371c.003.047.003.092.003.136 0 .021.03.026.035.006l.019-.122c.05.017.103.025.158.025 1.965.007 3.933-.041 5.902-.108-.152-.466-.317-.929-.476-1.395-.215-.633.785-.903.998-.275.186.545.38 1.086.552 1.633 2.108-.079 4.217-.173 6.321-.242 4.476-.149 8.95-.199 13.428-.293 6.953-.147 13.956-.449 20.92-.154.24-.511.51-1.011.766-1.515.301-.596 1.194-.071.894.522-.178.351-.362.697-.537 1.047 1.41.073 2.82.17 4.225.302 2.4.225 4.775.625 7.172.874 2.436.253 4.82.208 7.237-.194.435-.073.691-.336.797-.662.004-.001.007-.004.01-.008a3.54 3.54 0 0 1 .36-.37c.144-.093.3-.172.482-.242.34-.13.695-.209 1.055-.262.395-.059.797-.064 1.193-.113.333-.043.66-.107.986-.184a9.977 9.977 0 0 0 1.696-.565c.483-.211.919-.514 1.33-.844.852-.622 1.59-1.417 2.234-2.243.375-.483.728-.984 1.05-1.506.558-.903 1.034-1.842 1.516-2.788.175-.281.334-.568.48-.861-.941-.277-1.89-.503-2.888-.519-.667-.011-.667-1.047 0-1.036 1.144.018 2.226.286 3.3.604.053-.139.103-.279.15-.421.128-.297.234-.601.322-.909l.155-.419.35-1.455c.235-.777.42-1.566.556-2.364.114-.526.202-1.055.261-1.591.181-1.299.329-2.594.34-3.907a27.009 27.009 0 0 0-.156-2.421c-.037-.546-.1-1.09-.186-1.63-.112-.802-.222-1.597-.407-2.389l-.415-1.608a30.872 30.872 0 0 0-1.223-3.283c-.026-.067-.157-.215-.235-.216-.06-.001-.143.053-.116.126l.008.02-.08-.184c-.023-.057-.114-.17-.184-.169l-.013.001a.328.328 0 0 0 .052-.049c.465-.55.766-1.274 1.099-1.911.275-.525.535-1.08.61-1.674.066-.521-.023-1.035-.35-1.457-.373-.481-1.074-.706-.685-1.4.443-.789 1.094-1.474.445-2.371-.33-.457-.852-.708-1.24-1.106-.447-.459-.66-1.074-.648-1.702.028.015.064.008.077-.031.375-1.134.103-2.379-.281-3.484-.21-.599-.654-.764-1.17-.793 2.236-4.369 4.328-8.808 6.193-13.35l.184-.446c.091-.223-.101-.519-.322-.568-1.612-.354-3.292-.466-4.934-.621z" fill="#000"/><path fill-rule="evenodd" clip-rule="evenodd" d="M43.784 12.284c8.154-.445 15.379-2.737 21.118 2.393 6.19-4.625 9.802-6.057 10.835-4.295 1.038 1.77-.401 4.146-.015 6.331 2.517 4.293 2.374 11.559 2.517 13.261.358 4.292 2.618 20.442 2.618 24.277 0 1.958-1.614 7.085-2.618 9.938-2.237 6.35-6.505 9.587-13.506 9.587s-18.428-5.854-22.092-11.05c-.322-.456-2.398.873-4.57-1.432-2.354-2.498-3.66-7.26-3.66-10.1 0-3.602-2.327-6.1-2.056-10.712.604-10.3 2.704-27.721 11.429-28.198z" fill="#fff"/><path fill-rule="evenodd" clip-rule="evenodd" d="M42.873.31c.106-.006.214-.001.32.01.119.005.236.016.354.04.6.115 1.134.432 1.548.878l.03.037c.195.146.375.312.537.488.028-.028.055-.055.085-.082.085-.075.175-.146.268-.213.39-.335.847-.578 1.34-.716l.067-.018.038-.01c.35-.116.717-.175 1.087-.174.443-.015.887.058 1.3.229.491.203.918.524 1.277.91.235.192.44.402.658.634.45.48.804 1.042 1.028 1.661.03.087.058.176.083.265a22.078 22.078 0 0 1 1.647-.13c.617-.038 1.234-.05 1.853-.03 1.704.056 3.37.356 4.984.906.324.096.638.218.941.368.475.189.924.43 1.347.72l.36.215c.182.107.363.216.538.328.418.268.814.568 1.19.892a12.932 12.932 0 0 1 1.407 1.333c.82.443 1.55 1.01 2.229 1.686a16.61 16.61 0 0 1 1.673-.842 16.629 16.629 0 0 1 1.97-.697 12.754 12.754 0 0 1 1.672-.343 13.9 13.9 0 0 1 .77-.109l-.011.004c.18-.02.36-.036.543-.052l-.005-.001.234-.018.19-.016c.056-.005.139.128.144.175l.007.048c.042.048.081.1.108.133a2.64 2.64 0 0 1 .101-.006c.101-.01.218.17.277.24l.054.062a.506.506 0 0 1 .133.252c.066.537.128 1.075.184 1.614.022.408 0 .812-.067 1.212-.05.388-.102.776-.154 1.163l-.246.816c-.032.104-.068.206-.103.308-.207.683-.45 1.348-.739 1.992.211.233.408.475.59.725.044.045.088.09.13.136a.126.126 0 0 1 .046-.044c.062-.027.108.005.146.058.408.39.704.845.888 1.363l.114.271c.02.045.038.09.057.136.146.394.259.798.352 1.206.083.322.143.648.181.978.28.94.501 1.9.71 2.847a.644.644 0 0 1-.031.396l.122.119.208.207c.35.35.707.716.967 1.131.269.431.467.892.687 1.35l.047.096.097.195a5.113 5.113 0 0 1 .523 1.901c.058.662.05 1.383-.24 1.998a.042.042 0 0 1-.006.012c-.132.595-.459 1.146-.954 1.498-.106.1-.22.19-.342.26-.292.172-.56.187-.878.108l-.04-.01-.112-.028c.052.043.078.094 0 .13a.655.655 0 0 1-.206.064c.028.035.03.073-.027.104a.492.492 0 0 1-.328.069l.021.18c.17 1.361.322 1.63.455 3.094.088 1.497.228 2.991.42 4.479l.067.54c.213 1.713.452 3.439.819 5.124.184.737.344 1.479.478 2.226.19.568.324 1.15.398 1.742.107.603.18 1.212.223 1.825.15.393.222.791.218 1.198.02.546.001 1.091-.057 1.634-.032.564-.11 1.123-.233 1.677-.11.76-.31 1.494-.598 2.206-.23.795-.512 1.574-.833 2.337a22.856 22.856 0 0 1-1.785 3.358c-.642 1.013-1.33 1.99-2.117 2.897a19.843 19.843 0 0 1-3.447 3.153 16.745 16.745 0 0 1-2.29 1.43c-.977.504-1.971.959-3.031 1.265-.661.192-1.334.324-2.015.425a12.915 12.915 0 0 1-4.066-.063 12.417 12.417 0 0 1-2.525-.607 19.064 19.064 0 0 1-1.926-.82 7.423 7.423 0 0 1-.938-.541 10.353 10.353 0 0 1-1.417-1.107 9.657 9.657 0 0 1-.42-.38c-.067-.059-.03-.145.046-.166l.023-.003-.09-.083a.107.107 0 0 1-.017-.018c-.014-.013-.03-.025-.043-.038-.05-.045 0-.143.044-.166a.112.112 0 0 1 .064-.008c-.006-.005-.01-.01-.015-.013-.005-.004-.006-.014-.005-.025l-.02-.015c-.065-.058-.032-.144.046-.166a.378.378 0 0 1 .166.009l.024.005-.044-.041c-.077-.067-.053-.142.043-.166.071.005.142.014.212.031l.052.015c.026.006.05.014.076.022l-.13-.12c-.043-.037.002-.144.041-.166.053-.03.157.011.205.046.117.013.272.065.33.114.156.15.318.294.482.434.1.03.194.072.267.134.186.179.38.347.578.51l.15.104.077.05.852.5 3.116 1.055.138.042 1.008.124c.662.07 1.326.066 1.988-.01.497.006.99-.043 1.476-.144.824-.14 1.633-.346 2.42-.633.905-.33 1.768-.765 2.61-1.234.303-.17.601-.35.894-.54.094-.067.188-.136.283-.206a23.5 23.5 0 0 0 1.79-1.492c.27-.247.529-.505.779-.772l.106-.115c.24-.261.47-.532.692-.811l.21-.239c.852-1.06 1.61-2.2 2.29-3.375a21.193 21.193 0 0 0 1.675-3.655c.142-.452.266-.91.37-1.374a7.553 7.553 0 0 0 .375-1.71c.02-.114.035-.228.05-.342l.01-.18.002-.089c.026-.18.048-.362.065-.544a11 11 0 0 0 .018-.547l-.014-1.12a2.7 2.7 0 0 1-.01-.107l-.03-.247c-.061-.51-.11-1.022-.171-1.532 0-.003 0-.007-.002-.01-.023-.19-.048-.382-.076-.574-.014-.114-.032-.228-.05-.342l-.032-.199c-.06-.346-.133-.69-.22-1.03l-.04-.147-.225-1.132-.254-1.115c-.164-.747-.301-1.499-.41-2.258a88.352 88.352 0 0 1-.533-3.81 48.895 48.895 0 0 1-.326-3.395 47.04 47.04 0 0 1-.163-3.362c-.001-.05.032-.091.073-.115l-.004-.216c-.005-.19-.008.038-.01-.18l-.002-.598.001-.087c-.691.048-1.156.009-1.824-.026l-.113-.006a15.368 15.368 0 0 1-1.824-.197c-.003.031-.024.053-.059.06l-.18.004.022.084c.002.042-.018.07-.059.081l-.173.008c-.23.01-.461.014-.69-.017a4.191 4.191 0 0 1-.606-.132 3.506 3.506 0 0 1-.376-.085c-.329-.095-.655-.222-.985-.323a2.306 2.306 0 0 0-1.035-.009c-.378.09-.698.251-1.094.153a1.658 1.658 0 0 1-.231-.08l-.071-.005a.615.615 0 0 1-.037-.004c-.412-.06-.78-.321-1.173-.461a.64.64 0 0 0-.407.03l-.033.015-.131.097a13.26 13.26 0 0 0-.156.188l-.077.094a1.95 1.95 0 0 1-.474.446c-.22.203-.48.322-.793.33a1.588 1.588 0 0 1-.524-.087c-.644.2-1.334.24-1.977.045a2.864 2.864 0 0 1-1.078-.39c-.454.191-.884.446-1.322.666l-.1.05c-.448.223-.944.441-1.45.408a18.093 18.093 0 0 1-1.91-.236l-.087-.015-.313-.055-.253-.047-.129.05c-1.037.392-2.174.698-3.216.424a2.843 2.843 0 0 1-1.303-.497 1.176 1.176 0 0 1-.168-.104l-.011-.008-.01-.009-.005-.002a1.418 1.418 0 0 1-.837-1.442 1.638 1.638 0 0 1 .005-.6c-.185.219-.374.435-.566.65-.7.844-1.386 1.705-2.021 2.6l-.146.208c-.35.493-.674 1.003-.974 1.529-.305.519-.617 1.033-.939 1.54-.419.463-.824.938-1.214 1.424l-.166.209-.562.739a6.92 6.92 0 0 0-.987 1.545c-.214.398-.41.803-.588 1.219-.057.125-.111.252-.164.379-.183.496-.337 1-.457 1.522-.097.378-.166.76-.207 1.148l-.013.13a7.828 7.828 0 0 0-.034.458.515.515 0 0 1 .092.066l.095.034.076.023c.12.037.325.113.276.207l-.25.477c.026.027.038.055.02.087-.166.32-.334.639-.503.959a.069.069 0 0 1-.023.027c.144.066.283.138.417.217.26.156.451.336.629.545.186.112.362.233.528.373.204.215.383.45.534.706.14.24.254.492.342.754.038.139.057.282.055.429-.156 1.105-1.42.348-1.445.25-.174-.667-.373-1.089-.82-1.586l-.012-.008a8.658 8.658 0 0 0-.783-.315c-.04.008-.082.014-.123.02.047.066.023.13-.071.142a4.42 4.42 0 0 1-1.233.068l-.63-.09c-.26.1-.51.229-.744.382l-.078.052-.015.01c-.606.488-1.075 1.137-1.396 1.844a5.558 5.558 0 0 0-.082.19l-.038.097-.003.005c-.419 1.648-.045 3.458.721 4.953.418.67.854 1.326 1.31 1.97l.442.578c.262.246.518.498.767.757.04.039.08.078.122.115.132.087.267.163.404.228.053.018.107.035.162.05.264.126.54.194.832.201.384.026.758-.02 1.118-.134l.072-.024.053-.02c.197-.125.38-.281.553-.465.039-.04.111-.04.194-.018.045-.047.09-.096.133-.15.03-.032.077-.033.113-.008.123-.014.455.175.369.274-.015.023-.033.044-.048.066.058.03.116.064.168.099.272.075.673.346.64.428l-.003.007a.923.923 0 0 1-.246.298l-.034.025-.076.053c.107.068.198.145.152.2a.828.828 0 0 1-.068.114c.22.272.439.546.656.82.217.472.486.912.807 1.32.268.442.59.84.967 1.194l.094.091c.278.205.568.397.87.582l.13.078c.07.041.184.093.13.193a.096.096 0 0 1-.023.031c.19.124.387.242.59.351l.02.012c.076.049.18.138.07.21-.093.063-.34-.106-.456-.183a.276.276 0 0 1-.074-.014c.039.02.077.043.116.064l.059.033c.045.027.267.174.112.237a.318.318 0 0 1-.21-.057 4.64 4.64 0 0 1-.226-.12c.026.04.026.08-.039.107a.394.394 0 0 1-.066-.003c.153.097.31.188.471.273l.026.017c.069.044.178.128.099.2-.09.08-.336-.09-.399-.129l-.189-.113a.139.139 0 0 1-.047.011c.057.035.11.073.169.106l.079.043c.1.055.24.145.189.235-.051.09-.202.016-.3-.042l-.104-.065-.014-.008-.004.016a.03.03 0 0 1-.004.007c-.049.085-.17.03-.255-.02l-.067-.04a58.98 58.98 0 0 1-.341-.207l-.17-.104h-.002c-.583-.35-1.123-.7-1.632-1.15a9.97 9.97 0 0 1-.856-.86c-.541-.609-.944-1.306-1.332-2.019-.006-.011.003-.041.018-.073a10.26 10.26 0 0 1-.125-.27 3.827 3.827 0 0 1-1.254.117 3.343 3.343 0 0 1-.654-.111c-.69-.096-1.354-.41-1.929-.788-.036-.023-.069-.049-.102-.072a4.542 4.542 0 0 1-.676-.466 11.26 11.26 0 0 1-1.175-1.128c-.26-.31-.508-.633-.74-.967-.235-.33-.473-.66-.711-.99a8.558 8.558 0 0 1-1.25-3.446 6.932 6.932 0 0 1-.112-1.357c.007-.327.043-.659.106-.989-.037-.036-.075-.072-.112-.11-.02.037-.042.063-.055.05l-.296-.298a4.771 4.771 0 0 1-.594-.71 6.899 6.899 0 0 1-.886-1.785 6.212 6.212 0 0 1-.297-1.466 7.449 7.449 0 0 1-.036-.253c-.083-.674-.006-1.32.096-1.986.006-.044.028-.07.058-.085l.025-.16c-.857-.909-1.474-2.003-1.423-3.324.015-.416.1-.827.264-1.21l.02-.043c-.716-.11-1.283-.613-1.71-1.236a3.882 3.882 0 0 1-.11-.09c-.762-.651-1.29-1.574-1.652-2.548a5.964 5.964 0 0 1-.504-1.797l-.012-.134a11.525 11.525 0 0 1-.14-2.98 14.862 14.862 0 0 1-.422-1.867 12.695 12.695 0 0 1-.103-.91l-.003-.016-.004-.054-.01-.136a3.05 3.05 0 0 1-.005-.068c-.219-2.772.4-5.501 1.426-8.07.09-.23.181-.461.276-.69l.101-.238c1.029-1.66 2.574-3.002 3.882-4.42.452-.489-.279-1.223-.732-.732-.87.942-1.802 1.844-2.644 2.812-.148.011-.297.015-.446.008a3.55 3.55 0 0 1-.753-.12 3.78 3.78 0 0 1-1.662-.695c-.671-.313-1.244-.903-1.301-1.674a1.54 1.54 0 0 1 0-.23 2.032 2.032 0 0 1 .151-1.135c.027-.1.062-.198.106-.296a1.91 1.91 0 0 1 .597-.753l.017-.01c.027-.029.053-.057.082-.083.044-.04.091-.078.14-.113a7.096 7.096 0 0 1-.467-.897 3.68 3.68 0 0 1-.263-1.055 4.408 4.408 0 0 1-.026-.432 4.83 4.83 0 0 1-.018-.2c-.032-.514.027-1.045.219-1.525.014-.036.032-.072.05-.11.035-.108.076-.217.125-.323.191-.408.463-.754.798-1.037.181-.183.384-.344.606-.482.13-.081.28-.154.436-.213.28-.148.638-.282.929-.293.035-.001.066.003.1.003.027-.743.122-1.552.416-2.226.171-.487.427-.921.813-1.233.224-.234.5-.423.843-.547l.061-.021.024-.007c.309-.15.643-.21.986-.208.4-.021.807.054 1.155.238.073.039.15.087.224.138.056-.111.118-.224.19-.336.249-.4.55-.748.9-1.066.041-.037.086-.07.13-.107.17-.154.35-.296.536-.426.403-.28.844-.488 1.307-.623.535-.197 1.1-.29 1.664-.27l.117.005c.026.003.051.004.076.005.56.037 1.113.174 1.64.38.548.217 1.011.544 1.442.92.101-.14.216-.272.358-.396.04-.035.082-.066.122-.099l.097-.09c.154-.136.317-.254.496-.359.2-.118.417-.2.64-.25a2.74 2.74 0 0 1 .711-.14zm-2.66 53.367c.024-.001 1.222.448 1.82.739l.029.014c.688.342 1.02.588 1.638 1.027.041.03.084.075.084.119 0 .64-.155 1.42-.692 1.074a10.96 10.96 0 0 0-.235-.147l-.118-.071h-.004l.004-.002a16.256 16.256 0 0 0-3.71-1.672c-.09-.033.571-1.032.754-.976-.105-.042.413-.104.43-.105zm12.292-28.232c-.778.084-1.556.165-2.334.246-.495.057-.992.107-1.49.15-.746.056-1.492.064-2.236-.038a7.426 7.426 0 0 1-.78-.151 8.656 8.656 0 0 1-.54.364l-2.055 1.572c-1.378 1.084-2.727 2.232-3.94 3.5-2.12 2.214-3.847 4.804-4.933 7.673a.426.426 0 0 0-.2.315c-.191 1.176-.752 2.249-.955 3.42-.2 1.154.066 2.135.79 3.049.155.195.472.185.666.053.045.089.241.085.31-.307.322-.349.597-.715.784-1.167.137-.334-.094-.565-.374-.61.117-.42.248-.836.396-1.247.437-1.222.993-2.39 1.694-3.485.615-.963 1.328-1.802 2.095-2.643.008-.012.024-.016.04-.018l.16-.177c.022-.024.067-.022.118-.009.048-.05.094-.102.143-.152.048-.052.101-.037.131.005.082-.018.23.07.276.098.077.052.102.11.036.184l-.035.038c.09.037.177.088.246.137.24.053.576.276.517.342-.122.128-.241.259-.36.392.104.072.172.144.144.175-.504.532-.97 1.095-1.397 1.691-.325.446-.619.91-.881 1.392-.391.684-.722 1.387-1.016 2.109-.042.11-.082.22-.12.33-.43 1.203-.751 2.45-.887 3.722l-.006.085c-.025.458-.035 1.684-.082 1.977.286.141.584.261.893.36.058.017.118.032.177.047a.976.976 0 0 1 .104-.037 3.63 3.63 0 0 1 1.499-.269l.087.004c.09.002.18.009.27.018-.005-.052-.007-.102-.01-.154-.027-.017-.046-.04-.047-.071a8.578 8.578 0 0 1-.004-1.748c.038-.304.084-.607.133-.91.05-.248.109-.493.172-.738.168-.686.392-1.355.664-2.01.774-1.868 1.883-3.552 2.998-5.227.814-1.224 1.584-2.474 2.426-3.677a43.189 43.189 0 0 1 2.274-2.99 30.419 30.419 0 0 1 2.565-2.729c.147-.136.296-.268.447-.399.867-.776 1.81-1.415 2.79-2.041.038-.025.105.002.16.049l.159-.098.08-.047c.024-.015.052.01.066.032.067-.035.134-.068.202-.102.049-.04.1-.077.149-.116a46.997 46.997 0 0 1-2.18-.162zm9.122-8.63a5.116 5.116 0 0 0-1.77-.046c-.248.036-.495.08-.74.133a4.825 4.825 0 0 1 1.294 1.822c.314.772-.938 1.105-1.248.344a3.165 3.165 0 0 0-1.546-1.637 4.32 4.32 0 0 0-.427.271 4.705 4.705 0 0 0-.505.474c-.344.374-.66.874-.867 1.368a5.358 5.358 0 0 0-.199 1.028c-.127 1.34.255 2.643.914 3.797h.026a12.228 12.228 0 0 1 1.837-.807 17.174 17.174 0 0 1 1.576-.943 16.553 16.553 0 0 1 3.625-1.398l.145-.037c.295-.075.593-.142.893-.2l.18-.034h.002l-.02-.193c-.1-.757-.397-1.46-.78-2.11a5.54 5.54 0 0 0-1.202-1.394l-.002-.001a4.374 4.374 0 0 0-.685-.312l-.09-.031-.41-.094zm-15.774-1.15a20.861 20.861 0 0 0-3.665-.004c-.798.079-1.591.189-2.38.329-.535.091-1.059.22-1.574.382l.295.595c.492.993.996 1.979 1.59 2.916.307.483.64.943 1.002 1.384.244.316.514.609.809.878.077.095.16.184.244.27.27.23.56.433.876.6.255.185.52.347.797.489l.104.052.97.373c.052.014.105.03.157.043l.079.02.148.031.11-.06.056-.03c.032-.016.054.017.06.04.002.009-.001.022-.008.035l.142-.077c.243.099.5.178.778.23.125.023.25.041.376.057l.017.011a.081.081 0 0 1 .008.007h.138c.967.093 1.948-.03 2.914-.204 1.367-.137 2.733-.289 4.1-.43.025-.003.035.008.035.027l.084-.008c.122-.013.264.19.172.264.074.044.145.107.199.156l.03-.002a5.627 5.627 0 0 1-.435-1.152l-.133-.67a6.118 6.118 0 0 1-.06-.78 4.542 4.542 0 0 1-.01-.611 8.078 8.078 0 0 0-.786-.279l-2.27-.278c-.454.017-.908.05-1.361.1-.514.045-1.026.103-1.537.173-.048.005-.134-.06-.185-.134l-.22.03c-.113.014-.232-.214-.082-.26a5.7 5.7 0 0 1 .163-.062l.082-.03-.047.006a.144.144 0 0 1-.057-.01l-.36.045c-.15.019-.116-.18-.01-.227l.05-.02c-.089-.055-.168-.208-.057-.258l.015-.005c.051-.02.102-.038.154-.057a.08.08 0 0 1 .001-.047l-.214.027c-.019.003.074-.133.118-.16l.008-.004.102-.031a.4.4 0 0 1 .127-.15 13.31 13.31 0 0 1 1.09-.306.118.118 0 0 1 .062-.044 8.89 8.89 0 0 1 .688-.133c.016-.023.031-.04.05-.042a8.839 8.839 0 0 1 1.716-.05c.11.01.22.022.33.036.211.024.422.053.632.094.525.09 1.038.227 1.537.412l.115.043c.126.047.25.096.373.149a5.21 5.21 0 0 1 .232-.652c.014-.042.03-.082.046-.122l-.125-.075c-.027.052-.083.092-.12.07-.899-.607-1.85-1.114-2.853-1.518a14.597 14.597 0 0 0-1.724-.635 21.38 21.38 0 0 0-.888-.262 12.242 12.242 0 0 0-.45-.088 12.918 12.918 0 0 0-2.37-.407zm29.635 2.055a13.132 13.132 0 0 1-2.425 3.029c.207-.001.414.007.618.026.353.033.698.092 1.034.174.028-.022.058-.033.083-.016l.087.06c.722.196 1.4.502 2.013.912l-.01-.08a.945.945 0 0 0-.007-.041c.01-.16.013-.319.008-.477-.127-.933-.444-1.793-.806-2.662-.007-.017-.002-.04.008-.061a8.502 8.502 0 0 0-.603-.864zm.166-7.338a7.64 7.64 0 0 0-.805.191c-.5.075-.986.207-1.454.395-.646.23-1.272.496-1.896.778a15.618 15.618 0 0 0-3.381 2.08c-.066.05-.13.101-.193.153-.231.2-.457.41-.67.632-.224.243-.45.487-.673.731-.274.288-.59.548-.839.859-.05.063-.094.133-.134.203l.146.05c.123.042.102.272-.02.238a1.22 1.22 0 0 1-.118-.04.144.144 0 0 1 .03.062c.008.063-.04.148-.116.126a.87.87 0 0 1-.105-.036.481.481 0 0 0-.018.119.1.1 0 0 0 .021.006c.085.03.246.163.27.254.017.07-.042.145-.119.124a1.025 1.025 0 0 1-.167-.064c.037.035.065.072.068.105.005.06-.047.143-.118.124a.898.898 0 0 1-.326-.162c-.023.03-.057.056-.084.048l-.05-.016a.686.686 0 0 1 .038.04l.018.02c.357.386.67.813.919 1.272a10.755 10.755 0 0 1 .401-.326l.037-.032.037-.031-.27.089.005-.007c.02-.024.08-.106.107-.133l.007-.006a6.016 6.016 0 0 1 1.213-.846c.284-.184.581-.339.893-.467.744-.346 1.502-.608 2.281-.852.117-.037.233-.077.35-.114.034-.011.04.003.035.026l.06-.018c.11-.035.294.157.22.246.045.036.089.077.127.115l.028.027.03-.009c.093-.028.25.116.348.218l.073.078c.056.06.165.182.031.23l-.167.057c.005.034-.009.062-.06.081l-.173.061c.035.03.069.062.102.094l.05.047c.058.06.197.192.075.25l-.016.007-.159.057c.02.046.016.09-.054.116-.93.316-1.836.686-2.723 1.107a8.447 8.447 0 0 1-2.104.822c-.06.02-.193-.072-.247-.164l-.11.032-.056.016-.018.003a5.709 5.709 0 0 1 .313 1.263A17.746 17.746 0 0 1 70 20.78a12.038 12.038 0 0 0 1.51-1.066 12.981 12.981 0 0 0 3.096-4.017c.321-.688.586-1.402.787-2.14.184-.674.247-1.33.294-2.029.015-.113.026-.227.035-.341l-.001-.049-.002-.024c-.013-.244-.038-.489-.065-.732zm-9.481 8.669l-.092.03.052.119h.002l.122-.097a.437.437 0 0 1-.084-.052zm9.3-10.505c.233-.087.409-.104.528-.05-.176.014-.352.03-.528.05z" fill="#000"/><path fill-rule="evenodd" clip-rule="evenodd" d="M68.685 61.96c.444-.783 1.769-.656 1.971.258.411 1.853-1.797 3.564-3.475 3.607-1.667.043-3.538-1.377-3.296-3.17.06-.443.652-.39.853-.111l.079.106c.548.737 1.272 1.5 2.289 1.32.422-.074.805-.338 1.06-.677.307-.41.273-.898.52-1.332zm-10.6-13.556a.99.99 0 0 1 .654.047c.447.082.82.455.951.88.01.038.022.074.035.11l.02.054-.054-.137c.025.135.134.276.174.41.048.167.06.355.044.538.142.001.284.006.426.018l.137.012c.766.072 1.608.202 2.062.865.255.372.016 1.042-.453 1.114-.722.11-1.344-.289-2.063-.369a7.183 7.183 0 0 0-2.062.09c-1.386.254-2.659.816-4.009 1.168l-.184.047c-.23.055-.494-.267-.265-.455 1.082-.889 2.467-1.61 3.831-2.048-.199-.316-.26-.733-.124-1.072.02-.07.047-.14.075-.208l.057-.14c.005-.066.018-.131.036-.195l.004-.02.001.001a1.06 1.06 0 0 1 .707-.71zm13.8.051c.296-.296.711-.252 1.02-.019l.041.032c.291.13.532.412.69.674.164.272.273.55.278.849.716.002 1.401.217 1.927.795.17.187.286.475.193.728l-.056.15c-.177.478-.97.753-1.24.191l-.013-.027c-.286-.668-1.386-.597-1.971-.53-.408.049-.81.15-1.204.264-.139.04-.276.083-.413.127l-.138.045c-.073.023-.454.23-.217.182.064-.014.112.08.047.11-.283.136-.585-.134-.566-.438.032-.527.87-.816 1.273-.998l.024-.011c.155-.072.317-.14.484-.204a2.344 2.344 0 0 1-.36-.94.465.465 0 0 1 0-.245l.003-.023A.756.756 0 0 1 71.67 49l-.003-.022h.003a.8.8 0 0 1 .214-.523zm-4.727 5.62c1.136.35 3.011 1.308 2.42 2.785-.828 1.357-3.021.36-4.084-.079-.955-.316-1.452 1.023-.528 1.426 7.629 3.02 7.6-4.95 2.469-4.833-.566.013-.583.584-.277.7zM57.064 43.683l.194-.057c1.007-.292 2.036-.796 2.93-.01.351.31.424.951.172 1.337-.572.877-1.421.743-2.346.818-.704.057-1.397.264-2.054.522a7.219 7.219 0 0 0-1.506.841c-.462.327-.777.837-1.251 1.13-.174.108-.374-.003-.437-.177-.22-.62.153-1.391.469-1.92.386-.643.971-1.17 1.602-1.568.69-.436 1.452-.688 2.227-.916zm14.679-.667c1.703 0 3.341.947 4.294 2.336.323.472.086 1.17-.379 1.442-.52.305-1.078.086-1.421-.351l-.02-.027a5.3 5.3 0 0 0-2.086-1.673 5.51 5.51 0 0 0-1.298-.405l-.142-.025c-.2-.033-.43-.065-.611-.034a.694.694 0 0 0-.268.094c.04.086-.062.19-.156.138-.423-.233-.37-.648-.021-.97.494-.456 1.47-.525 2.108-.525z" fill="#000"/><path fill-rule="evenodd" clip-rule="evenodd" d="M79.397 54.856c-1.571 1.624-4.194 2.09-6.284 1.22-5.367-2.244-2.74-9.24 1.399-11.12.517-.129 1.208-.434 1.837-.504.057-.028.181.053.331-.023 4.565.51 5.604 7.597 2.717 10.427zm-17.311.416c-1.762 2.338-5.038 3.06-7.715 1.973-5.287-2.084-3.412-8.288.206-10.72 7.642-2.873 10.797 4.436 7.509 8.747zm-11.463-5.18l-.015-.006.084-.037-.028.07c-.013-.009-.025-.02-.04-.027zm32.411-2.527c-.43 0-1.054.071-1.411.37-.881-2.97-4.132-5.72-6.959-3.715-2.226.716-3.878 2.305-4.817 4.416-1.693-1.007-4.355-.577-5.823.755-.962-3.178-3.328-4.29-6.145-4.455-3.074-.504-6.137 2.483-7.093 4.879-.796-.09-1.983-.344-2.731.147-4.853-1.273-13.339-1.975-14.326-1.268-.703.27-1.089 1.93-.107 2.02.856-.122-.1-1.217.763-1.336 4.597-.285 9.06.64 13.608 1.03.405.546 1.718.729 2.417.51-1.102 4.063 1.278 6.828 4.843 7.657 5.522 1.268 10.325-3.672 8.881-8.812 1.673-.832 3.597-.796 5.419-.358-3.045 11.21 15.001 10.706 12.183-1.085 1.875.933 2.283-.567 1.298-.755z" fill="#000"/></svg>