<svg width="24" height="24" viewBox="0 0 24 24" fill="none" xmlns="http://www.w3.org/2000/svg"><path d="M12 24C5.383 24 0 18.617 0 12S5.383 0 12 0s12 5.383 12 12-5.383 12-12 12zm0-22.278C6.333 1.722 1.722 6.332 1.722 12c0 5.666 4.61 10.278 10.278 10.278 5.666 0 10.278-4.611 10.278-10.278 0-5.667-4.611-10.278-10.278-10.278z" fill="#FAC917"/><path fill-rule="evenodd" clip-rule="evenodd" d="M9.888 12.158a1.113 1.113 0 0 1-.003-.078V5.49a1.098 1.098 0 1 1 2.196 0v6.125l5.56 3.21a1.098 1.098 0 1 1-1.097 1.903L10.433 13.2c-.38-.22-.58-.633-.545-1.043z" fill="#FAC917"/></svg>