<svg width="25" height="24" viewBox="0 0 25 24" fill="none" xmlns="http://www.w3.org/2000/svg"><path d="M10.713 14.18h4.48c.398 0 .719-.316.719-.79 0-.395-.321-.79-.72-.79h-3.76V6.027c0-.395-.321-.79-.72-.79-.397 0-.719.316-.719.79v7.36c-.08.477.238.794.72.794zm11.592 8.233c0 .08-.08.158-.16.158h-7.193c-.08 0-.161-.079-.161-.158v-1.027c0-.08.08-.158.16-.158h7.197c.08 0 .16.079.16.158v1.027h-.003zm-3.837-3.642h.24l1.122 1.268h-2.4l1.038-1.268zm-1.037-3.006c0-.633.478-1.186 1.12-1.186.64 0 1.121.553 1.121 1.186 0 .632-.482 1.185-1.12 1.185-.643 0-1.121-.553-1.121-1.185zm5.115 4.353h-1.12l-2.159-2.295c.88-.316 1.52-1.186 1.52-2.137 0-1.268-1.041-2.296-2.239-2.296-1.278 0-2.238 1.028-2.238 2.296 0 1.03.639 1.82 1.519 2.137l-2.158 2.295h-1.12c-.56 0-1.041.474-1.041 1.027v1.663c0 .554.478 1.031 1.04 1.031h7.996c.559 0 1.04-.474 1.04-1.03v-1.664c-.08-.553-.481-1.027-1.04-1.027zm1.12-8.944C23.19 5.08 18.07.172 11.835.172 5.356.172 0 5.474 0 12.043c0 6.333 4.637 11.398 10.873 11.635h.559c.398 0 .72-.316.639-.711a.713.713 0 0 0-.72-.712h-.397c-5.2-.395-9.355-4.827-9.355-10.212 0-5.7 4.557-10.29 10.235-10.29 5.436 0 9.836 4.195 10.234 9.576v.948c0 .475.32.87.8.87.397 0 .719-.316.799-.712v-1.26z" fill="#E03A3A"/><path d="M22.713 24h-7.996a1.216 1.216 0 0 1-1.207-1.195v-1.663c0-.65.552-1.196 1.207-1.196h1.047l1.948-2.068a2.38 2.38 0 0 1-1.402-2.2c0-1.38 1.057-2.46 2.409-2.46 1.304 0 2.409 1.127 2.409 2.46 0 .922-.566 1.795-1.402 2.197l1.947 2.071h1.047c.602 0 1.108.494 1.208 1.173l.003.023v1.663A1.234 1.234 0 0 1 22.713 24zm-7.996-3.721a.887.887 0 0 0-.87.863v1.663c0 .46.409.862.87.862h7.996a.89.89 0 0 0 .87-.862v-1.65c-.067-.425-.364-.876-.87-.876H21.52l-2.382-2.533.238-.085c.83-.3 1.408-1.113 1.408-1.983 0-1.155-.947-2.13-2.071-2.13-1.16 0-2.07.935-2.07 2.13 0 .91.538 1.67 1.408 1.983l.237.085-2.382 2.533h-1.188zM11.6 23.842h-.565c-3.051-.115-5.855-1.39-7.892-3.586C1.114 18.072 0 15.158 0 12.04c0-1.627.321-3.205.95-4.69a12.05 12.05 0 0 1 2.586-3.826A12.026 12.026 0 0 1 7.354.945 11.848 11.848 0 0 1 12 0c3.04 0 5.952 1.16 8.193 3.26a12.117 12.117 0 0 1 3.81 7.894v1.294l-.003.016c-.1.491-.505.847-.963.847-.552 0-.967-.445-.967-1.038v-.945c-.401-5.37-4.727-9.418-10.067-9.418-5.55 0-10.067 4.541-10.067 10.123 0 5.24 4.038 9.649 9.194 10.044h.395c.485 0 .88.385.886.863a.725.725 0 0 1-.157.602.85.85 0 0 1-.656.3zm-.555-.333h.555a.505.505 0 0 0 .392-.17.388.388 0 0 0 .083-.343l-.003-.017v-.016a.543.543 0 0 0-.552-.547h-.412c-5.332-.405-9.511-4.963-9.511-10.377 0-2.799 1.077-5.426 3.038-7.396A10.31 10.31 0 0 1 12 1.587a10.36 10.36 0 0 1 7.123 2.816 10.54 10.54 0 0 1 3.278 6.915v.962c0 .349.218.705.633.705.294 0 .558-.237.632-.563v-1.245C23.185 5.097 18.063.333 12 .333 5.567.333.335 5.585.335 12.04c0 6.306 4.603 11.236 10.709 11.47zm11.271-.777H15.12a.34.34 0 0 1-.328-.323v-1.027a.34.34 0 0 1 .328-.326h7.196a.34.34 0 0 1 .328.326v1.027a.34.34 0 0 1-.328.323zM15.13 22.4h7.176v-1.015l-.003-.003h-7.173l-.003.003.003 1.015c-.003 0-.003 0 0 0zm5.236-2.2h-3.122l1.312-1.597h.398l1.412 1.597zm-2.416-.333h1.676l-.826-.935h-.084l-.766.935zm.766-2.756c-.709 0-1.288-.606-1.288-1.354 0-.747.58-1.353 1.288-1.353.71 0 1.288.606 1.288 1.353 0 .748-.578 1.354-1.288 1.354zm0-2.371c-.525 0-.95.458-.95 1.02 0 .564.428 1.022.95 1.022.526 0 .95-.458.95-1.021s-.424-1.021-.95-1.021zm-3.359-.399h-4.643v-.013a.86.86 0 0 1-.546-.283.827.827 0 0 1-.174-.675V6.023c0-.547.382-.958.887-.958.472 0 .886.448.886.958v6.405h3.59c.472 0 .887.448.887.958.003.544-.378.955-.887.955zm-4.309-.329h4.31c.317 0 .551-.263.551-.626 0-.296-.234-.625-.552-.625h-3.924V6.023c0-.296-.234-.626-.552-.626-.325 0-.552.257-.552.626V13.4l-.003.013c-.03.171.003.316.097.421.097.116.26.178.458.178h.167z" fill="#E03A3A"/></svg>