<svg width="24" height="24" viewBox="0 0 24 24" fill="none" xmlns="http://www.w3.org/2000/svg"><path d="M12 24C5.383 24 0 18.617 0 12S5.383 0 12 0s12 5.383 12 12-5.383 12-12 12zm0-22.278C6.333 1.722 1.722 6.332 1.722 12c0 5.666 4.61 10.278 10.278 10.278 5.666 0 10.278-4.611 10.278-10.278 0-5.667-4.611-10.278-10.278-10.278z" fill="#FAC917"/><g clip-path="url(#clip0_11515_75425)" fill="#FAC917"><path d="M14.9 10.446l.004.008a.81.81 0 0 0 1.079.285l2.26-1.303a.777.777 0 0 0 .369-.483.774.774 0 0 0-.084-.596.795.795 0 0 0-.485-.376.761.761 0 0 0-.593.084l-2.257 1.3a.798.798 0 0 0-.294 1.081zM9.571 16.434l-.005-.003a.802.802 0 0 0-.602-.075.801.801 0 0 0-.484.366l-.412.72a.785.785 0 0 0 .293 1.084.785.785 0 0 0 .596.082.797.797 0 0 0 .488-.374l.408-.715a.771.771 0 0 0 .086-.59.802.802 0 0 0-.368-.495zM8.105 14.374a.796.796 0 0 0-1.08-.296l-1.107.64a.782.782 0 0 0-.37.49.77.77 0 0 0 .086.594c.1.179.266.308.466.365a.8.8 0 0 0 .616-.072l1.097-.64a.795.795 0 0 0 .292-1.08zM9.435 5.921a.79.79 0 1 0-1.368.79l1.297 2.255.002.003a.808.808 0 0 0 .69.393.776.776 0 0 0 .397-.108.794.794 0 0 0 .284-1.084L9.435 5.921zM7.93 12.076a.791.791 0 0 0-.79-.79H5.424a.794.794 0 0 0 0 1.586H7.14a.794.794 0 0 0 .79-.796zM5.92 9.437l1.872 1.078a.804.804 0 0 0 1.082-.291l.004-.004a.793.793 0 0 0-.295-1.074L6.717 8.064a.796.796 0 0 0-.615-.077.773.773 0 0 0-.469.371.78.78 0 0 0 .287 1.08zM12.077 17.557a.791.791 0 0 0-.79.79v.387a.795.795 0 0 0 1.59 0v-.386a.796.796 0 0 0-.8-.791zM15.01 17.152l-.004.002a.8.8 0 0 0-.368.494.766.766 0 0 0 .09.587.785.785 0 0 0 1.072.287.77.77 0 0 0 .37-.472.792.792 0 0 0-1.16-.898zM19.299 11.521a.785.785 0 0 0-.566-.234h-2.6a.791.791 0 0 0-.791.791c0 .439.355.796.79.796h2.602a.785.785 0 0 0 .792-.79.779.779 0 0 0-.227-.563zM14.794 8.966l1.302-2.252a.784.784 0 0 0-.293-1.086.793.793 0 0 0-1.081.292L13.42 8.172l-.001.001a.8.8 0 0 0 .29 1.086.799.799 0 0 0 1.085-.293zM12.077 4.633a.804.804 0 0 0-.79.795v2.598c0 .44.353.798.79.798h.003a.806.806 0 0 0 .563-.235.79.79 0 0 0 .233-.563V5.428a.798.798 0 0 0-.799-.795z"/></g><defs><clipPath id="clip0_11515_75425"><path fill="#fff" transform="translate(4.392 4.393)" d="M0 0h15.373v15.373H0z"/></clipPath></defs></svg>