<svg width="22" height="22" viewBox="0 0 22 22" fill="none" xmlns="http://www.w3.org/2000/svg">
<path d="M10.93 0.000106812C4.9029 0.000106812 0 4.903 0 10.9301C0 16.9572 4.9029 21.8601 10.93 21.8601C16.9571 21.8601 21.86 16.9572 21.86 10.9301C21.86 4.903 16.9571 0.000106812 10.93 0.000106812ZM10.93 20.2917C5.76791 20.2917 1.56844 16.0922 1.56844 10.9301C1.56844 5.76881 5.76791 1.56854 10.93 1.56854C16.0913 1.56854 20.2916 5.76877 20.2916 10.9301C20.2916 16.0922 16.0913 20.2917 10.93 20.2917Z" fill="#E03A3A"/>
<path d="M12.0279 10.8962L15.4037 14.2353C15.7106 14.5382 15.7129 15.0324 15.41 15.3392C15.107 15.646 14.6121 15.6484 14.306 15.3455L10.9255 12.0024L7.59658 15.3416C7.2913 15.6468 6.79792 15.6484 6.49265 15.3431C6.18737 15.0386 6.18661 14.5445 6.49109 14.2392L9.81536 10.9048L6.46373 7.58905C6.1569 7.28537 6.15455 6.79195 6.45748 6.48512C6.61049 6.33055 6.81114 6.25325 7.01255 6.25325C7.21085 6.25325 7.40915 6.32896 7.56141 6.47887L10.9177 9.79847L14.3013 6.40391C14.4536 6.2509 14.6534 6.17439 14.8541 6.17439C15.0539 6.17439 15.253 6.2509 15.4052 6.40236C15.7105 6.70684 15.7113 7.20026 15.4068 7.50629L12.0279 10.8962Z" fill="#E03A3A"/>
</svg>
