<svg width="22" height="22" viewBox="0 0 22 22" fill="none" xmlns="http://www.w3.org/2000/svg">
<path d="M10.9282 21.8565C4.90216 21.8565 0 16.9543 0 10.9282C0 4.90216 4.90214 0 10.9282 0C16.9543 0 21.8565 4.90214 21.8565 10.9282C21.8565 16.9543 16.9543 21.8565 10.9282 21.8565ZM10.9282 1.56818C5.76699 1.56818 1.5682 5.76697 1.5682 10.9281C1.5682 16.0886 5.76699 20.2883 10.9282 20.2883C16.0887 20.2883 20.2883 16.0886 20.2883 10.9281C20.2883 5.76697 16.0886 1.56818 10.9282 1.56818Z" fill="#3AE090"/>
<path d="M16.1729 8.03048C15.8669 7.72687 15.372 7.72994 15.0693 8.03668L9.37877 13.7896L6.85974 11.2012C6.55852 10.8913 6.06432 10.8858 5.7561 11.1856C5.44688 11.4862 5.43988 11.981 5.74049 12.2893L8.81445 15.4484C8.81601 15.4507 8.81909 15.4507 8.82065 15.453C8.82221 15.4546 8.82301 15.4577 8.82458 15.4592C8.87377 15.5077 8.93462 15.5374 8.99241 15.5701C9.02289 15.5866 9.04706 15.6139 9.07826 15.6263C9.17272 15.6654 9.27338 15.6848 9.37328 15.6848C9.47238 15.6848 9.5716 15.6654 9.66521 15.6279C9.6957 15.6154 9.71907 15.5904 9.74799 15.5748C9.80648 15.542 9.86746 15.5132 9.91738 15.464C9.91892 15.4624 9.91977 15.4592 9.92202 15.4577C9.92358 15.4554 9.92594 15.4546 9.92834 15.453L16.1784 9.13493C16.4821 8.82741 16.4789 8.33334 16.1729 8.03048Z" fill="#3AE090"/>
</svg>
