<svg width="26" height="26" viewBox="0 0 26 26" fill="none" xmlns="http://www.w3.org/2000/svg">
<path d="M10.0846 16.3033C9.43019 17.0132 8.57974 17.5129 7.64104 17.7388C6.70234 17.9648 5.71767 17.907 4.81189 17.5727C3.9061 17.2383 3.12 16.6425 2.55324 15.8609C1.98649 15.0792 1.66461 14.1468 1.62843 13.182C1.59224 12.2171 1.84337 11.2633 2.34998 10.4413C2.85659 9.61941 3.59586 8.96642 4.47405 8.56517C5.35225 8.16392 6.32982 8.03248 7.28281 8.18752C8.2358 8.34256 9.12129 8.77709 9.827 9.43602L14.0813 6.66215C13.7413 5.83006 13.7198 4.90189 14.0208 4.05493C14.3218 3.20797 14.9242 2.50156 15.713 2.07063C16.5019 1.6397 17.4218 1.51444 18.2971 1.71879C19.1724 1.92313 19.9418 2.44276 20.4583 3.17842C20.9748 3.91407 21.2022 4.81421 21.0971 5.7069C20.9919 6.59959 20.5617 7.42228 19.8884 8.01784C19.2152 8.61339 18.3461 8.94008 17.4473 8.93551C16.5484 8.93093 15.6828 8.59541 15.0156 7.99303L10.815 10.7311C11.1725 11.4096 11.374 12.1815 11.374 13.0005C11.3748 13.6676 11.2382 14.3278 10.9726 14.9399L17.0932 18.3825C17.6681 17.6915 18.4774 17.2365 19.3665 17.1044C20.2555 16.9723 21.1621 17.1724 21.9131 17.6663C22.664 18.1603 23.2067 18.9136 23.4375 19.7823C23.6683 20.651 23.5709 21.5743 23.1641 22.3758C22.7573 23.1773 22.0695 23.8009 21.232 24.1274C20.3946 24.454 19.4662 24.4606 18.6242 24.146C17.7822 23.8315 17.0856 23.2178 16.6674 22.4221C16.2492 21.6265 16.1387 20.7047 16.3571 19.8328L10.0846 16.3033Z" fill="#111111"/>
</svg>
