<svg width="19" height="18" viewBox="0 0 19 18" fill="none" xmlns="http://www.w3.org/2000/svg"><path d="M9.061 2.582l.448.61.444-.613c.94-1.298 2.116-2.028 3.57-2.028 2.657 0 4.926 2.43 4.926 5.52 0 1.826-.8 3.108-1.506 4.23-.983 1.561-2.679 3.218-4.19 4.525-1.268 1.098-2.356 1.908-2.75 2.201l-.136.102a.627.627 0 0 1-.373.133.554.554 0 0 1-.363-.125 46.759 46.759 0 0 1-2.895-2.306c-1.51-1.306-3.201-2.962-4.178-4.528v-.001C1.35 9.179.55 7.897.55 6.072.551 2.97 2.82.552 5.488.552c1.453 0 2.619.728 3.573 2.03z" stroke="#E03A3A" stroke-width="1.103"/></svg>
