<svg width="18" height="18" viewBox="0 0 18 18" fill="none" xmlns="http://www.w3.org/2000/svg"><path d="M9.064 5.806L8.253 4.7c-.66-.9-1.403-1.332-2.294-1.332-1.69 0-3.234 1.554-3.234 3.685 0 1.227.527 2.09 1.073 2.958l.002.004c.706 1.13 1.956 2.362 3.112 3.362.946.819 1.74 1.409 2.069 1.654.026.02.049.037.07.051l.063-.047a35.898 35.898 0 0 0 2.075-1.661c1.158-1.002 2.412-2.234 3.122-3.363L9.064 5.806zm0 0l.805-1.11m-.805 1.11l.805-1.11m0 0c.647-.893 1.397-1.328 2.29-1.328 1.678 0 3.226 1.56 3.226 3.685M9.869 4.696l5.516 2.357m0 0c0 1.227-.528 2.09-1.073 2.958l1.073-2.958z" fill="#fff" stroke="#fff" stroke-width="2"/><path d="M4.592 2.62c-1.666.63-2.867 2.377-2.867 4.434 0 .27.02.525.058.768A7.078 7.078 0 0 1 4.592 2.62zm3.044 12.645c.49.383.823.623.87.66.166.132.35.188.544.188a.91.91 0 0 0 .544-.188c.051-.04.445-.325 1.012-.773a7.1 7.1 0 0 1-2.97.113zm5.228-12.83a7.08 7.08 0 0 1 3.01 6.846 5.18 5.18 0 0 0 .51-2.227c0-2.311-1.527-4.244-3.52-4.619z" fill="#fff"/><path d="M6.041 2.37l-.081-.002c-.479 0-.939.089-1.368.251a7.078 7.078 0 0 0-2.809 5.202c.176 1.147.72 2.008 1.17 2.723.085.137.178.276.276.415A6.118 6.118 0 0 1 6.041 2.37zm6.824.064a3.81 3.81 0 0 0-.705-.066c-.305 0-.594.037-.87.108a6.117 6.117 0 1 1-6.507 10.289c1.012 1.017 2.112 1.92 2.853 2.5a7.122 7.122 0 0 0 2.97-.113c1.283-1.013 3.452-2.86 4.552-4.608.235-.374.496-.789.717-1.263a7.08 7.08 0 0 0-3.01-6.846z" fill="#fff"/><path d="M14.67 7.948a6.117 6.117 0 0 0-3.382-5.472c-.35.089-.675.231-.978.422a5.147 5.147 0 1 1-3.141-.314 3.409 3.409 0 0 0-1.13-.214 6.118 6.118 0 0 0-2.812 8.589c.434.613.98 1.227 1.554 1.806a6.117 6.117 0 0 0 9.888-4.817z" fill="#fff"/><path d="M3.105 7.615a5.146 5.146 0 1 0 7.205-4.717 4.073 4.073 0 0 0-.694.555 4.175 4.175 0 1 1-1.512-.343c-.289-.224-.6-.401-.935-.527a5.147 5.147 0 0 0-4.064 5.032z" fill="#fff"/><path d="M3.775 7.282a4.174 4.174 0 1 0 5.841-3.828 5.24 5.24 0 0 0-.538.628 3.203 3.203 0 1 1-.063-.03 4.902 4.902 0 0 0-.91-.941 4.174 4.174 0 0 0-4.33 4.171z" fill="#fff"/><path d="M4.445 6.949A3.203 3.203 0 1 0 9.08 4.082l-.02.027-.044-.058a3.203 3.203 0 0 0-4.57 2.897zm5.134-.333a2.232 2.232 0 1 1-4.464 0 2.232 2.232 0 0 1 4.464 0z" fill="#fff"/><path d="M5.115 6.616a2.232 2.232 0 1 0 4.464 0 2.232 2.232 0 0 0-4.464 0z" fill="#fff"/><path d="M12.16 2.685c.52 0 1.027.114 1.506.34.464.218.883.532 1.243.931.363.402.648.87.847 1.391a4.783 4.783 0 0 1-.071 3.58c-.228.546-.527 1.022-.791 1.442l-.004.006c-.605.96-1.614 2.068-3 3.293a36.414 36.414 0 0 1-2.487 2.004.595.595 0 0 1-.353.124.539.539 0 0 1-.348-.12 5.27 5.27 0 0 0-.1-.075c-.322-.239-1.3-.964-2.394-1.932-1.382-1.222-2.387-2.33-2.988-3.293v-.001l-.004-.006c-.265-.42-.564-.896-.792-1.442a4.784 4.784 0 0 1-.383-1.874c0-2.408 1.758-4.368 3.918-4.368a3.09 3.09 0 0 1 1.578.421c.458.267.884.667 1.267 1.19l.257.35.255-.352c.377-.52.802-.92 1.262-1.188a3.103 3.103 0 0 1 1.581-.421zm0-.317c-1.292 0-2.316.659-3.1 1.74-.794-1.081-1.809-1.74-3.1-1.74-2.335 0-4.235 2.098-4.235 4.685 0 1.543.682 2.625 1.227 3.49 1.577 2.531 5.388 5.25 5.554 5.382.166.131.35.188.544.188a.91.91 0 0 0 .544-.188c.167-.132 3.977-2.86 5.564-5.382.544-.865 1.227-1.947 1.227-3.49 0-2.577-1.9-4.685-4.226-4.685z" fill="#fff"/><path d="M3.955 4.816a.316.316 0 0 1-.246-.516c1.011-1.247 2.536-1.1 2.6-1.093a.316.316 0 0 1-.066.63c-.01-.001-.328-.03-.737.064A2.297 2.297 0 0 0 4.2 4.7a.316.316 0 0 1-.246.117zM3.295 5.9a.315.315 0 0 1-.29-.44l.092-.217a.316.316 0 1 1 .582.25l-.093.216a.316.316 0 0 1-.291.191z" fill="#fff"/></svg>