<svg width="16" height="16" viewBox="0 0 16 16" fill="none" xmlns="http://www.w3.org/2000/svg">
<path d="M4 3.30916V2.3335C4 2.06828 4.10536 1.81393 4.29289 1.62639C4.48043 1.43885 4.73478 1.3335 5 1.3335H13.6667C13.9319 1.3335 14.1862 1.43885 14.3738 1.62639C14.5613 1.81393 14.6667 2.06828 14.6667 2.3335V11.0002C14.6667 11.2654 14.5613 11.5197 14.3738 11.7073C14.1862 11.8948 13.9319 12.0002 13.6667 12.0002H12.6723" stroke="white"/>
<path d="M11.6668 3.3335H2.3335C1.78121 3.3335 1.3335 3.78121 1.3335 4.3335V13.6668C1.3335 14.2191 1.78121 14.6668 2.3335 14.6668H11.6668C12.2191 14.6668 12.6668 14.2191 12.6668 13.6668V4.3335C12.6668 3.78121 12.2191 3.3335 11.6668 3.3335Z" stroke="white" stroke-linejoin="round"/>
<path d="M6.14681 7.7034L7.9108 5.86673C8.3948 5.38306 9.1898 5.3934 9.6868 5.89073C10.1841 6.3874 10.1948 7.18273 9.7108 7.66673L9.07414 8.34106M4.4888 9.5824C4.3188 9.7524 3.96714 10.0924 3.96714 10.0924C3.48314 10.5757 3.4698 11.4384 3.96714 11.9357C4.4638 12.4324 5.25914 12.4431 5.74314 11.9591L7.46447 10.3964" stroke="white" stroke-linecap="round" stroke-linejoin="round"/>
<path d="M6.22126 9.44299C5.99996 9.22294 5.86611 8.93 5.84459 8.61866C5.83176 8.44403 5.85661 8.26867 5.91746 8.10448C5.9783 7.94029 6.07373 7.79109 6.19726 7.66699M7.44093 8.62066C7.9376 9.11766 7.9486 9.91299 7.46459 10.3967" stroke="white" stroke-linecap="round" stroke-linejoin="round"/>
</svg>
