<svg width="13" height="13" viewBox="0 0 13 13" fill="none" xmlns="http://www.w3.org/2000/svg">
<path d="M6.41312 0.000590725C2.82357 0.0486342 -0.0471735 2.9978 0.000587411 6.58749C0.0486309 10.1756 2.99751 13.0472 6.58693 12.9995C10.1758 12.9511 13.0471 10.002 12.9993 6.41256C12.9513 2.82413 10.0023 -0.0473115 6.41312 0.000590725ZM6.3939 10.4565L6.35801 10.456C5.80523 10.4396 5.41551 10.0324 5.4312 9.48777C5.4466 8.95251 5.84578 8.56392 6.38034 8.56392L6.41241 8.56448C6.9806 8.5813 7.36594 8.98444 7.34997 9.54471C7.33414 10.0815 6.94118 10.4565 6.3939 10.4565ZM8.71907 5.84169C8.58907 6.02637 8.30321 6.25571 7.94302 6.53634L7.54638 6.81019C7.32863 6.97947 7.19722 7.13872 7.1479 7.29543C7.10905 7.41879 7.08997 7.45143 7.08658 7.70239L7.08601 7.76611H5.57151L5.57589 7.63795C5.5944 7.11117 5.6074 6.80129 5.82572 6.54524C6.16824 6.14309 6.9238 5.65658 6.95587 5.63595C7.06411 5.55442 7.15539 5.46158 7.22336 5.36239C7.38233 5.14322 7.4527 4.97069 7.4527 4.80112C7.4527 4.56585 7.38289 4.34824 7.24484 4.15452C7.11215 3.96757 6.86007 3.8729 6.4955 3.8729C6.1339 3.8729 5.88634 3.98763 5.73825 4.22305C5.58593 4.4651 5.50891 4.71931 5.50891 4.97903V5.0436H3.94736L3.95019 4.9762C3.99046 4.01971 4.33185 3.33099 4.96447 2.92912C5.36196 2.67322 5.85652 2.5435 6.43361 2.5435C7.18902 2.5435 7.82673 2.72706 8.32878 3.08908C8.83748 3.45591 9.0955 4.0053 9.0955 4.72199C9.0955 5.12287 8.96889 5.49945 8.71907 5.84169Z" fill="#030104"/>
</svg>
