<svg width="16" height="17" viewBox="0 0 16 17" fill="none" xmlns="http://www.w3.org/2000/svg"><path d="M7.894.5a8 8 0 1 0 .215 16 8 8 0 0 0-.215-16zM7.87 13.37l-.044-.001c-.68-.02-1.16-.521-1.141-1.192.019-.659.51-1.137 1.168-1.137h.04c.699.022 1.173.518 1.154 1.207-.02.661-.504 1.123-1.177 1.123zm2.862-5.68c-.16.227-.512.51-.955.855l-.489.337c-.268.208-.43.404-.49.597-.048.152-.071.192-.076.5v.08H6.858l.005-.158c.023-.649.039-1.03.308-1.345.421-.495 1.351-1.094 1.39-1.12.134-.1.246-.214.33-.336.195-.27.282-.482.282-.69 0-.29-.086-.558-.256-.797-.163-.23-.473-.346-.922-.346-.445 0-.75.14-.932.43a1.73 1.73 0 0 0-.282.931v.08H4.859l.003-.083c.05-1.178.47-2.025 1.249-2.52.489-.315 1.098-.475 1.808-.475.93 0 1.714.226 2.332.672.626.451.944 1.128.944 2.01a2.3 2.3 0 0 1-.463 1.378z" fill="#030104"/></svg>