<svg width="20" height="20" viewBox="0 0 20 20" fill="none" xmlns="http://www.w3.org/2000/svg">
<path d="M19.3332 8.00002V3.33335L17.8112 4.85535C16.9614 3.56788 15.8056 2.51128 14.4473 1.78016C13.0889 1.04903 11.5705 0.666226 10.0278 0.666016C4.87318 0.666016 0.693848 4.84468 0.693848 10C0.693848 15.1553 4.87318 19.334 10.0278 19.334C11.8855 19.3344 13.701 18.7805 15.242 17.7432C16.7831 16.706 17.9796 15.2325 18.6785 13.5113C18.718 13.414 18.738 13.3099 18.7373 13.2049C18.7366 13.0998 18.7152 12.996 18.6743 12.8992C18.6335 12.8025 18.5739 12.7147 18.4992 12.6409C18.4244 12.5672 18.3358 12.5089 18.2385 12.4693C18.1412 12.4298 18.0371 12.4098 17.932 12.4106C17.827 12.4113 17.7231 12.4327 17.6264 12.4735C17.5296 12.5144 17.4419 12.5739 17.3681 12.6487C17.2943 12.7235 17.236 12.812 17.1965 12.9093C16.6171 14.3354 15.6255 15.5563 14.3485 16.4158C13.0715 17.2752 11.5671 17.7342 10.0278 17.734C5.75651 17.734 2.29385 14.2713 2.29385 10C2.29385 5.72868 5.75651 2.26602 10.0278 2.26602C12.7872 2.26602 15.2765 3.72602 16.6532 6.01268L14.6665 8.00002H19.3332Z" fill="#111111" stroke="#111111"/>
</svg>
