<svg width="24" height="24" viewBox="0 0 24 24" fill="none" xmlns="http://www.w3.org/2000/svg">
<path d="M11.6311 19.5884L3.44203 11.1309L5.54107 9.4226L10.2764 13.1935C12.217 10.8502 16.5248 6.20065 22.4681 2.50294L22.9683 3.67434C17.513 8.76352 13.0467 15.927 11.6311 19.5884ZM21.9703 10.3537C22.0584 10.8895 22.1048 11.4394 22.1048 12C22.1048 17.5809 17.5809 22.1049 12 22.1049C6.41952 22.1049 1.89513 17.581 1.89513 12C1.89513 6.4193 6.41952 1.89541 12 1.89541C13.3472 1.89541 14.633 2.15977 15.8081 2.63836V0.617132C14.5851 0.207433 13.3078 0 12 0C10.3809 0 8.80921 0.317582 7.32845 0.943813C5.89923 1.54849 4.61576 2.41336 3.51422 3.51466C2.4136 4.61623 1.54827 5.89918 0.943593 7.32864C0.317335 8.80899 0 10.381 0 12C0 13.6193 0.317335 15.191 0.943593 16.6714C1.54827 18.1008 2.4136 19.3838 3.51422 20.4853C4.61576 21.5869 5.89923 22.4517 7.32845 23.0562C8.80921 23.6824 10.3809 24 12 24C13.619 24 15.1908 23.6824 16.6715 23.0562C18.1007 22.4517 19.3837 21.5869 20.4853 20.4853C21.5868 19.3838 22.4517 18.1008 23.0559 16.6716C23.6826 15.191 24 13.6191 24 12C24 11.4453 23.9625 10.8959 23.8884 10.3538H21.9703V10.3537Z" fill="#57D879"/>
</svg>
