<svg width="24" height="24" viewBox="0 0 24 24" fill="none" xmlns="http://www.w3.org/2000/svg">
<path d="M14.2125 10.05C13.5375 10.05 12.975 10.65 12.975 11.4001C12.975 12.1501 13.5375 12.7501 14.2125 12.7501C14.8875 12.7501 15.45 12.1501 15.45 11.4001C15.45 10.65 14.8875 10.05 14.2125 10.05ZM9.825 10.05C9.14999 10.05 8.58749 10.65 8.58749 11.4001C8.58749 12.1501 9.14999 12.7501 9.825 12.7501C10.5 12.7501 11.0625 12.1501 11.0625 11.4001C11.0625 10.65 10.5 10.05 9.825 10.05Z" fill="white"/>
<path d="M20.025 0H3.975C2.5875 0 1.5 1.0875 1.5 2.475V18.7125C1.5 20.0625 2.5875 21.1875 3.975 21.1875H17.5875L16.95 18.975L18.4875 20.4L19.95 21.75L22.5 24V2.475C22.5 1.0875 21.4125 0 20.025 0ZM15.4125 15.675C15.4125 15.675 14.9625 15.15 14.625 14.7C16.2 14.25 16.8 13.275 16.8 13.275C16.3125 13.6125 15.825 13.8375 15.4125 13.9875C14.8125 14.25 14.25 14.4 13.6875 14.5125C12.525 14.7375 11.475 14.6625 10.575 14.5125C9.9 14.3625 9.3 14.175 8.8125 13.9875C8.55 13.875 8.25 13.7625 7.95 13.575C7.9125 13.5375 7.875 13.5375 7.8375 13.5C7.8 13.5 7.8 13.4625 7.8 13.4625C7.575 13.35 7.4625 13.275 7.4625 13.275C7.4625 13.275 8.025 14.25 9.5625 14.7C9.1875 15.15 8.775 15.7125 8.775 15.7125C6.1125 15.6375 5.1 13.875 5.1 13.875C5.1 10.0125 6.825 6.8625 6.825 6.8625C8.55 5.55 10.2 5.5875 10.2 5.5875L10.3125 5.7375C8.1375 6.375 7.125 7.3125 7.125 7.3125C7.125 7.3125 7.3875 7.1625 7.8375 6.975C9.1125 6.4125 10.125 6.2625 10.575 6.225C10.65 6.225 10.725 6.1875 10.7625 6.1875C11.5125 6.075 12.3375 6.075 13.2 6.15C14.325 6.3 15.5625 6.6 16.8 7.3125C16.8 7.3125 15.8625 6.4125 13.8 5.775L13.95 5.5875C13.95 5.5875 15.6 5.55 17.325 6.8625C17.325 6.8625 19.05 10.0125 19.05 13.875C19.0875 13.8375 18.075 15.6 15.4125 15.675Z" fill="white"/>
</svg>
