<svg width="66" height="66" viewBox="0 0 66 66" fill="none" xmlns="http://www.w3.org/2000/svg">
<rect width="66" height="66" rx="33" fill="#FEE1BF"/>
<path d="M44.6663 33.8633C43.6822 33.711 43.3386 33.9928 42.9479 33.5197C42.4279 32.9354 42.933 32.1519 43.0625 31.9675L43.0797 31.9422L44.9286 29.2605C45.6149 28.2643 45.8833 27.0387 45.6762 25.8468C45.4691 24.655 44.803 23.5918 43.8208 22.8855C43.3365 22.5412 42.7884 22.2969 42.2085 22.1671C41.6286 22.0372 41.0287 22.0243 40.4438 22.1292C39.8589 22.2341 39.3007 22.4546 38.8021 22.7778C38.3035 23.101 37.8743 23.5204 37.5398 24.0116L36.8902 24.9544L36.7436 25.1663C36.4503 25.5649 35.7619 26.36 35.1398 26.0415C34.5991 25.7666 34.5739 25.211 34.37 24.8123C34.0401 24.0414 33.5033 23.3769 32.8189 22.8924C32.335 22.5475 31.7871 22.3027 31.2074 22.1722C30.6277 22.0417 30.0277 22.0282 29.4427 22.1324C28.8577 22.2366 28.2994 22.4565 27.8004 22.7792C27.3014 23.1019 26.8718 23.5208 26.5367 24.0116L18.417 35.7993C17.7307 36.7956 17.4623 38.0211 17.6694 39.213C17.8765 40.4049 18.5426 41.4681 19.5247 42.1744C20.0088 42.5182 20.5566 42.7622 21.136 42.8919C21.7154 43.0217 22.3149 43.0346 22.8994 42.9299C23.4839 42.8253 24.0417 42.6052 24.5401 42.2825C25.0386 41.9598 25.4677 41.541 25.8024 41.0506L26.8964 39.464C27.1668 39.102 27.4348 38.8729 27.9182 38.8912C28.475 38.9118 28.6342 39.2933 28.7625 39.6369C29.0363 40.6619 29.6589 41.5592 30.5232 42.1744C31.0073 42.5182 31.5551 42.7622 32.1345 42.8919C32.7139 43.0217 33.3134 43.0346 33.8979 42.9299C34.4824 42.8253 35.0402 42.6052 35.5386 42.2825C36.0371 41.9598 36.4662 41.541 36.8009 41.0506C37.4882 40.1731 38.1389 38.6518 39.092 39.0344C39.4975 39.1971 39.6648 39.5121 39.8217 39.8993C39.886 40.0874 39.9625 40.2711 40.0508 40.4491C40.1857 40.7575 40.3682 41.0428 40.5915 41.2946C41.0641 41.8803 41.6737 42.3407 42.3665 42.6349C43.0592 42.9291 43.8138 43.0481 44.5635 42.9815C45.3132 42.9148 46.0349 42.6646 46.6649 42.2528C47.2949 41.841 47.8137 41.2803 48.1756 40.6204C48.5375 39.9604 48.7312 39.2215 48.7397 38.4689C48.7482 37.7163 48.5711 36.9732 48.2242 36.3053C47.8773 35.6374 47.3713 35.0652 46.7507 34.6393C46.1302 34.2134 45.4143 33.9469 44.6663 33.8633Z" fill="#111111"/>
</svg>
