<svg width="18" height="19" viewBox="0 0 18 19" fill="none" xmlns="http://www.w3.org/2000/svg">
<g clip-path="url(#clip0_16923_88108)">
<path d="M10.6592 8.04736C10.1529 8.04736 9.73106 8.49736 9.73106 9.05986C9.73106 9.62236 10.1529 10.0724 10.6592 10.0724C11.1654 10.0724 11.5873 9.62236 11.5873 9.05986C11.5873 8.49736 11.1654 8.04736 10.6592 8.04736V8.04736ZM7.36856 8.04736C6.86231 8.04736 6.44043 8.49736 6.44043 9.05986C6.44043 9.62236 6.86231 10.0724 7.36856 10.0724C7.87481 10.0724 8.29668 9.62236 8.29668 9.05986C8.29668 8.49736 7.87481 8.04736 7.36856 8.04736V8.04736Z" fill="#252A2F"/>
<path d="M15.0188 0.509766H2.98125C1.94063 0.509766 1.125 1.32539 1.125 2.36602V14.5441C1.125 15.5566 1.94063 16.4004 2.98125 16.4004H13.1906L12.7125 14.741L13.8656 15.8098L14.9625 16.8223L16.875 18.5098V2.36602C16.875 1.32539 16.0594 0.509766 15.0188 0.509766ZM11.5594 12.266C11.5594 12.266 11.2219 11.8723 10.9688 11.5348C12.15 11.1973 12.6 10.466 12.6 10.466C12.2344 10.7191 11.8687 10.8879 11.5594 11.0004C11.1094 11.1973 10.6875 11.3098 10.2656 11.3941C9.39375 11.5629 8.60625 11.5066 7.93125 11.3941C7.425 11.2816 6.975 11.141 6.60938 11.0004C6.4125 10.916 6.1875 10.8316 5.9625 10.691C5.93438 10.6629 5.90625 10.6629 5.87812 10.6348C5.85 10.6348 5.85 10.6066 5.85 10.6066C5.68125 10.5223 5.59687 10.466 5.59687 10.466C5.59687 10.466 6.01875 11.1973 7.17188 11.5348C6.89062 11.8723 6.58125 12.2941 6.58125 12.2941C4.58437 12.2379 3.825 10.916 3.825 10.916C3.825 8.01914 5.11875 5.65664 5.11875 5.65664C6.4125 4.67227 7.65 4.70039 7.65 4.70039L7.73438 4.81289C6.10312 5.29102 5.34375 5.99414 5.34375 5.99414C5.34375 5.99414 5.54062 5.88164 5.87812 5.74102C6.83437 5.31914 7.59375 5.20664 7.93125 5.17852C7.9875 5.17852 8.04375 5.15039 8.07188 5.15039C8.63438 5.06602 9.25313 5.06602 9.9 5.12227C10.7438 5.23477 11.6719 5.45977 12.6 5.99414C12.6 5.99414 11.8969 5.31914 10.35 4.84102L10.4625 4.70039C10.4625 4.70039 11.7 4.67227 12.9938 5.65664C12.9938 5.65664 14.2875 8.01914 14.2875 10.916C14.3156 10.8879 13.5562 12.2098 11.5594 12.266V12.266Z" fill="#252A2F"/>
</g>
<defs>
<clipPath id="clip0_16923_88108">
<rect width="18" height="18" fill="white" transform="translate(0 0.509766)"/>
</clipPath>
</defs>
</svg>
