<svg width="18" height="19" viewBox="0 0 18 19" fill="none" xmlns="http://www.w3.org/2000/svg">
<g clip-path="url(#clip0_16918_76330)">
<path d="M9 6.50977C7.34809 6.50977 6 7.85785 6 9.50977C6 11.1617 7.34809 12.5098 9 12.5098C10.6519 12.5098 12 11.1617 12 9.50977C12 7.85785 10.6519 6.50977 9 6.50977Z" fill="#252A2F"/>
<path d="M17.999 9.50977C17.999 8.26693 18.0103 7.03534 17.9405 5.79476C17.8707 4.35378 17.5419 3.07492 16.4883 2.02121C15.4323 0.965242 14.1557 0.638772 12.7148 0.568975C11.472 0.499178 10.2404 0.510435 8.99983 0.510435C7.75702 0.510435 6.52546 0.499178 5.28489 0.568975C3.84395 0.638772 2.5651 0.967494 1.51141 2.02121C0.455469 3.07717 0.129004 4.35378 0.0592081 5.79476C-0.0105877 7.0376 0.000669689 8.26918 0.000669689 9.50977C0.000669689 10.7504 -0.0105877 11.9842 0.0592081 13.2248C0.129004 14.6657 0.45772 15.9446 1.51141 16.9983C2.56736 18.0543 3.84395 18.3808 5.28489 18.4506C6.52771 18.5204 7.75927 18.5091 8.99983 18.5091C10.2426 18.5091 11.4742 18.5204 12.7148 18.4506C14.1557 18.3808 15.4346 18.052 16.4883 16.9983C17.5442 15.9424 17.8707 14.6657 17.9405 13.2248C18.0125 11.9842 17.999 10.7526 17.999 9.50977ZM8.99758 14.1276C6.44215 14.1276 4.3798 12.0652 4.3798 9.50977C4.3798 6.95429 6.44215 4.8919 8.99758 4.8919C11.553 4.8919 13.6154 6.95429 13.6154 9.50977C13.6154 12.0652 11.553 14.1276 8.99758 14.1276ZM13.8045 5.78125C13.2078 5.78125 12.726 5.29942 12.726 4.70277C12.726 4.10611 13.2078 3.62429 13.8045 3.62429C14.4011 3.62429 14.8829 4.10611 14.8829 4.70277C14.8807 5.30167 14.4011 5.78125 13.8045 5.78125Z" fill="#252A2F"/>
</g>
<defs>
<clipPath id="clip0_16918_76330">
<rect width="18" height="18" fill="white" transform="translate(0 0.509766)"/>
</clipPath>
</defs>
</svg>
