<svg width="18" height="19" viewBox="0 0 18 19" fill="none" xmlns="http://www.w3.org/2000/svg">
<g clipPath="url(#clip0_2921_18722)">
<path d="M18 .51H0v18h18v-18z" fill="#252A2F"/>
<path d="M4.296 6.53a.468.468 0 0 0-.153-.395l-1.129-1.36V4.57H6.52l2.71 5.943 2.382-5.943h3.342v.204l-.965.925a.282.282 0 0 0-.108.271v6.8a.282.282 0 0 0 .108.272l.942.925v.203H10.19v-.203l.977-.948c.096-.096.096-.124.096-.27V7.251L8.547 14.15H8.18L5.018 7.252v4.622a.638.638 0 0 0 .175.53l1.27 1.542v.203H2.862v-.203l1.27-1.541a.615.615 0 0 0 .164-.53V6.53z" fill="#fff"/>
</g>
<defs>
<clipPath id="clip0_2921_18722">
<path fill="#fff" transform="translate(0 .51)" d="M0 0h18v18H0z"/>
</clipPath>
</defs>
</svg>