<svg width="18" height="15" viewBox="0 0 18 15" fill="none" xmlns="http://www.w3.org/2000/svg"><path fill-rule="evenodd" clip-rule="evenodd" d="M15.88 2.746A3.595 3.595 0 0 0 17.502.77a7.546 7.546 0 0 1-2.345.866A3.74 3.74 0 0 0 12.462.51c-2.04 0-3.692 1.598-3.692 3.57 0 .28.03.552.094.813-3.068-.15-5.788-1.57-7.611-3.73-.318.529-.5 1.141-.5 1.795 0 1.238.652 2.331 1.643 2.973a3.804 3.804 0 0 1-1.673-.447v.044c0 1.73 1.272 3.174 2.963 3.5a3.73 3.73 0 0 1-.974.126c-.238 0-.47-.021-.694-.063.47 1.418 1.833 2.451 3.45 2.479A7.572 7.572 0 0 1 .88 13.098c-.298 0-.593-.015-.881-.049a10.722 10.722 0 0 0 5.66 1.604c6.794 0 10.507-5.44 10.507-10.159 0-.155-.002-.31-.01-.461A7.347 7.347 0 0 0 18 2.183a7.571 7.571 0 0 1-2.12.563z" fill="#252A2F"/></svg>