<svg width="57" height="57" viewBox="0 0 57 57" fill="none" xmlns="http://www.w3.org/2000/svg">
<circle cx="28.5" cy="28.5" r="28" stroke="#7B7D84"/>
<path d="M21.8242 21.4766H33.9742V23.2766H21.8242V21.4766ZM21.8242 26.1541H33.9742V27.9541H21.8242V26.1541ZM21.8242 30.9173H27.2242V32.7173H21.8242V30.9173Z" fill="#7B7D84"/>
<path d="M26.7815 38.8496H18.8986V18.1496H36.8986V27.9535C36.8986 28.1922 36.9935 28.4211 37.1622 28.5899C37.331 28.7587 37.5599 28.8535 37.7986 28.8535C38.0373 28.8535 38.2662 28.7587 38.435 28.5899C38.6038 28.4211 38.6986 28.1922 38.6986 27.9535V18.1496C38.6986 17.1571 37.8911 16.3496 36.8986 16.3496H18.8986C17.9062 16.3496 17.0986 17.1571 17.0986 18.1496V38.8496C17.0986 39.8421 17.9062 40.6496 18.8986 40.6496H26.7815C27.0202 40.6496 27.2491 40.5548 27.4179 40.386C27.5867 40.2172 27.6815 39.9883 27.6815 39.7496C27.6815 39.5109 27.5867 39.282 27.4179 39.1132C27.2491 38.9444 27.0202 38.8496 26.7815 38.8496V38.8496Z" fill="#7B7D84"/>
<path d="M39.6431 38.7825L37.2378 36.3321C37.7193 35.5782 37.9752 34.7025 37.9754 33.808C37.9754 31.2027 35.8559 29.083 33.2504 29.083C30.6449 29.083 28.5254 31.2027 28.5254 33.808C28.5254 36.4133 30.6449 38.533 33.2504 38.533C34.2771 38.533 35.2254 38.2002 36.0012 37.642L38.3581 40.0434C38.4418 40.1289 38.5418 40.1968 38.6521 40.2431C38.7624 40.2893 38.8809 40.3131 39.0005 40.313C39.1778 40.313 39.3512 40.2607 39.4989 40.1626C39.6466 40.0645 39.762 39.9249 39.8306 39.7614C39.8993 39.5979 39.9181 39.4178 39.8847 39.2436C39.8514 39.0695 39.7673 38.9091 39.6431 38.7825ZM33.2504 36.733C31.6376 36.733 30.3254 35.4208 30.3254 33.808C30.3254 32.1952 31.6376 30.883 33.2504 30.883C34.8632 30.883 36.1754 32.1952 36.1754 33.808C36.1754 35.4208 34.8634 36.733 33.2504 36.733V36.733Z" fill="#7B7D84"/>
</svg>
