<svg width="147" height="198" viewBox="0 0 147 198" fill="none" xmlns="http://www.w3.org/2000/svg"><path fill-rule="evenodd" clip-rule="evenodd" d="M34.117 174.46c1.546.095 3.091.171 4.637.228 20.21.754 40.402-1.551 60.599-2.055 7.033-.186 14.031-.093 21.046.472.687.055 1.473-.685 1.389-1.39-1.296-11.192-2.918-22.354-3.758-33.592-.001-.595.076-1.188.28-1.748.039-.044.238-.536.416-.567-.058.043.205-.032.037-.02 1.015-.166 2.009-1.261 1.273-2.309-7.582-11.626-17.933-22.238-21.264-36.048-.787-3.733-3.628-3.964-6.656-5.504-.945-.562-3.254-2.119-3.63-3.201-.898-3.901.683-7.723-3.937-9.301-3.05-.846-8.44-1.562-11.526-.67-3.764 1.254-3.482 5.497-5.666 8.416-1.129 1.689-3.054 4-4.832 4.26-.861.125-1.496-1.618-2.356-1.498-13.408 3.257-31.676 25.481-37.44 37.783-1.298 3.872 2.89 2.704 2.633 6.596-.317 7.382-1.01 16.834-.6 24.225.386 4.291.1 8.786 1.434 12.914-.359.436.157.877.577 1.066.53.902 5.745 1.818 7.344 1.943z" fill="#fff"/><path fill-rule="evenodd" clip-rule="evenodd" d="M69.025 82.522c.349-1.57 2.844-.897 2.417.666-.662 2.417-2.036 4.7-3.975 6.303-1.498 1.237-3.539 2.342-5.563 2.546.19.184.371.382.562.57.432.43.89.827 1.362 1.21.972.785 1.981 1.491 3.084 2.083 4.403 2.363 9.378 2.909 14.297 2.358 2.334-.26 4.703-.704 6.898-1.557 1.018-.395 2.007-.915 2.88-1.57l.228-.172c.459-.347 1.071-.836 1.358-1.371-.873.196-1.976-.734-2.582-1.275-.662-.594-1.22-1.36-1.632-2.145-.807-1.541-1.234-3.529-.558-5.18.046-.11.19-.092.203.026.2 1.926.72 3.732 2.1 5.158a7.218 7.218 0 0 0 2.15 1.529l.113.052c.342.158.701.343.845.681a.435.435 0 0 1 .164.014c.048.012.092.027.134.042a1.346 1.346 0 0 1-.136-.669c.033-1.011 1.421-1.042 1.613-.142-.034-.119-.08-.004.007.032a.277.277 0 0 0-.007-.032l.003.01.005.022h-.001a.507.507 0 0 1 .008.05l.002.023-.001-.019a.481.481 0 0 0-.005-.037l-.003-.017a.12.12 0 0 0 .052.01l.008.004c.033.014.147.067.18.08.231.086.49.113.726.186.513.158.965.419 1.277.863.225.32.35.685.401 1.064 2.269 1.092 4.416 2.51 6.214 4.265 4.014 3.916 6.813 8.818 9.11 13.891 1.169 2.583 2.211 5.221 3.23 7.866l.161.417c1.092 2.843 2.058 5.717 2.295 8.773.022.274-.068.531-.225.744.056.23.084.46.077.684l-.007.105c.367-.007.726.147 1.067.579a.702.702 0 0 1 .435-.002c.897.287 1.042 1.272 1.211 2.098.174.852.25 1.725.251 2.594 0 .312-.178.705-.48.838-.568.25-1.18.414-1.767.641-.442.171-.885.332-1.331.484.247.432.328 1.034.462 1.49.21.712.379 1.426.522 2.154.963 4.954 1.63 9.96 2.531 14.923.451 2.487.975 4.956 1.509 7.426a122.403 122.403 0 0 0 1.343 5.557l.152.559.09.326c.196.109.364.273.48.497.425.822.181 1.748-.634 2.21-.886.504-1.943.029-2.431-.789-.344-.577-.456-1.342-.625-1.984-.191-.72-.373-1.445-.549-2.17-1.193-4.922-1.991-9.931-2.593-14.959l-.043-.359c-.306-2.588-.602-5.183-.793-7.783a102.266 102.266 0 0 1-.215-3.835c-.024-.658.014-1.321.051-1.978.017-.288.042-.578.051-.866l.002-.041.009-.108.003-.048c-.891.279-1.795.511-2.708.707-1.941.42-3.928.654-5.91.535.276 3.283.636 6.559 1.14 9.812a202.037 202.037 0 0 0 1.678 9.368 173.51 173.51 0 0 0 1.019 4.672c.194.829.414 1.653.589 2.486.103.496.135.911-.073 1.374.229.624.432 1.251.632 1.841l.06.176c.354 1.033 1.025 2.089.324 3.105a1.968 1.968 0 0 1-1.549.842l-.033.02c-.321.172-.69.206-1.041.132a66.55 66.55 0 0 1-1.604.297 76.592 76.592 0 0 1-3.985.576c-2.537.302-5.091.468-7.643.559-9.345.337-18.7-.254-28.049-.084-4.763.087-9.526.301-14.28.586-2.374.142-4.748.294-7.122.412l-.735.035c-2.123.102-4.248.18-6.37.025a.139.139 0 0 1-.096-.042c-.732-.083-1.468-.757-1.394-1.536l.95-9.952c.564-5.911 1.134-11.823 1.71-17.733l.083-.853c.193-1.992.378-3.988.472-5.988a37.326 37.326 0 0 1-1.415-.127c-5.107-.56-10.003-2.105-14.704-4.135l-.19-.082c-.424-.185-.887-.37-1.362-.567.008.902-.022 1.807-.026 2.7-.006 1.484.005 2.968.009 4.451.009 3.056.125 6.113.278 9.164.267 5.388.58 10.769 1.056 16.145.12 1.352.283 2.702.397 4.054.069.797-.095 1.461-.825 1.879-.359.207-.636.121-.992-.046-.87-.408-.895-1.373-.978-2.213-.063-.633-.121-1.265-.178-1.9a153.35 153.35 0 0 1-.311-4.059c-.337-5.383-.435-10.761-.203-16.151.108-2.521.264-5.048.47-7.564l.05-.581c.17-2.011.28-4.121.632-6.145-1.422-.631-2.83-1.433-3.484-2.766-.846-1.73.084-3.211 1.41-4.23a1.66 1.66 0 0 1 .037-.497c.38-1.649 1.018-3.279 1.634-4.852a59.504 59.504 0 0 1 2.06-4.66c3.027-6.101 7.16-11.675 12.089-16.371 2.448-2.333 5.127-4.489 7.987-6.297a46.322 46.322 0 0 1 4.376-2.458l.223-.108c1.048-.509 2.223-1.05 3.389-1.333.12-.09.243-.176.367-.257.459-.305 1.081-.084 1.352.351a2.41 2.41 0 0 1 .459-.274l.172-.078c1.045-.471 2.301-.912 3.436-.602.705.192 1.26.712 1.51 1.373a16.007 16.007 0 0 0 1.682-.995c.881-.61 1.68-1.366 2.398-2.16 1.44-1.598 2.486-3.47 2.953-5.576zm49.951 50.371a.762.762 0 0 1-.309.026c.194.023-.194.137-.301.192l-.008.005a19.742 19.742 0 0 1-1.997.988c-.944.401-1.918.71-2.919.936-.979.221-2.005.35-3.008.371-.672.013-1.468-.018-2.163-.216.08 1.218.169 2.435.269 3.65l1.372-.315c1.371-.315 2.742-.637 4.096-1.03a41 41 0 0 0 4.551-1.635c.253-.11.49-.242.725-.375l.2-.114a11.441 11.441 0 0 0-.255-1.615c-.065-.284-.175-.576-.253-.868zm-93.937-5.736c-.174.566-.441 1.095-1.05 1.222a.817.817 0 0 1-.547-.053l-.036.073c-.5 1.029-.648 2.115.505 2.907.52.358 1.087.668 1.673.945 1.048.499 2.165.901 3.217 1.309l.21.081a66.084 66.084 0 0 0 5.736 1.975c1.97.57 3.975 1.027 6.005 1.317.856.122 1.718.207 2.582.263.014-1.163.008-2.326.004-3.489-.307-.039-.612-.08-.907-.115a43.956 43.956 0 0 1-2.677-.391 40.681 40.681 0 0 1-5.482-1.377 34.042 34.042 0 0 1-9.233-4.667zm36.379-35.606c-.754-.798-2.196-.51-3.106-.123a9.508 9.508 0 0 0-.816.38l-.051.029c-.307.176-.306.281-.156.634.195.463.466.911.724 1.342 1.106 1.845 2.56 3.452 4.222 4.81 5.885 4.804 14.339 6.499 21.698 4.89 3.532-.772 6.939-2.329 9.539-4.884l.237-.235c1.048-1.05 2.487-2.569 2.386-4.124-.048-.748-.658-.79-1.282-.935-.255-.06-.5-.144-.711-.262.17.735-.737 1.827-1.206 2.286-.983.962-2.165 1.714-3.416 2.276-2.381 1.07-4.97 1.577-7.55 1.897-2.925.364-5.914.332-8.817-.207-2.527-.469-5.017-1.356-7.192-2.738-.996-.633-1.979-1.355-2.81-2.196l-.177-.178c-.6-.609-1.299-1.344-1.658-2.143a5.376 5.376 0 0 1-.408-.011c-.096-.005-.147-.141-.052-.191l.322-.17a2.318 2.318 0 0 1-.047-.176c-.01-.05.043-.097.09-.069.064.039.126.08.187.124l.05-.026z" fill="#000"/><path fill-rule="evenodd" clip-rule="evenodd" d="M68.292 30.912l1.115 1.327c-.617.435-1.2.873-1.748 1.312v-.001c2.539-1.658 5.352-2.638 8.39-2.638 5.852 0 17.74 5.03 20.427 8.657 1.333 1.8 3.812 7.326 5.097 13.335 1.033 4.827 2.569 18.465 1.033 23.59-1.966 6.559-8.435 12.62-15.104 12.62-6.67 0-17.025-4.816-24.395-15.373-.337-.483-4.207-1.042-6.967-2.854l.724 7.988.551 4.647-.121.33c-1.977 5.35-3.544 8.141-4.7 8.373-1.18.237-3.584-1.698-7.21-5.805l-.463-1.945c-1.177-4.963-1.766-7.627-1.766-7.992l.001-.067c.017-.84.307-5.594.313-6.873V50.367c3.9-12.97 7.621-19.455 11.164-19.455h13.66z" fill="#fff"/><path fill-rule="evenodd" clip-rule="evenodd" d="M59.052 26.495a4.036 4.036 0 0 1 3.563.31c2.137-.093 4.262 1.158 5.376 2.983.023.026.048.051.07.077l.236.276c.224.262.46.552.647.851-.916.021-1.678.394-2.21 1.148-.38.538.49 1.049.878.54l.014-.018c.32-.453.801-.628 1.338-.637a.483.483 0 0 0 .354-.149c.033.12.063.241.09.363 2.703-1.052 5.618-1.33 8.521-1.081a3.418 3.418 0 0 0-.315.66c-.093.262.105.564.36.635.277.075.526-.086.626-.337l.01-.024c.111-.316.293-.588.538-.798 1.366.185 2.723.48 4.047.86a44.203 44.203 0 0 1 4.708 1.653 1.212 1.212 0 0 0-.644.565c-.315.577.551 1.093.88.542l.012-.02a.48.48 0 0 1 .082-.115l.007-.007.045-.021.085-.025.033-.008c.028-.006.04-.006.116-.01.1-.005.2-.005.301-.005a.468.468 0 0 0 .456-.3c.76.343 1.511.704 2.25 1.083l.174.091c2.277 1.19 4.434 2.753 5.685 5.052a.797.797 0 0 1 .088.482c.267.32.526.651.773.987.757 1.028 1.31 2.197 1.835 3.355 1.055 2.33 1.765 4.724 2.319 7.219.536 2.405.968 4.836 1.37 7.266.445 2.701.816 5.425.893 8.165.137 4.883-.817 9.795-3.558 13.906-2.445 3.668-6.127 6.58-10.494 7.513-4.441.948-9.14.023-12.64-2.937-.565-.476-.488-1.439 0-1.927.55-.55 1.364-.474 1.925 0 3.296 2.789 8.094 3.219 12.066 1.798 3.671-1.315 6.548-4.347 8.313-7.753 2.153-4.154 2.516-8.925 2.186-13.52-.181-2.525-.557-5.028-.944-7.527l-.234-1.504c-.255-1.63-.523-3.257-.873-4.87l-.081-.375c-.428-1.945-.928-3.94-1.702-5.769-.405-.96-.893-1.884-1.393-2.797a48.174 48.174 0 0 0-.298-.538.716.716 0 0 1-.457.004 18.79 18.79 0 0 0-4.337-.832 19.084 19.084 0 0 0-2.018-.025c-1.151-.067-2.334.034-3.431.387a24.124 24.124 0 0 0-.325-.272.759.759 0 0 1-.088-.012c-.28-.055-.477-.253-.595-.505a.76.76 0 0 1-.017-.04c-.14-.107-.282-.213-.425-.317-.348.09-.653-.2-.735-.517-.077-.052-.156-.103-.234-.154a1.313 1.313 0 0 1-.913-.111c-.287-.155-.471-.405-.594-.689-.435.027-.875-.114-1.263-.37-.316-.206-.558-.492-.798-.778a27.037 27.037 0 0 0-9.301-2.275c-.314.06-.626.132-.934.216-.073.02-.177.059-.296.106a8.187 8.187 0 0 1 2.162.01c3.467.502 6.167 3.099 8.492 5.55.553-.111 1.111.605.6 1.079l-3.99 3.698c.098.413-.376.821-.791.722a202.7 202.7 0 0 0-2.092-.49c-.728.352-1.644.292-2.304-.22-.031-.023-.098-.061-.156-.099-.054.045-.127.09-.156.11a1.118 1.118 0 0 1-.795.157c-.282-.045-.537-.188-.757-.367-.14-.113-.465-.587-.647-.622l-.017-.002c.12.003-.268.365-.373.44a1.153 1.153 0 0 1-.816.232c-.529-.059-.983-.54-1.242-.985l-.02-.035-.007-.02-.007.022a.209.209 0 0 1-.005.013c-.038.105-.16.224-.243.297a.982.982 0 0 1-.838.246c-.264-.046-.485-.205-.663-.398l-.028-.03c-.053-.06-.4-.527-.345-.639l.006-.01-.017-.003a.568.568 0 0 1-.519-.109 19.806 19.806 0 0 1-2.132-.579c-.055.152-.108.305-.16.458.379.234.729.567 1.05.805.61.45 1.22.9 1.827 1.35l2.41 1.778.275-.074c.352-.095.654.11.784.424l.01.027c.051.137.113.264.186.386a1.266 1.266 0 0 1 1.277.876c.149-.003.299.002.453.02.42.046.704.358.628.787l-.006.03-.01.048c.244.103.42.303.46.606.065.098.118.205.151.324.176.618-.166 1.382-.348 1.974l-.014.046c-.117.39-.239.776-.361 1.163l-.305.961c-.847 2.678-1.672 5.501-.987 8.308.146.594-.613.863-.943.398a37.243 37.243 0 0 0-2.566-3.205l-.043-.007c-.634-.127-.88-.575-1.172-1.032-.171.05-.355.062-.534.028a1.307 1.307 0 0 1-.671-.383c-.155-.158-.296-.563-.479-.663-.229-.126-.688.054-.96.013a2.218 2.218 0 0 1-.631-.204 3.487 3.487 0 0 0-.674 1.735 1.431 1.431 0 0 1-.2.618 5.23 5.23 0 0 1 1.151.084c1.41.262 2.42 1.133 2.989 2.43.024.056-.05.103-.083.049-.843-1.298-2.678-1.364-4.01-.907-1.415.486-2.209 1.732-2.492 3.154-.31 1.559.088 3.24.937 4.567.393.618.93 1.18 1.644 1.408.849.27 1.632-.213 2.501.036.591.17.852.742.745 1.314a1.717 1.717 0 0 1-.227.591c.312.62.601 1.258.97 1.845.567.905 1.254 1.654 2.003 2.41.773.78 1.561 1.544 2.389 2.268.792.693 1.701 1.187 2.533 1.822.583.446.873 1.07.585 1.786-.238.592-1.038 1.096-1.687.828-1.24-.511-2.326-1.382-3.315-2.278a11.592 11.592 0 0 1-2.318-2.906c-.568-1.018-.987-2.174-1.341-3.288l-.044-.139a15.303 15.303 0 0 1-.455-1.725c-.68.372-1.604.426-2.332.325-1.176-.161-2.25-.754-3.06-1.618a7.404 7.404 0 0 1-1-1.358c.026.303.041.596.058.862a3.08 3.08 0 0 1 .705 2.777c.564.58.722 1.452.428 2.194.617.613.594 1.587.327 2.473.73.815.799 2.086.23 3.007l-.018.066c.575.963.445 2.208-.275 3.058.492.955.416 2.24-.815 2.61-.448.136-.883.02-1.208-.23.297 1.477.43 2.977.034 4.461-.157.589-.733 1.02-1.339 1.02-.506 0-.874-.255-1.128-.63a9.105 9.105 0 0 1-.174 2.25c-.096.456-.52.812-.968.922a.6.6 0 0 1 .07.723c-.658 1.166-2.25.682-2.357-.435-.449-.336-.658-.887-.744-1.482-.126-.868-.172-1.722-.315-2.579l-.054.051-.029.024-.009.062a1.28 1.28 0 0 1-.63.898c.067.739-.058 1.491-.526 2.052-.313.374-.844.522-1.3.44a.49.49 0 0 1-.089-.002c-1.032-.137-1.63-1.117-1.358-2.016a2.175 2.175 0 0 1-.468-1.796c-.804-.532-.788-1.703-.509-2.643-.843-.666-1.16-1.91-.737-2.9-.76-.944-.866-2.26-.35-3.335-.835-.688-.83-2.014-.001-2.717-.442-.877-.708-1.928-.267-2.731a1.786 1.786 0 0 1-.446-1.307c.053-.696.512-1.176 1.083-1.496l.04-.218a.482.482 0 0 0 .402-.142 2.15 2.15 0 0 1 .386-.295.498.498 0 0 0 .37-.172c.249-.085.516-.122.813-.125.64-.007.663-.965.067-1.028a.514.514 0 0 0-.365-.154h-.11c-.257.002-.517.018-.756.12a.849.849 0 0 0-.362.29c-.017.185-.117.37-.336.522a.808.808 0 0 1-.866.038c-.377-.224-.38-.572-.337-.95.095-.83-.381-1.609-.268-2.456.05-.375.175-.698.379-.96a2.228 2.228 0 0 1-.175-2.175c-.688-.74-.806-1.882-.368-2.772l.018-.066a2.22 2.22 0 0 1 .193-.418 2.131 2.131 0 0 1 .01-2.15c-.593-.692-.612-1.792-.085-2.536.003-.062.01-.124.015-.185a2.361 2.361 0 0 1 .123-1.928 3.783 3.783 0 0 1-.248-.813c-.138-.747-.067-1.473.14-2.201.033-.115.07-.23.11-.345.007-.5.026-.996.051-1.492-.098-.42-.114-.88-.116-1.309v-.278c-.005-.706-.055-1.741.392-2.342-.287-.648-.169-1.466.31-1.98-.336-.578-.407-1.288-.07-1.93.055-.103.118-.199.187-.29a3.388 3.388 0 0 1 .408-1.776c.204-.38.507-.71.868-.972a2.45 2.45 0 0 1-.008-.233c.006-.341.082-.684.21-1.005-.23-.39-.336-.831-.202-1.306a2.1 2.1 0 0 1 1.035-1.26c.04-.507.12-1.01.232-1.508-.302-.673-.061-1.561.622-1.958-.09-.538-.009-1.096.383-1.516.148-.16.323-.28.51-.36-.09-.541.012-1.104.386-1.545.306-.36.758-.578 1.22-.61.177-.941 1.075-1.645 2.023-1.589a1.45 1.45 0 0 1 1.18-1.054c.772-.778 1.92-1.305 2.913-1.575.997-.27 2.008-.296 2.864.018l.062.023.07-.009c.302-.034.604-.053.906-.06zm-7.575 63.77c-.266-.082-.563.099-.635.361a.525.525 0 0 0 .36.636c.333.104.683.13 1.03.13a.525.525 0 0 0 .517-.517.523.523 0 0 0-.517-.516c-.282 0-.49-.01-.755-.093zm-2.368-5.486c-.398 0-.74.096-1.035.374-.197.187-.201.546 0 .731.204.187.5.198.709.02l.04-.036a.643.643 0 0 0 .011-.01c.017-.012.034-.023.052-.032l-.034.022c-.025.018.034-.012.067-.026l.01-.004.004-.001.027-.002c.05-.003.1-.003.149-.003.27 0 .529-.237.516-.516a.526.526 0 0 0-.516-.517zm7.511-3.278c.559-.343.06-1.22-.5-.904l-.021.012c-.288.177-.641.153-.967.153-.664 0-.665 1.033 0 1.033h.11c.478-.004.96-.037 1.378-.294zm-4.4-3.771c-.422-.08-.895-.15-1.34-.102l-.073.01h-.137a.523.523 0 0 0-.326.122c-.146.06-.284.142-.41.252-.504.436.23 1.164.73.73a.393.393 0 0 1 .096-.06l.027-.012h.553c.05 0 .099-.01.146-.025.18.025.347.06.46.081.65.123.928-.873.275-.996zm-.471-9.917c-.81-.375-1.706-.373-2.455.149-.535.373-.038 1.252.502.905l.02-.013c.067-.047.136-.086.205-.121.38.11.763.115 1.13-.02l.048-.019.029.011c.599.278 1.124-.612.521-.892zm8.815-1.619c-.818-.091-.824-1.384 0-1.291 1.74.195 3.32.969 4.476 2.298.538.619-.348 1.523-.896.932l-.016-.018c-.92-1.057-2.161-1.763-3.564-1.92zm-9.161-6.635a3.45 3.45 0 0 0-.542-.021c-.429.02-.951.307-.763.824.15.414.646.43.89.21.102.002.203.009.304.02.27.027.537.078.803.13.65.128.927-.867.274-.996l-.288-.057a13.525 13.525 0 0 0-.294-.054.51.51 0 0 0-.19-.055h-.194zm-5.132-8.016l-.06-.008c-.872-.112-2.272-.01-2.378 1.101-.059.615.83.654 1.005.128a6.722 6.722 0 0 1 1.933-.068c.244-.248.246-.724-.16-.843-.058-.155-.177-.287-.34-.31zm19.935-1.876c-.201-.185-.532-.21-.73 0-.114.12-.21.255-.285.402l-.05.1a1.664 1.664 0 0 1-.027.05c-.017.03-.036.058-.054.087l-.013.012-.017.019c-.186.196-.21.538 0 .73.201.185.532.21.73 0 .114-.12.21-.254.285-.402l.05-.1.027-.049c.017-.03.036-.058.054-.088l.02-.02.01-.01c.186-.197.21-.539 0-.73zm-10.59-1.345c-.727-.516-1.593-.54-2.262.08-.482.448.227 1.166.714.746l.017-.015a.762.762 0 0 1 .053-.045.497.497 0 0 0 .325.122h.1l.049.002.026.002.004.001.023.01c.043.02.101.049.02-.002.019.01.035.02.053.032l.03.027c.194.184.53.208.724.005.342-.116.524-.682.124-.965zm7.114-1.693l.014-.004c.638-.182.366-1.18-.275-.997-.68.195-1.006.828-1.142 1.477-.057.273.08.559.361.636.256.07.578-.087.635-.361.04-.193.087-.357.161-.509l.045-.086c.02-.04.028-.046.098-.108a.486.486 0 0 1 .103-.048zm-10.807-5.204l-.1-.023c-.621-.136-1.446-.207-1.822.41-.342.561.521 1.072.877.541h.019l.011.002.16-.013c.198-.001.388.034.58.08.647.153.923-.843.275-.997zm22.315-3.972c.47-.47-.26-1.202-.73-.73-.373.372-.732.747-.974 1.22-.127.248-.065.56.185.707.231.135.58.064.707-.186.21-.41.474-.673.812-1.011zm-5.939-1.236c-.464.276-.765.73-.948 1.254-.092.264.104.565.36.636.276.075.528-.086.627-.337l.009-.024c.049-.14.127-.306.224-.432a.823.823 0 0 1 .308-.249c.233-.085.397-.296.376-.543-.383.132-.738-.027-.956-.305zM54.382 33.97c-.469-.436-1.098-.493-1.667-.23-.253.117-.317.482-.185.707.152.26.452.303.706.185-.065.03.053-.01.104-.024.006.003.091 0 .12 0l.036.002h-.026c.025.005.05.012.074.02l.03.01c-.015-.003.055.042.074.057l.004.003c.486.452 1.219-.277.73-.73z" fill="#000"/><path fill-rule="evenodd" clip-rule="evenodd" d="M80.988 71.357c2.213-.269 4.358.41 6.522.75a30.53 30.53 0 0 0 3.442.366c.233.01.465.016.698.02.022-.204.136-.392.385-.505.509-.231.916-.335 1.475-.313.512.02 1.025.073 1.53.165.914.168 1.833.549 2.503 1.21 1.549 1.531 1.313 3.99.116 5.658-2.473 3.446-6.986 3.606-10.85 3.56l-.358-.004c-3.519-.05-8.554.475-10.153-3.531a5.628 5.628 0 0 1 .213-4.593c.86-1.686 2.667-2.563 4.477-2.783zm10.993 5.737l-.031.001c-1.623.063-3.245.107-4.869.136.049.417.099.834.155 1.25.045.328.092.655.142.982.02.138.098.353.076.49l-.008.054a.494.494 0 0 1 .216.186c.02.031.033.062.047.092 1.261.01 2.617-.014 3.902-.243l.003-.028a.532.532 0 0 1 .182-.35c.09-.525.082-1.082.117-1.602l.068-.968zm-6.14.159c-1.17.02-2.34.035-3.509.02l-.53-.008c.112.602.234 1.202.335 1.807.106.632-.45 1.033-.93 1.017.054.008.108.018.162.025 1.501.213 3.06.156 4.585.155-.082-.48-.05-1.02-.061-1.419l-.003-.062a57.073 57.073 0 0 1-.049-1.535zm-7.944-.11c.04.312.12.618.238.903.499 1.205 1.643 1.767 2.855 2.003-.21-.072-.377-.247-.42-.545a16.56 16.56 0 0 1-.145-2.252c-.844-.008-1.694-.026-2.528-.11zm18.486-.258c-.601.142-1.3.077-1.89.104-.551.025-1.104.047-1.656.07.026.376.051.753.079 1.13.035.488.039 1.003.132 1.488 1.111-.38 2.108-.989 2.855-1.962.186-.242.352-.527.48-.83zm-15.649-3.552c-1 .237-1.947.737-2.456 1.653a3.487 3.487 0 0 0-.409 1.822c.846-.099 1.705-.136 2.561-.167l.011-.462.013-.393c.024-.752.036-1.695.28-2.453zm5.177.092l-.44-.05c-1.223-.14-2.445-.286-3.669-.202a7.053 7.053 0 0 0-.536.058c.216.78.198 1.697.288 2.47.035.298.079.595.128.89l.212-.01c1.312-.071 2.626-.115 3.94-.167 0-.247 0-.494.005-.74l.005-.248c.014-.63-.026-1.34.067-2.001zm6.142-.1c-1.281.206-2.605.25-3.863.252-.503 0-1.005-.03-1.507-.075.033.267.05.538.074.802.05.533.106 1.065.168 1.596l.055.465c1.614-.073 3.228-.152 4.843-.234l.227-.012.064-.894a44.36 44.36 0 0 1 .159-1.785l-.05-.019a.834.834 0 0 1-.17-.097zm.556.221c.07.843.11 1.69.162 2.534l1.064-.057.532-.03c.69-.04 1.575-.249 2.257-.054.052-.62-.125-1.224-.685-1.64-.981-.732-2.232-.471-3.33-.753zm-3.635-7.534c1.584-.908 5.56-1.835 5.811 1.017.116 1.313-.86 2.4-1.998 2.886l-.043.017c-1.069.44-2.962.936-3.887-.017-.77-.793.251-2.215 1.207-1.565.492.334 1.526.088 2.075-.07l.034-.01c.592-.175 1.38-.732 1.136-1.46-.217-.645-1.138-.763-1.715-.784-.861-.03-1.7.17-2.553.234-.135.01-.177-.185-.067-.248zm6.563-4.587c2.15-.1 3.488 2.248 2.994 4.173-.086.332-.457.658-.816.62l-.09-.008a.798.798 0 0 1-.134-.021c-.34-.095-.645-.449-.62-.816l.006-.107c.05-.909-.048-1.957-1.128-2.177-.917-.186-1.428.696-1.439 1.507-.002.145-.164.245-.291.168-.662-.403-.777-1.205-.524-1.896.32-.875 1.123-1.4 2.042-1.443zm-15.958.504c1.565-.522 3.253.312 4.011 1.696.266.077.531.282.494.596-.053.452-.133.736-.446 1.079-.49.535-1.407.261-1.61-.398l-.009-.03c-.23-.852-1.169-1.414-2.023-1.116-.998.349-.969 1.403-1.669 2.017a.241.241 0 0 1-.28.036c-.743-.36-.61-1.441-.344-2.06.347-.813 1.023-1.535 1.876-1.82zm-2.131-4.754c1.268-1.294 4.575-2.547 5.442-.157.165.456-.187 1.07-.66 1.164-.776.154-1.465-.183-2.236-.122-.623.05-1.274.258-1.773.645-1.382 1.07-1.686 2.882-2.649 4.245-.047.066-.138.038-.146-.04-.22-1.984.633-4.317 2.022-5.735zm16.538-1.274c.841-.298 1.794-.272 2.64-.008a5.13 5.13 0 0 1 2.237 1.43c.274.3.527.63.73.981.108.187.22.572.343.8.663.384.947 1.256.353 1.877l-.027.027-.079.079c-.32.316-.8.453-1.236.327-.974-.282-1.093-1.05-1.43-1.865a3.336 3.336 0 0 0-1.067-1.365c-1.094-.826-2.888-1.09-4.205-.7-.07.02-.153-.069-.103-.134.25-.323.394-.589.728-.85.34-.264.71-.456 1.116-.6z" fill="#000"/></svg>