<svg width="57" height="57" viewBox="0 0 57 57" fill="none" xmlns="http://www.w3.org/2000/svg">
<circle cx="28.5" cy="28.5" r="28" stroke="#7B7D84"/>
<path d="M28.3738 30.0367L28.4938 30.1024L28.6139 30.0367L41.4105 23.0284L41.8109 22.8091L41.4105 22.5898L28.6139 15.5815L28.4938 15.5157L28.3738 15.5815L15.5772 22.5898L15.1768 22.8091L15.5772 23.0284L28.3738 30.0367ZM16.8474 22.8091L28.4938 16.4309L40.1403 22.8091L28.4938 29.1872L16.8474 22.8091Z" fill="#7B7D84" />
<path d="M38.1395 27.1631L38.0196 27.6325L40.1555 28.7998L28.5095 35.1778L16.8632 28.7997L18.9965 27.6324L18.8765 27.1631H18.2468H18.1829L18.1268 27.1938L15.5929 28.5803L15.1923 28.7995L15.5928 29.0189L28.3894 36.0272L28.5095 36.0929L28.6296 36.0272L41.4261 29.0189L41.8269 28.7994L41.4259 28.5802L38.889 27.1937L38.833 27.1631H38.7691H38.1395Z" fill="#7B7D84"/>
<path d="M38.1395 32.3729L38.0196 32.8422L40.1555 34.0096L28.5095 40.3875L16.8632 34.0095L18.9965 32.8422L18.8765 32.3729H18.2468H18.1829L18.1268 32.4035L15.5929 33.7901L15.1923 34.0093L15.5928 34.2286L28.3894 41.2369L28.5095 41.3027L28.6296 41.2369L41.4261 34.2286L41.8269 34.0091L41.4259 33.79L38.889 32.4035L38.833 32.3729H38.7691H38.1395ZM26.6731 25.5722V25.7169L26.7986 25.7889C26.9711 25.8881 27.2037 25.9674 27.4844 26.036L27.4857 26.0363C27.7641 26.1028 28.0206 26.14 28.2521 26.14C28.8682 26.14 29.3836 25.984 29.761 25.6425C30.1355 25.3037 30.3186 24.8619 30.3186 24.34C30.3186 23.9708 30.2118 23.6359 29.9928 23.345L29.9919 23.3438C29.7749 23.0593 29.368 22.7574 28.8057 22.4396C28.2663 22.1305 27.9481 21.8995 27.8175 21.7541C27.7078 21.632 27.6394 21.4546 27.6394 21.1977C27.6394 20.9512 27.7268 20.7609 27.9059 20.6067C28.0891 20.4516 28.3444 20.3608 28.7032 20.3608C29.067 20.3608 29.4039 20.43 29.7173 20.5717L30.0703 20.7314V20.3439V19.9141V19.7353L29.9012 19.6775C29.5223 19.548 29.1408 19.4824 28.7547 19.4824C28.167 19.4824 27.6662 19.6411 27.2829 19.9854L27.448 20.1693L27.2828 19.9854C26.9058 20.3241 26.7095 20.7478 26.7095 21.2431C26.7095 21.5962 26.8002 21.9219 26.9919 22.204C27.0938 22.354 27.2531 22.5054 27.4525 22.6589C27.6546 22.8144 27.9103 22.9816 28.2171 23.1604L28.2183 23.1611C28.7618 23.4739 29.079 23.7044 29.2091 23.8516C29.3203 23.9775 29.3887 24.1559 29.3887 24.4157C29.3887 24.6987 29.2942 24.8917 29.1225 25.0286C28.9453 25.1699 28.656 25.2616 28.2188 25.2616C27.8344 25.2616 27.4478 25.143 27.0583 24.8926L26.6731 24.645V25.1029V25.5722Z" fill="#7B7D84"/>
</svg>
