<svg width="26" height="26" viewBox="0 0 26 26" fill="none" xmlns="http://www.w3.org/2000/svg"><rect x="5.5" y="4.5" width="16" height="16" rx="8" fill="#3AE090" stroke="#3AE090"/><path d="M18.383 9.295a.776.776 0 0 0-1.034.005l-5.332 4.965-2.361-2.234a.776.776 0 0 0-1.034-.013.636.636 0 0 0-.015.952l2.88 2.726c.002.002.005.002.006.004l.004.005c.046.042.103.068.157.096.029.014.052.038.08.049a.779.779 0 0 0 .55.001c.03-.01.051-.032.079-.046.054-.028.111-.053.158-.095.002-.002.002-.005.004-.006l.006-.004 5.857-5.452a.637.637 0 0 0-.005-.953z" fill="#fff"/></svg>