<svg width="26" height="26" viewBox="0 0 26 26" fill="none" xmlns="http://www.w3.org/2000/svg"><path d="M11.492 5.935c-.69 1.038-5.026 8.03-7.68 12.194-1.587 2.488-.705 3.688 1.422 3.688H20.765c2.128 0 3.01-1.2 1.424-3.688-2.655-4.164-6.99-11.156-7.681-12.194-.42-.63-.955-.921-1.508-.934-.553.013-1.089.304-1.508.934z" fill="#f5bf76"/><path opacity=".6" d="M20.765 21.255H5.234c-1.253 0-2.069-.42-2.207-1.27-.173 1.23.703 1.832 2.207 1.832H20.765c1.504 0 2.38-.603 2.208-1.833-.14.85-.955 1.27-2.208 1.27z" fill="#f5bf76"/><path opacity=".1" d="M22.188 18.128c-2.655-4.163-6.99-11.156-7.68-12.194-.42-.63-.955-.92-1.508-.934v16.817h7.765c2.128 0 3.01-1.2 1.423-3.689z" fill="#f5bf76"/><path d="M12.113 17.754h1.767v1.711h-1.767v-1.71zm.384-.59l-.459-4.532v-2.094h1.91v2.094l-.452 4.531h-.999z" fill="#fff"/></svg>