<svg width="17" height="17" viewBox="0 0 17 17" fill="none" xmlns="http://www.w3.org/2000/svg">
<path d="M0.937569 2.09925C0.876643 2.12449 0.836919 2.18394 0.836919 2.24989V5.99996C0.836919 6.09001 0.909916 6.16301 0.999963 6.16301H4.74987C4.81582 6.16301 4.87527 6.12328 4.90051 6.06236C4.92574 6.00143 4.91179 5.9313 4.86516 5.88467L3.28266 4.30217C4.51273 2.77317 6.3869 1.788 8.49995 1.788C12.4598 1.788 15.6185 5.2167 15.1694 9.26783C14.8302 12.3257 12.3495 14.8159 9.29287 15.1664L9.29286 15.1664C6.61351 15.4737 4.20933 14.2002 2.87864 12.1608C2.84853 12.1147 2.79717 12.0869 2.74209 12.0869H2.01153C1.95324 12.0869 1.89938 12.118 1.87027 12.1685C1.84116 12.219 1.84123 12.2812 1.87045 12.3316C3.19549 14.6192 5.66474 16.163 8.49995 16.163C12.8343 16.163 16.3282 12.5645 16.157 8.19227L16.0066 8.19816L16.157 8.19226C15.9992 4.16439 12.6059 0.876215 8.57529 0.837325L0.937569 2.09925ZM0.937569 2.09925C0.998493 2.07402 1.06862 2.08797 1.11525 2.1346L2.60446 3.6238M0.937569 2.09925L2.60446 3.6238M2.60446 3.6238C4.02266 1.90774 6.16788 0.813925 8.57528 0.837325L2.60446 3.6238Z" fill="#111111" stroke="black" stroke-width="0.326087" stroke-linejoin="round"/>
</svg>
