<svg width="17" height="17" viewBox="0 0 17 17" fill="none" xmlns="http://www.w3.org/2000/svg">
<path d="M16.0624 2.09925C16.1234 2.12449 16.1631 2.18394 16.1631 2.24989V5.99996C16.1631 6.09001 16.0901 6.16301 16 6.16301H12.2501C12.1842 6.16301 12.1247 6.12328 12.0995 6.06236C12.0743 6.00143 12.0882 5.9313 12.1348 5.88467L13.7173 4.30217C12.4873 2.77317 10.6131 1.788 8.50005 1.788C4.54023 1.788 1.38153 5.2167 1.8306 9.26783C2.1698 12.3257 4.65055 14.8159 7.70713 15.1664L7.70714 15.1664C10.3865 15.4737 12.7907 14.2002 14.1214 12.1608C14.1515 12.1147 14.2028 12.0869 14.2579 12.0869H14.9885C15.0468 12.0869 15.1006 12.118 15.1297 12.1685C15.1588 12.219 15.1588 12.2812 15.1296 12.3316C13.8045 14.6192 11.3353 16.163 8.50005 16.163C4.16568 16.163 0.671814 12.5645 0.842986 8.19227L0.993389 8.19816L0.842986 8.19226C1.00075 4.16439 4.39413 0.876215 8.42471 0.837325L16.0624 2.09925ZM16.0624 2.09925C16.0015 2.07402 15.9314 2.08797 15.8847 2.1346L14.3955 3.6238M16.0624 2.09925L14.3955 3.6238M14.3955 3.6238C12.9773 1.90774 10.8321 0.813925 8.42472 0.837325L14.3955 3.6238Z" fill="#111111" stroke="black" stroke-width="0.326087" stroke-linejoin="round"/>
</svg>

