<svg width="20" height="13" viewBox="0 0 20 13" fill="none" xmlns="http://www.w3.org/2000/svg">
<path d="M19.0854 0.372496C18.5373 -0.128375 17.6506 -0.123305 17.1083 0.382718L6.91379 9.87337L2.40097 5.60332C1.86134 5.09203 0.975988 5.08298 0.423813 5.57757C-0.130152 6.07338 -0.142693 6.88979 0.395848 7.39834L5.90282 12.6099C5.90562 12.6137 5.91112 12.6137 5.91392 12.6176C5.91672 12.6202 5.91816 12.6253 5.92095 12.6278C6.00909 12.7078 6.11811 12.7567 6.22162 12.8108C6.27624 12.8379 6.31954 12.8829 6.37542 12.9035C6.54466 12.9679 6.72499 13 6.90396 13C7.08149 13 7.25924 12.968 7.42695 12.9061C7.48157 12.8854 7.52343 12.8442 7.57525 12.8184C7.68003 12.7644 7.78927 12.7169 7.87871 12.6357C7.88146 12.6331 7.88299 12.6278 7.88701 12.6253C7.88981 12.6215 7.89405 12.6201 7.89833 12.6176L19.0953 2.19451C19.6394 1.6872 19.6336 0.872121 19.0854 0.372496Z" fill="#111111"/>
</svg>
