<svg width="25" height="25" viewBox="0 0 25 25" fill="none" xmlns="http://www.w3.org/2000/svg">
<path d="M12.4786 10.2402C11.4214 10.2402 10.5586 11.103 10.5586 12.1602C10.5586 13.2175 11.4214 14.0802 12.4786 14.0802C13.5358 14.0802 14.3986 13.2175 14.3986 12.1602C14.3986 11.103 13.5358 10.2402 12.4786 10.2402Z" fill="#111111"/>
<path d="M18.8774 12.1598C18.8774 11.276 18.8854 10.4002 18.8358 9.51798C18.7862 8.49329 18.5524 7.58387 17.8031 6.83457C17.0522 6.08366 16.1444 5.8515 15.1197 5.80187C14.236 5.75224 13.3602 5.76024 12.478 5.76024C11.5942 5.76024 10.7184 5.75224 9.83627 5.80187C8.8116 5.8515 7.9022 6.08526 7.15291 6.83457C6.40201 7.58547 6.16986 8.49329 6.12023 9.51798C6.0706 10.4018 6.0786 11.2776 6.0786 12.1598C6.0786 13.042 6.0706 13.9194 6.12023 14.8015C6.16986 15.8262 6.40361 16.7357 7.15291 17.485C7.9038 18.2359 8.8116 18.468 9.83627 18.5177C10.7201 18.5673 11.5958 18.5593 12.478 18.5593C13.3618 18.5593 14.2376 18.5673 15.1197 18.5177C16.1444 18.468 17.0538 18.2343 17.8031 17.485C18.554 16.7341 18.7862 15.8262 18.8358 14.8015C18.887 13.9194 18.8774 13.0436 18.8774 12.1598ZM12.4764 15.4436C10.6592 15.4436 9.19265 13.977 9.19265 12.1598C9.19265 10.3425 10.6592 8.87595 12.4764 8.87595C14.2936 8.87595 15.7602 10.3425 15.7602 12.1598C15.7602 13.977 14.2936 15.4436 12.4764 15.4436ZM15.8947 9.50837C15.4704 9.50837 15.1277 9.16574 15.1277 8.74146C15.1277 8.31717 15.4704 7.97454 15.8947 7.97454C16.3189 7.97454 16.6616 8.31717 16.6616 8.74146C16.66 9.16734 16.3189 9.50837 15.8947 9.50837Z" fill="#111111"/>
<rect x="0.958359" y="0.64" width="23.04" height="23.04" rx="11.52" stroke="#111111" stroke-width="1.28"/>
</svg>
