<svg width="26" height="25" viewBox="0 0 26 25" fill="none" xmlns="http://www.w3.org/2000/svg">
<rect x="1.39579" y="0.639934" width="23.0376" height="23.0376" rx="11.5188" fill="white"/>
<path d="M18.7426 9.36902V8.92675C19.3368 8.48448 19.8472 7.86845 20.2738 7.25243C19.7634 7.52096 19.1692 7.69471 18.575 7.78158C19.1692 7.42618 19.6796 6.72329 19.9386 6.02039C19.3444 6.37579 18.7502 6.63641 18.0645 6.81806C17.5541 6.20204 16.7009 5.75977 15.8552 5.75977C14.1564 5.75977 12.8765 7.17346 12.8765 9.02152C12.8765 9.29004 12.8765 9.55067 12.9603 9.81919C10.492 9.64544 8.2827 8.31862 6.74381 6.28891C6.31718 6.64431 6.14958 7.17346 6.14958 7.78948C6.14958 8.93465 6.66001 9.99294 7.51325 10.6169C7.00283 10.6169 6.57621 10.4431 6.14958 10.1746C6.14958 11.762 7.17043 13.1757 8.5341 13.4363C8.27508 13.5232 8.02367 13.5232 7.76465 13.5232C7.59705 13.5232 7.42183 13.5232 7.17043 13.4363C7.51325 14.7632 8.7017 15.7267 9.98157 15.7267C8.96072 16.6112 7.68085 17.1404 6.23338 17.1404C5.97436 17.1404 5.72296 17.1404 5.55536 17.0535C6.91903 18.0249 8.4503 18.5541 10.1492 18.5541C15.68 18.7278 18.7426 13.697 18.7426 9.36902Z" fill="#111111"/>
<rect x="1.39579" y="0.639934" width="23.0376" height="23.0376" rx="11.5188" stroke="#111111" stroke-width="1.27987"/>
</svg>
