<svg width="25" height="25" viewBox="0 0 25 25" fill="none" xmlns="http://www.w3.org/2000/svg">
<rect x="0.639934" y="0.639934" width="23.0376" height="23.0376" rx="11.5188" fill="white"/>
<path fill-rule="evenodd" clip-rule="evenodd" d="M11.2262 3.88863C7.07608 4.35393 3.8396 7.88125 3.8396 12.1565C3.8396 16.7461 7.5699 20.4781 12.1579 20.4781C16.7467 20.4781 20.4779 16.7461 20.4779 12.1565C20.4779 7.94281 17.3307 4.46016 13.266 3.91534C13.266 3.91534 12.1306 3.76499 11.2261 3.88864L11.2262 3.88863ZM11.6044 5.01347V7.81453C10.8102 7.78649 10.0507 7.7023 9.3487 7.5696C9.45413 7.32243 9.56466 7.08436 9.6852 6.86729C10.2409 5.86666 10.9119 5.24248 11.6044 5.01345L11.6044 5.01347ZM12.7927 5.05991C12.8551 5.07025 12.9186 5.07751 12.9806 5.08892C13.6064 5.36287 14.2077 5.95736 14.713 6.86731C14.8313 7.08036 14.9399 7.31362 15.0437 7.55569C14.3449 7.69187 13.5861 7.78026 12.7926 7.81223L12.7927 5.05991ZM9.13889 5.53352C8.96419 5.77128 8.79697 6.02019 8.64723 6.29039C8.47419 6.60111 8.32029 6.93771 8.17803 7.28894C7.79535 7.17663 7.43929 7.04902 7.1141 6.90909C7.70218 6.34289 8.38601 5.87693 9.13889 5.53352ZM15.4582 5.81212C16.1597 6.03025 16.6964 6.4748 17.2022 6.90908C16.8977 7.04019 16.5675 7.16073 16.2114 7.26813C16.0716 6.92464 15.9211 6.59478 15.7522 6.29038C15.6598 6.12417 15.5608 5.9666 15.4585 5.81212H15.4582ZM6.36121 7.76146C6.37361 7.80603 6.34075 7.70158 6.35622 7.74707C6.78476 7.94714 7.2942 8.26686 7.79668 8.41734C7.53683 9.34634 7.37589 10.367 7.33254 11.4459H4.9155C5.04885 10.0666 5.56996 8.80543 6.36161 7.76138L6.36121 7.76146ZM17.9631 7.77144C18.7502 8.81375 19.2682 10.0709 19.4008 11.4455H17.0662C17.0225 10.3585 16.8595 9.33054 16.5963 8.39596C17.0707 8.25046 17.5436 7.97346 17.951 7.78327C17.9688 7.7414 17.9485 7.81257 17.9632 7.77143L17.9631 7.77144ZM15.4428 8.68963C15.6792 9.52205 15.8324 10.454 15.8768 11.4454H12.7925V9.00068C13.7261 8.96642 14.618 8.86094 15.4428 8.68958L15.4428 8.68963ZM8.95063 8.70705C9.77733 8.87392 10.6707 8.9735 11.6044 9.00306V11.4455H8.52128C8.56537 10.4607 8.71694 9.53516 8.95061 8.70707L8.95063 8.70705ZM4.90328 12.6342H7.33189C7.3764 13.7427 7.54437 14.7912 7.81692 15.7406C7.28256 15.81 6.3634 16.3505 6.31598 16.377C5.38233 15.2365 5.00514 14.1999 4.90356 12.6334L4.90328 12.6342ZM8.52128 12.6342H11.6044V15.1601C10.6785 15.1894 9.79228 15.2871 8.97151 15.4515C8.72528 14.6037 8.56678 13.6498 8.52129 12.6341L8.52128 12.6342ZM12.7925 12.6342H15.8767C15.831 13.6567 15.6709 14.6169 15.4219 15.4689C14.603 15.3001 13.7182 15.1964 12.7925 15.1625L12.7925 12.6342ZM17.066 12.6342H19.4123C19.3189 14.0735 18.8935 15.3123 18.0867 16.4022C17.7093 16.1641 17.0204 15.9154 16.5752 15.7615C16.8512 14.8067 17.0212 13.7508 17.066 12.6343L17.066 12.6342ZM11.6043 16.3489V19.0652C10.9121 18.8356 10.2408 18.2142 9.68504 17.2134C9.57689 17.0187 9.47706 16.8074 9.38139 16.5878C10.0744 16.4585 10.8226 16.3763 11.6046 16.3487L11.6043 16.3489ZM12.7925 16.3512C13.5744 16.3824 14.3219 16.4679 15.0122 16.6008C14.9176 16.8156 14.819 17.0224 14.7128 17.2137C14.1571 18.2145 13.4853 18.8361 12.7924 19.0652L12.7925 16.3512ZM8.20914 16.8654C8.34312 17.1891 8.48632 17.502 8.6466 17.7906C8.87348 18.1992 9.13243 18.57 9.41475 18.9004C8.50464 18.5304 7.68454 17.9859 7.00237 17.3019C7.36532 17.1392 7.77065 16.9927 8.20914 16.8655V16.8654ZM16.1808 16.8863C16.5911 17.0085 16.9706 17.1483 17.3133 17.3019C16.6634 17.9535 15.8894 18.4808 15.0308 18.8493C15.2953 18.5323 15.5369 18.177 15.7514 17.7906C15.9083 17.5081 16.0491 17.2024 16.1807 16.8863L16.1808 16.8863Z" fill="#111111"/>
<rect x="0.639934" y="0.639934" width="23.0376" height="23.0376" rx="11.5188" stroke="#111111" stroke-width="1.27987"/>
</svg>
