<svg width="24" height="24" viewBox="0 0 24 24" fill="none" xmlns="http://www.w3.org/2000/svg">
<path d="M15 0L22 7V21.1997C22 22.7465 20.5681 24 19.0495 24H4.9113C3.39272 24 2 22.5457 2 21V3C2.00012 1.45322 3.3927 0 4.9113 0H15Z" fill="#8B72F7"/>
<path d="M22 7H17.5735C16.2211 7 15 5.77994 15 4.42633V0L22 7Z" fill="white" fill-opacity="0.4"/>
<path d="M10.6692 14.194L7.86587 12.7733C7.40886 12.5731 7.03205 12.7582 7.02801 13.1847L7.00003 16.2719C6.9963 16.6984 7.36688 17.2113 7.8239 17.4115L10.6272 18.8322C11.0843 19.0324 11.4611 18.8473 11.4651 18.4208L11.4931 15.3336C11.4968 14.9072 11.1262 14.3945 10.6692 14.194ZM16.362 11.909C16.8784 11.585 16.9076 11.0955 16.4267 10.8216L12.8212 9.18709C12.3132 8.94193 11.8696 8.9225 11.2565 9.21987L7.63425 10.8417C7.11786 11.1657 7.08863 11.6552 7.56959 11.929L11.0507 13.6796C11.5316 13.9538 12.2405 13.9466 12.8641 13.6469L16.362 11.909ZM16.972 13.1267C16.9683 12.7002 16.5911 12.5151 16.1341 12.7153L13.1132 14.223C12.6561 14.4232 12.2856 14.9362 12.2893 15.3626L12.3173 18.5079C12.321 18.9344 12.6981 19.1194 13.1551 18.9193L16.1761 17.4115C16.6331 17.2113 17.0037 16.6984 17 16.2719L16.972 13.1267Z" fill="white"/>
</svg>
