<svg width="24" height="24" viewBox="0 0 24 24" fill="none" xmlns="http://www.w3.org/2000/svg">
<path d="M15 0L22 7V21.1997C22 22.7465 20.5681 24 19.0495 24H4.9113C3.39272 24 2 22.5457 2 21V3C2.00012 1.45322 3.3927 0 4.9113 0H15Z" fill="#7C8EEE"/>
<path d="M22 7H17.5735C16.2211 7 15 5.77994 15 4.42633V0L22 7Z" fill="white" fill-opacity="0.4"/>
<path d="M16.5 11.634C17.1667 12.0189 17.1667 12.9811 16.5 13.366L9.75 17.2631C9.08333 17.648 8.25 17.1669 8.25 16.3971L8.25 8.60289C8.25 7.83308 9.08333 7.35196 9.75 7.73686L16.5 11.634Z" fill="white"/>
</svg>
