<svg width="19" height="20" viewBox="0 0 19 20" fill="none" xmlns="http://www.w3.org/2000/svg">
<path d="M8.98207 20C4.91971 20 1.45804 17.4177 0.125997 13.8124L0.1395 13.8069C0.056712 13.6404 0 13.4596 0 13.2611C0 12.5746 0.556437 12.0181 1.24292 12.0181C1.79506 12.0181 2.24735 12.3842 2.40943 12.8822L2.42686 12.8751C3.38639 15.5736 5.95844 17.5142 8.98207 17.5142C12.8213 17.5142 15.9444 14.3911 15.9444 10.5518C15.9444 6.71259 12.8213 3.5895 8.98207 3.5895C8.13955 3.5895 7.33787 3.75364 6.5899 4.02944L7.4661 5.70947C7.56864 5.81989 7.63176 5.96855 7.63176 6.13185C7.63176 6.47895 7.28521 6.74715 6.99815 6.75327C6.99393 6.75327 6.98963 6.75327 6.98541 6.75327C6.97634 6.75327 6.96777 6.75327 6.9587 6.75272L0.749568 6.48621C0.528039 6.47655 0.327735 6.34971 0.225199 6.15248C0.122663 5.95581 0.132959 5.71913 0.25191 5.53165L3.58741 0.28742C3.70636 0.100492 3.91755 -0.00748614 4.13853 0.00040448C4.36006 0.0100673 4.56028 0.136992 4.66282 0.334215L5.42897 1.80322C6.52703 1.35561 7.72506 1.10374 8.98212 1.10374C14.1917 1.10374 18.4303 5.34232 18.4303 10.5519C18.4303 15.7615 14.1916 20 8.98207 20Z" fill="white"/>
</svg>
