<svg width="52" height="47" viewBox="0 0 52 47" fill="none" xmlns="http://www.w3.org/2000/svg">
<path d="M42.7428 4.95439H24.9333C24.9333 2.21971 22.5396 0 19.5905 0H16.0286C13.0795 0 10.6857 2.21971 10.6857 4.95439H5.34285C2.39375 4.95439 0 7.17411 0 9.90879V36.3322C0 39.0669 2.39375 41.2866 5.34285 41.2866H28.6006C29.108 41.2866 29.5868 41.0824 29.9315 40.7361C30.2666 40.3899 30.4294 39.9193 30.3719 39.4487C30.3241 39.0136 30.2858 38.5786 30.2858 38.1346C30.2858 30.8273 37.6394 24.9939 45.8643 26.9562C46.4005 27.0805 46.9654 26.9739 47.3963 26.6632C47.8272 26.3524 48.0857 25.8729 48.0857 25.358V9.90879C48.0857 7.17411 45.6919 4.95439 42.7428 4.95439ZM23.1524 33.0293C17.2542 33.0293 12.4667 28.581 12.4667 23.1205C12.4667 17.66 17.2542 13.2117 23.1524 13.2117C29.0506 13.2117 33.8381 17.6511 33.8381 23.1205C33.8381 28.5899 29.041 33.0293 23.1524 33.0293ZM40.0714 16.5147C38.5969 16.5147 37.4 15.4048 37.4 14.0375C37.4 12.6701 38.5969 11.5603 40.0714 11.5603C41.546 11.5603 42.7428 12.6701 42.7428 14.0375C42.7428 15.4048 41.546 16.5147 40.0714 16.5147Z" fill="white"/>
<path d="M42.7429 29.8242C37.8213 29.8242 33.8381 33.5178 33.8381 38.0816C33.8381 42.6453 37.8213 46.3389 42.7429 46.3389C47.6644 46.3389 51.6476 42.6453 51.6476 38.0816C51.6476 33.5178 47.6644 29.8242 42.7429 29.8242ZM46.3047 39.6354H44.5238V41.2868C44.5238 42.2013 43.7291 42.9383 42.7429 42.9383C41.7566 42.9383 40.9619 42.2013 40.9619 41.2868V39.6354H39.181C38.1947 39.6354 37.4 38.8984 37.4 37.9839C37.4 37.0694 38.1947 36.3324 39.181 36.3324H40.9619V34.681C40.9619 33.7664 41.7566 33.0295 42.7429 33.0295C43.7291 33.0295 44.5238 33.7664 44.5238 34.681V36.3324H46.3047C47.291 36.3324 48.0857 37.0694 48.0857 37.9839C48.0857 38.8984 47.291 39.6354 46.3047 39.6354Z" fill="white"/>
</svg>
