<svg width="24" height="24" viewBox="0 0 24 24" fill="none" xmlns="http://www.w3.org/2000/svg">
<path d="M11.9999 24C5.38293 24 0 18.6171 0 11.9999C0 5.38294 5.38291 0 11.9999 0C18.6171 0 24 5.38291 24 11.9999C24 18.6171 18.6171 24 11.9999 24ZM11.9999 1.72197C6.33258 1.72197 1.722 6.33256 1.722 11.9999C1.722 17.6665 6.33258 22.278 11.9999 22.278C17.6665 22.278 22.278 17.6665 22.278 11.9999C22.278 6.33256 17.6665 1.72197 11.9999 1.72197Z" fill="#3AE090"/>
<path d="M17.7587 8.81825C17.4228 8.48486 16.8793 8.48824 16.5469 8.82505L10.2983 15.1422L7.53219 12.3C7.20143 11.9596 6.65877 11.9536 6.32032 12.2828C5.98077 12.6128 5.97308 13.1562 6.30318 13.4947L9.67861 16.9637C9.68033 16.9661 9.6837 16.9661 9.68542 16.9687C9.68713 16.9705 9.68801 16.9739 9.68973 16.9755C9.74375 17.0288 9.81057 17.0614 9.87402 17.0973C9.9075 17.1154 9.93404 17.1454 9.96829 17.1591C10.072 17.2019 10.1826 17.2233 10.2923 17.2233C10.4011 17.2233 10.51 17.202 10.6128 17.1608C10.6463 17.147 10.6719 17.1196 10.7037 17.1024C10.7679 17.0664 10.8349 17.0348 10.8897 16.9808C10.8914 16.9791 10.8923 16.9755 10.8948 16.9739C10.8965 16.9713 10.8991 16.9704 10.9017 16.9687L17.7648 10.031C18.0983 9.69334 18.0948 9.15081 17.7587 8.81825Z" fill="#3AE090"/>
</svg>
