<svg width="24" height="24" viewBox="0 0 24 24" fill="none" xmlns="http://www.w3.org/2000/svg">
<path d="M11.9999 24C5.38293 24 0 18.6171 0 11.9999C0 5.38293 5.38291 0 11.9999 0C18.6171 0 24 5.38291 24 11.9999C24 18.6171 18.6171 24 11.9999 24ZM11.9999 1.72197C6.33258 1.72197 1.722 6.33256 1.722 11.9999C1.722 17.6665 6.33258 22.278 11.9999 22.278C17.6665 22.278 22.278 17.6665 22.278 11.9999C22.278 6.33256 17.6665 1.72197 11.9999 1.72197Z" fill="#FAC917"/>
<path fill-rule="evenodd" clip-rule="evenodd" d="M9.88757 12.158C9.88574 12.1321 9.88481 12.1059 9.88481 12.0796L9.88481 5.49114C9.88481 4.88469 10.3764 4.39307 10.9829 4.39307C11.5893 4.39307 12.081 4.88469 12.081 5.49114L12.081 11.6164L17.6416 14.8269C18.1668 15.1301 18.3468 15.8017 18.0435 16.3269C17.7403 16.8521 17.0687 17.032 16.5435 16.7288L10.433 13.2009C10.0526 12.9813 9.85337 12.5685 9.88757 12.158Z" fill="#FAC917"/>
</svg>
