<svg width="24" height="24" viewBox="0 0 24 24" fill="none" xmlns="http://www.w3.org/2000/svg">
<path d="M12 0C5.38287 0 0 5.38287 0 12C0 18.6171 5.38287 24 12 24C18.6171 24 24 18.6171 24 12C24 5.38287 18.6171 0 12 0ZM12 22.278C6.33256 22.278 1.72198 17.6674 1.72198 12C1.72198 6.33343 6.33256 1.72198 12 1.72198C17.6666 1.72198 22.278 6.33339 22.278 12C22.278 17.6674 17.6666 22.278 12 22.278Z" fill="#E03A3A"/>
<path d="M13.2052 11.9629L16.9115 15.6289C17.2483 15.9615 17.2509 16.504 16.9183 16.8409C16.5857 17.1778 16.0423 17.1803 15.7063 16.8478L11.9949 13.1775L8.34004 16.8435C8.00487 17.1786 7.4632 17.1803 7.12803 16.8452C6.79287 16.5109 6.79204 15.9683 7.12633 15.6332L10.776 11.9723L7.09629 8.33204C6.75942 7.99863 6.75684 7.4569 7.08942 7.12004C7.25742 6.95033 7.47771 6.86546 7.69883 6.86546C7.91654 6.86546 8.13426 6.94858 8.30142 7.11317L11.9863 10.7578L15.7011 7.03088C15.8683 6.86288 16.0877 6.77888 16.308 6.77888C16.5274 6.77888 16.746 6.86288 16.9131 7.02917C17.2483 7.36346 17.2491 7.90518 16.9148 8.24118L13.2052 11.9629Z" fill="#E03A3A"/>
</svg>
