<svg width="24" height="24" viewBox="0 0 24 24" fill="none" xmlns="http://www.w3.org/2000/svg"><path d="M18.857 7.333h-.919a6.289 6.289 0 0 0-2.01-3.814A5.876 5.876 0 0 0 12 2c-1.443 0-2.837.54-3.928 1.519a6.29 6.29 0 0 0-2.01 3.814h-.92a5.051 5.051 0 0 0-3.636 1.562A5.435 5.435 0 0 0 0 12.666c0 1.415.542 2.772 1.506 3.772A5.051 5.051 0 0 0 5.143 18H6a.842.842 0 0 0 .606-.26.906.906 0 0 0 .251-.629.906.906 0 0 0-.25-.628.842.842 0 0 0-.607-.26h-.857c-.91 0-1.782-.375-2.425-1.042a3.624 3.624 0 0 1-1.004-2.514c0-.944.362-1.848 1.004-2.515a3.368 3.368 0 0 1 2.425-1.041h1.714a.842.842 0 0 0 .606-.26.906.906 0 0 0 .251-.63A4.53 4.53 0 0 1 8.97 5.08 4.21 4.21 0 0 1 12 3.777a4.21 4.21 0 0 1 3.03 1.302 4.53 4.53 0 0 1 1.256 3.143c0 .236.09.462.25.628.162.167.38.26.607.26h1.714c.91 0 1.782.375 2.425 1.042a3.623 3.623 0 0 1 1.004 2.514c0 .944-.362 1.848-1.005 2.515a3.367 3.367 0 0 1-2.424 1.041H18a.842.842 0 0 0-.606.26.906.906 0 0 0-.251.63c0 .235.09.46.25.628.162.166.38.26.607.26h.857a5.052 5.052 0 0 0 3.637-1.562A5.436 5.436 0 0 0 24 12.667a5.435 5.435 0 0 0-1.506-3.772 5.051 5.051 0 0 0-3.637-1.562z" fill="#111"/><path d="M14.657 16.828l-1.874 1.97v-7.026a.833.833 0 0 0-.244-.548.77.77 0 0 0-.54-.224.77.77 0 0 0-.54.224.832.832 0 0 0-.245.548v7.022l-1.871-1.966a.787.787 0 0 0-.556-.24.76.76 0 0 0-.557.24.822.822 0 0 0-.23.579.848.848 0 0 0 .23.579l3.215 3.364a.782.782 0 0 0 .555.24.756.756 0 0 0 .555-.24l3.215-3.364a.836.836 0 0 0 .23-.58.836.836 0 0 0-.23-.578.77.77 0 0 0-.556-.24.77.77 0 0 0-.557.24z" fill="#111"/></svg>