<svg width="24" height="24" viewBox="0 0 24 24" fill="none" xmlns="http://www.w3.org/2000/svg"><path d="M13.613 21H5c-1.102 0-2-.898-2-2V5c0-1.102.898-2 2-2h14c1.102 0 2 .898 2 2v8.642a.666.666 0 1 1-1.333 0V5c0-.367-.3-.667-.667-.667H5c-.367 0-.667.3-.667.667v14c0 .367.3.667.667.667h8.613a.666.666 0 1 1 0 1.333z" fill="#000"/><path d="M16.026 8.337H6.719a.666.666 0 1 1 0-1.333h9.307a.666.666 0 1 1 0 1.333zM9.694 12.67H6.72a.666.666 0 1 1 0-1.334h2.973a.666.666 0 0 1 .002 1.333zm0 4.329H6.72a.666.666 0 1 1 0-1.334h2.973a.666.666 0 0 1 .002 1.334zM14.603 18.134a3.589 3.589 0 0 1-3.583-3.584 3.589 3.589 0 0 1 3.583-3.583 3.588 3.588 0 0 1 3.583 3.583 3.587 3.587 0 0 1-3.583 3.584zm0-5.834a2.251 2.251 0 1 0 2.25 2.25 2.251 2.251 0 0 0-2.25-2.25z" fill="#000"/><path d="M18.702 19.626l-2.298-2.298a.668.668 0 0 1 .944-.943l2.296 2.298a.668.668 0 0 1-.942.943z" fill="#000"/></svg>