<svg width="16" height="16" viewBox="0 0 16 16" fill="none" xmlns="http://www.w3.org/2000/svg"><path d="M3.95 3.952a.872.872 0 0 0-.865.877c0 .485.388.879.864.879a.872.872 0 0 0 .864-.879.872.872 0 0 0-.864-.877zm2.398 0a.872.872 0 0 0-.864.877c0 .485.388.879.864.879a.872.872 0 0 0 .864-.879.872.872 0 0 0-.864-.877zm2.399.08a.872.872 0 0 0-.864.877c0 .485.387.878.864.878a.872.872 0 0 0 .864-.878.872.872 0 0 0-.864-.878zm5.667 1.595h-1.718v-3.72c0-1.052-.84-1.907-1.875-1.907H1.875C.84 0 0 .855 0 1.906v6.136c0 1.04.823 1.888 1.842 1.906l-.02 2.738 3.888-2.73v2.166c0 .889.711 1.612 1.586 1.612h4.029L14.55 16l-.015-2.27A1.604 1.604 0 0 0 16 12.121V7.239c0-.888-.711-1.612-1.586-1.612zm-8.98 3.387l-2.68 1.882.013-1.882h-.892a.965.965 0 0 1-.956-.972V1.906c0-.536.429-.972.956-.972h8.946c.527 0 .956.436.956.972v6.136a.965.965 0 0 1-.956.972H5.435zm9.647 3.108c0 .374-.3.678-.667.678h-.804l.01 1.41-2.009-1.41H7.296a.673.673 0 0 1-.667-.678V9.948h4.192c1.034 0 1.875-.855 1.875-1.906v-1.48h1.718c.368 0 .667.304.667.677v4.883z" fill="#fff"/></svg>