<svg width="100" height="100" viewBox="0 0 100 100" fill="none" xmlns="http://www.w3.org/2000/svg"><path d="M44 49l31-17v36L44 85V49z" fill="#EFEFEF"/><path d="M42.159 14.742a3.5 3.5 0 0 1 3.5 0l27.909 16.114a3.5 3.5 0 0 1 1.75 3.03v32.227a3.5 3.5 0 0 1-1.75 3.031L45.659 85.258a3.5 3.5 0 0 1-3.5 0L14.25 69.144a3.5 3.5 0 0 1-1.75-3.03V33.886a3.5 3.5 0 0 1 1.75-3.031l27.909-16.114z" fill="#EFEFEF" stroke="#C4C4C4" stroke-width="3"/><path d="M29.979 22.535l13.732 8.698M43.429 49.33l-15.24-8.455M73.91 32L45.423 48.234a3 3 0 0 0-1.515 2.606V85" stroke="#C4C4C4" stroke-width="3" stroke-linecap="round"/><rect x="54" y="48" width="35.595" height="35.595" rx="17.798" fill="#111"/><path d="M70.9 71.262l-2.475 2.475a3.5 3.5 0 1 1-4.95-4.95l4.95-4.95a3.5 3.5 0 0 1 4.95 0" stroke="#fff" stroke-width="3" stroke-linecap="round"/><path d="M73.728 59.95l2.474-2.476a3.5 3.5 0 0 1 4.95 4.95l-4.95 4.95a3.5 3.5 0 0 1-4.95 0" stroke="#fff" stroke-width="3" stroke-linecap="round"/></svg>