<svg width="100" height="100" viewBox="0 0 100 100" fill="none" xmlns="http://www.w3.org/2000/svg"><path d="M4 25.797h40.539v65.258L4 73.257v-47.46z" fill="#EFEFEF" stroke="#C4C4C4" stroke-width="3" stroke-linejoin="round"/><path d="M53.438 87.148l-8.899 3.907V25.797l40.54.494v18.292" stroke="#C4C4C4" stroke-width="3" stroke-linecap="round" stroke-linejoin="round"/><path d="M4 25.642L44.185 8l40.893 17.953-40.185 17.642L4 25.642z" fill="#EFEFEF" stroke="#C4C4C4" stroke-width="3" stroke-linejoin="round"/><path d="M28.045 15.402L68.27 33.213M4.056 61.394l12.798 5.438" stroke="#C4C4C4" stroke-width="3" stroke-linecap="round"/><path d="M96 71c0 9.941-8.059 18-18 18s-18-8.059-18-18 8.059-18 18-18 18 8.059 18 18z" fill="#111"/><path stroke="#fff" stroke-width="3" stroke-linecap="round" d="M77.5 61.5V73M78.049 73.451l7.794 4.5"/></svg>