<svg width="25" height="24" viewBox="0 0 25 24" fill="none" xmlns="http://www.w3.org/2000/svg">
<path d="M10.7127 14.1807H15.1925C15.5906 14.1807 15.9118 13.8645 15.9118 13.3903C15.9118 12.9951 15.5906 12.6 15.1925 12.6H11.432V6.02698C11.432 5.63181 11.1108 5.23664 10.7127 5.23664C10.3145 5.23664 9.99336 5.55277 9.99336 6.02698V13.387C9.91307 13.8645 10.2309 14.1807 10.7127 14.1807ZM22.3052 22.4134C22.3052 22.4924 22.2249 22.5714 22.1446 22.5714H14.9516C14.8713 22.5714 14.791 22.4924 14.791 22.4134V21.3859C14.791 21.3069 14.8713 21.2279 14.9516 21.2279H22.148C22.2283 21.2279 22.3086 21.3069 22.3086 21.3859V22.4134H22.3052ZM18.4678 18.7712H18.7087L19.8295 20.0391H17.4307L18.4678 18.7712ZM17.4307 15.7646C17.4307 15.1324 17.9091 14.5791 18.5515 14.5791C19.1905 14.5791 19.6722 15.1324 19.6722 15.7646C19.6722 16.3969 19.1905 16.9501 18.5515 16.9501C17.9091 16.9501 17.4307 16.3969 17.4307 15.7646ZM22.5461 20.1181H21.4253L19.2674 17.8228C20.1473 17.5067 20.7863 16.6373 20.7863 15.6856C20.7863 14.4178 19.7458 13.3903 18.5481 13.3903C17.2701 13.3903 16.3099 14.4178 16.3099 15.6856C16.3099 16.7163 16.9489 17.5067 17.8288 17.8228L15.6709 20.1181H14.5501C13.9914 20.1181 13.5096 20.5923 13.5096 21.1455V22.8085C13.5096 23.3618 13.988 23.8393 14.5501 23.8393H22.5461C23.1048 23.8393 23.5866 23.3651 23.5866 22.8085V21.1455C23.5063 20.5923 23.1048 20.1181 22.5461 20.1181ZM23.6669 11.1741C23.1885 5.07857 18.0697 0.171875 11.8335 0.171875C5.35633 0.171875 0 5.47374 0 12.0434C0 18.376 4.63703 23.4408 10.8733 23.6779H11.432C11.8301 23.6779 12.1513 23.3618 12.071 22.9666C12.071 22.5714 11.7498 22.2553 11.3517 22.2553H10.9536C5.75446 21.8601 1.59921 17.4276 1.59921 12.0434C1.59921 6.34312 6.15594 1.75256 11.8335 1.75256C17.2701 1.75256 21.6696 5.94795 22.0677 11.3288V12.2773C22.0677 12.7515 22.3889 13.1466 22.8673 13.1466C23.2654 13.1466 23.5866 12.8305 23.6669 12.4353V11.1741Z" fill="#E03A3A"/>
<path d="M22.7134 24H14.7174C14.0616 24 13.5096 23.4534 13.5096 22.8046V21.1416C13.5096 20.4929 14.0616 19.9462 14.7174 19.9462H15.7645L17.7117 17.8782C16.8418 17.4731 16.3099 16.6498 16.3099 15.6784C16.3099 14.2986 17.3671 13.2184 18.7187 13.2184C20.0235 13.2184 21.1276 14.3447 21.1276 15.6784C21.1276 16.6004 20.5622 17.4731 19.7258 17.8749L21.6729 19.9462H22.7201C23.3223 19.9462 23.8275 20.4402 23.9278 21.1186L23.9312 21.1416V22.8046C23.9212 23.4501 23.3691 24 22.7134 24ZM14.7174 20.2788C14.2523 20.2788 13.8475 20.6806 13.8475 21.1416V22.8046C13.8475 23.2656 14.2557 23.6674 14.7174 23.6674H22.7134C23.1784 23.6674 23.5833 23.2624 23.5833 22.8046V21.1548C23.5163 20.73 23.2186 20.2788 22.7134 20.2788H21.519L19.1369 17.7464L19.3745 17.6608C20.2042 17.3611 20.783 16.5478 20.783 15.6784C20.783 14.5225 19.8362 13.5477 18.712 13.5477C17.5511 13.5477 16.6411 14.483 16.6411 15.6784C16.6411 16.5873 17.1797 17.348 18.0496 17.6608L18.2871 17.7464L15.9051 20.2788H14.7174ZM11.5993 23.8419H11.0338C7.98264 23.7267 5.17901 22.4522 3.14153 20.2558C1.11409 18.0724 0 15.1581 0 12.0395C0 10.4127 0.321179 8.83535 0.950155 7.35017C1.55906 5.91767 2.42892 4.63008 3.53632 3.5236C4.64037 2.42042 5.92509 1.55104 7.35366 0.945115C8.82908 0.319429 10.3948 0 12.0007 0C15.0419 0 17.9526 1.15917 20.1941 3.26015C22.4156 5.34468 23.7673 8.14709 24.0048 11.1537V12.4479L24.0015 12.4643C23.9011 12.955 23.4963 13.3106 23.0379 13.3106C22.4859 13.3106 22.071 12.8661 22.071 12.2733V11.3282C21.6696 5.95719 17.3437 1.90999 12.0041 1.90999C6.45369 1.90999 1.93711 6.45115 1.93711 12.0329C1.93711 17.2722 5.97527 21.6817 11.1309 22.0768H11.5256C12.0108 22.0768 12.4055 22.4621 12.4122 22.9396C12.4524 23.1603 12.3955 23.371 12.255 23.5423C12.0944 23.7333 11.8569 23.8419 11.5993 23.8419ZM11.0439 23.5093H11.5993C11.7565 23.5093 11.9004 23.4468 11.9907 23.3381C12.0476 23.2722 12.1078 23.157 12.0743 22.9956L12.071 22.9791V22.9627C12.071 22.6564 11.8301 22.416 11.519 22.416H11.1074C5.77453 22.011 1.59586 17.4533 1.59586 12.0395C1.59586 9.2404 2.67315 6.61251 4.63368 4.64325C6.59421 2.67069 9.21048 1.58727 12.0007 1.58727C14.6638 1.58727 17.1931 2.58836 19.1235 4.40285C21.0406 6.20746 22.2049 8.66411 22.4022 11.3183V12.2799C22.4022 12.629 22.6197 12.9846 23.0346 12.9846C23.329 12.9846 23.5933 12.7475 23.6669 12.4215V11.1767C23.1851 5.09769 18.063 0.332601 12.0007 0.332601C5.5671 0.332601 0.334562 5.58507 0.334562 12.0395C0.334562 18.3458 4.93813 23.2755 11.0439 23.5093ZM22.3153 22.7322H15.1188C14.9482 22.7322 14.791 22.5774 14.791 22.4094V21.382C14.791 21.2108 14.9482 21.056 15.1188 21.056H22.3153C22.4859 21.056 22.6431 21.2108 22.6431 21.382V22.4094C22.6431 22.5774 22.4859 22.7322 22.3153 22.7322ZM15.1289 22.3996H22.3052V21.3853L22.3019 21.382H15.1289L15.1255 21.3853L15.1289 22.3996C15.1255 22.3996 15.1255 22.3996 15.1289 22.3996ZM20.3648 20.1998H17.2433L18.5548 18.6026H18.9529L20.3648 20.1998ZM17.9492 19.8672H19.6254L18.799 18.9319H18.7154L17.9492 19.8672ZM18.7154 17.1109C18.0061 17.1109 17.4273 16.5049 17.4273 15.7574C17.4273 15.0099 18.0061 14.404 18.7154 14.404C19.4246 14.404 20.0034 15.0099 20.0034 15.7574C20.0034 16.5049 19.4246 17.1109 18.7154 17.1109ZM18.7154 14.7398C18.1901 14.7398 17.7652 15.1976 17.7652 15.7607C17.7652 16.3238 18.1935 16.7816 18.7154 16.7816C19.2406 16.7816 19.6655 16.3238 19.6655 15.7607C19.6655 15.1976 19.2406 14.7398 18.7154 14.7398ZM15.3564 14.3414H10.7127V14.3282C10.4885 14.2953 10.2978 14.1998 10.1673 14.045C10.0168 13.8672 9.95321 13.6301 9.99336 13.3699V6.02305C9.99336 5.4764 10.3748 5.06476 10.8799 5.06476C11.3517 5.06476 11.7665 5.51262 11.7665 6.02305V12.4281H15.3564C15.8281 12.4281 16.243 12.876 16.243 13.3864C16.2463 13.9297 15.8649 14.3414 15.3564 14.3414ZM11.0472 14.0121H15.3564C15.6742 14.0121 15.9084 13.7486 15.9084 13.3864C15.9084 13.09 15.6742 12.7607 15.3564 12.7607H11.432V6.02305C11.432 5.72667 11.1978 5.39737 10.8799 5.39737C10.5554 5.39737 10.3279 5.65423 10.3279 6.02305V13.3996L10.3246 13.4127C10.2945 13.584 10.3279 13.7289 10.4216 13.8342C10.5186 13.9495 10.6826 14.0121 10.8799 14.0121H11.0472Z" fill="#E03A3A"/>
</svg>
