<svg width="20" height="20" viewBox="0 0 20 20" fill="none" xmlns="http://www.w3.org/2000/svg"><path d="M5.833 11.666h7.917M9.917 8.25v6.417" stroke="#111" stroke-width="1.5" stroke-linecap="round"/><path d="M10.957 4.341h6.49c1.41 0 2.553 1.106 2.553 2.47v9.053c0 1.364-1.143 2.47-2.553 2.47H2.553c-1.41 0-2.553-1.106-2.553-2.47V3.313c0-.91.762-1.647 1.702-1.647h6.602c.29 0 .577.073.83.21.254.137.467.334.62.574l1.203 1.891zm6.48 12.749c.704 0 1.276-.553 1.276-1.235V6.802c0-.682-.572-1.235-1.277-1.235H1.287v10.288c0 .682.572 1.235 1.277 1.235h14.872zM8.845 3.108a.437.437 0 0 0-.37-.207H1.702a.433.433 0 0 0-.3.12.405.405 0 0 0-.125.292v1.003l8.297.025-.728-1.233z" fill="#111"/></svg>