<svg width="20" height="20" viewBox="0 0 20 20" fill="none" xmlns="http://www.w3.org/2000/svg">
<path d="M10 20C15.5228 20 20 15.5228 20 10C20 4.47715 15.5228 0 10 0C4.47715 0 0 4.47715 0 10C0 15.5228 4.47715 20 10 20Z" fill="black"/>
<path fill-rule="evenodd" clip-rule="evenodd" d="M5.88205 4.3016C5.88205 3.8752 6.22771 3.52954 6.6541 3.52954H9.22763C9.65403 3.52954 9.99969 3.8752 9.99969 4.3016C9.99969 4.728 9.65403 5.07366 9.22763 5.07366H6.6541C6.22771 5.07366 5.88205 4.728 5.88205 4.3016ZM14.0697 5.06411C14.2171 5.46421 14.0123 5.90806 13.6122 6.05547L6.92101 8.52064C6.5209 8.66805 6.07706 8.46319 5.92965 8.06309C5.78224 7.66298 5.98709 7.21913 6.3872 7.07173L13.0784 4.60656C13.4785 4.45915 13.9223 4.664 14.0697 5.06411ZM14.0697 11.3489C14.2171 11.749 14.0123 12.1929 13.6122 12.3403L6.92101 14.8055C6.5209 14.9529 6.07706 14.748 5.92965 14.3479C5.78224 13.9478 5.98709 13.504 6.3872 13.3566L13.0784 10.8914C13.4785 10.744 13.9223 10.9488 14.0697 11.3489ZM9.99969 15.1104C9.99969 14.684 10.3454 14.3384 10.7718 14.3384H13.3453C13.7717 14.3384 14.1173 14.684 14.1173 15.1104C14.1173 15.5368 13.7717 15.8825 13.3453 15.8825H10.7718C10.3454 15.8825 9.99969 15.5368 9.99969 15.1104Z" fill="white"/>
<path fill-rule="evenodd" clip-rule="evenodd" d="M14.0659 8.14203C14.2189 8.54 14.0204 8.98671 13.6224 9.13978L6.93126 11.7133C6.53328 11.8664 6.08657 11.6678 5.93351 11.2699C5.78044 10.8719 5.97897 10.4252 6.37695 10.2721L13.0681 7.69858C13.4661 7.54551 13.9128 7.74405 14.0659 8.14203Z" fill="white"/>
</svg>
