<svg width="20" height="20" viewBox="0 0 20 20" fill="none" xmlns="http://www.w3.org/2000/svg">
<path d="M10 20C15.5228 20 20 15.5228 20 10C20 4.47715 15.5228 0 10 0C4.47715 0 0 4.47715 0 10C0 15.5228 4.47715 20 10 20Z" fill="#F3BA2F"/>
<path d="M9.9813 3.33282L11.6281 5.01933L7.4813 9.16616L5.83447 7.51933L9.9813 3.33282Z" fill="white"/>
<path d="M12.4813 5.83282L14.1281 7.51933L7.4813 14.1662L5.83447 12.5193L12.4813 5.83282Z" fill="white"/>
<path d="M4.9813 8.33282L6.62812 10.0193L4.9813 11.6662L3.33447 10.0193L4.9813 8.33282Z" fill="white"/>
<path d="M14.9813 8.33282L16.6281 10.0193L9.9813 16.6662L8.33447 15.0193L14.9813 8.33282Z" fill="white"/>
</svg>
