<svg width="44" height="44" viewBox="0 0 44 44" fill="none" xmlns="http://www.w3.org/2000/svg">
<mask id="mask0_12873_68509" style="mask-type:alpha" maskUnits="userSpaceOnUse" x="0" y="0" width="44" height="44">
<rect width="44" height="44" fill="#C4C4C4"/>
</mask>
<g mask="url(#mask0_12873_68509)">
<g filter="url(#filter0_b_12873_68509)">
<path d="M36.004 19.9286C37.0211 20.7293 37.0211 22.2707 36.004 23.0714L16.4872 38.437C15.1752 39.4699 13.25 38.5353 13.25 36.8655L13.25 6.13447C13.25 4.4647 15.1752 3.53014 16.4872 4.56305L36.004 19.9286Z" fill="#C4C4C4" fill-opacity="0.1"/>
<path d="M36.6226 23.8571C38.1482 22.656 38.1482 20.344 36.6226 19.1429L17.1058 3.77733C15.1378 2.22798 12.25 3.62981 12.25 6.13447L12.25 36.8655C12.25 39.3702 15.1378 40.772 17.1058 39.2227L36.6226 23.8571Z" stroke="url(#paint0_linear_12873_68509)" stroke-width="2"/>
</g>
</g>
<defs>
<filter id="filter0_b_12873_68509" x="-42.75" y="-51.873" width="135.517" height="146.746" filterUnits="userSpaceOnUse" color-interpolation-filters="sRGB">
<feFlood flood-opacity="0" result="BackgroundImageFix"/>
<feGaussianBlur in="BackgroundImage" stdDeviation="27"/>
<feComposite in2="SourceAlpha" operator="in" result="effect1_backgroundBlur_12873_68509"/>
<feBlend mode="normal" in="SourceGraphic" in2="effect1_backgroundBlur_12873_68509" result="shape"/>
</filter>
<linearGradient id="paint0_linear_12873_68509" x1="38" y1="21.5" x2="5" y2="21.5" gradientUnits="userSpaceOnUse">
<stop stop-color="white" stop-opacity="0.35"/>
<stop offset="1" stop-color="white" stop-opacity="0"/>
</linearGradient>
</defs>
</svg>
