<svg width="65" height="65" viewBox="0 0 65 65" fill="none" xmlns="http://www.w3.org/2000/svg">
<circle cx="32.5" cy="32.5" r="32.5" fill="black" fill-opacity="0.32"/>
<path opacity="0.8" d="M29.7918 19.2288V45.7705C29.7912 46.2731 29.577 46.755 29.1962 47.1104C28.8154 47.4659 28.2991 47.6658 27.7605 47.6663H23.698C23.1595 47.6658 22.6432 47.4659 22.2624 47.1104C21.8816 46.755 21.6674 46.2731 21.6668 45.7705V19.2288C21.6674 18.7262 21.8816 18.2443 22.2624 17.8889C22.6432 17.5335 23.1595 17.3336 23.698 17.333H27.7605C28.2991 17.3336 28.8154 17.5335 29.1962 17.8889C29.577 18.2443 29.7912 18.7262 29.7918 19.2288ZM42.3855 17.333H38.323C37.7845 17.3336 37.2682 17.5335 36.8874 17.8889C36.5066 18.2443 36.2924 18.7262 36.2918 19.2288V45.7705C36.2924 46.2731 36.5066 46.755 36.8874 47.1104C37.2682 47.4659 37.7845 47.6658 38.323 47.6663H42.3855C42.9241 47.6658 43.4404 47.4659 43.8212 47.1104C44.202 46.755 44.4162 46.2731 44.4168 45.7705V19.2288C44.4162 18.7262 44.202 18.2443 43.8212 17.8889C43.4404 17.5335 42.9241 17.3336 42.3855 17.333Z" fill="white"/>
</svg>
