<svg width="16" height="16" viewBox="0 0 16 16" fill="none" xmlns="http://www.w3.org/2000/svg">
<path d="M13.4759 7.5184H3.65784L6.8344 4.34184C7.02967 4.14657 7.02967 3.83 6.8344 3.63473C6.63913 3.43946 6.32256 3.43946 6.12729 3.63473L2.1152 7.64682C1.91993 7.84209 1.91993 8.15867 2.1152 8.35392L6.12729 12.366C6.22493 12.4637 6.35288 12.5125 6.48084 12.5125C6.60879 12.5125 6.73676 12.4637 6.83438 12.366C7.02965 12.1708 7.02965 11.8542 6.83438 11.6589L3.65782 8.48234H13.4759C13.7421 8.48234 13.9579 8.26656 13.9579 8.00037C13.9579 7.73418 13.7421 7.5184 13.4759 7.5184Z" fill="#999999" stroke="#999999" stroke-width="0.5"/>
</svg>
