<svg width="24" height="24" viewBox="0 0 24 24" fill="none" xmlns="http://www.w3.org/2000/svg"><path d="M11.955 1.08C5.95 1.08 1.08 5.95 1.08 11.955c0 6.006 4.87 10.875 10.875 10.875 6.006 0 10.875-4.869 10.875-10.875S17.961 1.08 11.955 1.08zm0 1.75a9.124 9.124 0 0 1 9.125 9.125 9.124 9.124 0 0 1-9.125 9.125 9.124 9.124 0 0 1-9.125-9.125 9.124 9.124 0 0 1 9.125-9.125z" fill="#444"/><path d="M11.983 16.936a5.329 5.329 0 0 1-4.817-3.005.84.84 0 1 1 1.51-.74 3.66 3.66 0 0 0 3.308 2.065 3.666 3.666 0 0 0 3.294-2.034.84.84 0 1 1 1.502.753 5.343 5.343 0 0 1-4.797 2.96zM8.42 7.08a1.1 1.1 0 0 1 1.097 1.022l.003.078v1a1.1 1.1 0 0 1-2.197.079L7.32 9.18v-1a1.1 1.1 0 0 1 1.1-1.1zm7 0a1.1 1.1 0 0 1 1.097 1.022l.003.078v1a1.1 1.1 0 0 1-2.197.079l-.003-.079v-1a1.1 1.1 0 0 1 1.1-1.1z" fill="#444"/></svg>