<svg width="24" height="24" viewBox="0 0 24 24" fill="none" xmlns="http://www.w3.org/2000/svg"><path d="M9.787 3.125a2.875 2.875 0 0 1 2.18 1h6.407a4.375 4.375 0 0 1 4.373 4.246l.002.129v.42h-.006a.862.862 0 0 1 .006.103V18.5a4.375 4.375 0 0 1-4.375 4.375h-12.8A4.375 4.375 0 0 1 1.2 18.5v-11a4.375 4.375 0 0 1 4.375-4.375h4.213zm0 1.75H5.574A2.625 2.625 0 0 0 2.95 7.5v11a2.625 2.625 0 0 0 2.625 2.625h12.8A2.625 2.625 0 0 0 21 18.5V9.897h-6.61a2.875 2.875 0 0 1-2.668-1.805l-.043-.113-.83-2.354a1.125 1.125 0 0 0-1.06-.75zm.687 11.25a.875.875 0 0 1 .072 1.747l-.072.003h-4a.875.875 0 0 1-.072-1.747l.072-.003h4zm7.9-10.25h-5.582l.537 1.521a1.125 1.125 0 0 0 .977.749l.083.003 6.587-.001a2.625 2.625 0 0 0-2.494-2.27l-.108-.002z" fill="#444"/></svg>