<svg width="24" height="24" viewBox="0 0 24 24" fill="none" xmlns="http://www.w3.org/2000/svg"><path d="M17.4 2a5 5 0 0 1 5 5v10.5a5 5 0 0 1-5 5H6a5 5 0 0 1-5-5V7a5 5 0 0 1 5-5h11.4zm0 1.75H6a3.25 3.25 0 0 0-3.248 3.133L2.75 7v10.5a3.25 3.25 0 0 0 3.133 3.248L6 20.75h11.4a3.25 3.25 0 0 0 3.248-3.134l.002-.116V7a3.25 3.25 0 0 0-3.133-3.248L17.4 3.75z" fill="#444"/><mask id="a" style="mask-type:alpha" maskUnits="userSpaceOnUse" x="2" y="3" width="19" height="17"><path d="M2 8a5 5 0 0 1 5-5h9a5 5 0 0 1 5 5v7a5 5 0 0 1-5 5H7a5 5 0 0 1-5-5V8z" fill="#C4C4C4"/></mask><g mask="url(#a)"><mask id="b" fill="#fff"><path fill-rule="evenodd" clip-rule="evenodd" d="M19.3 11.521a3 3 0 0 0-4.243 0l-5.243 5.244-2.32-2.32a3 3 0 0 0-4.242 0L.879 16.818a3 3 0 0 0 0 4.243l2.373 2.373a3 3 0 0 0 4.242 0l1.146-1.146 6.417 6.417a3 3 0 0 0 4.243 0l6.47-6.47a3 3 0 0 0 0-4.243l-6.47-6.47z"/></mask><path d="M15.057 11.521l1.061 1.06-1.06-1.06zm4.243 0l1.06-1.06-1.06 1.06zm-9.486 5.244l-1.06 1.06a1.5 1.5 0 0 0 2.12 0l-1.06-1.06zm-2.32-2.32l-1.06 1.06 1.06-1.06zm-4.242 0l1.06 1.06-1.06-1.06zM.879 16.818l-1.061-1.06 1.06 1.06zm0 4.243L1.939 20 .88 21.06zm2.373 2.373l1.06-1.06-1.06 1.06zm4.242 0l-1.06-1.06 1.06 1.06zm1.146-1.146l1.061-1.06a1.5 1.5 0 0 0-2.121 0l1.06 1.06zm6.417 6.417l1.061-1.06-1.06 1.06zm10.714-10.713l1.06-1.06-1.06 1.06zm-9.653-5.41a1.5 1.5 0 0 1 2.122 0l2.12-2.121a4.5 4.5 0 0 0-6.363 0l2.121 2.12zm-5.243 5.243l5.243-5.243-2.121-2.121-5.244 5.243 2.122 2.121zm-4.441-2.32l2.32 2.32 2.12-2.121-2.319-2.32-2.121 2.122zm-2.122 0a1.5 1.5 0 0 1 2.122 0l2.121-2.12a4.5 4.5 0 0 0-6.364 0l2.121 2.12zM1.94 17.88l2.373-2.373-2.12-2.122-2.374 2.374 2.121 2.12zm0 2.121a1.5 1.5 0 0 1 0-2.121l-2.121-2.121a4.5 4.5 0 0 0 0 6.364L1.939 20zm2.373 2.373L1.94 20l-2.121 2.122 2.373 2.373 2.121-2.122zm2.122 0a1.5 1.5 0 0 1-2.122 0l-2.12 2.122a4.5 4.5 0 0 0 6.363 0l-2.121-2.122zm1.146-1.146l-1.146 1.146 2.121 2.122 1.146-1.146-2.121-2.122zm8.538 6.417l-6.417-6.417L7.58 23.35l6.417 6.417 2.121-2.122zm2.122 0a1.5 1.5 0 0 1-2.122 0l-2.121 2.122a4.5 4.5 0 0 0 6.364 0l-2.122-2.122zm6.47-6.47l-6.47 6.47 2.12 2.122 6.471-6.47-2.121-2.122zm0-2.122a1.5 1.5 0 0 1 0 2.122l2.121 2.121a4.5 4.5 0 0 0 0-6.364l-2.121 2.121zm-6.47-6.47l6.47 6.47 2.121-2.12-6.47-6.471-2.122 2.12z" fill="#444" mask="url(#b)"/></g><path d="M8.23 10.46a1.75 1.75 0 1 1 0-3.499 1.75 1.75 0 0 1 0 3.5z" stroke="#444" stroke-width="1.5"/></svg>