<svg width="16" height="16" viewBox="0 0 16 16" fill="none" xmlns="http://www.w3.org/2000/svg">
<path d="M7.68375 13.9271C6.44894 13.9271 5.24186 13.5609 4.21515 12.8749C3.18844 12.1889 2.38822 11.2138 1.91568 10.073C1.44313 8.93215 1.3195 7.67682 1.5604 6.46574C1.8013 5.25465 2.39591 4.1422 3.26906 3.26906C4.1422 2.39591 5.25465 1.8013 6.46574 1.5604C7.67682 1.3195 8.93215 1.44313 10.073 1.91568C11.2138 2.38822 12.1889 3.18844 12.8749 4.21515C13.5609 5.24186 13.9271 6.44894 13.9271 7.68375C13.9271 9.33958 13.2693 10.9276 12.0984 12.0984C10.9276 13.2693 9.33958 13.9271 7.68375 13.9271V13.9271ZM7.68375 2.40094C6.63891 2.40094 5.61753 2.71077 4.74878 3.29126C3.88003 3.87174 3.20292 4.6968 2.80307 5.66211C2.40323 6.62741 2.29861 7.68961 2.50245 8.71437C2.70629 9.73914 3.20943 10.6804 3.94824 11.4193C4.68705 12.1581 5.62836 12.6612 6.65313 12.865C7.67789 13.0689 8.74009 12.9643 9.70539 12.5644C10.6707 12.1646 11.4958 11.4875 12.0762 10.6187C12.6567 9.74997 12.9666 8.72859 12.9666 7.68375C12.9666 6.28266 12.41 4.93896 11.4193 3.94824C10.4285 2.95752 9.08484 2.40094 7.68375 2.40094Z" fill="#999999"/>
<path d="M10.3248 10.8053C10.2616 10.8056 10.1989 10.7935 10.1404 10.7696C10.0819 10.7457 10.0287 10.7105 9.98381 10.666L7.34241 8.02461C7.2979 7.97973 7.26268 7.92651 7.23878 7.868C7.21488 7.80948 7.20277 7.74683 7.20313 7.68362V3.84158C7.20313 3.71421 7.25373 3.59206 7.3438 3.50199C7.43386 3.41193 7.55602 3.36133 7.68339 3.36133C7.81076 3.36133 7.93291 3.41193 8.02298 3.50199C8.11305 3.59206 8.16364 3.71421 8.16364 3.84158V7.48672L10.6658 9.98405C10.7108 10.0287 10.7465 10.0818 10.7709 10.1403C10.7953 10.1989 10.8078 10.2616 10.8078 10.325C10.8078 10.3884 10.7953 10.4512 10.7709 10.5097C10.7465 10.5682 10.7108 10.6214 10.6658 10.666C10.6209 10.7105 10.5677 10.7457 10.5092 10.7696C10.4507 10.7935 10.388 10.8056 10.3248 10.8053Z" fill="#999999"/>
</svg>
