<svg width="20" height="20" viewBox="0 0 20 20" fill="none" xmlns="http://www.w3.org/2000/svg"><path d="M19.743 6.812L13.189.258a.88.88 0 0 0-.963-.191.88.88 0 0 0-.287.191L7.654 4.546a8.766 8.766 0 0 0-6.471 1.869.884.884 0 0 0-.072 1.314l4.833 4.833-5.73 5.724a.42.42 0 0 0-.122.26l-.09.99a.424.424 0 0 0 .423.463c.013 0 .026 0 .04-.003l.99-.09a.42.42 0 0 0 .26-.123l5.729-5.729 4.833 4.833a.88.88 0 0 0 1.007.172.882.882 0 0 0 .307-.244 8.786 8.786 0 0 0 1.867-6.474l4.285-4.285a.881.881 0 0 0 0-1.244zm-5.642 4.18l-.651.652.1.915a6.915 6.915 0 0 1-.808 4.094L3.35 7.256a6.88 6.88 0 0 1 4.093-.809l.915.101.652-.651 3.556-3.556 5.093 5.093-3.56 3.559v-.001z" fill="#3A68E0"/></svg>