<svg width="10" height="10" viewBox="0 0 10 10" fill="none" xmlns="http://www.w3.org/2000/svg">
<path d="M4.9375 9.875C3.96096 9.875 3.00634 9.58542 2.19437 9.04288C1.38241 8.50034 0.749555 7.72921 0.375847 6.827C0.00213934 5.92479 -0.0956396 4.93202 0.0948749 3.97424C0.285389 3.01646 0.755641 2.13668 1.44616 1.44616C2.13668 0.755641 3.01646 0.285389 3.97424 0.0948749C4.93202 -0.0956396 5.92479 0.00213934 6.827 0.375847C7.72921 0.749555 8.50034 1.38241 9.04288 2.19437C9.58542 3.00634 9.875 3.96096 9.875 4.9375C9.875 6.24701 9.3548 7.50288 8.42884 8.42884C7.50288 9.3548 6.24701 9.875 4.9375 9.875ZM4.9375 0.759617C4.11119 0.759617 3.30344 1.00465 2.61639 1.46372C1.92934 1.92279 1.39385 2.57529 1.07764 3.33869C0.761426 4.1021 0.67869 4.94214 0.839894 5.75257C1.0011 6.563 1.399 7.30742 1.98329 7.89171C2.56758 8.476 3.31201 8.8739 4.12244 9.03511C4.93287 9.19631 5.7729 9.11358 6.53631 8.79736C7.29972 8.48115 7.95221 7.94566 8.41128 7.25861C8.87036 6.57156 9.11539 5.76381 9.11539 4.9375C9.11539 3.82946 8.67522 2.7668 7.89171 1.98329C7.10821 1.19979 6.04555 0.759617 4.9375 0.759617Z" fill="#111111"/>
<path d="M4.9381 5.31736C4.56251 5.31736 4.19535 5.20599 3.88305 4.99732C3.57076 4.78865 3.32735 4.49206 3.18362 4.14506C3.03989 3.79805 3.00228 3.41622 3.07555 3.04784C3.14883 2.67946 3.32969 2.34109 3.59528 2.0755C3.86086 1.80992 4.19924 1.62905 4.56762 1.55578C4.936 1.4825 5.31783 1.52011 5.66483 1.66384C6.01184 1.80758 6.30843 2.05098 6.51709 2.36328C6.72576 2.67557 6.83714 3.04273 6.83714 3.41833C6.83714 3.92198 6.63706 4.40501 6.28092 4.76115C5.92479 5.11729 5.44176 5.31736 4.9381 5.31736ZM4.9381 2.2789C4.71275 2.2789 4.49245 2.34573 4.30507 2.47093C4.11769 2.59613 3.97165 2.77409 3.88541 2.98229C3.79917 3.19049 3.77661 3.41959 3.82057 3.64062C3.86454 3.86164 3.97306 4.06467 4.13241 4.22402C4.29176 4.38337 4.49478 4.49189 4.71581 4.53586C4.93684 4.57982 5.16594 4.55726 5.37414 4.47102C5.58234 4.38478 5.7603 4.23873 5.8855 4.05136C6.0107 3.86398 6.07752 3.64368 6.07752 3.41833C6.07752 3.11613 5.95748 2.82632 5.7438 2.61263C5.53011 2.39895 5.2403 2.2789 4.9381 2.2789Z" fill="#111111"/>
<path d="M8.56506 7.97588C8.51234 7.97624 8.46013 7.96561 8.41174 7.94469C8.36335 7.92376 8.31985 7.893 8.284 7.85434C7.88086 7.41461 7.39085 7.06334 6.84495 6.82275C6.29906 6.58216 5.70917 6.4575 5.11261 6.45665H4.76318C3.65119 6.45425 2.5819 6.88469 1.78169 7.65684C1.70776 7.71785 1.61349 7.74864 1.5178 7.74305C1.42211 7.73746 1.33207 7.69589 1.26575 7.62668C1.19942 7.55747 1.16172 7.46575 1.1602 7.36991C1.15869 7.27406 1.19346 7.18119 1.25756 7.10992C2.19792 6.20102 3.45538 5.69422 4.76318 5.69703H5.11261C5.81382 5.69862 6.50712 5.8452 7.14897 6.12756C7.79082 6.40992 8.36734 6.82196 8.84232 7.3378C8.8925 7.39191 8.92583 7.45947 8.93824 7.53222C8.95065 7.60496 8.94159 7.67975 8.91218 7.74744C8.88277 7.81512 8.83428 7.87277 8.77263 7.91334C8.71099 7.95391 8.63886 7.97564 8.56506 7.97588Z" fill="#111111"/>
</svg>
