<svg width="10" height="9" viewBox="0 0 10 9" fill="none" xmlns="http://www.w3.org/2000/svg"><path d="M8 9H2A1.125 1.125 0 0 1 .875 7.875v-3.75a.375.375 0 1 1 .75 0v3.75A.375.375 0 0 0 2 8.25h6a.375.375 0 0 0 .375-.375v-3.75a.375.375 0 1 1 .75 0v3.75A1.125 1.125 0 0 1 8 9z" fill="#111"/><path d="M4.625 9H2.75a.375.375 0 0 1-.375-.375v-2.25A1.125 1.125 0 0 1 3.5 5.25h.375A1.125 1.125 0 0 1 5 6.375v2.25A.375.375 0 0 1 4.625 9zm-1.5-.75H4.25V6.375A.375.375 0 0 0 3.875 6H3.5a.375.375 0 0 0-.375.375V8.25zM8.375 4.5a1.5 1.5 0 0 1-1.5-1.5.375.375 0 1 1 .75 0 .75.75 0 0 0 1.5 0v-.285L8.143.75H1.857L.875 2.715V3a.75.75 0 0 0 1.5 0 .375.375 0 1 1 .75 0 1.5 1.5 0 0 1-3 0v-.375c0-.059.014-.116.041-.169L1.291.206A.375.375 0 0 1 1.625 0h6.75a.375.375 0 0 1 .334.206l1.125 2.25c.027.053.04.11.041.169V3a1.5 1.5 0 0 1-1.5 1.5z" fill="#111"/><path d="M3.875 4.5a1.5 1.5 0 0 1-1.5-1.5.375.375 0 1 1 .75 0 .75.75 0 0 0 1.5 0 .375.375 0 1 1 .75 0 1.5 1.5 0 0 1-1.5 1.5z" fill="#111"/><path d="M6.125 4.5a1.5 1.5 0 0 1-1.5-1.5.375.375 0 1 1 .75 0 .75.75 0 0 0 1.5 0 .375.375 0 1 1 .75 0 1.5 1.5 0 0 1-1.5 1.5zM7.25 6.375H6.125a.375.375 0 0 1 0-.75H7.25a.375.375 0 0 1 0 .75z" fill="#111"/></svg>