<svg width="20" height="20" viewBox="0 0 20 20" fill="none" xmlns="http://www.w3.org/2000/svg">
<path d="M19.7428 6.812L13.1888 0.258003C13.1068 0.175914 13.0093 0.110858 12.9021 0.06658C12.7948 0.0223016 12.6798 -0.000324653 12.5638 3.51931e-06C12.4477 -0.00032465 12.3328 0.0223016 12.2255 0.06658C12.1183 0.110858 12.0208 0.175914 11.9388 0.258003L7.65379 4.546C7.32875 4.50938 7.00189 4.49135 6.67479 4.492C4.67857 4.48898 2.74111 5.16737 1.1828 6.415C1.08599 6.49273 1.00665 6.58997 0.949925 6.7004C0.893203 6.81083 0.860377 6.93197 0.853585 7.05593C0.846792 7.1799 0.866186 7.3039 0.910503 7.41986C0.954819 7.53583 1.02307 7.64116 1.1108 7.729L5.94379 12.562L0.213797 18.286C0.143842 18.3556 0.100648 18.4477 0.0917974 18.546L0.00179757 19.536C-0.00363271 19.5948 0.00327279 19.6541 0.0220722 19.71C0.0408716 19.766 0.0711504 19.8174 0.11097 19.861C0.150789 19.9046 0.199272 19.9394 0.253312 19.9631C0.307353 19.9869 0.365762 19.9991 0.424797 19.999C0.437797 19.999 0.450797 19.999 0.464797 19.996L1.4548 19.906C1.55324 19.8969 1.64531 19.8533 1.7148 19.783L7.44379 14.054L12.2768 18.887C12.3588 18.9691 12.4563 19.0341 12.5635 19.0784C12.6708 19.1227 12.7857 19.1453 12.9018 19.145C13.034 19.1453 13.1647 19.1158 13.284 19.0587C13.4032 19.0015 13.5081 18.9182 13.5908 18.815C14.3127 17.9118 14.8492 16.8751 15.1696 15.7641C15.49 14.6532 15.5879 13.4899 15.4578 12.341L19.7428 8.056C19.9074 7.89086 19.9999 7.66719 19.9999 7.434C19.9999 7.20082 19.9074 6.97714 19.7428 6.812ZM14.1008 10.992L13.4498 11.644L13.5498 12.559C13.7085 13.9743 13.4263 15.4041 12.7418 16.653L3.35079 7.256C4.5985 6.56918 6.02861 6.28651 7.44379 6.447L8.35879 6.548L9.01079 5.897L12.5668 2.341L17.6598 7.434L14.1008 10.993V10.992Z" fill="#B8B8B8"/>
</svg>