<svg width="16" height="16" viewBox="0 0 16 16" fill="none" xmlns="http://www.w3.org/2000/svg">
<g clip-path="url(#clip0_21717_69394)">
<path fill-rule="evenodd" clip-rule="evenodd" d="M15.6691 7.06514L14.5891 5.72514C14.4158 5.50263 14.3087 5.23575 14.2801 4.95514L14.0901 3.25714C14.0516 2.91784 13.8993 2.60161 13.6579 2.36005C13.4165 2.1185 13.1004 1.96589 12.7611 1.92714L11.0621 1.73714C10.7621 1.70714 10.5021 1.57814 10.2821 1.40814L8.94414 0.32914C8.67755 0.116069 8.34642 0 8.00514 0C7.66386 0 7.33273 0.116069 7.06614 0.32914L5.72614 1.40914C5.50374 1.58285 5.23686 1.69029 4.95614 1.71914L3.25814 1.90914C2.55814 1.98914 2.00814 2.53914 1.92814 3.23814L1.73814 4.93714C1.70814 5.23714 1.57914 5.49714 1.40914 5.71714L0.32914 7.05414C0.116069 7.32073 0 7.65186 0 7.99314C0 8.33442 0.116069 8.66555 0.32914 8.93214L1.40914 10.2721C1.57914 10.4921 1.68914 10.7521 1.71914 11.0421L1.90914 12.7401C1.98914 13.4401 2.53914 13.9901 3.23814 14.0701L4.93714 14.2601C5.23714 14.2901 5.49714 14.4191 5.71714 14.5891L7.05614 15.6691C7.60614 16.1081 8.38514 16.1081 8.93414 15.6691L10.2741 14.5891C10.4941 14.4191 10.7541 14.3091 11.0441 14.2791L12.7421 14.0891C13.4421 14.0091 13.9921 13.4591 14.0721 12.7601L14.2621 11.0611C14.2921 10.7611 14.4211 10.5011 14.5911 10.2811L15.6711 8.94214C15.8842 8.67555 16.0003 8.34442 16.0003 8.00314C16.0003 7.66186 15.8842 7.33073 15.6711 7.06414L15.6691 7.06514Z" fill="#3A68E0"/>
<path d="M3.73242 8.40108L6.71917 11.2008L12.2658 6.04091L10.9858 4.80078L6.71917 8.80138L5.01319 7.20018L3.73242 8.40108Z" fill="white"/>
</g>
<defs>
<clipPath id="clip0_21717_69394">
<rect width="16" height="16" fill="white"/>
</clipPath>
</defs>
</svg>
