<svg width="16" height="16" viewBox="0 0 16 16" fill="none" xmlns="http://www.w3.org/2000/svg">
<rect x="0.5" y="0.5" width="15" height="15" rx="3.5" fill="black" stroke="black"/>
<path d="M13.7449 4.22923C13.4076 3.921 12.8619 3.92412 12.5282 4.23552L6.25464 10.0759L3.47752 7.4482C3.14544 7.13356 2.60061 7.12799 2.26081 7.43235C1.91991 7.73746 1.91219 8.23987 2.2436 8.55283L5.6325 11.76C5.63423 11.7623 5.63761 11.7623 5.63933 11.7647C5.64106 11.7663 5.64194 11.7694 5.64366 11.771C5.6979 11.8202 5.76499 11.8503 5.82869 11.8835C5.8623 11.9002 5.88895 11.9279 5.92334 11.9406C6.02748 11.9803 6.13845 12 6.24859 12C6.35784 12 6.46723 11.9803 6.57043 11.9422C6.60404 11.9295 6.6298 11.9041 6.66169 11.8883C6.72617 11.855 6.79339 11.8258 6.84844 11.7758C6.85013 11.7742 6.85107 11.771 6.85355 11.7694C6.85527 11.7671 6.85787 11.7662 6.86051 11.7647L13.751 5.35047C14.0858 5.03828 14.0822 4.53669 13.7449 4.22923Z" fill="white"/>
</svg>
