<svg width="24" height="17" viewBox="0 0 24 17" fill="none" xmlns="http://www.w3.org/2000/svg">
<path d="M17.2881 10.5564V6.07775H17.2841C17.2839 5.9804 17.2452 5.88711 17.1763 5.81832L17.179 5.8156L13.4472 2.08382L13.4445 2.08654C13.3812 2.02315 13.2969 1.98516 13.2075 1.97976C13.208 1.97708 13.2082 1.97431 13.2088 1.97168H12.4669V1.97923H7.20672C6.63449 1.97923 6.16895 2.44472 6.16895 3.01687V13.8704C6.16895 14.4426 6.63449 14.9082 7.20672 14.9082H16.2502C16.8225 14.9082 17.288 14.4427 17.288 13.8704V11.2942H17.2888V10.5564H17.2881ZM16.2314 5.91132H13.9509C13.5313 5.91132 13.1912 5.57118 13.1912 5.1515V2.8709L16.2314 5.91132ZM16.5676 6.66575V14.0242C16.5676 14.0635 16.5519 14.1012 16.5241 14.129C16.4963 14.1568 16.4586 14.1724 16.4193 14.1725H7.05315C7.01385 14.1724 6.97617 14.1568 6.94838 14.129C6.92059 14.1012 6.90495 14.0635 6.90489 14.0242V2.86335C6.90493 2.82404 6.92056 2.78635 6.94836 2.75856C6.97615 2.73078 7.01384 2.71515 7.05315 2.71513H12.3526V2.71447H12.4669V5.63991C12.4669 6.19533 12.9171 6.64551 13.4725 6.64551H16.5679V6.6657H16.5676V6.66575Z" fill="black"/>
<path d="M10.0069 11.6147L7.75488 10.5755V10.2103L10.0069 9.11232V9.66695L8.39282 10.3816V10.3953L10.0069 11.0601V11.6147ZM12.8722 8.29395L11.1747 12.3655H10.5232L12.2139 8.29395H12.8722ZM15.7036 10.5484L13.4515 11.5876V11.0354L15.0701 10.3727V10.3614L13.4515 9.64448V9.08976L15.7036 10.1832V10.5484Z" fill="black"/>
</svg>
