<svg width="20" height="20" viewBox="0 0 20 20" fill="none" xmlns="http://www.w3.org/2000/svg">
<path d="M9.99979 9.29826C11.6478 9.29826 12.9882 7.95786 12.9882 6.31027C12.9882 4.66267 11.6478 3.32227 9.99979 3.32227C8.35219 3.32227 7.01179 4.66267 7.01179 6.31027C7.01179 7.95786 8.35219 9.29826 9.99979 9.29826ZM9.99979 4.20187C11.1626 4.20187 12.1086 5.14787 12.1086 6.31027C12.1086 7.47266 11.1626 8.41866 9.99979 8.41866C8.83739 8.41866 7.89139 7.47266 7.89139 6.31027C7.89139 5.14787 8.83739 4.20187 9.99979 4.20187ZM7.81979 16.6763H12.1802C14.2406 16.6763 15.917 15.1879 15.917 13.3587C15.917 11.5299 14.2406 10.0415 12.1802 10.0415H7.81979C5.75979 10.0415 4.08299 11.5299 4.08299 13.3587C4.08299 15.1883 5.75939 16.6763 7.81979 16.6763ZM12.1802 10.9211C13.7558 10.9211 15.0378 12.0147 15.0378 13.3591C15.0378 14.7035 13.7558 15.7975 12.1802 15.7975H7.81979C6.24459 15.7975 4.96219 14.7039 4.96219 13.3591C4.96219 12.0151 6.24419 10.9211 7.81979 10.9211H12.1802Z" fill="#151515"/>
</svg>
