<svg width="15" height="15" viewBox="0 0 15 15" fill="none" xmlns="http://www.w3.org/2000/svg">
<path d="M9.08203 0.966797C9.79396 0.966797 10.3711 1.54393 10.3711 2.25586V14.0332H2.22656C1.51463 14.0332 0.9375 13.4561 0.9375 12.7441V2.25586C0.9375 1.54393 1.51463 0.966797 2.22656 0.966797H9.08203ZM9.09026 1.75781H2.22656C1.95425 1.75781 1.73298 1.97637 1.72852 2.24763V12.7441C1.72852 13.0165 1.94707 13.2377 2.21833 13.2422H9.58008V2.25586C9.58008 1.98627 9.36589 1.7667 9.09839 1.75808L9.09026 1.75781Z" fill="black"/>
<path d="M12.7588 6.94336C13.4707 6.94336 14.0479 7.52049 14.0479 8.23242V12.7441C14.0479 13.4561 13.4707 14.0332 12.7588 14.0332H9.58008V6.94336H12.7588ZM10.3711 13.2422H12.7588C13.0311 13.2422 13.2524 13.0236 13.2568 12.7524L13.2568 12.7441V8.23242C13.2568 7.96011 13.0383 7.73884 12.767 7.73445L12.7588 7.73438H10.3711V13.2422Z" fill="black"/>
<path d="M7.9834 11.5867C8.20184 11.5867 8.37891 11.7638 8.37891 11.9822C8.37891 12.2007 8.20184 12.3777 7.9834 12.3777H3.3252C3.10676 12.3777 2.92969 12.2007 2.92969 11.9822C2.92969 11.7638 3.10676 11.5867 3.3252 11.5867H7.9834ZM7.9834 9.56524C8.20184 9.56524 8.37891 9.74231 8.37891 9.96075C8.37891 10.1792 8.20184 10.3563 7.9834 10.3563H3.3252C3.10676 10.3563 2.92969 10.1792 2.92969 9.96075C2.92969 9.74231 3.10676 9.56524 3.3252 9.56524H7.9834ZM6.93439 3.23156C7.08885 3.07711 7.33928 3.07711 7.49373 3.23156C7.64818 3.38602 7.64818 3.63645 7.49373 3.7909L6.61195 4.67266H7.9834C8.20184 4.67266 8.37891 4.84973 8.37891 5.06817C8.37891 5.28661 8.20184 5.46368 7.9834 5.46368H6.0498V6.69415H7.9834C8.20184 6.69415 8.37891 6.87122 8.37891 7.08965C8.37891 7.30809 8.20184 7.48516 7.9834 7.48516H6.04979L6.0498 8.43731C6.0498 8.65575 5.87273 8.83282 5.6543 8.83282C5.43586 8.83282 5.25879 8.65575 5.25879 8.43731L5.25877 7.48516H3.3252C3.10676 7.48516 2.92969 7.30809 2.92969 7.08965C2.92969 6.87122 3.10676 6.69415 3.3252 6.69415H5.25879V5.46368H3.3252C3.10676 5.46368 2.92969 5.28661 2.92969 5.06817C2.92969 4.84973 3.10676 4.67266 3.3252 4.67266H4.6893L3.80754 3.7909C3.65309 3.63645 3.65309 3.38602 3.80754 3.23156C3.96201 3.07711 4.21242 3.07711 4.36687 3.23156L5.65063 4.51532L6.93439 3.23156Z" fill="black"/>
</svg>
