<svg width="16" height="16" viewBox="0 0 16 16" fill="none" xmlns="http://www.w3.org/2000/svg">
<path d="M13.7207 11.4254C13.6524 11.5391 13.5418 11.621 13.4131 11.6532C13.2844 11.6853 13.1483 11.665 13.0346 11.5968C12.9209 11.5285 12.8389 11.4179 12.8068 11.2892C12.7746 11.1606 12.7949 11.0244 12.8632 10.9107C13.3911 10.0314 13.6691 9.02477 13.6673 7.99919C13.6673 4.86952 11.1303 2.33252 8.00065 2.33252C4.87098 2.33252 2.33398 4.86952 2.33398 7.99919C2.33398 11.1289 4.87098 13.6659 8.00065 13.6659C9.02609 13.6677 10.0326 13.3897 10.9118 12.862C10.9681 12.8282 11.0305 12.8059 11.0955 12.7962C11.1604 12.7865 11.2266 12.7898 11.2903 12.8057C11.354 12.8216 11.414 12.8499 11.4667 12.889C11.5195 12.9281 11.564 12.9772 11.5978 13.0335C11.6316 13.0898 11.654 13.1522 11.6636 13.2172C11.6733 13.2821 11.6701 13.3483 11.6541 13.412C11.6382 13.4757 11.6099 13.5357 11.5708 13.5884C11.5317 13.6412 11.4826 13.6857 11.4263 13.7195C10.3917 14.3405 9.20733 14.6677 8.00065 14.6659C4.31882 14.6659 1.33398 11.681 1.33398 7.99919C1.33398 4.31735 4.31882 1.33252 8.00065 1.33252C11.6825 1.33252 14.6673 4.31735 14.6673 7.99919C14.6673 9.22252 14.3368 10.3987 13.7207 11.4254ZM5.14715 10.1457L7.50065 7.79202V4.99919C7.50065 4.86658 7.55333 4.7394 7.6471 4.64563C7.74087 4.55186 7.86804 4.49919 8.00065 4.49919C8.13326 4.49919 8.26044 4.55186 8.3542 4.64563C8.44797 4.7394 8.50065 4.86658 8.50065 4.99919V7.99919C8.50062 8.13178 8.44793 8.25894 8.35415 8.35269L5.85415 10.8527C5.80803 10.9004 5.75285 10.9385 5.69185 10.9647C5.63085 10.9909 5.56524 11.0047 5.49885 11.0053C5.43246 11.0059 5.36662 10.9932 5.30517 10.9681C5.24373 10.943 5.1879 10.9058 5.14095 10.8589C5.09401 10.8119 5.05688 10.7561 5.03174 10.6947C5.0066 10.6332 4.99395 10.5674 4.99453 10.501C4.9951 10.4346 5.0089 10.369 5.0351 10.308C5.0613 10.247 5.0994 10.1918 5.14715 10.1457Z" fill="black"/>
</svg>
