<svg width="20" height="20" viewBox="0 0 20 20" fill="none" xmlns="http://www.w3.org/2000/svg">
<path d="M5.83325 11.6665H13.7499" stroke="#111111" stroke-width="1.5" stroke-linecap="round"/>
<line x1="9.91663" y1="8.25" x2="9.91663" y2="14.6667" stroke="#111111" stroke-width="1.5" stroke-linecap="round"/>
<path d="M10.9574 4.3414H17.4468C18.8569 4.3414 20 5.44685 20 6.81054V15.864C20 17.2277 18.8569 18.3332 17.4468 18.3332H2.55319C1.14309 18.3332 0 17.2277 0 15.864V3.31259C0 2.40344 0.762021 1.6665 1.70213 1.6665H8.30425C8.59493 1.66651 8.88077 1.7385 9.13452 1.87563C9.38827 2.01275 9.60148 2.21043 9.75383 2.44984L10.9574 4.3414ZM17.4362 17.0897C18.1413 17.0897 18.7128 16.5369 18.7128 15.8551V6.80159C18.7128 6.1198 18.1413 5.56702 17.4362 5.56702H1.28723V15.8551C1.28723 16.5369 1.85883 17.0897 2.56383 17.0897H17.4362ZM8.84596 3.10838C8.80873 3.0454 8.75495 2.99305 8.69007 2.95664C8.62519 2.92024 8.5515 2.90107 8.47649 2.90107H1.70213C1.58927 2.90107 1.48103 2.94443 1.40123 3.0216C1.32143 3.09878 1.2766 3.20345 1.2766 3.31259V4.3165L9.57447 4.3414L8.84596 3.10838Z" fill="#111111"/>
</svg>
