<svg width="25" height="24" viewBox="0 0 25 24" fill="none" xmlns="http://www.w3.org/2000/svg"><path fill="none" d="M.617 0h24v24h-24z"/><path d="M21.617 3h-18a3 3 0 0 0-3 3v12a3 3 0 0 0 3 3h18a3 3 0 0 0 3-3V6a3 3 0 0 0-3-3z" /><path d="M21.617 3h-18a3 3 0 0 0-3 3v12a3 3 0 0 0 3 3h18a3 3 0 0 0 3-3V6a3 3 0 0 0-3-3zm-4.938 8.005l6.35-5.442c.044.141.088.282.088.437v12c0 .104-.04.196-.06.294l-6.378-7.289zM21.617 4.5c.1 0 .188.038.281.057l-9.28 7.956-9.282-7.956c.094-.019.182-.057.281-.057h18zM2.177 18.293c-.021-.098-.06-.189-.06-.293V6c0-.155.045-.296.089-.437l6.348 5.44-6.377 7.29zm1.44 1.207c-.151 0-.29-.044-.428-.086l6.504-7.433 2.436 2.087a.741.741 0 0 0 .976 0l2.436-2.087 6.504 7.433c-.138.042-.276.086-.428.086h-18z" fill="#111"/></svg>