<svg width="24" height="24" viewBox="0 0 24 24" fill="none" xmlns="http://www.w3.org/2000/svg"><path d="M6.12 3.492c-2.22.84-3.822 3.17-3.822 5.913 0 .36.028.7.078 1.024A9.438 9.438 0 0 1 6.12 3.492zm4.06 16.86c.653.511 1.097.832 1.16.88.22.177.467.252.725.252.259 0 .505-.088.726-.251.068-.054.593-.433 1.349-1.03a9.47 9.47 0 0 1-3.96.15zM17.15 3.247a9.44 9.44 0 0 1 4.013 9.129c.387-.832.68-1.802.68-2.97 0-3.082-2.037-5.66-4.693-6.159z" fill="#C9C9C9" fill-opacity=".4"/><path d="M8.053 3.16l-.11-.002a5.14 5.14 0 0 0-1.823.334 9.438 9.438 0 0 0-3.745 6.937c.235 1.528.96 2.677 1.558 3.63.115.183.239.368.37.553A8.157 8.157 0 0 1 8.053 3.16zm9.098.086a5.08 5.08 0 0 0-.94-.088c-.407 0-.793.05-1.16.143A8.156 8.156 0 1 1 6.376 17.02c1.349 1.356 2.816 2.561 3.804 3.333a9.503 9.503 0 0 0 3.96-.15c1.71-1.35 4.602-3.814 6.07-6.145.313-.498.66-1.05.955-1.683a9.44 9.44 0 0 0-4.013-9.129z" fill="#C9C9C9" fill-opacity=".4"/><path d="M19.56 10.598A8.156 8.156 0 0 0 15.054 3.3c-.466.119-.9.31-1.305.564a6.862 6.862 0 1 1-9.606 6.289A6.863 6.863 0 0 1 9.56 3.445a4.544 4.544 0 0 0-1.507-.285 8.157 8.157 0 0 0-3.75 11.452c.58.817 1.308 1.637 2.074 2.408a8.156 8.156 0 0 0 13.184-6.422z" fill="#C9C9C9" fill-opacity=".4"/><path d="M4.14 10.153a6.86 6.86 0 1 0 9.607-6.289 5.433 5.433 0 0 0-.926.741 5.567 5.567 0 1 1-2.015-.458 4.765 4.765 0 0 0-1.247-.702 6.863 6.863 0 0 0-5.418 6.708z" fill="#C9C9C9" fill-opacity=".4"/><path d="M5.034 9.709a5.566 5.566 0 1 0 7.788-5.104 6.992 6.992 0 0 0-.717.837 4.27 4.27 0 1 1-.085-.04 6.533 6.533 0 0 0-1.213-1.255A5.566 5.566 0 0 0 5.034 9.71z" fill="#C9C9C9" fill-opacity=".4"/><path d="M5.926 9.265a4.27 4.27 0 1 0 6.178-3.822l-.027.036-.058-.077a4.27 4.27 0 0 0-6.093 3.863zm6.844-.444a2.976 2.976 0 1 1-5.952 0 2.976 2.976 0 0 1 5.952 0z" fill="#C9C9C9" fill-opacity=".4"/><path d="M6.82 8.82a2.976 2.976 0 1 0 5.95 0 2.976 2.976 0 0 0-5.95 0zM5.273 6.42a.422.422 0 0 1-.328-.687C6.294 4.07 8.327 4.267 8.413 4.276a.422.422 0 0 1-.088.839 3.393 3.393 0 0 0-.983.086c-.717.165-1.302.523-1.74 1.063a.421.421 0 0 1-.328.157zM4.393 7.867a.42.42 0 0 1-.388-.588l.123-.289a.422.422 0 1 1 .776.332l-.124.289a.422.422 0 0 1-.388.256z" fill="#C9C9C9" fill-opacity=".4"/></svg>