<svg width="24" height="24" viewBox="0 0 24 24" fill="none" xmlns="http://www.w3.org/2000/svg"><path d="M16.21 3.158c-1.721 0-3.087.878-4.133 2.32-1.057-1.442-2.41-2.32-4.133-2.32-3.112 0-5.646 2.797-5.646 6.247 0 2.057.91 3.5 1.636 4.653 2.104 3.374 7.184 7 7.405 7.175.222.176.468.25.726.25.259 0 .505-.087.726-.25.221-.176 5.302-3.813 7.418-7.175.726-1.154 1.636-2.596 1.636-4.653 0-3.437-2.534-6.247-5.634-6.247z" fill="#FFA820"/><path d="M6.12 3.492c-2.22.84-3.822 3.17-3.822 5.913 0 .36.028.7.078 1.024A9.438 9.438 0 0 1 6.12 3.492zm4.06 16.86c.653.511 1.097.832 1.16.88.22.177.467.252.725.252.259 0 .505-.088.726-.251.068-.054.593-.433 1.349-1.03a9.47 9.47 0 0 1-3.96.15zM17.15 3.247a9.44 9.44 0 0 1 4.013 9.129c.387-.832.68-1.802.68-2.97 0-3.082-2.037-5.66-4.693-6.159z" fill="#FEAC33"/><path d="M8.053 3.16l-.11-.002a5.14 5.14 0 0 0-1.823.334 9.438 9.438 0 0 0-3.745 6.937c.235 1.528.96 2.677 1.558 3.63.115.183.239.368.37.553A8.157 8.157 0 0 1 8.053 3.16zm9.098.086a5.08 5.08 0 0 0-.94-.088c-.407 0-.793.05-1.16.143A8.156 8.156 0 1 1 6.376 17.02c1.349 1.356 2.816 2.561 3.804 3.333a9.503 9.503 0 0 0 3.96-.15c1.71-1.35 4.602-3.814 6.07-6.145.313-.498.66-1.05.955-1.683a9.44 9.44 0 0 0-4.013-9.129z" fill="#FEB133"/><path d="M19.56 10.598A8.156 8.156 0 0 0 15.052 3.3a4.55 4.55 0 0 0-1.305.564 6.862 6.862 0 0 1-2.745 13.15 6.86 6.86 0 0 1-1.443-13.57 4.544 4.544 0 0 0-1.506-.285 8.157 8.157 0 0 0-3.75 11.452c.58.817 1.307 1.637 2.073 2.408a8.156 8.156 0 0 0 13.184-6.422z" fill="#FEB633"/><path d="M4.14 10.154a6.86 6.86 0 1 0 9.607-6.29 5.433 5.433 0 0 0-.926.741 5.567 5.567 0 1 1-2.015-.457 4.765 4.765 0 0 0-1.247-.703 6.863 6.863 0 0 0-5.418 6.709z" fill="#FFBC34"/><path d="M5.033 9.71a5.566 5.566 0 1 0 7.788-5.105 6.985 6.985 0 0 0-.717.838 4.27 4.27 0 1 1-.085-.041 6.535 6.535 0 0 0-1.213-1.254A5.566 5.566 0 0 0 5.033 9.71z" fill="#FFC134"/><path d="M5.926 9.265a4.27 4.27 0 1 0 6.178-3.822l-.027.036-.058-.077a4.27 4.27 0 0 0-6.093 3.863zm6.844-.444a2.976 2.976 0 1 1-5.952 0 2.976 2.976 0 0 1 5.952 0z" fill="#FFC634"/><path d="M6.82 8.82a2.976 2.976 0 1 0 5.95 0 2.976 2.976 0 0 0-5.95 0z" fill="#FFCB34"/><path d="M16.21 3.58c.696 0 1.371.152 2.01.453a5.23 5.23 0 0 1 1.657 1.242c.483.536.863 1.16 1.13 1.855a6.378 6.378 0 0 1-.095 4.773c-.304.728-.703 1.363-1.055 1.923l-.005.008c-.806 1.28-2.152 2.758-4 4.39-1.462 1.294-2.764 2.261-3.191 2.58l-.125.093a.793.793 0 0 1-.47.165.719.719 0 0 1-.464-.16 6.704 6.704 0 0 0-.135-.1c-.428-.318-1.732-1.285-3.192-2.576-1.842-1.63-3.183-3.107-3.983-4.39v-.002l-.006-.008c-.352-.56-.752-1.195-1.055-1.924a6.378 6.378 0 0 1-.511-2.497c0-3.212 2.343-5.825 5.224-5.825.756 0 1.464.19 2.103.562.61.356 1.18.89 1.69 1.586l.342.467.34-.469c.503-.694 1.07-1.227 1.683-1.584a4.138 4.138 0 0 1 2.109-.562zm0-.422c-1.721 0-3.087.878-4.133 2.32-1.057-1.442-2.41-2.32-4.133-2.32-3.112 0-5.646 2.797-5.646 6.247 0 2.057.91 3.5 1.636 4.653 2.104 3.374 7.184 7 7.405 7.175.222.176.468.25.726.25.259 0 .505-.087.726-.25.221-.176 5.302-3.813 7.418-7.175.726-1.154 1.636-2.596 1.636-4.653 0-3.437-2.534-6.247-5.634-6.247z" fill="#FFA820"/><path d="M5.273 6.421a.422.422 0 0 1-.328-.688c1.348-1.662 3.381-1.466 3.467-1.457a.422.422 0 0 1-.088.84 3.393 3.393 0 0 0-.983.086c-.716.165-1.302.522-1.74 1.063a.421.421 0 0 1-.328.156zM4.393 7.867a.42.42 0 0 1-.388-.588l.123-.289a.422.422 0 1 1 .776.332l-.124.289a.422.422 0 0 1-.388.256z" fill="#fff"/></svg>