<svg width="25" height="24" viewBox="0 0 25 24" fill="none" xmlns="http://www.w3.org/2000/svg"><path  d="M.617 0h24v24h-24z"/><path d="M12.002 5.003l.626.827.62-.83c1.066-1.426 2.39-2.22 4.028-2.22 3.006 0 5.561 2.663 5.561 6.037 0 1.992-.896 3.392-1.715 4.654-1.124 1.732-3.073 3.58-4.821 5.046a54.608 54.608 0 0 1-3.173 2.462l-.16.117a.612.612 0 0 1-.358.124.526.526 0 0 1-.341-.112c-.027-.021-.09-.066-.182-.133a53.668 53.668 0 0 1-3.165-2.453c-1.746-1.464-3.69-3.311-4.807-5.048l-.002-.002c-.82-1.263-1.716-2.663-1.716-4.655 0-3.385 2.553-6.037 5.575-6.037 1.636 0 2.948.792 4.03 2.223z" fill-opacity=".1" stroke="#000" stroke-width="1.56"/></svg>