<svg width="20" height="13" viewBox="0 0 20 13" fill="none" xmlns="http://www.w3.org/2000/svg"><path d="M19.085.372a1.483 1.483 0 0 0-1.977.01L6.914 9.874 2.4 5.603a1.484 1.484 0 0 0-1.977-.025 1.217 1.217 0 0 0-.028 1.82l5.507 5.212c.003.004.008.004.01.008.004.002.005.007.008.01.088.08.197.129.3.183.055.027.099.072.154.092a1.49 1.49 0 0 0 1.052.003c.055-.02.096-.062.148-.088.105-.054.214-.101.304-.182.002-.003.004-.008.008-.01.003-.005.007-.006.011-.008L19.095 2.195a1.218 1.218 0 0 0-.01-1.823z" fill="#111"/></svg>