<svg width="51" height="51" viewBox="0 0 51 51" fill="black" xmlns="http://www.w3.org/2000/svg">
<path d="M25.8136 15.4895C22.6808 15.4895 20.1526 12.9031 20.1526 9.69009C20.1526 6.48438 22.6808 3.89795 25.8136 3.89795C28.9465 3.89795 31.4746 6.48438 31.4746 9.69009C31.4746 12.8958 28.9392 15.4895 25.8136 15.4895ZM12.9325 20.0504C10.0401 20.0504 7.75235 17.7117 7.75235 14.7464C7.75235 11.7884 10.0401 9.44238 12.9325 9.44238C15.8249 9.44238 18.1054 11.7884 18.1054 14.7464C18.1054 17.7117 15.8176 20.0577 12.9325 20.0504ZM7.87621 32.0135C5.34807 32.0135 3.30078 29.9152 3.30078 27.3288C3.30078 24.7424 5.34807 22.6441 7.87621 22.6441C10.4044 22.6441 12.4516 24.7424 12.4516 27.3288C12.3278 29.9225 10.2805 31.8897 7.87621 32.0135ZM12.9325 43.7289C10.7686 43.7289 9.07835 42.0022 9.07835 39.7801C9.07835 37.5579 10.7614 35.8312 12.9325 35.8312C15.0964 35.8312 16.7866 37.5579 16.7866 39.7801C16.7866 42.0022 15.0964 43.7289 12.9325 43.7289ZM26.1269 47.6122C24.3055 47.6122 22.7245 46.0312 22.7245 44.2098C22.7245 42.3884 24.3055 40.8074 26.1269 40.8074C27.9484 40.8074 29.5294 42.3884 29.5294 44.2098C29.5294 46.0385 27.9484 47.6122 26.1269 47.6122ZM39.2412 42.7599C37.7185 42.7599 36.3269 41.4922 36.3269 39.8457C36.3269 38.3229 37.5946 36.9314 39.2412 36.9314C40.7639 36.9314 42.1555 38.1991 42.1555 39.8457C42.0316 41.4922 40.7639 42.7599 39.2412 42.7599ZM45.0698 30.1265C43.9915 30.1265 43.1245 29.0774 43.1245 27.766C43.1245 26.4545 43.9915 25.4054 45.0698 25.2742C46.1481 25.2742 47.0151 26.3234 47.0151 27.6348C47.0151 29.0774 46.1481 30.1265 45.0698 30.1265ZM39.2412 13.6244C39.2412 14.3238 39.6565 15.0159 40.2102 15.2928C40.7639 15.5697 41.6018 15.7081 42.1555 15.2928C42.7092 14.8775 43.1245 14.3165 43.1245 13.6244C43.1245 12.5097 42.2939 11.6718 41.1792 11.6718C40.2102 11.6718 39.2412 12.5097 39.2412 13.6244Z"/>
</svg>
