<svg width="215" height="25" viewBox="0 0 215 25" fill="none" xmlns="http://www.w3.org/2000/svg"><path d="M57.694 17.331L51.01 9.024v14.927H46.8V2.494h4.093l7.131 9.119 7.313-9.087h3.94V23.95H65.06V8.935l-6.89 8.396h-.477zM91.789 18.835c-.682 1.865-1.83 3.27-3.446 4.212-1.615.943-3.677 1.415-6.185 1.416-3.17 0-5.577-.747-7.222-2.242-1.645-1.494-2.467-3.676-2.467-6.544v-.27c0-2.79.893-5.026 2.678-6.712 1.786-1.686 4.194-2.529 7.223-2.528 2.99 0 5.341.808 7.056 2.423C91.142 10.205 92 12.367 92 15.075v1.839H76.742c.22 1.323.802 2.321 1.745 2.993.943.673 2.245 1.007 3.908 1.003 1.203 0 2.176-.171 2.919-.513a3.397 3.397 0 0 0 1.654-1.565l4.82.003zM78.668 10.62c-.963.682-1.585 1.675-1.866 2.98h10.833c-.2-1.343-.732-2.346-1.595-3.01-.863-.665-2.057-.996-3.581-.993-1.564 0-2.828.34-3.791 1.023zM106.895 19.978v3.972h-2.949c-2.626 0-4.427-.521-5.402-1.565-.975-1.043-1.462-3.04-1.46-5.99V10.5h-3.973v-3.64c.622 0 1.083-.005 1.384-.015.301-.01.593-.024.874-.044.7-.02 1.177-.176 1.43-.467.253-.29.428-.857.525-1.7.068-.424.111-.85.131-1.279.03-.456.034-.913.015-1.37h3.731v4.663h5.688V10.5h-5.682v5.146c0 1.886.219 3.08.656 3.58.438.502 1.511.753 3.22.753h1.812zM123.896 23.95l-.451-3.697a7.26 7.26 0 0 1-3.145 3.115c-1.395.732-3.035 1.097-4.92 1.097-2.047 0-3.617-.411-4.711-1.234-1.093-.823-1.64-1.996-1.64-3.52 0-.983.206-1.836.617-2.558a4.568 4.568 0 0 1 1.82-1.745 9.165 9.165 0 0 1 2.495-.949c.923-.21 2.499-.426 4.728-.647 1.845-.18 3.064-.406 3.655-.678.592-.27.888-.709.888-1.313v-.03c0-.762-.346-1.34-1.039-1.73-.692-.392-1.73-.588-3.114-.588-1.625 0-2.839.263-3.642.788-.802.526-1.253 1.347-1.351 2.465h-4.543c.2-2.106 1.098-3.726 2.693-4.859 1.595-1.132 3.776-1.7 6.545-1.7 3.009 0 5.211.516 6.605 1.55 1.393 1.032 2.09 2.673 2.091 4.92v11.315l-3.581-.001zm-2.527-4.354c1.264-1.05 1.896-2.269 1.896-3.655v-.602c-.421.31-.895.54-1.4.678-.812.229-1.643.385-2.483.466a28.97 28.97 0 0 0-3.02.421 5.415 5.415 0 0 0-1.52.543 2.177 2.177 0 0 0-.812.736 1.88 1.88 0 0 0-.241.979v.04c0 .662.251 1.159.753 1.49.501.33 1.254.494 2.257.49 1.782 0 3.306-.528 4.57-1.586zM135.692 23.95h-4.424V.9h4.424v23.05zM157.99 18.835c-.682 1.865-1.831 3.27-3.446 4.212-1.615.943-3.676 1.414-6.184 1.414-3.169 0-5.577-.747-7.222-2.241-1.645-1.494-2.467-3.676-2.467-6.545v-.27c0-2.788.893-5.026 2.679-6.712 1.786-1.686 4.193-2.528 7.222-2.527 2.989 0 5.342.807 7.057 2.422 1.715 1.615 2.572 3.777 2.572 6.486v1.838h-15.257c.22 1.324.802 2.322 1.745 2.994.943.672 2.247 1.009 3.912 1.009 1.203 0 2.176-.171 2.919-.513a3.4 3.4 0 0 0 1.652-1.567h4.818zm-13.121-8.215c-.963.682-1.585 1.675-1.866 2.98h10.833c-.2-1.345-.732-2.348-1.595-3.01-.863-.663-2.057-.994-3.581-.993-1.564 0-2.827.34-3.79 1.023h-.001zM166.927 11.281c-.823.943-1.234 2.338-1.234 4.184v8.487h-4.454V6.647h3.762l.394 3.611c.582-1.323 1.439-2.337 2.572-3.04 1.133-.702 2.482-1.053 4.047-1.05 2.288 0 4.073.672 5.357 2.016 1.283 1.343 1.925 3.21 1.926 5.598v10.171h-4.458v-9.084c0-1.726-.346-2.99-1.039-3.793-.692-.802-1.771-1.204-3.235-1.204-1.602-.003-2.815.466-3.638 1.41zM194.667 19.978v3.972h-2.95c-2.626 0-4.427-.521-5.402-1.565-.975-1.043-1.462-3.04-1.46-5.99V10.5h-3.972v-3.64c.621 0 1.083-.005 1.384-.015.301-.01.592-.024.873-.044.7-.02 1.177-.176 1.43-.467.253-.29.428-.857.525-1.7.068-.424.112-.85.132-1.279.029-.456.034-.913.014-1.37h3.732v4.663h5.694V10.5h-5.687v5.146c0 1.886.218 3.08.656 3.58.438.502 1.511.753 3.22.753h1.811zM212.276 22.879c-1.525 1.05-3.631 1.576-6.32 1.576-2.929 0-5.196-.517-6.801-1.55-1.604-1.033-2.567-2.593-2.888-4.68h4.904c.201.943.692 1.625 1.475 2.046.782.421 1.946.632 3.49.632 1.384 0 2.402-.171 3.054-.512a1.705 1.705 0 0 0 .979-1.626c0-.582-.321-1.003-.963-1.263-.642-.26-2.136-.48-4.484-.657-2.849-.22-4.85-.727-6.004-1.52-1.154-.791-1.73-1.96-1.73-3.505 0-1.766.717-3.15 2.152-4.152 1.435-1.003 3.426-1.504 5.973-1.505 2.668 0 4.76.477 6.274 1.43 1.515.953 2.473 2.393 2.875 4.319h-4.634a2.56 2.56 0 0 0-1.354-1.806c-.722-.38-1.786-.571-3.19-.571-1.264 0-2.212.165-2.844.496-.632.331-.948.828-.948 1.49 0 .6.326 1.032.978 1.293.652.26 2.112.48 4.378.656 3.029.263 5.106.78 6.23 1.55 1.124.77 1.685 1.96 1.684 3.566.001 1.812-.761 3.242-2.286 4.293zM31.024 14.025c-1.128-.175-1.522.149-1.97-.394-.596-.67-.017-1.568.132-1.78l.02-.028 2.119-3.074a5.298 5.298 0 0 0-1.27-7.308 5.121 5.121 0 0 0-7.2 1.291l-.744 1.08-.168.244c-.337.457-1.126 1.368-1.839 1.003-.62-.315-.648-.952-.882-1.409A5.207 5.207 0 0 0 15.597.624a5.121 5.121 0 0 0-5.354 2.108L.935 16.244a5.298 5.298 0 0 0 1.27 7.308 5.123 5.123 0 0 0 7.196-1.288l1.254-1.819c.31-.415.617-.678 1.171-.657.638.024.821.461.968.855a5.225 5.225 0 0 0 2.018 2.909 5.123 5.123 0 0 0 7.196-1.288c.788-1.006 1.534-2.75 2.627-2.311.464.186.656.547.836.991.074.216.161.426.263.63.154.354.363.68.62.97a5.252 5.252 0 1 0 4.67-8.519z" fill="#000"/></svg>