<svg width="25" height="24" viewBox="0 0 25 24" fill="none" xmlns="http://www.w3.org/2000/svg"><path fill="none" d="M.617 0h24v24h-24z"/><rect x="2.367" y="1.75" width="20.5" height="20.5" rx="3.25" fill="none" stroke="#111" stroke-width="1.5"/><path d="M6.17 12.38c-.842 0-1.518.674-1.518 1.516v3.035c0 .842.676 1.517 1.518 1.517h3.034c.842 0 1.517-.675 1.517-1.517v-3.035c0-.842-.675-1.517-1.517-1.517H6.17zm3.186 1.137l.804.797-3.027 2.996-1.92-1.934.812-.797 1.116 1.13 2.215-2.192zM6.17 4.793c-.842 0-1.518.675-1.518 1.517v3.035c0 .842.676 1.517 1.518 1.517h3.034c.842 0 1.517-.675 1.517-1.517V6.31c0-.842-.675-1.517-1.517-1.517H6.17zm0 1.517h3.034v3.035H6.17V6.31zm6.069 0h7.586v1.517h-7.586V6.31zm0 10.62v-1.516h7.586v1.517h-7.586zm0-6.068h7.586v1.517h-7.586v-1.517z" fill="#111"/></svg>