<svg width="150" height="150" viewBox="0 0 150 150" fill="none" xmlns="http://www.w3.org/2000/svg">
<path fill-rule="evenodd" clip-rule="evenodd" d="M113.24 86.7945C111.464 78.3813 105.166 71.8529 96.696 68.6006C95.0679 67.6798 93.4896 63.7284 91.3015 63.0048C90.9507 62.8888 91.5043 63.812 91.3015 63.8671C90.5778 64.0637 89.767 64.0843 88.968 63.3741C87.54 62.1049 87.092 58.397 86.2238 56.7211C81.6449 47.8827 70.2125 51.3409 68.6808 61.1116C67.6129 61.8077 66.1032 62.4209 64.9407 62.9818C63.7437 63.5594 62.6907 64.9584 61.4571 65.4586C60.3564 65.9048 58.5428 65.5887 57.4337 65.9777C52.3324 67.7672 48.0118 70.0251 44.6245 74.6C43.9107 75.5648 43.1062 76.751 42.4566 77.7258C39.1081 81.5806 36.7823 85.9011 34.6401 90.5366C28.6469 104.142 27.0168 119.207 25.5543 133.867C25.5875 136.432 23.8855 143.544 26.4028 144.774C26.2524 144.93 26.3069 145.243 26.586 145.24C32.9691 145.176 39.3372 145.747 45.6212 146.858C48.6531 147.394 51.6688 148.128 54.7571 148.249C61.168 148.205 67.5559 147.131 73.9584 148.147C81.6552 148.147 91.0091 147.923 99.5717 147.594C107.574 147.286 115.62 147.981 123.523 146.62C124.149 146.521 124.454 145.758 124.323 145.211C123.396 141.833 122.941 138.355 122.42 134.897C122.524 132.679 122.339 130.363 121.518 128.297C119.374 114.35 116.625 100.494 113.24 86.7945Z" fill="white"/>
<path fill-rule="evenodd" clip-rule="evenodd" d="M110.659 105.127C110.49 105.947 110.253 106.767 109.939 107.544C109.635 108.294 109.179 108.965 108.864 109.706C108.822 109.806 108.753 109.881 108.669 109.939L108.695 110.14L108.719 110.342C108.876 111.702 109.053 113.058 109.206 114.417L109.28 115.097C109.58 117.936 110.055 120.761 110.423 123.592C110.784 126.364 111.151 129.137 111.544 131.905C111.95 134.759 112.363 137.61 112.845 140.452C113.049 141.653 113.261 142.853 113.483 144.051L113.654 144.969C115.414 145.392 115.895 147.846 114.103 148.752C113.289 149.161 112.244 149.062 111.574 148.419C110.877 147.749 110.848 146.539 110.686 145.631L110.53 144.787C109.365 138.441 108.353 132.022 107.88 125.587C107.759 123.925 107.656 122.262 107.59 120.597C107.526 119.031 107.557 117.466 107.532 115.9L107.524 115.473C107.487 113.804 107.518 112.137 107.562 110.467C107.567 110.264 107.576 110.06 107.586 109.856C107.527 109.787 107.485 109.705 107.467 109.625L107.444 109.521C107.386 109.251 107.451 108.935 107.659 108.741C107.748 107.604 107.866 106.468 107.898 105.332C107.901 105.239 108.035 105.241 108.043 105.332C108.118 106.299 108.269 107.269 108.42 108.237C109.391 107.457 110.109 106.17 110.532 105.093C110.563 105.015 110.677 105.043 110.659 105.127ZM87.684 59.9127C87.8452 60.6496 88.1637 61.3111 88.591 61.9265C88.7946 62.2207 89.026 62.4945 89.3036 62.7235C89.5417 62.9191 89.8129 63.047 90.0661 63.2173C90.4345 63.1596 90.8196 63.2992 91.0781 63.5703L91.0372 63.1738C91.0243 63.0459 91.2368 63.0203 91.2611 63.1443C92.3804 68.7889 93.4012 74.4372 94.2848 80.1227L94.6721 82.6336L95.0365 84.9907C95.6416 88.9185 96.2269 92.8447 96.6676 96.8012C97.2548 102.081 97.7485 107.375 98.1093 112.676C98.4714 118.015 98.6941 123.358 98.8527 128.707C98.8923 130.055 98.9346 131.402 98.9754 132.751L99.2487 131.139C99.5214 129.526 99.7889 127.912 100.018 126.293C100.841 120.496 101.498 114.658 101.819 108.812C102.114 103.462 102.015 98.0052 100.654 92.793C100.311 91.4817 99.8914 90.1908 99.3849 88.9332C98.8936 87.7103 98.2233 86.5767 97.6948 85.3717C97.0807 83.9695 96.8965 82.6467 97.2126 81.137C97.489 79.8219 97.9738 78.5848 98.0607 77.2312C98.2233 74.7186 97.4057 72.2852 96.2506 70.0861C95.946 69.5066 95.6248 68.9347 95.2896 68.3678C94.2753 66.6549 93.1314 65.0044 91.9443 63.422C91.8803 63.3376 92.0158 63.2442 92.085 63.3133C93.1672 64.3828 94.3506 65.4344 95.3243 66.6025C95.7975 67.1705 96.2594 67.7499 96.6969 68.3449C101.497 69.1471 105.622 72.1368 108.441 76.0849C111.641 80.5652 113.259 85.9576 114.457 91.268C115.789 97.1697 116.912 103.125 118.108 109.056C119.346 115.193 120.578 121.33 121.824 127.466C122.444 130.512 123.063 133.558 123.681 136.605C123.994 138.148 124.323 139.687 124.667 141.225C124.844 142.013 125.033 142.8 125.197 143.591C125.381 144.482 125.21 145.053 124.606 145.708C124.383 145.951 124.031 145.947 123.755 145.818L123.669 145.777L123.585 145.737C123.243 145.569 122.975 145.395 122.762 145.021C122.528 144.61 122.491 144.155 122.411 143.698C122.262 142.857 122.115 142.017 121.967 141.175C121.745 139.916 121.504 138.661 121.258 137.406L120.027 131.134C119.699 129.462 119.37 127.79 119.039 126.119C117.858 120.142 116.676 114.166 115.494 108.19C114.36 102.452 113.355 96.6746 112.063 90.9699L111.99 90.6486L111.915 90.3276C110.76 85.4098 109.145 80.6527 106.216 76.4854C103.962 73.2806 100.832 70.4187 97.1447 68.9704C97.4045 69.3441 97.654 69.7253 97.892 70.1143C99.3862 72.5552 100.477 75.4529 100.222 78.3596C100.096 79.7797 99.5564 81.1754 99.6074 82.607C99.6548 83.8787 100.442 84.9955 100.985 86.102C102.22 88.6097 103.113 91.2745 103.689 94.0084C104.844 99.498 104.84 105.146 104.442 110.719C104.01 116.777 103.188 122.833 102.253 128.832C101.773 131.909 101.135 134.96 100.646 138.032C100.405 139.546 100.076 141.058 99.7878 142.565L99.6506 143.285C99.5738 143.684 99.4941 144.082 99.4021 144.477L99.3453 144.712V144.755C99.3427 145.045 99.2633 145.286 99.1353 145.478C98.9602 146.039 98.7427 146.587 98.4536 147.113C98.3052 147.381 98.0901 147.532 97.856 147.587C97.6206 148.126 97.0871 148.54 96.4501 148.538L88.0716 148.506C83.205 148.487 78.3384 148.455 73.4718 148.428C72.2437 148.421 71.0168 148.398 69.79 148.366C68.6398 148.334 67.537 148.196 66.3997 148.053C65.1151 147.892 64.4193 146.982 64.6112 145.699C64.6534 145.416 64.6993 145.135 64.743 144.853C64.4871 144.938 64.1826 144.898 63.9766 144.697L63.7835 144.508C63.5158 144.243 63.2764 143.983 63.1067 143.63C62.9314 143.267 62.7893 142.883 62.6345 142.512C62.3006 141.714 61.9757 140.913 61.6596 140.108C61.0265 138.499 60.3932 136.883 59.8046 135.257C58.6392 132.037 57.6079 128.768 56.7113 125.462C55.1121 119.565 53.9554 113.553 53.2262 107.488L53.0519 106.042L53.0012 105.615C52.7246 103.264 52.4919 100.877 52.6019 98.531C52.6698 97.0621 52.8974 95.5821 53.4464 94.2105C53.9529 92.9454 54.7345 91.863 55.4778 90.7321L55.5629 90.6016L55.6484 90.4678C56.2985 89.4406 56.8157 88.3667 56.8416 87.1192C56.8679 85.8533 56.4991 84.6213 56.0867 83.4362L55.9839 83.1439L55.915 82.9504C55.0377 80.501 54.0394 78.0863 54.3687 75.421C54.8549 71.4959 57.2344 68.3321 60.2282 65.8924C57.5657 66.4195 54.9304 67.4608 52.6046 68.7812C49.8577 70.342 47.3847 72.4017 45.2521 74.7263C41.2221 79.1194 38.3449 84.3904 35.9898 89.8327C33.5244 95.5284 31.6962 101.496 30.3185 107.543C28.9329 113.623 28.0054 119.801 27.372 126.004C27.0561 129.091 26.8078 132.185 26.602 135.281C26.4971 136.868 26.4177 138.457 26.2949 140.04C26.1721 141.623 26.117 143.23 25.7306 144.77C25.5502 145.488 24.3336 145.561 24.2032 144.77C23.9139 143.004 23.9947 141.178 24.0755 139.39L24.0828 139.228C24.1623 137.447 24.2659 135.668 24.3886 133.888C24.6395 130.251 24.9745 126.619 25.4121 122.998C26.946 110.289 29.7747 97.6469 35.3232 86.0459C37.9356 80.5818 41.2888 75.2726 45.9533 71.3271C48.1741 69.4501 50.6778 67.952 53.3759 66.8673C55.7888 65.8963 58.2401 65.437 60.8039 65.4383C62.0896 64.4532 63.47 63.5947 64.849 62.8615C64.9322 62.8169 65.0192 62.9244 64.9502 62.9934C64.9144 63.028 64.8797 63.0637 64.844 63.0971C65.0001 63.1073 65.1612 63.1802 65.3057 63.3325C65.8125 63.8633 66.2398 64.5274 66.6222 65.2168C67.2043 65.9436 67.7595 66.6944 68.3405 67.4134C69.2704 68.5648 70.2222 69.6996 71.1857 70.8254C72.8037 72.7175 74.4745 74.5737 76.2167 76.3553L76.5078 76.6516C77.4109 77.5664 78.3257 78.6614 79.3938 79.3855L79.4509 79.4234C79.9015 79.717 80.2211 79.7704 80.6054 79.3319C80.9548 78.9327 81.2456 78.4696 81.5445 78.0296L81.6136 77.9285C83.1399 75.7114 84.5548 73.4124 85.8354 71.0456C86.4192 69.9685 86.9745 68.8758 87.5013 67.771L87.6585 67.4392C87.9451 66.8302 88.256 66.2327 88.4925 65.6057C88.5475 65.4587 88.6013 65.3116 88.6537 65.1658C87.8477 64.6374 87.2235 63.4937 86.9971 62.5981C86.7617 61.668 86.8807 60.7135 87.3002 59.8629C87.3795 59.703 87.6456 59.7425 87.684 59.9127ZM47.9235 97.7081C47.812 101.244 47.7444 104.784 47.5779 108.318L47.5205 109.524C47.7801 109.813 47.9323 110.147 47.8108 110.605C47.7636 110.781 47.624 110.939 47.45 110.998L47.3957 112.12C47.1488 117.166 46.8594 122.202 46.3306 127.235C45.6691 133.535 44.9041 139.824 44.1405 146.112C44.0317 147.003 43.4124 147.709 42.449 147.578C41.4743 147.446 41.079 146.598 41.2069 145.714C41.7097 142.246 42.1932 138.775 42.6168 135.295L43.0991 131.331C43.7038 126.375 44.3228 121.42 45.036 116.48C45.3341 114.415 45.6437 112.352 45.9544 110.288L45.8458 110.147C45.4018 109.57 44.9425 109.006 44.4883 108.438C43.6159 107.343 42.7549 106.257 41.9553 105.11C41.9156 105.053 41.9963 104.968 42.0537 105.012C43.1744 105.84 44.2351 106.725 45.3021 107.624L46.236 108.415C46.7733 104.849 47.3056 101.283 47.7801 97.7081C47.7917 97.6187 47.926 97.6122 47.9235 97.7081ZM64.045 63.8672C63.3707 64.5029 62.6813 65.1248 62.0018 65.7568L61.7529 65.9894L61.5052 66.223C60.3111 67.3554 59.1671 68.5341 58.2138 69.8878C56.4637 72.3735 55.421 75.4042 56.1488 78.4389C56.7528 80.9527 58.1383 83.2313 58.5106 85.8079C58.6973 87.0987 58.6066 88.396 58.1203 89.6151C57.6239 90.8587 56.8307 91.9244 56.1181 93.0464C54.5701 95.4848 54.359 98.1612 54.5127 100.986C54.6739 103.936 55.0128 106.887 55.4312 109.811C56.278 115.734 57.5548 121.596 59.2448 127.337C60.0906 130.211 61.0896 133.025 62.0838 135.849C62.5788 137.255 63.1559 138.628 63.7506 139.994C64.0641 140.713 64.3853 141.428 64.7116 142.142C64.5912 141.134 64.5912 140.099 64.5323 139.098C64.4479 137.662 64.3404 136.229 64.2419 134.795C64.0412 131.885 63.8621 128.972 63.7022 126.058C63.1354 115.67 62.7183 105.273 62.7489 94.8682C62.7644 89.6651 62.8706 84.462 63.0945 79.2639C63.1994 76.8161 63.4027 74.3707 63.5864 71.9263L63.6254 71.4025C63.7879 69.2084 63.9823 67.0092 64.3161 64.8344C64.2173 64.6114 64.1315 64.3855 64.0678 64.1539L64.045 64.0668L64.0617 64.0693C64.0463 64.0014 64.0412 63.9337 64.045 63.8672ZM69.8761 54.927C69.8901 54.8669 69.9758 54.872 69.9911 54.927C70.3711 56.2063 70.2368 57.6136 69.9094 58.9006C69.7328 59.5979 69.4821 60.2746 69.1789 60.9271L69.0728 61.1554C68.813 61.7111 68.5205 62.2836 68.0146 62.6299C67.8036 62.7745 67.4261 62.7834 67.215 62.6299L67.1073 62.5482C67.0896 62.5344 67.0721 62.5203 67.055 62.5058C66.8582 62.3408 66.7608 61.9762 66.8516 61.7356C67.0858 61.1152 67.6168 60.6597 67.9839 60.107C68.3089 59.6158 68.5968 59.0976 68.8359 58.559C69.3515 57.3936 69.583 56.1564 69.8761 54.927Z" fill="black"/>
<path fill-rule="evenodd" clip-rule="evenodd" d="M72.9205 9.55335C92.3115 8.59977 101.062 22.2526 101.628 28.3507C102.021 32.5837 99.5196 37.4628 99.5196 41.2453C99.5196 43.1761 101.884 47.3212 100.783 50.1353C98.3336 56.3988 93.1471 63.3501 86.538 63.3501C79.9289 63.3501 71.3276 65.1779 64.0248 54.7216C63.3396 53.7405 54.6729 48.1644 53.8309 42.8659C51.7336 29.6676 59.0843 10.2338 72.9205 9.55335Z" fill="white"/>
<path fill-rule="evenodd" clip-rule="evenodd" d="M72.0066 1.05648C72.7 0.263286 73.8706 -0.0539908 74.9107 0.00741755C76.4216 0.0969714 77.7356 1.02961 79.2388 1.09869C80.8148 1.17162 82.336 0.625339 83.916 0.878648C84.8844 1.03473 85.8439 1.48378 86.4644 2.24115C88.6137 1.62578 90.9472 2.44072 92.3161 4.22029C94.0048 3.95802 95.842 5.07629 96.3588 6.70349C98.5043 6.77257 100.529 8.49584 100.769 10.6554C101.626 10.8818 102.37 11.473 102.827 12.2545C103.358 13.1603 103.446 14.1991 103.35 15.2201C104.36 15.7356 104.873 16.8435 105.007 18.0154C105.93 18.7037 106.33 19.9408 106.142 21.1089C106.848 21.5067 107.213 22.433 107.209 23.2594C107.205 24.0309 107.001 24.7142 107.288 25.4586C107.545 26.1217 107.637 26.6743 107.496 27.3688L107.481 27.4365C107.456 27.5497 107.435 27.6583 107.417 27.7654C107.608 27.933 107.769 28.1431 107.891 28.3874C108.333 29.2804 108.267 30.2989 107.93 31.2045C108.077 31.7812 108.059 32.3905 107.84 32.9448C108.249 33.5339 108.464 34.2565 108.401 35.0062C108.33 35.8456 107.947 36.5972 107.366 37.1529C107.521 38.2995 107.054 39.5383 106.211 40.3455C106.331 41.0319 106.228 41.7513 105.852 42.4019C105.585 42.8657 105.224 43.2111 104.809 43.4519C104.822 43.8348 104.771 44.2264 104.643 44.6188C104.466 45.1633 104.167 45.6649 103.772 46.0689C104.008 47.5732 103.107 49.2423 101.522 49.6644C101.389 49.6998 101.262 49.7161 101.14 49.7186C100.982 51.1654 100.638 52.5921 100.106 53.9471C98.7525 57.3974 96.291 60.414 93.0812 62.2959C91.4935 63.226 89.7101 63.8631 87.8896 64.1292C86.5795 64.3211 85.3194 64.2738 84.0044 64.1433C82.3539 63.9783 80.6959 63.7314 79.0916 63.3066L78.8335 63.238C78.1685 63.0599 77.4673 62.8543 76.8911 62.4955C76.2463 62.0938 75.9113 61.4746 75.7629 60.7454C75.68 60.3395 75.9371 59.903 76.3815 59.8946L76.4101 59.8946C76.5073 59.8967 76.6037 59.893 76.7013 59.8868L76.7748 59.8818H76.7785C76.7836 59.8806 76.7863 59.8805 76.7913 59.8805C76.8348 59.8742 76.877 59.8614 76.9192 59.855C77.4081 59.7727 77.8356 59.8543 78.2946 60.0069L78.3521 60.0264C79.1248 60.2925 79.8912 60.5394 80.6895 60.7224C81.5146 60.9104 82.35 61.0601 83.188 61.1778L83.2712 61.188L83.2968 61.1919L83.3096 61.1932C83.3121 61.1932 83.3147 61.1931 83.3172 61.1944L83.5641 61.2251C83.7587 61.2482 83.9531 61.2686 84.1475 61.2891C84.5057 61.3249 84.864 61.3531 85.2222 61.3735C91.4052 61.7215 96.5981 56.8536 98.1653 51.0173C98.7333 48.9051 98.7704 46.798 98.6028 44.6897C98.5491 44.5361 98.5171 44.366 98.5184 44.1792C98.5184 44.082 98.5236 43.986 98.5299 43.8888C98.3215 41.8495 97.9594 39.809 97.7328 37.762C97.4681 35.3709 97.3209 32.9659 97.3746 30.5593C97.4015 29.3708 97.5281 28.1938 97.6945 27.017L97.7546 26.5942C97.003 26.4474 96.3042 26.091 95.7478 25.575C94.5404 26.2723 92.9777 26.3341 91.7858 25.5978C90.4502 26.4354 88.5841 26.5114 87.2392 25.6925C86.4263 26.2728 85.402 26.5232 84.3966 26.3029C83.9444 26.2038 83.4947 25.9895 83.1096 25.6929C82.8347 25.7414 82.5561 25.7602 82.2792 25.7457L82.222 25.7777C81.5836 26.1141 80.8764 26.3356 80.1486 26.3109C79.6097 26.2927 79.0546 26.1864 78.5407 25.9853C77.9917 26.3167 77.3909 26.5429 76.7482 26.624C75.8095 26.7423 74.7966 26.5347 74.0159 26.0022C72.5893 26.8148 70.8346 26.94 69.2948 26.3939C68.9794 26.9281 68.543 27.3886 68.0321 27.7436C68.1235 28.0714 68.1527 28.4209 68.1212 28.757C68.0695 29.3102 67.9309 29.8062 67.704 30.2517C67.9431 30.7491 68.015 31.3598 67.8812 31.9729C67.6905 32.8472 67.1818 33.6078 66.5232 34.2001C66.4651 35.5953 65.6999 36.9036 64.4546 37.6304C64.3916 37.6671 64.3289 37.697 64.2663 37.724C64.2113 37.7993 64.1455 37.8654 64.0704 37.9212C63.2785 38.6528 62.0253 38.5946 61.0327 38.1813C61.0135 38.1822 60.9944 38.1838 60.975 38.1842C60.6204 38.1932 60.3788 38.055 60.2354 37.8516C60.0909 37.8594 59.9475 37.8746 59.8031 37.9015C59.2759 38 58.6976 38.1893 58.2204 38.4351C56.982 39.0721 56.4089 40.1979 56.2374 41.5514C56.0508 43.0278 56.4754 44.5323 57.618 45.5315C58.1731 46.0176 58.8831 46.3221 59.6047 46.45C60.4017 46.592 61.2537 46.2428 61.8422 46.9272C61.9599 47.0628 62.0405 47.2522 61.9765 47.4351C61.777 48.0057 61.4482 48.2245 60.9339 48.3038C61.6772 49.1853 62.4397 50.0373 63.284 50.8292C64.1975 51.6877 65.1416 52.5192 65.9657 53.4659C66.8368 54.4677 67.6236 55.5295 68.1698 56.7449C68.482 57.4434 68.7327 58.1637 69.0028 58.8788L69.051 59.0034C69.3522 59.7632 69.7527 60.4957 69.2893 61.2891C69.105 61.6013 68.688 61.9032 68.3042 61.8533C67.2233 61.7151 66.8612 60.9846 66.5284 60.0328C66.2777 59.3138 66.0858 58.5743 65.816 57.8617C65.7654 57.7299 65.7104 57.5992 65.6527 57.4694C65.0294 57.6431 64.3441 57.5052 63.7878 57.1498C63.1935 57.4132 62.535 57.5446 61.899 57.5335C61.0475 57.5185 60.2695 57.282 59.6007 56.8553C59.5475 56.8412 59.494 56.8277 59.4409 56.8124C58.4234 57.2021 57.2319 57.1325 56.3106 56.5009C55.714 56.0919 55.3062 55.546 55.0744 54.9382C54.3036 54.9235 53.5411 54.6502 52.9888 54.1034C52.4817 53.6014 52.1852 52.9537 52.0972 52.2806C51.4338 52.1492 50.8117 51.8285 50.3239 51.2882C49.9166 50.837 49.669 50.2623 49.5854 49.6657C48.7773 49.4351 48.0486 48.9075 47.6506 48.1719C47.2803 47.4871 47.2268 46.7442 47.4079 46.0684L47.361 46.0009C46.5286 45.5652 45.8934 44.8521 45.8282 43.8335C45.8098 43.5435 45.841 43.2533 45.9197 42.9788C45.8913 42.6719 45.9094 42.3651 45.9899 42.0683C44.8705 40.9796 44.4649 39.2307 45.0726 37.7851C43.9788 36.6081 43.6897 34.7466 44.4918 33.3497C43.9417 32.6843 43.659 31.8361 43.7063 30.9304C43.7651 29.7995 44.2833 28.8118 44.9037 27.897C44.4432 27.3879 44.1976 26.6778 44.2156 25.9921C44.2411 24.9981 44.7694 24.1422 45.431 23.4334C44.8539 21.6833 45.4986 19.7847 46.9149 18.6768C46.6283 18.2048 46.5221 17.6201 46.6156 17.0278C46.7793 15.9928 47.5558 15.2879 48.3938 14.7301C48.2185 14.1596 48.2646 13.5441 48.5435 12.9543C48.9158 12.1675 49.6181 11.6686 50.3512 11.2464C50.5405 9.5014 52.4902 8.01097 54.1252 8.91163C53.7197 7.6131 54.8879 6.21094 56.2312 6.06254C56.8886 4.06932 59.1569 2.81301 61.1962 3.30812C62.2388 1.88293 64.1796 1.33422 65.8274 1.94562C67.639 0.557534 69.8867 0.35156 72.0066 1.05648ZM59.1022 40.1927C60.3751 40.1236 61.3295 41.1625 62 42.113C62.6293 43.0047 61.0148 43.9463 60.544 42.9638C60.3751 42.6132 60.1832 42.2422 59.9261 41.9352C59.8829 41.9956 59.8448 42.0582 59.8068 42.1225L59.7687 42.1872C59.7406 42.2346 59.7112 42.2832 59.6868 42.3331C59.6894 42.342 59.651 42.4597 59.6497 42.4648C59.5448 42.7834 59.3158 42.9881 59.0038 43.0981C58.6007 43.2388 58.2194 42.9356 58.0902 42.58C57.8844 42.0119 58.3627 41.5168 58.8604 41.2917C58.3717 41.2124 57.8907 41.3787 57.5376 41.7548C57.4891 41.8073 57.4071 41.765 57.4046 41.6998C57.3636 40.8081 58.2962 40.2362 59.1022 40.1927Z" fill="black"/>
<path fill-rule="evenodd" clip-rule="evenodd" d="M80.335 46.9635C80.3619 46.9386 80.4044 46.9299 80.4367 46.9503C80.9903 47.3003 81.0558 48.4774 81.0621 49.1573C81.2911 49.2169 81.5173 49.2847 81.7312 49.332C82.1854 49.4325 82.6421 49.5202 83.098 49.6126L83.4396 49.6831C84.5815 49.9237 85.7449 50.1018 86.9085 50.191C88.0379 50.2775 89.2001 50.3091 90.3263 50.1636C90.8099 50.101 91.2907 49.9967 91.758 49.8573C92.3104 49.6926 92.7504 49.4194 93.2642 49.1802C94.5504 48.5811 95.6284 50.3367 94.3905 51.1071C93.3279 51.7682 91.8781 52.0065 90.6515 52.1088C89.3978 52.2134 88.1489 52.0986 86.9102 51.9003C85.5711 51.6858 84.2595 51.3563 82.9895 50.8786C82.4525 50.6767 81.9329 50.4318 81.4255 50.1641L81.2874 50.0906C81.2031 50.0453 81.1152 49.9993 81.0268 49.9528C80.9317 50.8006 80.6578 51.6195 80.3268 52.4067L80.319 52.3929C80.138 53.0138 79.484 53.398 78.8333 53.1237C78.0696 52.802 78.0116 51.9574 78.456 51.3579L78.4772 51.33C78.9997 50.6578 79.327 49.8239 79.6116 49.0291C79.7575 48.6216 79.8926 48.2043 80.0098 47.7875C80.0946 47.4859 80.0977 47.1826 80.335 46.9635ZM100.015 40.2122C99.5619 41.5803 98.5746 42.6338 97.1993 43.097C95.8363 43.5561 94.3204 43.3888 92.9271 43.1405C92.6223 43.0862 92.3134 43.0263 92.005 42.9563C92.2574 43.1127 92.4803 43.3327 92.6937 43.5654C93.009 43.9093 93.2951 44.2718 93.3819 44.7024C93.468 45.1296 93.3323 45.4546 93.0849 45.6999C92.7044 46.0772 92.0905 46.2804 91.5705 46.3928C90.4061 46.6444 89.2396 46.6053 88.0809 46.3473C87.7851 46.2814 87.5845 46.1228 87.4719 45.9159C87.3351 45.6645 87.3239 45.352 87.4024 45.0673C87.4808 44.7828 87.6503 44.5205 87.8963 44.3753C88.0988 44.2558 88.3521 44.223 88.6396 44.3186C89.2167 44.5106 89.7895 44.6378 90.399 44.6525C90.657 44.6585 90.9166 44.6509 91.1742 44.6272C91.3198 44.6138 91.4652 44.5953 91.6097 44.5721C91.5246 44.4588 91.4419 44.3433 91.3611 44.2267C91.2657 44.0889 91.1727 43.9492 91.0839 43.8073C90.8273 43.3962 90.6135 42.9737 90.4258 42.5277C90.3655 42.3848 90.3097 42.2413 90.256 42.0974C90.2483 42.0766 90.2406 42.0559 90.2329 42.035C90.2164 42.0212 90.2 42.0072 90.1837 41.9931C89.8164 41.6754 89.5084 41.2839 89.2906 40.799C88.7008 39.4857 88.7968 37.8554 89.1547 36.4917C89.4415 35.3986 90.0745 34.3876 90.9108 33.7007C91.0569 33.4605 91.1533 33.3147 91.2714 33.192C91.7521 32.6919 92.4227 32.3547 93.0773 32.1495C94.5391 31.6911 96.1312 32.02 97.3703 32.8928C98.5145 33.6986 99.4102 34.9072 99.8942 36.2514C100.353 37.5244 100.442 38.9207 100.015 40.2122ZM80.1031 31.8978C81.8416 31.8829 83.6104 32.3962 85.0212 33.4234C86.3709 34.4063 87.4304 35.8575 87.4291 37.586C87.4279 39.2689 86.5282 40.9236 85.5305 42.2267C84.4105 43.6895 82.947 44.3948 81.1068 44.411C80.1502 44.4196 79.1867 44.3348 78.237 44.2185L77.7275 44.1542C77.0259 44.0638 76.317 43.9566 75.6519 43.7156C72.4863 42.5673 72.3883 38.4238 73.5607 35.7752C74.466 33.7303 76.7571 31.7361 79.0418 31.9754C79.3861 31.9272 79.7395 31.901 80.1031 31.8978ZM83.0401 33.8468C80.863 32.8696 78.2179 33.1622 76.1061 34.205C75.2695 35.1177 74.6581 36.2679 74.4107 37.3239C74.1465 38.4511 74.1851 39.6654 74.5824 40.7579C75.0674 42.0916 76.2616 42.4219 77.5499 42.6269L78.0501 42.7054L78.2599 42.7372C79.5258 42.9261 80.9097 43.0729 82.1263 42.8366C83.482 42.5729 84.343 41.4777 85.0207 40.3547L85.0524 40.3021C85.7561 39.1255 86.3453 37.6945 85.755 36.3464C85.2531 35.2005 84.1568 34.348 83.0401 33.8468ZM95.8888 34.187C95.1416 33.773 94.2895 33.6977 93.4827 33.9748C93.1356 34.094 92.8357 34.2873 92.5449 34.5038L92.4289 34.5916C92.0713 34.8661 91.7373 35.0052 91.469 35.3759L91.4344 35.4256C91.299 35.6277 91.0622 35.7086 90.8465 35.6817C90.5951 36.3748 90.4913 37.1242 90.4893 37.862L90.4895 37.9597L90.4907 38.0595C90.5069 38.9315 90.659 39.9984 91.3452 40.5829C91.9711 41.1159 92.9187 41.2439 93.7648 41.3181L94.4168 41.3724L94.5901 41.3855C95.4819 41.4476 96.4591 41.4264 97.2065 40.8985C97.8574 40.4387 98.1645 39.6583 98.244 38.8878C98.4322 37.0674 97.5108 35.0857 95.8888 34.187ZM79.6266 34.3554C80.8255 33.7434 82.2656 33.8967 83.2812 34.6638C83.191 34.6815 83.1022 34.704 83.0136 34.7484C82.7832 34.8639 82.6402 35.0952 82.5857 35.3414C82.5243 35.6196 82.6685 35.883 82.9432 35.9708C83.1821 36.0471 83.4655 36.082 83.6875 35.9368C83.8038 35.8608 83.885 35.7606 83.9383 35.6345L83.9459 35.6159L83.9553 35.6023L83.9588 35.5959C83.9597 35.5935 83.9555 35.5981 83.9488 35.6085C83.9556 35.5928 83.9619 35.577 83.9682 35.561C83.9775 35.542 83.9865 35.5228 83.9937 35.503C84.0067 35.4918 84.0184 35.4794 84.0303 35.467C84.2148 35.7509 84.3596 36.0715 84.4516 36.4282C85.0419 38.7176 82.6214 41.0934 80.4589 41.3311C79.6417 41.4209 78.8965 41.2263 78.278 40.8428C78.2837 40.8352 78.2899 40.8285 78.2951 40.8205C78.5435 40.8652 78.8401 40.754 78.9302 40.4769C79.1604 39.7701 78.9244 38.9432 78.1542 38.7123C77.6586 38.5637 77.1514 38.7279 76.7972 39.0667C76.5293 38.411 76.4335 37.6728 76.5603 36.9335C76.7391 35.8905 77.3683 34.9505 78.3475 34.5166C78.8243 34.3051 79.2352 34.2607 79.6266 34.3554ZM92.2524 35.7678L92.2889 35.7103C92.6593 35.1402 93.3675 34.4408 94.1014 34.6331C94.2045 34.6601 94.3056 34.7036 94.3967 34.76C94.7999 34.7053 95.2221 34.7969 95.5688 35.0101L95.5594 35.034C95.5579 35.038 95.5565 35.0421 95.5555 35.0463C95.5239 35.185 95.5423 35.3132 95.607 35.4406C95.6773 35.5787 95.7775 35.7095 95.9131 35.7887C96.0061 35.843 96.1155 35.8715 96.2227 35.8693C96.3799 35.8665 96.5183 35.7973 96.6319 35.6916C96.6937 35.6343 96.7368 35.5503 96.7606 35.4638C96.8167 35.5175 96.871 35.5774 96.9229 35.6453C97.7737 36.7642 97.6562 38.5622 96.6579 39.5596C96.6176 39.5998 96.5747 39.6361 96.5324 39.6732C96.1271 40.2311 95.5024 40.6098 94.7521 40.6864C94.0574 40.7574 93.3627 40.552 92.83 40.1308C92.8728 40.108 92.9129 40.0785 92.9474 40.0393C93.0384 39.9364 93.1132 39.8348 93.1685 39.709C93.1824 39.6774 93.1958 39.6455 93.2085 39.6133L93.227 39.5648C93.2302 39.5559 93.2585 39.4741 93.251 39.4885L93.2493 39.4918L93.2593 39.4682C93.3547 39.2302 93.3161 38.9582 93.0898 38.8089L93.0649 38.7934C92.9909 38.7503 92.8993 38.7299 92.8066 38.7297C92.5755 38.4468 92.2316 38.382 91.9089 38.4646L91.8975 38.3733C91.8958 38.358 91.8943 38.3428 91.8933 38.3275C91.6431 37.4983 91.7638 36.5561 92.2524 35.7678ZM81.1475 27.42L81.2306 27.4071C81.8585 27.3163 82.2854 27.4208 82.6937 27.9575C82.8883 28.2132 82.8283 28.5994 82.6937 28.8608C82.259 29.7053 81.0631 29.5307 80.2576 29.6984C79.4712 29.862 78.6867 30.0847 77.9508 30.4089C77.2 30.7398 76.4952 31.1311 75.8079 31.578C75.1863 31.9824 74.6225 32.5902 73.9123 32.8255C73.8803 32.8361 73.8418 32.8074 73.8438 32.7735C73.8944 31.9659 74.569 31.2245 75.0915 30.6493C75.6958 29.9842 76.4308 29.3936 77.1962 28.9241C77.9861 28.4398 78.8399 28.041 79.724 27.7629C80.1895 27.6164 80.6658 27.5 81.1475 27.42ZM90.7142 28.5166C91.5049 27.3605 93.4703 27.5822 94.63 27.8911C96.0841 28.2783 97.6598 29.0613 98.6794 30.1948C99.5927 31.2102 98.2263 32.5295 97.1992 31.675L96.9251 31.4477L96.7497 31.3037C95.9613 30.6597 95.1805 30.0769 94.2196 29.6475C93.093 29.1444 91.9515 28.8992 90.7608 28.6311C90.714 28.6206 90.6865 28.5572 90.7142 28.5166Z" fill="black"/>
</svg>
