<svg width="16" height="16" viewBox="0 0 16 16" fill="none" xmlns="http://www.w3.org/2000/svg">
<g clip-path="url(#clip0_21706_66813)">
<path fill-rule="evenodd" clip-rule="evenodd" d="M15.6701 7.06514L14.5901 5.72514C14.4168 5.50263 14.3097 5.23575 14.2811 4.95514L14.0911 3.25714C14.0526 2.91784 13.9002 2.60161 13.6589 2.36005C13.4175 2.1185 13.1014 1.96589 12.7621 1.92714L11.0631 1.73714C10.7631 1.70714 10.5031 1.57814 10.2831 1.40814L8.94512 0.32914C8.67852 0.116069 8.34739 0 8.00612 0C7.66484 0 7.33371 0.116069 7.06712 0.32914L5.72712 1.40914C5.50472 1.58285 5.23783 1.69029 4.95712 1.71914L3.25912 1.90914C2.55912 1.98914 2.00912 2.53914 1.92912 3.23814L1.73912 4.93714C1.70912 5.23714 1.58012 5.49714 1.41012 5.71714L0.330117 7.05414C0.117045 7.32073 0.000976563 7.65186 0.000976562 7.99314C0.000976563 8.33442 0.117045 8.66555 0.330117 8.93214L1.41012 10.2721C1.58012 10.4921 1.69012 10.7521 1.72012 11.0421L1.91012 12.7401C1.99012 13.4401 2.54012 13.9901 3.23912 14.0701L4.93812 14.2601C5.23812 14.2901 5.49812 14.4191 5.71812 14.5891L7.05712 15.6691C7.60712 16.1081 8.38612 16.1081 8.93512 15.6691L10.2751 14.5891C10.4951 14.4191 10.7551 14.3091 11.0451 14.2791L12.7431 14.0891C13.4431 14.0091 13.9931 13.4591 14.0731 12.7601L14.2631 11.0611C14.2931 10.7611 14.4221 10.5011 14.5921 10.2811L15.6721 8.94214C15.8852 8.67555 16.0013 8.34442 16.0013 8.00314C16.0013 7.66186 15.8852 7.33073 15.6721 7.06414L15.6701 7.06514Z" fill="#3A68E0"/>
<path d="M3.7334 8.40108L6.72015 11.2008L12.2667 6.04091L10.9868 4.80078L6.72015 8.80138L5.01417 7.20018L3.7334 8.40108Z" fill="white"/>
</g>
<defs>
<clipPath id="clip0_21706_66813">
<rect width="16" height="16" fill="white"/>
</clipPath>
</defs>
</svg>
