<svg width="147" height="198" viewBox="0 0 147 198" fill="none" xmlns="http://www.w3.org/2000/svg">
<path fill-rule="evenodd" clip-rule="evenodd" d="M25.2335 127.841L117.946 135.187L118.043 135.816C119.597 145.915 120.381 152.766 120.397 156.37L120.397 156.481C120.397 160.054 121.496 165.737 123.695 173.53L123.83 174.01L25.1041 174.182L23.9395 150.725L25.2335 127.841ZM80.1216 77.507C83.8914 77.6927 87.6906 79.3058 87.9841 80.3367C88.6376 82.6328 89.6886 92.4613 93.1449 93.9714C96.6011 95.4814 103.98 94.1047 106.089 97.7108C108.199 101.317 115.127 116.017 115.127 119.442C115.127 121.725 92.5491 122.518 47.3926 121.82C47.9691 103.427 50.3724 93.7592 54.6026 92.815L54.9802 92.7317C61.0978 91.3979 64.7539 91.3549 66.8408 89.2047C68.9703 87.0107 69.3567 83.2446 70.2401 80.3367C70.7269 78.7345 75.4957 77.2792 80.1216 77.507Z" fill="white"/>
<path fill-rule="evenodd" clip-rule="evenodd" d="M88.3883 83.255C88.4025 83.2441 88.4169 83.2408 88.4323 83.2485C88.726 83.3893 88.7868 83.6709 88.8878 83.9641C89.0353 84.3929 89.2061 84.8114 89.364 85.2363C89.6785 86.0887 89.9786 86.9399 90.3293 87.7781C90.689 88.6409 91.0617 89.4882 91.4887 90.3213C91.6945 90.7242 91.9158 91.1195 92.1409 91.5121C92.2962 91.7846 92.4411 92.1592 92.6456 92.4149C92.6611 92.3335 92.6831 92.256 92.709 92.1837C92.6819 92.1966 92.6559 92.2108 92.6314 92.2263C92.5796 92.2586 92.5175 92.1941 92.5485 92.1437C92.6598 91.9603 92.8047 91.8363 92.9704 91.7523C93.4285 91.2447 103.526 93.6671 106.286 96.3878C111.285 101.315 114.659 107.408 116.879 113.889C118.104 117.465 119.232 121.076 120.398 124.672C121.63 128.475 122.916 132.26 124.151 136.06C124.421 136.896 123.831 137.655 123.086 137.93C121.698 138.442 120.299 138.924 118.888 139.369C119.573 141.992 120.052 144.671 120.396 147.358C121.106 152.897 121.195 158.549 122.315 164.031C122.572 165.289 122.897 166.529 123.241 167.766L123.32 168.051C123.525 168.777 123.711 169.51 123.962 170.22C124.178 170.831 124.458 171.447 124.609 172.077C124.786 172.819 124.525 173.628 123.83 174.01C123.272 174.316 122.474 174.189 122.137 173.614C122.069 173.497 122.027 173.369 122.011 173.24C121.96 173.133 121.914 173.023 121.872 172.91C121.856 172.867 121.842 172.822 121.828 172.777L121.788 172.643C121.69 172.323 121.599 172 121.509 171.677C121.361 171.159 121.213 170.643 121.049 170.129L120.965 169.873C120.559 168.638 120.195 167.393 119.878 166.132C118.744 161.612 118.503 156.932 118.191 152.3L118.175 152.06C117.893 147.909 117.725 143.767 118.07 139.625L118.023 139.64L117.976 139.655C117.527 139.792 117.077 139.926 116.625 140.056C116.611 140.061 116.598 140.067 116.584 140.071C116.295 140.16 115.997 140.245 115.695 140.324L115.513 140.37L115.385 140.405L115.25 140.443C114.823 140.567 114.386 140.71 113.942 140.696C113.207 140.813 112.46 140.884 111.725 140.887C111.951 144.582 112.212 148.275 112.524 151.963C112.837 155.672 113.253 159.366 113.684 163.059C113.896 164.884 114.124 166.706 114.375 168.524C114.501 169.446 114.633 170.363 114.802 171.278C114.975 172.213 115.282 173.213 115.097 174.158C115.093 174.157 115.089 174.155 115.085 174.155C115.023 174.429 114.857 174.675 114.569 174.844C114.04 175.153 113.299 174.972 112.995 174.432C112.969 174.387 112.945 174.34 112.921 174.292C112.61 174.425 112.268 174.477 111.849 174.481L106.163 174.538C103.579 174.564 100.995 174.591 98.4091 174.628C90.2919 174.748 82.1747 174.885 74.0575 174.983L71.0135 175.018C66.4483 175.066 61.8804 175.16 57.3151 175.159C55.0313 175.159 52.7498 175.151 50.4659 175.096C49.3595 175.069 48.2557 175.026 47.1506 174.981L46.9555 174.972C46.0733 174.928 45.1367 174.847 44.274 175.044C44.0359 175.506 43.4278 175.602 43.1094 175.129C42.382 174.048 42.1835 172.539 42.0491 171.217L42.0017 170.741C41.8529 169.259 41.7222 167.778 41.6252 166.294C41.281 161.036 41.1555 155.772 41.3133 150.504C41.3936 147.819 41.6407 145.149 41.9332 142.479C42.025 141.646 42.1208 140.814 42.2243 139.984L42.2261 139.689C42.2263 139.594 42.2256 139.504 42.223 139.42L42.1972 138.618C42.1758 137.95 42.1559 137.282 42.1476 136.614L42.1441 136.213L42.1402 135.466C41.501 135.405 40.819 135.194 40.2678 135.091C39.3737 134.925 38.482 134.745 37.593 134.555C35.8125 134.173 34.0513 133.721 32.3018 133.221L31.9297 133.115C30.3154 132.65 28.6789 132.155 27.1516 131.461C26.5538 131.188 25.9573 130.881 25.4332 130.478C25.4021 130.902 25.3543 131.324 25.3258 131.744C25.269 132.574 25.2016 133.402 25.1459 134.233L25.0927 135.023C25.0053 136.339 24.9266 137.655 24.891 138.975C24.7331 144.736 24.706 150.521 25.0113 156.277C25.1627 159.159 25.3788 162.04 25.6907 164.91C25.8434 166.322 26.0051 167.738 26.2044 169.144C26.4102 170.589 26.7816 172.026 26.8954 173.481C27.0041 174.885 24.8535 175.089 24.5002 173.805C24.0772 172.266 23.9694 170.605 23.7465 169.023L23.7212 168.847C23.4741 167.165 23.2761 165.477 23.1053 163.787C22.5155 157.955 22.3625 152.094 22.6718 146.24C22.8188 143.437 23.1674 140.644 23.5894 137.871L23.6384 137.551C23.8305 136.308 24.0103 135.066 24.2278 133.829L24.3113 133.366C24.5067 132.303 24.6568 131.147 24.9738 130.084L24.8796 129.997C24.7034 129.833 24.5124 129.644 24.3734 129.439C23.8946 129.375 23.487 129.031 23.5375 128.408C23.7018 126.358 24.4523 124.273 25.1213 122.338C25.7929 120.393 26.5719 118.484 27.4544 116.624C30.5588 110.088 35.0296 104.153 40.4968 99.3985C43.3967 96.876 46.5748 94.639 50.0868 93.0465C51.8181 92.2599 53.6091 91.6516 55.4854 91.3235C56.4145 91.1608 57.3526 91.0342 58.2973 91.0071C59.0636 90.5555 59.9735 90.7455 60.7156 91.2407L60.7559 91.268H60.7573L60.9474 91.3054C60.994 91.3145 60.9927 91.3881 60.9474 91.3984C60.9448 91.3984 60.9409 91.3997 60.9384 91.401C61.06 91.4966 61.1752 91.5986 61.2826 91.7084C61.6371 92.0701 61.6358 92.5066 61.4534 92.8592C62.5391 93.8641 63.2249 95.1544 63.9431 96.455C64.713 97.8473 65.721 99.0511 66.9478 100.066C71.4445 103.789 78.0582 105.435 83.6923 103.678C87.8357 102.386 91.3749 98.8896 92.3531 94.6804C92.1215 94.763 91.8705 94.7759 91.6324 94.6907C90.5143 94.2928 90.088 93.0731 89.6603 92.0534L89.6396 92.0042C89.2216 91.0161 88.8709 90.0126 88.594 88.9767C88.3147 87.9305 88.1502 86.8262 88.0816 85.7465C88.0551 85.3195 88.0668 84.8926 88.0889 84.4657L88.1085 84.1127C88.1236 83.7928 88.1189 83.4659 88.3883 83.255ZM70.1958 80.376C70.2113 80.3373 70.2721 80.3166 70.2954 80.3631C71.2852 82.4013 70.6358 85.1937 69.7001 87.1375C68.7206 89.1705 67.2454 90.7126 65.4972 92.0468C65.2565 92.2302 65.0092 92.411 64.7583 92.588C63.2999 93.6161 62.0007 90.8443 63.6843 90.3148C65.439 89.4249 66.865 87.8388 67.8561 86.1727C68.3919 85.2724 68.8668 84.3348 69.2305 83.3506C69.5928 82.369 69.8102 81.3473 70.1958 80.376Z" fill="black"/>
<path fill-rule="evenodd" clip-rule="evenodd" d="M99.0106 54.5759C99.0771 51.3349 98.7759 48.0135 97.198 45.1167C95.8279 42.3979 93.7951 40.0412 91.7084 37.8474C90.8378 36.9321 89.6751 36.0098 89.7839 34.6222C89.8982 33.1662 90.7757 30.0122 90.911 28.543C91.1773 25.6542 89.1059 24.8592 86.6842 23.4865C83.7636 21.8309 80.2736 22.0224 77.1079 22.7657C71.2045 24.1717 64.1895 26.5052 61.9586 32.7493C61.4224 34.2892 61.5562 35.91 61.4494 37.5075C61.3494 39.0027 60.7496 40.4268 60.1748 41.7931C57.1359 48.546 57.1634 56.0021 57.7151 63.2503C56.0925 63.6249 54.5235 64.8903 54.1658 66.5693C53.5664 69.5092 56.6555 70.8682 58.48 72.4573C60.7052 74.395 62.3251 76.9032 64.3479 79.0322C77.4736 93.4776 106.437 86.8291 100.416 64.3291C99.5986 61.1317 98.8889 57.8973 99.0106 54.5759Z" fill="white"/>
<path fill-rule="evenodd" clip-rule="evenodd" d="M73.0455 23.077C76.3054 21.8123 79.8288 21.2776 83.3141 21.7257C85.1894 21.9669 87.0075 22.4703 88.7225 23.2693C89.5496 23.6547 90.3431 24.1117 91.0873 24.6396L91.1552 24.688C91.7442 25.1121 92.345 25.6365 92.2762 26.3403C92.3218 26.4877 92.3298 26.6497 92.2937 26.8112C91.7127 29.4138 91.1031 32.0081 90.5015 34.6056C90.3749 35.1516 90.2525 35.6986 90.1311 36.246C94.2253 39.3231 98.0739 43.5298 99.5314 48.5286C100.958 53.4221 100.333 58.5761 100.838 63.5843C100.957 64.7709 101.159 65.9479 101.476 67.0987C101.817 68.3343 102.386 69.5021 102.673 70.7515C103.252 73.265 102.413 75.7326 101.084 77.8638C98.6204 81.8148 94.8987 85.1488 90.5712 86.919C88.3569 87.8247 85.9195 88.317 83.5242 88.2787C81.175 88.2411 78.5007 87.7594 76.534 86.4064C75.2047 85.4919 76.3407 83.6908 77.7708 84.2944L78.1594 84.4578C79.1511 84.8722 80.1356 85.2563 81.1989 85.4767C82.3875 85.7229 83.6088 85.7754 84.8188 85.6997C87.1654 85.553 89.3903 84.7734 91.4157 83.6027C93.2435 82.5461 94.8719 81.1817 96.326 79.6572L96.4879 79.4866C97.8646 78.0289 99.2505 76.3675 100.025 74.5129C100.423 73.5586 100.639 72.5093 100.467 71.4799C100.268 70.2932 99.7381 69.1755 99.4293 68.0158C98.8426 65.8127 98.6446 63.5157 98.5774 61.2428L98.5725 61.0681C98.4479 56.4036 98.8021 51.6799 97.1469 47.2215C95.648 43.1837 92.5582 40.0949 90.0311 36.697C89.907 37.2592 89.7834 37.8217 89.6579 38.3836C89.5081 39.0549 89.3714 39.7306 89.2081 40.3986L89.1958 40.4473C89.245 40.5913 89.2279 40.7551 89.0964 40.8581C89.0819 40.8695 89.0673 40.8793 89.0527 40.8899C88.9188 41.1988 88.7108 41.4358 88.3134 41.5343C87.9329 41.6284 87.6316 41.4679 87.4626 41.1904L85.4762 41.2005C84.2149 41.207 82.8308 41.3516 81.5904 41.0954C81.3996 41.0559 81.4237 40.7854 81.5904 40.7334C82.7625 40.3678 84.1314 40.3766 85.3483 40.2633L87.2662 40.0847C87.3509 40.0769 87.4362 40.0667 87.5218 40.0561L87.6504 40.04L88.3171 37.0791C88.5815 35.9042 88.8585 34.7314 89.1002 33.5518C89.5359 31.4249 90.0136 29.3077 90.4911 27.1901C88.9919 26.8231 87.4614 26.6588 85.9102 26.7242L85.7314 26.7321C85.1304 26.7607 84.486 26.8207 83.9835 27.1689C83.3602 27.6005 83.3152 28.4909 83.1771 29.1775C82.7982 31.0605 82.527 32.9615 82.2893 34.8672C82.1744 35.7888 82.0875 36.7128 81.9857 37.6355C81.9394 38.0542 81.911 38.4799 81.8485 38.8961C81.789 39.2922 81.6467 39.6777 81.5663 40.0692C81.7048 40.6667 80.8753 41.2344 80.4123 40.7035C79.84 40.0473 79.3385 39.3622 78.699 38.7621C78.0575 38.16 77.3565 37.6329 76.6009 37.1812C75.0654 36.2632 73.4701 35.6985 71.7552 35.2213C71.6983 35.2055 71.6661 35.1702 71.6504 35.1294C69.9393 35.614 68.2657 36.2707 66.7127 37.1147C63.1125 39.0716 60.2784 42.4503 59.2045 46.4183C58.5378 48.8822 58.3906 51.4849 58.3816 54.0271C58.3774 55.2072 58.4026 56.4009 58.5895 57.5686C58.7983 58.8715 59.2719 60.0362 59.6535 61.2862C59.7531 61.6126 59.7287 61.904 59.6225 62.1473L59.7198 62.1619C60.4991 62.2835 62.0259 62.6267 62.165 63.4748C62.204 63.7126 62.0707 63.8986 61.8257 63.9192C61.3903 63.956 61.1165 63.6404 60.7688 63.4248C60.7063 63.3862 60.642 63.3507 60.5779 63.3148C60.5614 63.3261 60.5391 63.329 60.5162 63.3159C58.4601 62.1472 55.9473 63.9347 55.4897 66.0086C55.0624 67.9451 55.7896 70.1876 57.6644 71.0341C58.6071 71.4598 59.6096 71.727 60.4772 72.3092C61.2075 72.7993 61.8527 73.3983 62.4154 74.0717C63.5742 75.4579 64.4483 77.0384 65.4749 78.5178C65.9254 79.167 66.4257 79.7805 67.0203 80.3052C67.6716 80.8797 68.5778 81.1064 68.8537 82.0057C68.9612 82.3564 68.7824 82.7775 68.4661 82.956C67.3087 83.6096 65.9976 82.4729 65.188 81.7022C64.3568 80.9111 63.6788 79.9531 63.0565 78.9945C62.0143 77.389 61.1243 75.5574 59.5954 74.3405C58.6777 73.6101 57.5344 73.3339 56.5015 72.8172C55.3163 72.2246 54.4746 71.2535 53.9716 70.0393C53.0457 67.8039 53.2895 64.9541 55.0437 63.1754C55.6133 62.5976 56.3342 62.228 57.089 62.0794C56.3096 60.7184 56.0201 59.0028 55.8246 57.4799C55.6281 55.9499 55.6075 54.4099 55.6884 52.8711L55.7046 52.5721C55.8595 49.8283 56.1715 47.0103 57.1665 44.434C58.0041 42.2656 59.2752 40.2763 60.9642 38.6689C61.1385 38.503 61.3174 38.3406 61.4993 38.1808C61.4505 38.1435 61.4036 38.1034 61.3618 38.0581C60.8886 37.544 60.9899 36.8501 61.053 36.2111C61.123 35.5009 61.2363 34.7927 61.4066 34.0994C62.5945 29.2619 66.2478 25.3151 70.9488 23.6825C71.6276 23.4467 72.3302 23.2437 73.0455 23.077ZM57.2071 65.8847C57.968 65.4049 59.1293 65.5888 59.9225 65.9033C60.8556 66.2731 61.8494 66.963 62.2169 67.9271C62.5572 68.8195 61.2873 69.1359 60.8137 68.5174C60.521 68.1353 60.3044 67.7672 60.0267 67.4341C59.9913 67.4685 59.9576 67.5045 59.9277 67.5438L59.9061 67.5738C59.7883 67.7466 59.5736 67.9263 59.3441 67.8954L59.2821 67.8873C59.0504 67.8563 58.7953 67.7442 58.7313 67.4926L58.725 67.464L58.7165 67.4186C58.6635 67.1391 58.7471 66.8312 59.0156 66.685C59.0336 66.6751 59.052 66.6667 59.0701 66.6574C58.4788 66.3482 57.8689 66.2515 57.2259 66.0286C57.162 66.0064 57.1476 65.9223 57.2071 65.8847ZM78.3612 24.2622C74.3962 24.1628 70.0462 25.3798 67.1153 28.1213C65.7277 29.4195 64.7877 30.9296 63.9448 32.6128C63.5468 33.4075 63.2906 34.288 63.1009 35.1537C62.9971 35.6273 62.9193 36.1051 62.8779 36.5884C62.8699 36.6815 62.8714 36.7798 62.8569 36.872C62.8446 36.9506 62.8298 36.971 62.816 36.9658C62.8228 36.9878 62.8555 37.0326 62.8871 37.0753C65.8558 34.9441 69.5303 33.7036 73.1641 34.5118C73.2798 34.5375 73.2798 34.7196 73.1641 34.7453C72.9783 34.7866 72.793 34.8329 72.6076 34.8782C74.1977 34.9132 75.8316 35.4105 77.205 36.1499C78.5773 36.8888 80.0206 37.9335 81.0154 39.2041C80.987 39.0186 80.9645 38.8324 80.9602 38.644C80.9492 38.1406 80.9608 37.6347 80.9796 37.1318C81.0202 36.041 81.0946 34.9504 81.1844 33.8628L81.224 33.3887C81.385 31.4877 81.583 29.5327 81.968 27.6731C82.1925 26.5886 82.7934 25.9279 83.6011 25.5406C82.1016 24.5742 80.0667 24.305 78.3612 24.2622ZM85.7139 23.6294C83.9271 23.095 82.0671 22.8595 80.2057 22.8917C80.8823 23.0623 81.5373 23.3103 82.1538 23.6527C82.947 24.0933 83.5055 24.6771 84.0056 25.3728C84.4763 25.2093 84.9997 25.119 85.5504 25.08C86.8222 24.99 88.1079 25.0576 89.3713 25.2576C89.1355 25.1127 88.8962 24.9736 88.6531 24.8414C87.7183 24.334 86.7327 23.9341 85.7139 23.6294Z" fill="black"/>
<path fill-rule="evenodd" clip-rule="evenodd" d="M88.8851 79.682C89.8633 79.5461 90.915 78.9932 91.8493 79.4425C92.2861 79.6525 92.4934 80.3708 92.1981 80.77C91.7471 81.3798 91.2815 81.4807 90.5495 81.5393C90.0007 81.5832 89.4489 81.5865 88.9016 81.5233L88.7623 81.5063C87.7856 81.3805 86.7705 81.1084 86.0138 80.4532C85.8591 80.3191 85.9384 80.0296 86.137 79.9877C87.0356 79.799 87.9756 79.8084 88.8851 79.682ZM87.7339 77.4339C87.7335 77.426 87.7455 77.426 87.7459 77.4339C87.7696 77.9919 87.9267 78.5092 88.2171 78.9865C88.2211 78.9934 88.2106 78.9995 88.2066 78.9927C87.9161 78.515 87.7576 77.9924 87.7339 77.4339ZM90.8171 65.9183C91.7943 66.5111 93.2832 67.8935 92.232 69.3632C90.9946 70.6592 89.2131 69.1733 88.3352 68.5013C87.5212 67.9805 86.6066 69.32 87.3618 69.9281C93.7056 74.6159 96.28 66.0733 91.3114 65.2212C90.7643 65.1273 90.5611 65.7349 90.8171 65.9183ZM95.8185 59.2838C96.0479 59.2838 96.2674 59.3615 96.4672 59.5054C96.6639 59.6469 96.842 59.8536 96.9903 60.1113C97.271 60.5989 97.4465 61.2723 97.4465 62.0168C97.4465 62.7613 97.271 63.4346 96.9903 63.9223C96.842 64.18 96.6639 64.3866 96.4672 64.5282C96.2674 64.672 96.0479 64.7498 95.8185 64.7498C95.589 64.7498 95.3696 64.672 95.1697 64.5282C94.973 64.3866 94.7949 64.18 94.6466 63.9223C94.3659 63.4346 94.1905 62.7613 94.1905 62.0168C94.1905 61.2723 94.3659 60.5989 94.6466 60.1113C94.7949 59.8536 94.973 59.6469 95.1697 59.5054C95.3696 59.3615 95.589 59.2838 95.8185 59.2838ZM85.1924 60.0432L85.2787 60.0268C85.7827 59.9354 86.0374 59.9661 86.4763 60.309C86.8061 60.5667 86.7117 61.0741 86.4763 61.3451C86.0663 61.8173 85.6657 61.7337 85.1041 61.7517L85.0646 61.7531C84.5966 61.7721 84.1282 61.7854 83.6597 61.7925C83.5316 61.7946 83.4034 61.7941 83.2753 61.7948C83.2889 62.9781 82.6054 63.8789 81.7053 64.5639C81.1235 65.0068 80.3876 64.4958 80.18 63.9446C80.0083 63.4884 79.9714 62.9274 80.0604 62.428C80.0934 62.2439 80.1622 62.044 80.2673 61.8736L80.2969 61.8279L80.2921 61.7626C80.2909 61.7464 80.2921 61.7308 80.2915 61.7146C79.4559 61.664 78.6252 61.5803 77.7947 61.4752L77.5178 61.4394C76.809 61.3458 75.7679 61.3157 75.1943 60.8555C75.1762 60.8407 75.1827 60.8086 75.2018 60.7984C75.5171 60.6289 75.8371 60.6385 76.1898 60.6228L76.2404 60.6204C76.6239 60.6006 77.0066 60.5842 77.3899 60.571L77.7735 60.5591C78.7546 60.531 79.7367 60.4835 80.7169 60.4314C80.8873 60.4224 81.0577 60.4117 81.2284 60.4012C81.4069 60.3266 81.5966 60.2819 81.7839 60.2736C81.9392 60.2666 82.0885 60.2881 82.2289 60.3326C82.587 60.305 82.9448 60.275 83.3023 60.2426L83.6597 60.2096C84.1641 60.1616 84.6944 60.1407 85.1924 60.0432ZM91.3866 51.1751C92.4649 50.6462 93.776 50.6333 94.8865 51.071L94.9601 51.1008C96.0817 51.5654 97.4332 52.6384 97.1406 53.975C96.8729 55.1984 94.9503 54.9911 94.8529 53.8348C94.2322 52.9764 92.8402 52.7881 91.9652 53.3339C91.4345 53.6651 91.0702 54.2226 90.8213 54.785C90.6091 55.2639 90.5691 55.8553 90.2431 56.2725C90.2325 56.2861 90.2113 56.2885 90.1959 56.2849C89.2238 56.0604 89.2013 54.5187 89.3671 53.7708C89.6079 52.6836 90.3808 51.6688 91.3866 51.1751Z" fill="black"/>
</svg>
