<svg width="182" height="204" viewBox="0 0 182 204" fill="none" xmlns="http://www.w3.org/2000/svg">
<path fill-rule="evenodd" clip-rule="evenodd" d="M130.241 140.794C128.465 132.381 122.167 125.852 113.697 122.6C112.069 121.679 110.491 117.728 108.302 117.004C107.952 116.888 108.505 117.811 108.302 117.867C107.579 118.063 106.768 118.084 105.969 117.374C104.541 116.104 104.093 112.397 103.225 110.721C98.6459 101.882 87.2134 105.34 85.6818 115.111C84.6139 115.807 83.1042 116.42 81.9417 116.981C80.7446 117.559 79.6917 118.958 78.4581 119.458C77.3574 119.904 75.5438 119.588 74.4346 119.977C69.3334 121.767 65.0128 124.025 61.6255 128.599C60.9117 129.564 60.1071 130.751 59.4576 131.725C56.1091 135.58 53.7832 139.901 51.6411 144.536C45.6479 158.142 44.0178 173.207 42.5552 187.866C42.5885 190.431 40.8865 197.544 43.4038 198.773C43.2534 198.929 43.3079 199.242 43.587 199.24C49.97 199.175 56.3382 199.747 62.6222 200.857C65.6541 201.393 68.6698 202.128 71.7581 202.249C78.169 202.204 84.5569 201.13 90.9593 202.147C98.6561 202.147 108.01 201.922 116.573 201.593C124.575 201.286 132.621 201.98 140.524 200.62C141.15 200.521 141.455 199.758 141.324 199.211C140.397 195.832 139.942 192.355 139.421 188.896C139.525 186.678 139.34 184.363 138.519 182.297C136.375 168.349 133.626 154.493 130.241 140.794Z" fill="white"/>
<path fill-rule="evenodd" clip-rule="evenodd" d="M127.657 159.127C127.489 159.947 127.252 160.767 126.937 161.544C126.634 162.293 126.177 162.965 125.863 163.706C125.82 163.806 125.751 163.881 125.668 163.939L125.694 164.14L125.718 164.342C125.875 165.701 126.051 167.057 126.204 168.417L126.278 169.097C126.579 171.936 127.054 174.761 127.422 177.592C127.783 180.364 128.15 183.137 128.543 185.905C128.948 188.759 129.361 191.61 129.844 194.452C130.047 195.653 130.26 196.852 130.481 198.051L130.652 198.968C132.413 199.392 132.894 201.846 131.101 202.751C130.288 203.161 129.243 203.062 128.572 202.419C127.875 201.748 127.846 200.539 127.685 199.631L127.529 198.787C126.363 192.441 125.352 186.022 124.879 179.586C124.757 177.925 124.655 176.261 124.588 174.597C124.525 173.031 124.555 171.466 124.531 169.9L124.523 169.473C124.486 167.804 124.517 166.137 124.56 164.467C124.565 164.264 124.574 164.06 124.584 163.856C124.526 163.786 124.483 163.705 124.466 163.625L124.442 163.52C124.385 163.25 124.45 162.934 124.657 162.741C124.747 161.604 124.865 160.468 124.897 159.332C124.899 159.238 125.033 159.241 125.041 159.332C125.117 160.299 125.268 161.269 125.419 162.237C126.39 161.457 127.107 160.17 127.531 159.093C127.561 159.015 127.675 159.043 127.657 159.127ZM104.684 113.913C104.845 114.65 105.164 115.311 105.591 115.927C105.795 116.221 106.026 116.495 106.304 116.724C106.542 116.919 106.813 117.047 107.066 117.217C107.435 117.16 107.82 117.299 108.078 117.57L108.037 117.174C108.024 117.046 108.237 117.02 108.261 117.144C109.38 122.789 110.401 128.437 111.285 134.123L111.672 136.634L112.036 138.991C112.642 142.918 113.227 146.845 113.668 150.801C114.255 156.081 114.749 161.375 115.109 166.677C115.471 172.015 115.694 177.358 115.853 182.707C115.892 184.055 115.935 185.402 115.975 186.751L116.249 185.139C116.521 183.526 116.789 181.912 117.018 180.293C117.841 174.496 118.498 168.658 118.819 162.812C119.114 157.462 119.015 152.005 117.654 146.793C117.311 145.482 116.891 144.191 116.385 142.933C115.894 141.71 115.223 140.577 114.695 139.372C114.081 137.97 113.896 136.647 114.213 135.137C114.489 133.822 114.974 132.585 115.061 131.231C115.223 128.719 114.406 126.285 113.251 124.086C112.946 123.507 112.625 122.935 112.29 122.368C111.275 120.655 110.131 119.004 108.944 117.422C108.88 117.338 109.016 117.244 109.085 117.313C110.167 118.383 111.351 119.434 112.324 120.602C112.798 121.171 113.259 121.75 113.697 122.345C118.497 123.147 122.622 126.137 125.441 130.085C128.641 134.565 130.259 139.958 131.457 145.268C132.789 151.17 133.912 157.125 135.108 163.056C136.346 169.193 137.578 175.33 138.824 181.466C139.444 184.512 140.063 187.558 140.681 190.605C140.994 192.148 141.323 193.687 141.667 195.225C141.844 196.013 142.033 196.8 142.197 197.591C142.381 198.482 142.21 199.053 141.606 199.708C141.383 199.951 141.031 199.947 140.755 199.818L140.669 199.777L140.585 199.737C140.243 199.569 139.975 199.395 139.762 199.021C139.528 198.61 139.491 198.155 139.411 197.698C139.262 196.857 139.115 196.017 138.967 195.175C138.745 193.916 138.504 192.661 138.258 191.406L137.027 185.134C136.699 183.462 136.37 181.79 136.039 180.119C134.858 174.142 133.676 168.166 132.494 162.19C131.36 156.452 130.355 150.675 129.063 144.97L128.99 144.649L128.915 144.328C127.76 139.41 126.145 134.653 123.216 130.485C120.962 127.281 117.832 124.419 114.145 122.97C114.405 123.344 114.654 123.725 114.892 124.114C116.386 126.555 117.477 129.453 117.222 132.36C117.096 133.78 116.556 135.175 116.607 136.607C116.655 137.879 117.442 138.996 117.985 140.102C119.22 142.61 120.113 145.275 120.689 148.008C121.844 153.498 121.84 159.146 121.442 164.719C121.01 170.777 120.188 176.833 119.253 182.832C118.773 185.909 118.135 188.96 117.646 192.032C117.405 193.547 117.076 195.058 116.788 196.565L116.651 197.285C116.574 197.684 116.494 198.083 116.402 198.477L116.345 198.712V198.755C116.343 199.045 116.263 199.286 116.135 199.478C115.96 200.039 115.743 200.587 115.454 201.113C115.305 201.381 115.09 201.532 114.856 201.587C114.621 202.126 114.087 202.54 113.45 202.538L105.072 202.506C100.205 202.487 95.3384 202.455 90.4718 202.428C89.2437 202.421 88.0168 202.398 86.79 202.366C85.6398 202.334 84.537 202.196 83.3997 202.053C82.1151 201.892 81.4193 200.982 81.6112 199.699C81.6534 199.416 81.6993 199.135 81.743 198.853C81.4871 198.938 81.1826 198.898 80.9766 198.697L80.7835 198.508C80.5158 198.243 80.2764 197.983 80.1067 197.63C79.9314 197.267 79.7893 196.883 79.6345 196.512C79.3006 195.714 78.9757 194.913 78.6596 194.108C78.0265 192.499 77.3932 190.883 76.8046 189.257C75.6392 186.037 74.6079 182.768 73.7113 179.462C72.1121 173.565 70.9554 167.553 70.2262 161.488L70.0519 160.042L70.0012 159.615C69.7246 157.264 69.4919 154.877 69.6019 152.531C69.6698 151.062 69.8974 149.582 70.4464 148.211C70.9529 146.945 71.7345 145.863 72.4778 144.732L72.5629 144.602L72.6484 144.468C73.2985 143.441 73.8157 142.367 73.8416 141.119C73.8679 139.853 73.4991 138.621 73.0867 137.436L72.9839 137.144L72.915 136.95C72.0377 134.501 71.0394 132.086 71.3687 129.421C71.8549 125.496 74.2344 122.332 77.2282 119.892C74.5657 120.42 71.9304 121.461 69.6046 122.781C66.8577 124.342 64.3847 126.402 62.2521 128.726C58.2221 133.119 55.3449 138.39 52.9898 143.833C50.5244 149.528 48.6962 155.497 47.3185 161.543C45.9329 167.623 45.0054 173.801 44.372 180.004C44.0561 183.091 43.8078 186.185 43.602 189.281C43.4971 190.868 43.4177 192.457 43.2949 194.04C43.1721 195.623 43.117 197.23 42.7306 198.77C42.5502 199.488 41.3336 199.561 41.2032 198.77C40.9139 197.004 40.9947 195.178 41.0755 193.391L41.0828 193.228C41.1623 191.447 41.2659 189.668 41.3886 187.888C41.6395 184.251 41.9745 180.619 42.4121 176.998C43.946 164.289 46.7747 151.647 52.3232 140.046C54.9356 134.582 58.2888 129.273 62.9533 125.327C65.1741 123.45 67.6778 121.952 70.3759 120.867C72.7888 119.896 75.2401 119.437 77.8039 119.438C79.0896 118.453 80.47 117.595 81.849 116.862C81.9322 116.817 82.0192 116.924 81.9502 116.993C81.9144 117.028 81.8797 117.064 81.844 117.097C82.0001 117.107 82.1612 117.18 82.3057 117.332C82.8125 117.863 83.2398 118.527 83.6222 119.217C84.2043 119.944 84.7595 120.694 85.3405 121.413C86.2704 122.565 87.2222 123.7 88.1857 124.825C89.8037 126.718 91.4745 128.574 93.2167 130.355L93.5078 130.652C94.4109 131.566 95.3257 132.661 96.3938 133.386L96.4509 133.423C96.9015 133.717 97.2211 133.77 97.6054 133.332C97.9548 132.933 98.2456 132.47 98.5445 132.03L98.6136 131.928C100.14 129.711 101.555 127.412 102.835 125.046C103.419 123.969 103.974 122.876 104.501 121.771L104.659 121.439C104.945 120.83 105.256 120.233 105.493 119.606C105.548 119.459 105.601 119.312 105.654 119.166C104.848 118.637 104.224 117.494 103.997 116.598C103.762 115.668 103.881 114.714 104.3 113.863C104.379 113.703 104.646 113.743 104.684 113.913ZM64.9245 151.708C64.813 155.244 64.7454 158.784 64.5789 162.318L64.5215 163.524C64.781 163.813 64.9333 164.147 64.8118 164.605C64.7645 164.781 64.625 164.939 64.451 164.998L64.3967 166.12C64.1498 171.166 63.8604 176.202 63.3316 181.235C62.6701 187.535 61.9051 193.824 61.1414 200.112C61.0327 201.003 60.4134 201.709 59.45 201.578C58.4753 201.446 58.08 200.598 58.2079 199.714C58.7107 196.246 59.1942 192.775 59.6178 189.295L60.1001 185.331C60.7048 180.375 61.3238 175.42 62.037 170.48C62.3351 168.415 62.6447 166.352 62.9554 164.288L62.8468 164.147C62.4028 163.57 61.9435 163.006 61.4893 162.438C60.6169 161.343 59.7559 160.257 58.9563 159.11C58.9165 159.053 58.9973 158.968 59.0547 159.012C60.1754 159.84 61.2361 160.725 62.3031 161.624L63.237 162.415C63.7743 158.849 64.3065 155.283 64.781 151.708C64.7927 151.619 64.927 151.612 64.9245 151.708ZM81.0456 117.867C80.3713 118.503 79.6818 119.125 79.0024 119.757L78.7535 119.989L78.5058 120.223C77.3117 121.355 76.1676 122.534 75.2144 123.888C73.4642 126.374 72.4216 129.404 73.1494 132.439C73.7534 134.953 75.1389 137.231 75.5112 139.808C75.6978 141.099 75.6071 142.396 75.1208 143.615C74.6245 144.859 73.8313 145.924 73.1187 147.046C71.5707 149.485 71.3596 152.161 71.5132 154.986C71.6744 157.936 72.0133 160.887 72.4318 163.811C73.2786 169.734 74.5554 175.596 76.2454 181.337C77.0911 184.211 78.0902 187.025 79.0844 189.849C79.5793 191.255 80.1564 192.628 80.7512 193.994C81.0647 194.713 81.3859 195.428 81.7121 196.142C81.5917 195.134 81.5917 194.099 81.5329 193.098C81.4485 191.662 81.341 190.229 81.2425 188.795C81.0418 185.885 80.8626 182.972 80.7027 180.058C80.136 169.67 79.7189 159.273 79.7495 148.868C79.765 143.665 79.8712 138.462 80.095 133.264C80.2 130.816 80.4032 128.371 80.5869 125.926L80.626 125.403C80.7884 123.208 80.9829 121.009 81.3167 118.834C81.2179 118.611 81.1321 118.386 81.0684 118.154L81.0456 118.067L81.0622 118.069C81.0469 118.001 81.0418 117.934 81.0456 117.867ZM86.8759 108.927C86.8898 108.867 86.9755 108.872 86.9909 108.927C87.3708 110.206 87.2365 111.614 86.9091 112.901C86.7326 113.598 86.4818 114.275 86.1786 114.927L86.0725 115.155C85.8127 115.711 85.5202 116.284 85.0143 116.63C84.8033 116.774 84.4258 116.783 84.2147 116.63L84.107 116.548C84.0893 116.534 84.0718 116.52 84.0548 116.506C83.8579 116.341 83.7605 115.976 83.8514 115.736C84.0855 115.115 84.6165 114.66 84.9836 114.107C85.3087 113.616 85.5965 113.098 85.8356 112.559C86.3512 111.394 86.5828 110.156 86.8759 108.927Z" fill="black"/>
<path fill-rule="evenodd" clip-rule="evenodd" d="M89.9215 63.5534C109.312 62.5998 118.063 76.2526 118.629 82.3507C119.022 86.5837 116.521 91.4628 116.521 95.2453C116.521 97.1761 118.885 101.321 117.784 104.135C115.335 110.399 110.148 117.35 103.539 117.35C96.9299 117.35 88.3286 119.178 81.0258 108.722C80.3406 107.741 71.6738 102.164 70.8319 96.8659C68.7345 83.6676 76.0852 64.2338 89.9215 63.5534Z" fill="white"/>
<path fill-rule="evenodd" clip-rule="evenodd" d="M89.0066 55.0565C89.7 54.2633 90.8706 53.946 91.9107 54.0074C93.4216 54.097 94.7356 55.0296 96.2388 55.0987C97.8148 55.1716 99.336 54.6253 100.916 54.8786C101.884 55.0347 102.844 55.4838 103.464 56.2411C105.614 55.6258 107.947 56.4407 109.316 58.2203C111.005 57.958 112.842 59.0763 113.359 60.7035C115.504 60.7726 117.529 62.4958 117.769 64.6554C118.626 64.8818 119.37 65.473 119.827 66.2545C120.358 67.1603 120.446 68.1991 120.35 69.2201C121.36 69.7356 121.873 70.8435 122.007 72.0154C122.93 72.7037 123.33 73.9408 123.142 75.1089C123.848 75.5067 124.213 76.433 124.209 77.2594C124.205 78.0309 124.001 78.7142 124.288 79.4586C124.545 80.1217 124.637 80.6743 124.496 81.3688L124.481 81.4365C124.456 81.5497 124.435 81.6583 124.417 81.7654C124.608 81.933 124.769 82.1431 124.891 82.3874C125.333 83.2804 125.267 84.2989 124.93 85.2045C125.077 85.7812 125.059 86.3905 124.84 86.9448C125.249 87.5339 125.464 88.2565 125.401 89.0062C125.33 89.8456 124.947 90.5972 124.366 91.1529C124.521 92.2995 124.054 93.5383 123.211 94.3455C123.331 95.0319 123.228 95.7513 122.852 96.4019C122.585 96.8657 122.224 97.2111 121.809 97.4519C121.822 97.8348 121.771 98.2264 121.643 98.6188C121.466 99.1633 121.167 99.6649 120.772 100.069C121.008 101.573 120.107 103.242 118.522 103.664C118.389 103.7 118.262 103.716 118.14 103.719C117.982 105.165 117.638 106.592 117.106 107.947C115.752 111.397 113.291 114.414 110.081 116.296C108.493 117.226 106.71 117.863 104.89 118.129C103.58 118.321 102.319 118.274 101.004 118.143C99.3539 117.978 97.6959 117.731 96.0916 117.307L95.8335 117.238C95.1685 117.06 94.4673 116.854 93.8911 116.496C93.2463 116.094 92.9113 115.475 92.7629 114.745C92.68 114.34 92.9371 113.903 93.3815 113.895L93.4101 113.895C93.5073 113.897 93.6037 113.893 93.7013 113.887L93.7748 113.882H93.7785C93.7836 113.881 93.7863 113.881 93.7913 113.881C93.8348 113.874 93.877 113.861 93.9192 113.855C94.4081 113.773 94.8356 113.854 95.2946 114.007L95.3521 114.026C96.1248 114.292 96.8912 114.539 97.6895 114.722C98.5146 114.91 99.35 115.06 100.188 115.178L100.271 115.188L100.297 115.192L100.31 115.193C100.312 115.193 100.315 115.193 100.317 115.194L100.564 115.225C100.759 115.248 100.953 115.269 101.148 115.289C101.506 115.325 101.864 115.353 102.222 115.374C108.405 115.722 113.598 110.854 115.165 105.017C115.733 102.905 115.77 100.798 115.603 98.6897C115.549 98.5361 115.517 98.366 115.518 98.1792C115.518 98.082 115.524 97.986 115.53 97.8888C115.321 95.8495 114.959 93.809 114.733 91.762C114.468 89.3709 114.321 86.9659 114.375 84.5593C114.401 83.3708 114.528 82.1938 114.694 81.017L114.755 80.5942C114.003 80.4474 113.304 80.091 112.748 79.575C111.54 80.2723 109.978 80.3341 108.786 79.5978C107.45 80.4354 105.584 80.5114 104.239 79.6925C103.426 80.2728 102.402 80.5232 101.397 80.3029C100.944 80.2038 100.495 79.9895 100.11 79.6929C99.8347 79.7414 99.5561 79.7602 99.2792 79.7457L99.222 79.7777C98.5836 80.1141 97.8764 80.3356 97.1486 80.3109C96.6097 80.2927 96.0546 80.1864 95.5407 79.9853C94.9917 80.3167 94.3909 80.5429 93.7482 80.624C92.8095 80.7423 91.7966 80.5347 91.0159 80.0022C89.5893 80.8148 87.8346 80.94 86.2948 80.3939C85.9794 80.9281 85.543 81.3886 85.0321 81.7436C85.1235 82.0714 85.1527 82.4209 85.1212 82.757C85.0695 83.3102 84.9309 83.8062 84.704 84.2517C84.9431 84.7491 85.015 85.3598 84.8812 85.9729C84.6905 86.8472 84.1818 87.6078 83.5232 88.2001C83.4651 89.5953 82.6999 90.9036 81.4546 91.6304C81.3916 91.6671 81.3289 91.697 81.2663 91.724C81.2113 91.7993 81.1455 91.8654 81.0704 91.9212C80.2785 92.6528 79.0253 92.5946 78.0327 92.1813C78.0135 92.1822 77.9944 92.1838 77.975 92.1842C77.6204 92.1932 77.3788 92.055 77.2354 91.8516C77.0909 91.8594 76.9475 91.8746 76.8031 91.9015C76.2759 92 75.6976 92.1893 75.2204 92.4351C73.982 93.0721 73.4089 94.1979 73.2374 95.5514C73.0508 97.0278 73.4754 98.5323 74.618 99.5315C75.1731 100.018 75.8831 100.322 76.6047 100.45C77.4017 100.592 78.2537 100.243 78.8422 100.927C78.9599 101.063 79.0405 101.252 78.9765 101.435C78.777 102.006 78.4482 102.224 77.9339 102.304C78.6772 103.185 79.4397 104.037 80.284 104.829C81.1975 105.688 82.1416 106.519 82.9657 107.466C83.8368 108.468 84.6236 109.53 85.1698 110.745C85.482 111.443 85.7327 112.164 86.0028 112.879L86.051 113.003C86.3522 113.763 86.7527 114.496 86.2893 115.289C86.105 115.601 85.688 115.903 85.3042 115.853C84.2233 115.715 83.8612 114.985 83.5284 114.033C83.2777 113.314 83.0858 112.574 82.816 111.862C82.7654 111.73 82.7104 111.599 82.6527 111.469C82.0294 111.643 81.3441 111.505 80.7878 111.15C80.1935 111.413 79.535 111.545 78.899 111.533C78.0475 111.519 77.2695 111.282 76.6007 110.855C76.5475 110.841 76.494 110.828 76.4409 110.812C75.4234 111.202 74.2319 111.133 73.3106 110.501C72.714 110.092 72.3062 109.546 72.0744 108.938C71.3036 108.923 70.5411 108.65 69.9888 108.103C69.4817 107.601 69.1852 106.954 69.0972 106.281C68.4338 106.149 67.8117 105.829 67.3239 105.288C66.9166 104.837 66.669 104.262 66.5854 103.666C65.7773 103.435 65.0486 102.908 64.6506 102.172C64.2803 101.487 64.2268 100.744 64.4079 100.068L64.361 100.001C63.5286 99.5652 62.8934 98.8521 62.8282 97.8335C62.8098 97.5435 62.841 97.2533 62.9197 96.9788C62.8913 96.6719 62.9094 96.3651 62.9899 96.0683C61.8705 94.9796 61.4649 93.2307 62.0726 91.7851C60.9788 90.6081 60.6897 88.7466 61.4918 87.3497C60.9417 86.6843 60.659 85.8361 60.7063 84.9304C60.7651 83.7995 61.2833 82.8118 61.9037 81.897C61.4432 81.3879 61.1976 80.6778 61.2156 79.9921C61.2411 78.9981 61.7694 78.1422 62.431 77.4334C61.8539 75.6833 62.4986 73.7847 63.9149 72.6768C63.6283 72.2048 63.5221 71.6201 63.6156 71.0278C63.7793 69.9928 64.5558 69.2879 65.3938 68.7301C65.2185 68.1596 65.2646 67.5441 65.5435 66.9543C65.9158 66.1675 66.6181 65.6686 67.3512 65.2464C67.5405 63.5014 69.4902 62.011 71.1252 62.9116C70.7197 61.6131 71.8879 60.2109 73.2312 60.0625C73.8886 58.0693 76.1569 56.813 78.1962 57.3081C79.2388 55.8829 81.1796 55.3342 82.8274 55.9456C84.639 54.5575 86.8867 54.3516 89.0066 55.0565ZM76.1019 94.1927C77.3748 94.1237 78.3292 95.1625 78.9997 96.113C79.629 97.0047 78.0145 97.9463 77.5437 96.9638C77.3748 96.6133 77.1829 96.2422 76.9258 95.9352C76.8826 95.9957 76.8444 96.0583 76.8065 96.1225L76.7684 96.1872C76.7403 96.2346 76.7108 96.2832 76.6865 96.3331C76.6891 96.342 76.6507 96.4597 76.6494 96.4648C76.5445 96.7834 76.3155 96.9881 76.0035 97.0981C75.6004 97.2388 75.2191 96.9356 75.0899 96.58C74.8841 96.012 75.3624 95.5169 75.8601 95.2917C75.3714 95.2124 74.8903 95.3787 74.5372 95.7548C74.4887 95.8073 74.4067 95.765 74.4043 95.6998C74.3632 94.8081 75.2959 94.2362 76.1019 94.1927Z" fill="black"/>
<path fill-rule="evenodd" clip-rule="evenodd" d="M106.62 105.091C106.817 104.749 107.268 104.433 107.682 104.482C109.534 104.699 109.531 106.945 108.816 108.256C108.182 109.418 106.869 110.101 105.556 110.001C104.175 109.896 103 109.085 102.482 107.794C102.14 106.94 101.982 105.364 102.892 104.79C102.909 104.779 102.937 104.782 102.95 104.797C103.387 105.305 103.404 106.067 103.786 106.633C104.142 107.158 104.694 107.593 105.341 107.66C105.824 107.71 106.312 107.536 106.501 107.102C106.604 106.867 106.592 106.74 106.553 106.578L106.519 106.438C106.398 105.947 106.343 105.573 106.62 105.091ZM107.115 95.2416C108.081 95.8288 109.553 97.1981 108.514 98.6539C107.29 99.9375 105.529 98.4658 104.661 97.8002C103.856 97.2843 102.952 98.611 103.699 99.2134C109.97 103.857 112.516 95.3952 107.603 94.5512C107.063 94.4582 106.862 95.0599 107.115 95.2416ZM96.9148 91.2151C97.5078 90.3255 98.8613 90.4565 99.1879 91.5122C99.3649 92.0841 99.1205 92.5981 99.1332 93.1692C99.1438 93.6516 99.1122 94.1892 98.9643 94.6564C98.6271 95.7219 97.6688 96.4744 96.5352 96.4432C95.4053 96.4121 94.4101 95.6969 93.9369 94.6897C93.462 93.6786 93.5625 92.6323 93.9092 91.6042C93.9259 91.5548 93.9906 91.5309 94.0296 91.5725C94.4395 92.008 94.7395 92.4677 95.0499 92.9554L95.368 93.4553C95.6111 93.8317 95.9645 94.3125 96.4184 94.2823L96.4865 94.2756C96.6127 94.2647 96.5934 94.2898 96.6907 94.1178C96.7357 94.0383 96.7275 93.8904 96.7493 93.7965L96.7568 93.7647L96.7527 93.7476C96.7431 93.7022 96.7336 93.6165 96.7258 93.4678L96.7242 93.4349C96.6913 92.7393 96.4947 91.8455 96.9148 91.2151ZM111.945 91.8074C111.839 90.6695 113.439 90.4169 113.971 91.2588C114.248 91.6979 114.329 92.2494 114.39 92.7719L114.419 93.0199C114.482 93.5566 114.507 94.1149 114.274 94.6155C113.907 95.404 113.109 95.8208 112.248 95.7548C111.426 95.6916 110.676 95.215 110.281 94.4916C109.928 93.846 109.578 92.5856 110.006 91.9123C110.032 91.8715 110.084 91.8662 110.119 91.8977C110.524 92.2568 110.589 92.9118 110.83 93.3797C111.078 93.8623 111.454 94.3325 112.024 94.4059C112.57 94.476 112.778 94.178 112.639 93.658C112.46 92.9866 112.013 92.5298 111.945 91.8074ZM97.3458 84.4503L97.6074 84.3501C98.5037 84.0115 99.7343 83.6201 100.463 84.349C100.913 84.7984 100.998 85.4605 100.677 86.0089C100.288 86.6733 99.5911 86.6897 98.9177 86.7875C98.1517 86.8988 97.3728 87.1104 96.6597 87.4121C95.8564 87.752 95.1109 88.1757 94.3805 88.649C93.6863 89.0987 92.9946 89.8336 92.1637 89.9722C92.1298 89.9778 92.0913 89.9632 92.0824 89.926C91.8937 89.1136 92.4181 88.3142 92.8861 87.6804C93.4523 86.913 94.1385 86.2832 94.9053 85.7185C95.6454 85.1734 96.491 84.7795 97.3458 84.4503ZM113.627 87.3385L113.707 87.3245C114.251 87.2341 114.743 87.2549 115.153 87.6854C115.465 88.0138 115.586 88.4394 115.437 88.8736C115.299 89.2742 114.992 89.6811 114.545 89.7651C113.038 90.0486 111.369 90.0017 109.855 89.7871C109.162 89.6888 108.463 89.5686 107.788 89.379L107.477 89.289C106.914 89.128 106.269 88.9599 105.86 88.5455C105.712 88.3966 105.797 88.1834 105.973 88.1145C106.687 87.8348 107.666 87.9836 108.428 87.9617C109.314 87.9364 110.201 87.87 111.082 87.7785C111.944 87.689 112.777 87.4944 113.627 87.3385Z" fill="black"/>
<path d="M8 77.5L27.2492 82.9998C28.0078 83.2165 28.7068 82.5106 28.4827 81.7542L25.5346 71.8044C25.307 71.036 26.0304 70.3254 26.7946 70.5667L44 76" stroke="black" stroke-width="5" stroke-linecap="round"/>
<path d="M46.6337 38.2228L54.1799 48.0601C54.6636 48.6907 55.6541 48.5323 55.917 47.7824L58.4404 40.5862C58.7084 39.8218 59.7265 39.6766 60.1976 40.3356L66.6725 49.3944" stroke="#FAC917" stroke-width="5" stroke-linecap="round"/>
<path d="M145.594 50.8285L136.961 53.8116C136.21 54.0712 136.047 55.0609 136.676 55.5474L140.64 58.6168C141.28 59.1128 141.096 60.1246 140.322 60.3632L132.541 62.7609" stroke="#FAC917" stroke-width="5" stroke-linecap="round"/>
<path d="M24.8086 140.044L38.6638 134.684C39.4004 134.399 39.5314 133.413 38.8948 132.945L32.3569 128.145C31.7092 127.669 31.8585 126.663 32.6162 126.396L45.211 121.956" stroke="#FAC917" stroke-width="5" stroke-linecap="round"/>
<path d="M135.888 122.891L145.672 130.897C146.285 131.398 146.099 132.38 145.344 132.623L138.373 134.863C137.605 135.11 137.431 136.119 138.071 136.609L147.081 143.507" stroke="#FAC917" stroke-width="5" stroke-linecap="round"/>
<path d="M167.132 118.463L148.126 112.173C147.377 111.925 147.197 110.948 147.808 110.449L155.845 103.885C156.466 103.378 156.268 102.384 155.5 102.153L138.221 96.9589" stroke="black" stroke-width="5" stroke-linecap="round"/>
<path d="M163.905 57.5425C164.053 56.8456 164.862 56.5227 165.449 56.926L176.804 64.7218C177.463 65.1742 177.351 66.1785 176.609 66.4749L162.391 72.1519C161.648 72.4483 160.876 71.7971 161.042 71.0153L163.905 57.5425Z" fill="#262A32"/>
<path d="M49.8575 102.004C50.416 101.562 51.2448 101.829 51.4402 102.514L53.4107 109.423C53.6299 110.192 52.9034 110.894 52.1426 110.65L44.5405 108.202C43.7797 107.957 43.5995 106.963 44.2259 106.466L49.8575 102.004Z" fill="#262A32"/>
<path d="M79.6219 29.4007C78.9542 29.6493 78.2481 29.1399 78.2735 28.4278L78.9923 8.32796C79.0209 7.52919 79.9286 7.08508 80.5768 7.55275L98.7062 20.6334C99.3543 21.1011 99.2191 22.1026 98.47 22.3815L79.6219 29.4007Z" fill="#262A32"/>
<path d="M33.8387 35.606C34.5207 35.812 34.7746 36.6449 34.3235 37.1964L30.2271 42.2045C29.721 42.8231 28.7296 42.6275 28.4965 41.8629L26.3993 34.9839C26.1663 34.2194 26.8799 33.5039 27.6451 33.735L33.8387 35.606Z" fill="#262A32"/>
<rect x="115.156" y="25" width="6" height="6" transform="rotate(21.0578 115.156 25)" fill="#FAC917"/>
<path d="M2.15586 67L7.75517 69.1559L5.59931 74.7552L0 72.5993L2.15586 67Z" fill="#FAC917"/>
<path d="M12.3816 111.248L22.7414 118.325L15.6647 128.685L5.30488 121.608L12.3816 111.248Z" fill="#262A32"/>
<rect x="170.156" y="88" width="6" height="6" transform="rotate(21.0578 170.156 88)" fill="#FAC917"/>
</svg>
