<svg width="30" height="30" viewBox="0 0 30 30" fill="none" xmlns="http://www.w3.org/2000/svg"><circle cx="15" cy="15" r="14.5" stroke="#111"/><path d="M14.162 9.037c.263-.037.534-.001.788.078.221.073.425.196.592.358a8035.92 8035.92 0 0 1 4.971 4.972c.279.283.438.675.441 1.071.008.328-.09.656-.266.932-.09.142-.205.266-.325.382l-4.618 4.617c-.17.176-.376.32-.603.409a1.633 1.633 0 0 1-1.371-.063 1.653 1.653 0 0 1-.408-.312 7841.51 7841.51 0 0 0-4.85-4.853 1.693 1.693 0 0 1-.309-.397 1.592 1.592 0 0 1-.171-.5 1.66 1.66 0 0 1-.013-.583c.197-1.358.397-2.716.594-4.073a1.717 1.717 0 0 1 1.439-1.437c1.37-.201 2.74-.402 4.109-.601zm-1.371 2.89a2.002 2.002 0 0 0-1.802 1.41 2.008 2.008 0 0 0 .4 1.895 2.005 2.005 0 0 0 2.48.442 2.002 2.002 0 0 0-.157-3.578 2.008 2.008 0 0 0-.921-.169zm4.002 2.435a.33.33 0 0 0-.169.095l-3.195 3.195a.33.33 0 0 0-.048.408.323.323 0 0 0 .28.151.322.322 0 0 0 .231-.096l3.202-3.204a.333.333 0 0 0 .074-.349.328.328 0 0 0-.375-.2zm1.136 1.138a.34.34 0 0 0-.174.1l-3.182 3.183a.331.331 0 0 0-.071.383.323.323 0 0 0 .514.096l3.22-3.22a.32.32 0 0 0 .089-.239.321.321 0 0 0-.396-.303z" fill="#111"/><path d="M12.76 12.592a1.349 1.349 0 1 1-.41 2.526 1.345 1.345 0 0 1-.377-2.092c.203-.229.486-.385.788-.434z" fill="#111"/></svg>