<svg width="30" height="30" viewBox="0 0 30 30" fill="none" xmlns="http://www.w3.org/2000/svg"><path d="M10.293 16.7C5.989 18.921 8 20.9 8 20.9c5.568 4.261 14.845-5.638 14.845-5.638-6.056 5.275-11.46 5.275-11.46 5.275-4.04-.173-1.093-3.839-1.093-3.839zm5.758-9.666l-7.427 5.758v1.56l7.67-5.581 7.175 5.58v-1.559L16.05 7.034zm6.107 1.672h-2.343v.603l2.342 1.859V8.706zm-.4 6.89v-2.18l-5.483-4.203-5.485 4.203v5.944s0 .072.032.187c.263.07.58.116.958.135-.001 0 4.549 0 9.978-4.087zm-5.483-2.865h.787v1.041h-.788v-1.041zm-.015 1.203h.784v1.034h-.784v-1.034zM15.22 12.73h.83v1.041h-.83v-1.041zm-.018 1.203h.827v1.034h-.827v-1.034z" fill="#111"/><circle cx="15" cy="15" r="14.5" stroke="#111"/></svg>