<svg width="12" height="192" viewBox="0 0 12 192" fill="none" xmlns="http://www.w3.org/2000/svg">
<path opacity="0.6" d="M6 0.226497L0.226497 6L6 11.7735L11.7735 6L6 0.226497ZM6.00001 191.774L11.7735 186L6.00001 180.227L0.226505 186L6.00001 191.774ZM5 6L5 7.95652L7 7.95652L7 6L5 6ZM5 11.8696L5 15.7826L7 15.7826L7 11.8696L5 11.8696ZM5 19.6957L5 23.6087L7 23.6087L7 19.6957L5 19.6957ZM5 27.5217L5 31.4348L7 31.4348L7 27.5217L5 27.5217ZM5 35.3478L5 39.2609L7 39.2609L7 35.3478L5 35.3478ZM5 43.1739L5 47.087L7 47.087L7 43.1739L5 43.1739ZM5 51L5 54.9131L7 54.9131L7 51L5 51ZM5 58.8261L5 62.7391L7 62.7391L7 58.8261L5 58.8261ZM5 66.6522L5 70.5652L7 70.5652L7 66.6522L5 66.6522ZM5 74.4783L5 78.3913L7 78.3913L7 74.4783L5 74.4783ZM5 82.3044L5 86.2174L7 86.2174L7 82.3044L5 82.3044ZM5 90.1304L5 94.0435L7 94.0435L7 90.1304L5 90.1304ZM5 97.9565L5 101.87L7 101.87L7 97.9565L5 97.9565ZM5 105.783L5 109.696L7 109.696L7 105.783L5 105.783ZM5 113.609L5 117.522L7 117.522L7 113.609L5 113.609ZM5.00001 121.435L5.00001 125.348L7.00001 125.348L7.00001 121.435L5.00001 121.435ZM5.00001 129.261L5.00001 133.174L7.00001 133.174L7.00001 129.261L5.00001 129.261ZM5.00001 137.087L5.00001 141L7.00001 141L7.00001 137.087L5.00001 137.087ZM5.00001 144.913L5.00001 148.826L7.00001 148.826L7.00001 144.913L5.00001 144.913ZM5.00001 152.739L5.00001 156.652L7.00001 156.652L7.00001 152.739L5.00001 152.739ZM5.00001 160.565L5.00001 164.478L7.00001 164.478L7.00001 160.565L5.00001 160.565ZM5.00001 168.391L5.00001 172.304L7.00001 172.304L7.00001 168.391L5.00001 168.391ZM5.00001 176.217L5.00001 180.13L7.00001 180.13L7.00001 176.217L5.00001 176.217ZM5.00001 184.043L5.00001 186L7.00001 186L7.00001 184.043L5.00001 184.043Z" fill="#111111"/>
</svg>
