<svg width="12" height="129" viewBox="0 0 12 129" fill="none" xmlns="http://www.w3.org/2000/svg">
<path opacity="0.6" d="M6 0.226497L0.226497 6L6 11.7735L11.7735 6L6 0.226497ZM5 119L0.226503 129L11.7735 129L7 119L5 119ZM5 6L5 8.05L7 8.05L7 6L5 6ZM5 12.15L5 16.25L7 16.25L7 12.15L5 12.15ZM5 20.35L5 24.45L7 24.45L7 20.35L5 20.35ZM5 28.55L5 32.65L7 32.65L7 28.55L5 28.55ZM5 36.75L5 40.85L7 40.85L7 36.75L5 36.75ZM5 44.95L5 49.05L7 49.05L7 44.95L5 44.95ZM5 53.15L5 57.25L7 57.25L7 53.15L5 53.15ZM5 61.35L5 65.45L7 65.45L7 61.35L5 61.35ZM5 69.55L5 73.65L7 73.65L7 69.55L5 69.55ZM5 77.75L5 81.85L7 81.85L7 77.75L5 77.75ZM5 85.95L5 90.05L7 90.05L7 85.95L5 85.95ZM5 94.15L5 98.25L7 98.25L7 94.15L5 94.15ZM5 102.35L5 106.45L7 106.45L7 102.35L5 102.35ZM5 110.55L5 114.65L7 114.65L7 110.55L5 110.55ZM5 118.75L5.00001 122.85L7.00001 122.85L7 118.75L5 118.75Z" fill="#111111"/>
</svg>
