<svg width="30" height="30" viewBox="0 0 30 30" fill="none" xmlns="http://www.w3.org/2000/svg">
<path d="M14.8599 18.2181C14.9492 18.2611 15.0529 18.2611 15.1421 18.2181L19.956 15.8544V19.2409C19.956 19.372 19.8855 19.4902 19.7734 19.5482L15.1484 21.9613C15.055 22.0107 14.945 22.0107 14.8537 21.9613L8.99818 19.5504C8.88614 19.4923 8.81559 19.3742 8.81559 19.2431V15.8544L14.8599 18.2181ZM22.004 11.9909V21.3618C22.004 21.7142 21.7281 22 21.3878 22C21.0475 22 20.7715 21.7142 20.7715 21.3618V12.253L19.954 12.4507V14.8015L15.001 17.234L8.81559 14.8015V12.3734L7.21165 11.8383C7.08507 11.7867 7 11.66 7 11.5181C7 11.3763 7.083 11.2495 7.21165 11.198L14.8786 8.02417C14.9575 7.99194 15.0446 7.99194 15.1214 8.02417L22.7904 11.198C22.917 11.2495 23 11.3763 23 11.5181C23 11.66 22.917 11.7867 22.7904 11.8383L22.004 11.9909Z" fill="#111111"/>
<circle cx="15" cy="15" r="14.5" stroke="#111111"/>
</svg>
