<svg width="21" height="21" viewBox="0 0 21 21" fill="none" xmlns="http://www.w3.org/2000/svg">
<path d="M5.86647 5.9399C5.32162 5.9399 4.87836 6.38289 4.87836 6.92738C4.87836 7.47224 5.32162 7.91552 5.86647 7.91552C6.41135 7.91552 6.85463 7.47224 6.85463 6.92738C6.85465 6.38287 6.41135 5.9399 5.86647 5.9399ZM8.60954 5.9399C8.06469 5.9399 7.62141 6.38289 7.62141 6.92738C7.62141 7.47224 8.06469 7.91552 8.60954 7.91552C9.15404 7.91552 9.59703 7.47224 9.59703 6.92738C9.59703 6.38287 9.15404 5.9399 8.60954 5.9399ZM11.3526 6.02932C10.8077 6.02932 10.3645 6.47262 10.3645 7.01748C10.3645 7.56197 10.8077 8.00494 11.3526 8.00494C11.8971 8.00494 12.3401 7.56197 12.3401 7.01748C12.3401 6.4726 11.8971 6.02932 11.3526 6.02932ZM17.8328 7.82507H15.8685V3.63881C15.8685 2.45651 14.9067 1.49463 13.7243 1.49463H3.49411C2.31218 1.49463 1.35059 2.45649 1.35059 3.63881V10.5412C1.35059 11.711 2.2919 12.665 3.45668 12.6851L3.43378 15.7653L7.87957 12.6944V15.1308C7.87957 16.1308 8.69313 16.9443 9.6931 16.9443H14.3003L17.9899 19.4936L17.9718 16.939C18.9071 16.8678 19.6463 16.084 19.6463 15.1308V9.63856C19.6463 8.63858 18.8328 7.82507 17.8328 7.82507ZM7.56527 11.6347L4.49904 13.7523L4.51476 11.6347H3.49414C2.89153 11.6347 2.40126 11.1441 2.40126 10.5412V3.63881C2.40126 3.03582 2.89151 2.54526 3.49414 2.54526H13.7243C14.3273 2.54526 14.8179 3.03582 14.8179 3.63881V10.5412C14.8179 11.1441 14.3273 11.6347 13.7243 11.6347H7.56527ZM18.5957 15.1308C18.5957 15.5514 18.2535 15.8936 17.8328 15.8936H16.9132L16.9248 17.4806L14.6276 15.8936H9.6931C9.27246 15.8936 8.93023 15.5514 8.93023 15.1308V12.6854H13.7243C14.9066 12.6854 15.8685 11.7235 15.8685 10.5412V8.87572H17.8328C18.2535 8.87572 18.5957 9.21794 18.5957 9.63856V15.1308Z" fill="white"/>
</svg>
