<svg width="30" height="30" viewBox="0 0 30 30" fill="none" xmlns="http://www.w3.org/2000/svg"><path d="M1.552 8.349c.928-1.934 2.24-3.57 3.892-4.928C7.684 1.57 10.253.457 13.133.115c3.383-.4 6.563.24 9.503 2 .73.437 1.413.934 2.066 1.473.161.132.143.21.006.342a631.01 631.01 0 0 0-3.994 4c-.156.155-.24.143-.408.018-3.88-2.988-9.538-2.18-12.43 1.772a8.729 8.729 0 0 0-1.21 2.257c-.024.072-.072.138-.108.21-.772-.587-1.55-1.174-2.317-1.766a455.406 455.406 0 0 1-2.689-2.072z" fill="#E94335"/><path d="M6.558 17.804c.258.569.473 1.161.796 1.694 1.36 2.228 3.3 3.659 5.857 4.168 2.305.461 4.52.15 6.586-1.006.072-.036.144-.072.21-.108.036.036.066.078.102.108 1.545 1.198 3.095 2.395 4.64 3.593-.742.736-1.586 1.329-2.485 1.844-2.604 1.485-5.425 2.084-8.395 1.856-3.7-.287-6.892-1.748-9.526-4.383-1.156-1.156-2.108-2.461-2.797-3.952.64-.491 1.282-.976 1.922-1.467 1.03-.784 2.06-1.563 3.09-2.347z" fill="#34A853"/><path d="M24.755 26.253c-1.544-1.198-3.095-2.396-4.64-3.593a.872.872 0 0 1-.102-.108c.533-.413 1.078-.814 1.515-1.341a6.964 6.964 0 0 0 1.467-2.97c.03-.138.006-.186-.132-.18-.072.006-.138 0-.21 0-2.442 0-4.892-.006-7.335.006-.27 0-.329-.072-.323-.33.012-1.736.012-3.472 0-5.209 0-.221.06-.281.282-.281 4.478.006 8.957.006 13.442 0 .192 0 .27.048.318.251.365 1.647.341 3.3.12 4.964a16.224 16.224 0 0 1-1 3.863 13.737 13.737 0 0 1-3.246 4.82c-.054.042-.108.072-.156.108z" fill="#4285F3"/><path d="M6.558 17.804c-1.03.784-2.06 1.563-3.09 2.347-.64.485-1.281.976-1.922 1.467-.497-.922-.82-1.898-1.084-2.904-.503-1.946-.58-3.922-.305-5.904a13.738 13.738 0 0 1 1.39-4.455c.897.688 1.79 1.383 2.688 2.072.772.592 1.545 1.18 2.317 1.766-.132.64-.317 1.27-.377 1.928a9.292 9.292 0 0 0 .347 3.515c.024.048.03.108.036.168z" fill="#FABB06"/></svg>