<svg width="30" height="30" viewBox="0 0 30 30" fill="none" xmlns="http://www.w3.org/2000/svg"><path fill-rule="evenodd" clip-rule="evenodd" d="M30 7.5A7.5 7.5 0 0 0 22.5 0h-15A7.5 7.5 0 0 0 0 7.5v15A7.5 7.5 0 0 0 7.5 30h15a7.5 7.5 0 0 0 7.5-7.5v-15z" fill="url(#paint0_radial_2182_36709)"/><path d="M19.437 4.507c3.136.03 6.024 2.723 6.055 6.056.01 2.958.01 5.916 0 8.874-.03 3.124-2.722 6.024-6.055 6.055-2.958.01-5.916.01-8.874 0-3.138-.03-6.024-2.722-6.056-6.055-.01-2.958-.01-5.916 0-8.874.029-3.14 2.715-6.024 6.056-6.056 2.958-.01 5.916-.01 8.874 0zm-8.834 1.418c-2.434.007-4.654 2.118-4.678 4.647-.01 2.952-.01 5.904 0 8.856.022 2.407 2.082 4.623 4.647 4.647 2.952.009 5.904.009 8.856 0 2.413-.023 4.623-2.082 4.647-4.647.009-2.952.009-5.904 0-8.856-.023-2.424-2.123-4.623-4.647-4.647-2.942-.01-5.883 0-8.825 0z" fill="#fff"/><path d="M15.036 9.75c2.427.023 4.689 1.895 5.133 4.293.316 1.71-.28 3.564-1.54 4.767-1.403 1.335-3.574 1.812-5.434 1.131-2.079-.76-3.541-2.952-3.444-5.172.119-2.652 2.462-5.01 5.249-5.019h.036zm-.06 1.42c-1.733.017-3.366 1.331-3.726 3.038-.365 1.726.628 3.642 2.259 4.33 1.78.753 4.08-.091 4.94-1.849.889-1.816.05-4.284-1.828-5.162a3.888 3.888 0 0 0-1.645-.356z" fill="#fff"/><path fill-rule="evenodd" clip-rule="evenodd" d="M21.75 9.34a1.091 1.091 0 0 0-1.09-1.09h-.07a1.091 1.091 0 0 0-1.09 1.09v.035c0 .299.119.585.33.795a1.125 1.125 0 0 0 1.92-.795v-.034z" fill="#fff"/><defs><radialGradient id="paint0_radial_2182_36709" cx="0" cy="0" r="1" gradientUnits="userSpaceOnUse" gradientTransform="translate(0 29.25) scale(41.8995)"><stop stop-color="#FF8100"/><stop offset=".19" stop-color="#FF7209"/><stop offset=".32" stop-color="#F55E16"/><stop offset=".48" stop-color="#D92938"/><stop offset="1" stop-color="#9100FF"/></radialGradient></defs></svg>