<svg width="85" height="11" viewBox="0 0 85 11" fill="none" xmlns="http://www.w3.org/2000/svg">
<path d="M71.3195 5.43006C70.7102 5.02817 70.0389 4.7424 69.4034 4.38517C68.9912 4.15296 68.5522 3.9475 68.1945 3.65278C67.5852 3.15266 67.7106 2.17028 68.3468 1.74157C69.26 1.13428 70.7729 1.47359 70.9342 2.71506C70.9342 2.7418 70.9611 2.75972 70.988 2.75972H72.3672C72.403 2.75972 72.4299 2.73291 72.4209 2.69721C72.3492 1.83979 72.0177 1.12532 71.4091 0.669829C70.8267 0.232207 70.1643 0 69.4565 0C65.8124 0 65.4809 3.84928 67.4418 5.06394C67.6658 5.20682 69.5909 6.17135 70.2718 6.5911C70.9521 7.01085 71.1672 7.77894 70.8715 8.38624C70.6027 8.93998 69.9045 9.32402 69.2063 9.27936C68.4447 9.2347 67.854 8.82391 67.6479 8.18084C67.6121 8.06477 67.5941 7.84146 67.5941 7.74324C67.5941 7.71643 67.5672 7.68962 67.5404 7.68962H66.0454C66.0185 7.68962 65.9916 7.71643 65.9916 7.74324C65.9916 8.82391 66.2604 9.42224 66.9945 9.96709C67.6837 10.4851 68.4357 10.6994 69.2152 10.6994C71.2568 10.6994 72.3134 9.54727 72.5277 8.35053C72.7159 7.18054 72.3672 6.12668 71.3195 5.43006Z" fill="#111111"/>
<path d="M6.39323 0.196289H5.73066H5.00537C4.97849 0.196289 4.96057 0.214148 4.95161 0.232013L3.72496 4.26884C3.70703 4.32247 3.63542 4.32247 3.6175 4.26884L2.39078 0.232013C2.38182 0.205215 2.3639 0.196289 2.33702 0.196289H1.6118H0.949158H0.0537605C0.0268799 0.196289 0 0.22308 0 0.249871V10.5563C0 10.5831 0.0268799 10.6099 0.0537605 10.6099H1.54908C1.57596 10.6099 1.60284 10.5831 1.60284 10.5563V2.72376C1.60284 2.66125 1.69237 2.65236 1.71029 2.70591L2.9459 6.76956L3.03543 7.05532C3.04439 7.08214 3.06231 7.0911 3.08919 7.0911H4.23534C4.26215 7.0911 4.28007 7.07317 4.28903 7.05532L4.37857 6.76956L5.61424 2.70591C5.63216 2.6434 5.7217 2.66125 5.7217 2.72376V10.5563C5.7217 10.5831 5.74858 10.6099 5.77539 10.6099H7.27078C7.29759 10.6099 7.32447 10.5831 7.32447 10.5563V0.249871C7.32447 0.22308 7.29759 0.196289 7.27078 0.196289H6.39323Z" fill="#111111"/>
<path d="M48.4235 0.196289C48.3966 0.196289 48.3787 0.214148 48.3697 0.232013L47.1435 4.26884C47.1256 4.32247 47.0539 4.32247 47.036 4.26884L45.8092 0.232013C45.8002 0.205215 45.7823 0.196289 45.7554 0.196289H43.4809C43.454 0.196289 43.4271 0.22308 43.4271 0.249871V10.5563C43.4271 10.5831 43.454 10.6099 43.4809 10.6099H44.9765C45.0034 10.6099 45.0303 10.5831 45.0303 10.5563V2.72376C45.0303 2.66125 45.1199 2.65236 45.1378 2.70591L46.373 6.76956L46.4626 7.05532C46.4715 7.08214 46.4894 7.0911 46.5163 7.0911H47.6625C47.6894 7.0911 47.7073 7.07317 47.7163 7.05532L47.8059 6.76956L49.0417 2.70591C49.0596 2.6434 49.1492 2.66125 49.1492 2.72376V10.5563C49.1492 10.5831 49.1761 10.6099 49.203 10.6099H50.698C50.7248 10.6099 50.7517 10.5831 50.7517 10.5563V0.249871C50.7517 0.22308 50.7248 0.196289 50.698 0.196289H48.4235Z" fill="#111111"/>
<path d="M29.1365 0.196289H26.3518H24.8565H22.0718C22.0449 0.196289 22.018 0.22308 22.018 0.249871V1.53592C22.018 1.56273 22.0449 1.58954 22.0718 1.58954H24.8028V10.5563C24.8028 10.5831 24.8296 10.6099 24.8565 10.6099H26.3518C26.3786 10.6099 26.4055 10.5831 26.4055 10.5563V1.58954H29.1365C29.1634 1.58954 29.1902 1.56273 29.1902 1.53592V0.249871C29.1902 0.22308 29.1724 0.196289 29.1365 0.196289Z" fill="#111111"/>
<path d="M37.9566 10.6104H39.3171C39.353 10.6104 39.3799 10.5747 39.3709 10.539L36.5595 0.196856C36.5505 0.170065 36.5326 0.161133 36.5057 0.161133H35.9865H35.0732H34.5538C34.527 0.161133 34.509 0.178998 34.5001 0.196856L31.6885 10.539C31.6795 10.5747 31.7064 10.6104 31.7423 10.6104H33.1033C33.1301 10.6104 33.148 10.5926 33.157 10.5747L33.9718 7.56495C33.9807 7.53821 33.9986 7.52925 34.0255 7.52925H37.0344C37.0612 7.52925 37.0792 7.5471 37.0881 7.56495L37.9028 10.5747C37.9118 10.5926 37.9386 10.6104 37.9566 10.6104ZM34.3837 6.05564L35.4761 2.0277C35.494 1.97414 35.5656 1.97414 35.5836 2.0277L36.6759 6.05564C36.6849 6.09135 36.658 6.12705 36.6222 6.12705H34.4374C34.4016 6.12705 34.3748 6.09135 34.3837 6.05564Z" fill="#111111"/>
<path d="M61.1655 10.6104H62.5261C62.562 10.6104 62.5888 10.5747 62.5799 10.539L59.7684 0.196856C59.7595 0.170065 59.7416 0.161133 59.7147 0.161133H59.1957H58.2824H57.7627C57.7359 0.161133 57.7179 0.178998 57.709 0.196856L54.8975 10.539C54.8886 10.5747 54.9155 10.6104 54.9513 10.6104H56.3126C56.3395 10.6104 56.3574 10.5926 56.3663 10.5747L57.181 7.56495C57.19 7.53821 57.2079 7.52925 57.2348 7.52925H60.2433C60.2702 7.52925 60.2881 7.5471 60.2971 7.56495L61.1118 10.5747C61.1207 10.5926 61.1387 10.6104 61.1655 10.6104ZM57.5925 6.05564L58.685 2.0277C58.7029 1.97414 58.7745 1.97414 58.7925 2.0277L59.8849 6.05564C59.8939 6.09135 59.867 6.12705 59.8312 6.12705H57.6463C57.6104 6.12705 57.5835 6.09135 57.5925 6.05564Z" fill="#111111"/>
<path d="M13.3954 9.08255V5.88521C13.3954 5.85846 13.4223 5.83165 13.4491 5.83165H17.4337C17.4605 5.83165 17.4874 5.80484 17.4874 5.77803V4.49197C17.4874 4.46523 17.4605 4.43841 17.4337 4.43841H13.4491C13.4223 4.43841 13.3954 4.4116 13.3954 4.38479V1.65193C13.3954 1.62512 13.4223 1.59831 13.4491 1.59831H17.9799C18.0068 1.59831 18.0336 1.5715 18.0336 1.54476V0.258667C18.0336 0.231876 18.0068 0.205078 17.9799 0.205078H13.3954H11.8464C11.8195 0.205078 11.7926 0.231876 11.7926 0.258667V1.59831V4.4473V5.84061V9.14506V10.5562C11.7926 10.583 11.8195 10.6098 11.8464 10.6098H13.3954H18.1679C18.1948 10.6098 18.2217 10.583 18.2217 10.5562V9.19868C18.2217 9.17187 18.1948 9.14506 18.1679 9.14506H13.4402C13.4133 9.13617 13.3954 9.11825 13.3954 9.08255Z" fill="#111111"/>
<path d="M84.983 10.5204L79.8075 5.18859C79.7896 5.17074 79.7896 5.13503 79.8075 5.11718L84.464 0.294391C84.4999 0.258667 84.473 0.205078 84.4282 0.205078H82.5211C82.5031 0.205078 82.4942 0.214011 82.4852 0.222943L78.5365 4.31339C78.5007 4.34909 78.4469 4.32228 78.4469 4.27761V0.258667C78.4469 0.231876 78.4201 0.205078 78.3932 0.205078H76.8975C76.8706 0.205078 76.8438 0.231876 76.8438 0.258667V10.5651C76.8438 10.5919 76.8706 10.6187 76.8975 10.6187H78.3932C78.4201 10.6187 78.4469 10.5919 78.4469 10.5651V6.02816C78.4469 5.98349 78.5097 5.95668 78.5365 5.99239L83.0132 10.6008C83.0221 10.6098 83.0401 10.6187 83.049 10.6187H84.9562C84.992 10.6098 85.0189 10.5473 84.983 10.5204Z" fill="#111111"/>
</svg>
