<svg width="32" height="30" viewBox="0 0 32 30" fill="none" xmlns="http://www.w3.org/2000/svg"><path d="M29.516 1l-11.72 8.985 2.18-5.295L29.516 1z" fill="#E17726" stroke="#E17726" stroke-width=".25" stroke-linecap="round" stroke-linejoin="round"/><path d="M2.484 1l11.615 9.068-2.075-5.378L2.484 1zM25.297 21.832l-3.119 4.936 6.677 1.904 1.913-6.732-5.471-.108zM1.243 21.94l1.901 6.732 6.666-1.904-3.107-4.936-5.46.108z" fill="#E27625" stroke="#E27625" stroke-width=".25" stroke-linecap="round" stroke-linejoin="round"/><path d="M9.45 13.495l-1.854 2.899 6.607.311-.22-7.367-4.533 4.157zM22.55 13.495l-4.603-4.241-.15 7.451 6.607-.311-1.855-2.9zM9.81 26.768l4-2-3.444-2.78-.556 4.78zM18.19 24.767l3.988 2.001-.544-4.78-3.443 2.78z" fill="#E27625" stroke="#E27625" stroke-width=".25" stroke-linecap="round" stroke-linejoin="round"/><path d="M22.178 26.768l-3.987-2 .324 2.683-.034 1.138 3.697-1.82zM9.81 26.768l3.71 1.821-.024-1.138.313-2.683-3.999 2z" fill="#D5BFB2" stroke="#D5BFB2" stroke-width=".25" stroke-linecap="round" stroke-linejoin="round"/><path d="M13.589 20.214l-3.316-1.006 2.342-1.114.974 2.12zM18.411 20.214l.974-2.12 2.353 1.114-3.327 1.006z" fill="#233447" stroke="#233447" stroke-width=".25" stroke-linecap="round" stroke-linejoin="round"/><path d="M9.81 26.768l.58-4.936-3.687.108 3.107 4.828zM21.61 21.832l.568 4.936 3.119-4.828-3.687-.108zM24.404 16.394l-6.607.311.614 3.51.974-2.12 2.353 1.114 2.666-2.815zM10.273 19.209l2.342-1.114.974 2.12.614-3.51-6.607-.311 2.677 2.815z" fill="#CC6228" stroke="#CC6228" stroke-width=".25" stroke-linecap="round" stroke-linejoin="round"/><path d="M7.596 16.394l2.77 5.594-.092-2.78-2.678-2.814zM21.738 19.209l-.104 2.779 2.77-5.594-2.666 2.815zM14.204 16.704l-.615 3.51.777 4.145.174-5.463-.336-2.192zM17.797 16.704l-.325 2.18.162 5.475.777-4.145-.614-3.51z" fill="#E27525" stroke="#E27525" stroke-width=".25" stroke-linecap="round" stroke-linejoin="round"/><path d="M18.411 20.214l-.777 4.145.557.407 3.443-2.779.104-2.779-3.327 1.006zM10.273 19.208l.093 2.78 3.443 2.779.556-.408-.776-4.145-3.316-1.006z" fill="#F5841F" stroke="#F5841F" stroke-width=".25" stroke-linecap="round" stroke-linejoin="round"/><path d="M18.48 28.588l.036-1.138-.302-.263h-4.428l-.29.263.024 1.139-3.71-1.821 1.298 1.102 2.632 1.88h4.509l2.643-1.88 1.287-1.102-3.698 1.82z" fill="#C0AC9D" stroke="#C0AC9D" stroke-width=".25" stroke-linecap="round" stroke-linejoin="round"/><path d="M18.19 24.767l-.556-.408h-3.268l-.557.408-.313 2.683.29-.264h4.428l.301.264-.324-2.683z" fill="#161616" stroke="#161616" stroke-width=".25" stroke-linecap="round" stroke-linejoin="round"/><path d="M30.015 10.572L31 5.612 29.516 1 18.191 9.685l4.358 3.81 6.156 1.856 1.356-1.64-.591-.444.939-.886-.719-.576.94-.742-.615-.492zM1 5.612l.997 4.96-.638.49.95.743-.718.575.94.887-.592.443 1.356 1.641 6.156-1.857 4.358-3.809L2.484 1 1 5.612z" fill="#763E1A" stroke="#763E1A" stroke-width=".25" stroke-linecap="round" stroke-linejoin="round"/><path d="M28.705 15.352l-6.155-1.857 1.854 2.9-2.77 5.593 3.663-.047h5.471l-2.063-6.59zM9.45 13.495l-6.155 1.857-2.052 6.589h5.46l3.663.047-2.77-5.594 1.854-2.899zM17.797 16.705l.394-7.02 1.785-4.996h-7.952l1.785 4.996.394 7.02.15 2.204.013 5.45h3.268l.012-5.45.15-2.204z" fill="#F5841F" stroke="#F5841F" stroke-width=".25" stroke-linecap="round" stroke-linejoin="round"/></svg>