<svg width="80" height="80" viewBox="0 0 80 80" fill="none" xmlns="http://www.w3.org/2000/svg">
<rect x=".5" y=".5" width="79" height="79" rx="39.5" fill="#3AE090" stroke="#3AE090"/>
<path d="M63.937 24.946c-1.405-1.272-3.679-1.259-5.07.025l-26.14 24.092-11.57-10.84c-1.384-1.297-3.654-1.32-5.07-.065-1.42 1.259-1.453 3.331-.072 4.622l14.12 13.23c.008.01.022.01.029.02.007.006.01.019.018.025.226.203.505.328.77.465.14.069.252.183.395.235.434.164.897.245 1.355.245.456 0 .911-.081 1.342-.238.14-.053.247-.158.38-.223.268-.137.548-.258.778-.464.007-.006.01-.02.021-.026.007-.01.018-.013.03-.02l28.71-26.458c1.394-1.288 1.38-3.357-.026-4.625z" fill="#fff"/>
</svg>
