<svg width="26" height="26" viewBox="0 0 26 26" fill="none" xmlns="http://www.w3.org/2000/svg"><rect x="5.5" y="4.5" width="16" height="16" rx="8" fill="#3AE090" stroke="#3AE090"/><path d="M18.384 9.295a.776.776 0 0 0-1.035.005l-5.332 4.965-2.36-2.234a.776.776 0 0 0-1.035-.013.636.636 0 0 0-.015.952l2.881 2.726.006.004.004.005c.046.042.103.068.157.096.028.014.051.038.08.049a.78.78 0 0 0 .55.001c.029-.01.05-.032.078-.046.055-.028.112-.053.159-.095.001-.002.002-.005.004-.006.001-.002.004-.003.006-.004l5.857-5.452a.637.637 0 0 0-.005-.953z" fill="#fff"/></svg>