<svg width="30" height="30" viewBox="0 0 30 30" fill="none" xmlns="http://www.w3.org/2000/svg"><circle cx="15" cy="15" r="15" fill="#2E57F7"/><path d="M23.893 10.496c-.33.312-.74.872-1.162 1.047.081.384 0 .829-.077 1.213-.087.437-.017.915-.151 1.338-.142.449-.184.914-.334 1.362-.173.518-.48 1.058-.778 1.508-.258.39-.435.805-.684 1.192-.286.444-.68.723-1.014 1.097-.501.56-1.2 1.025-1.845 1.461-.534.36-1.157.517-1.742.784-.23.105-.507.191-.758.256-.226.058-.607.2-.85.2l-.436.076c-.177.016-.62-.017-.85-.002-.23.015-.45-.05-.685-.049a12.978 12.978 0 0 1-1.718-.092c-.987-.13-2.125-.573-2.937-1.155-.147-.105-.259-.253-.404-.36.851.2 1.925.168 2.736-.195.449-.202.96-.291 1.363-.576.31-.22.672-.456.988-.634a5.41 5.41 0 0 1-2.062-.632c-.327-.172-1.188-1.126-1.185-1.852.506-.01.962.059 1.475-.01-.362-.096-.663-.254-.994-.475-.373-.249-.686-.433-1.072-.856-.454-.497-.6-1.45-.55-2.14.234.023.43.173.657.241.236.07.514.06.738.172-.745-.243-1.128-1.436-1.32-2.1-.224-.774.251-2.526.267-2.572.58.443 1.006 1.11 1.59 1.513.338.234.723.492 1.05.723.166.118.292.172.46.298.147.11.372.188.535.261.42.19.945.397 1.408.482.542.1 1.116.122 1.626.298l.607.073c-.168-.667-.076-1.554.127-2.238.235-.792 1.04-1.467 1.76-1.808.673-.319 1.781-.461 2.482-.19.358.139.73.302 1.063.488.31.174.463.574.806.53.603-.079 1.528-.453 1.894-.984-.015.936-.566 1.487-1.262 2.055.57-.167 1.247-.215 1.791-.456-.145.294-.314.483-.553.708z" fill="#fff"/></svg>