<svg width="20" height="20" viewBox="0 0 20 20" fill="none" xmlns="http://www.w3.org/2000/svg">
<path d="M8.90683 18C8.50932 18 8.1118 17.8997 7.81366 17.5987L2.4472 12.1818C1.85093 11.5799 1.85093 10.5768 2.4472 9.97492L10 2.45141C10.5963 1.84953 11.5901 1.84953 12.1863 2.45141L17.5528 7.86834C18.1491 8.47022 18.1491 9.47335 17.5528 10.0752L16.9565 10.6771C16.7578 10.8777 16.4596 10.8777 16.2609 10.6771C16.0621 10.4765 16.0621 10.1755 16.2609 9.97492L16.8571 9.37304C17.0559 9.17241 17.0559 8.77116 16.8571 8.57053L11.3913 3.15361C11.1925 2.95298 10.8944 2.95298 10.5963 3.15361L3.24224 10.6771C3.04348 10.8777 3.04348 11.279 3.24224 11.4796L8.6087 16.8966C8.80745 17.0972 9.10559 17.0972 9.40373 16.8966L9.90062 16.395C10.0994 16.1944 10.3975 16.1944 10.5963 16.395C10.795 16.5956 10.795 16.8966 10.5963 17.0972L10 17.4984C9.70186 17.7994 9.30435 18 8.90683 18Z" fill="white" stroke="white" stroke-width="0.2"/>
<path d="M4.55 14C4.45 14 4.25 14 4.15 13.8995C3.95 13.6985 3.95 13.397 4.15 13.196L13.15 4.15075C13.35 3.94975 13.65 3.94975 13.85 4.15075C14.05 4.35176 14.05 4.65327 13.85 4.85427L4.85 13.8995C4.85 14 4.75 14 4.55 14Z" fill="white" stroke="white" stroke-width="0.2"/>
<path d="M7.825 14C7.675 14 7.375 14 7.225 13.9487C6.925 13.8462 6.925 13.6923 7.225 13.5897L8.725 13.0769C9.025 12.9744 9.475 12.9744 9.775 13.0769C10.075 13.1795 10.075 13.3333 9.775 13.4359L8.275 13.9487C8.275 13.9487 7.975 14 7.825 14Z" fill="white" stroke="white" stroke-width="0.2"/>
<path d="M17.5 15H12.5C12.2 15 12 14.8 12 14.5C12 14.2 12.2 14 12.5 14H17.5C17.8 14 18 14.2 18 14.5C18 14.8 17.8 15 17.5 15Z" fill="white" stroke="white" stroke-width="0.2"/>
<path d="M14.5 18C14.2 18 14 17.8 14 17.5V12.5C14 12.2 14.2 12 14.5 12C14.8 12 15 12.2 15 12.5V17.5C15 17.8 14.8 18 14.5 18Z" fill="white" stroke="white" stroke-width="0.2"/>
</svg>
