<svg width="16" height="16" viewBox="0 0 16 16" fill="none" xmlns="http://www.w3.org/2000/svg">
<path d="M11.8209 2.66699H1.71141C0.851727 2.66699 0.15918 3.35952 0.15918 4.21923V14.3287C0.15918 15.1884 0.851711 15.8809 1.71141 15.8809H11.8209C12.6806 15.8809 13.3731 15.1884 13.3731 14.3287V4.21923C13.3731 3.35954 12.6806 2.66699 11.8209 2.66699ZM12.1791 14.3287C12.1793 14.3758 12.1702 14.4224 12.1522 14.466C12.1343 14.5095 12.1079 14.5491 12.0746 14.5824C12.0413 14.6157 12.0017 14.6421 11.9582 14.66C11.9146 14.678 11.868 14.6871 11.8209 14.6869H1.71141C1.66432 14.6871 1.61765 14.6779 1.5741 14.66C1.53056 14.6421 1.49099 14.6157 1.45769 14.5824C1.42439 14.5491 1.39801 14.5095 1.38008 14.466C1.36215 14.4224 1.35301 14.3758 1.35321 14.3287V4.21923C1.35301 4.17213 1.36215 4.12546 1.38008 4.08192C1.39801 4.03837 1.42439 3.9988 1.45769 3.9655C1.49099 3.9322 1.53056 3.90582 1.5741 3.88789C1.61765 3.86996 1.66432 3.86083 1.71141 3.86102H11.8209C11.868 3.86083 11.9146 3.86995 11.9582 3.88789C12.0017 3.90582 12.0413 3.93219 12.0746 3.9655C12.1079 3.9988 12.1343 4.03836 12.1522 4.08191C12.1702 4.12546 12.1793 4.17213 12.1791 4.21923V14.3287Z" fill="#3861FB"/>
<path d="M14.289 0.199219H4.17955C3.85318 0.199219 3.58252 0.469875 3.58252 0.79625C3.58252 1.12262 3.85318 1.39325 4.17955 1.39325H14.289C14.3361 1.39305 14.3828 1.40219 14.4263 1.42012C14.4699 1.43805 14.5094 1.46443 14.5427 1.49773C14.576 1.53104 14.6024 1.5706 14.6203 1.61415C14.6383 1.6577 14.6474 1.70437 14.6472 1.75147V11.8609C14.6472 12.1873 14.9178 12.4579 15.2442 12.4579C15.5706 12.4579 15.8412 12.1873 15.8412 11.8609V1.75147C15.8412 0.891766 15.1487 0.199219 14.289 0.199219Z" fill="#3861FB"/>
</svg>
