<svg width="16" height="16" viewBox="0 0 16 16" fill="none" xmlns="http://www.w3.org/2000/svg">
<circle cx="8" cy="8" r="7.25" stroke="#111111" stroke-opacity="0.3" stroke-width="1.5"/>
<path d="M8.02344 10.1348H6.7168C6.7207 9.77148 6.75195 9.4668 6.81055 9.2207C6.86914 8.9707 6.9668 8.74414 7.10352 8.54102C7.24414 8.33789 7.42969 8.12305 7.66016 7.89648C7.83984 7.72461 8.00195 7.5625 8.14648 7.41016C8.29102 7.25391 8.40625 7.08984 8.49219 6.91797C8.57812 6.74219 8.62109 6.54102 8.62109 6.31445C8.62109 6.06836 8.58008 5.85938 8.49805 5.6875C8.41602 5.51562 8.29492 5.38477 8.13477 5.29492C7.97852 5.20508 7.7832 5.16016 7.54883 5.16016C7.35352 5.16016 7.16992 5.19922 6.99805 5.27734C6.82617 5.35156 6.6875 5.46875 6.58203 5.62891C6.47656 5.78516 6.41992 5.99219 6.41211 6.25H5C5.00781 5.75781 5.125 5.34375 5.35156 5.00781C5.57812 4.67188 5.88281 4.41992 6.26562 4.25195C6.64844 4.08398 7.07617 4 7.54883 4C8.07227 4 8.51953 4.08984 8.89062 4.26953C9.26172 4.44531 9.54492 4.70312 9.74023 5.04297C9.93945 5.37891 10.0391 5.78516 10.0391 6.26172C10.0391 6.60547 9.9707 6.91797 9.83398 7.19922C9.69727 7.47656 9.51953 7.73633 9.30078 7.97852C9.08203 8.2168 8.8457 8.45508 8.5918 8.69336C8.37305 8.89258 8.22461 9.10938 8.14648 9.34375C8.06836 9.57422 8.02734 9.83789 8.02344 10.1348ZM6.59961 11.9629C6.59961 11.752 6.67188 11.5742 6.81641 11.4297C6.96094 11.2812 7.1582 11.207 7.4082 11.207C7.6582 11.207 7.85547 11.2812 8 11.4297C8.14453 11.5742 8.2168 11.752 8.2168 11.9629C8.2168 12.1738 8.14453 12.3535 8 12.502C7.85547 12.6465 7.6582 12.7188 7.4082 12.7188C7.1582 12.7188 6.96094 12.6465 6.81641 12.502C6.67188 12.3535 6.59961 12.1738 6.59961 11.9629Z" fill="#111111" fill-opacity="0.3"/>
</svg>
