<svg width="16" height="18" viewBox="0 0 16 18" fill="none" xmlns="http://www.w3.org/2000/svg">
<path d="M14.2383 1L8.81494 5.01289L9.82346 2.64797L14.2383 1Z" fill="#E17726" stroke="#E17726" stroke-width="0.25" stroke-linecap="round" stroke-linejoin="round"/>
<path d="M1.72217 1L7.09723 5.05035L6.13702 2.64796L1.72217 1Z" fill="#E27625" stroke="#E27625" stroke-width="0.25" stroke-linecap="round" stroke-linejoin="round"/>
<path d="M12.2833 10.3047L10.8403 12.5091L13.9302 13.3599L14.8153 10.3529L12.2833 10.3047Z" fill="#E27625" stroke="#E27625" stroke-width="0.25" stroke-linecap="round" stroke-linejoin="round"/>
<path d="M1.15283 10.3529L2.03258 13.3599L5.11708 12.5091L3.67943 10.3047L1.15283 10.3529Z" fill="#E27625" stroke="#E27625" stroke-width="0.25" stroke-linecap="round" stroke-linejoin="round"/>
<path d="M4.94763 6.5822L4.08936 7.87704L7.14702 8.01616L7.04511 4.72559L4.94763 6.5822Z" fill="#E27625" stroke="#E27625" stroke-width="0.25" stroke-linecap="round" stroke-linejoin="round"/>
<path d="M11.0143 6.58255L8.88468 4.68848L8.81494 8.01651L11.8726 7.87739L11.0143 6.58255Z" fill="#E27625" stroke="#E27625" stroke-width="0.25" stroke-linecap="round" stroke-linejoin="round"/>
<path d="M5.11816 12.5108L6.96884 11.6173L5.37566 10.376L5.11816 12.5108Z" fill="#E27625" stroke="#E27625" stroke-width="0.25" stroke-linecap="round" stroke-linejoin="round"/>
<path d="M8.99365 11.6173L10.839 12.5108L10.5868 10.376L8.99365 11.6173Z" fill="#E27625" stroke="#E27625" stroke-width="0.25" stroke-linecap="round" stroke-linejoin="round"/>
<path d="M10.839 12.5078L8.99365 11.6143L9.14383 12.8128L9.12773 13.3211L10.839 12.5078Z" fill="#D5BFB2" stroke="#D5BFB2" stroke-width="0.25" stroke-linecap="round" stroke-linejoin="round"/>
<path d="M5.11816 12.5078L6.83476 13.3211L6.82403 12.8128L6.96884 11.6143L5.11816 12.5078Z" fill="#D5BFB2" stroke="#D5BFB2" stroke-width="0.25" stroke-linecap="round" stroke-linejoin="round"/>
<path d="M6.8638 9.58278L5.32959 9.13335L6.41318 8.63574L6.8638 9.58278Z" fill="#233447" stroke="#233447" stroke-width="0.25" stroke-linecap="round" stroke-linejoin="round"/>
<path d="M9.09521 9.58278L9.54584 8.63574L10.6348 9.13335L9.09521 9.58278Z" fill="#233447" stroke="#233447" stroke-width="0.25" stroke-linecap="round" stroke-linejoin="round"/>
<path d="M5.11585 12.5091L5.38408 10.3047L3.67822 10.3529L5.11585 12.5091Z" fill="#CC6228" stroke="#CC6228" stroke-width="0.25" stroke-linecap="round" stroke-linejoin="round"/>
<path d="M10.5757 10.3047L10.8385 12.5091L12.2815 10.3529L10.5757 10.3047Z" fill="#CC6228" stroke="#CC6228" stroke-width="0.25" stroke-linecap="round" stroke-linejoin="round"/>
<path d="M11.8726 7.875L8.81494 8.01411L9.09924 9.58185L9.54986 8.63478L10.6388 9.13239L11.8726 7.875Z" fill="#CC6228" stroke="#CC6228" stroke-width="0.25" stroke-linecap="round" stroke-linejoin="round"/>
<path d="M5.32851 9.13239L6.4121 8.63478L6.86272 9.58185L7.14702 8.01411L4.08936 7.875L5.32851 9.13239Z" fill="#CC6228" stroke="#CC6228" stroke-width="0.25" stroke-linecap="round" stroke-linejoin="round"/>
<path d="M4.08936 7.875L5.37144 10.3737L5.3285 9.13239L4.08936 7.875Z" fill="#E27525" stroke="#E27525" stroke-width="0.25" stroke-linecap="round" stroke-linejoin="round"/>
<path d="M10.6362 9.13239L10.5879 10.3737L11.87 7.875L10.6362 9.13239Z" fill="#E27525" stroke="#E27525" stroke-width="0.25" stroke-linecap="round" stroke-linejoin="round"/>
<path d="M7.14713 8.01367L6.86279 9.58141L7.2222 11.4327L7.30268 8.99283L7.14713 8.01367Z" fill="#E27525" stroke="#E27525" stroke-width="0.25" stroke-linecap="round" stroke-linejoin="round"/>
<path d="M8.81038 8.01367L8.66016 8.98751L8.73527 11.4327L9.09467 9.58141L8.81038 8.01367Z" fill="#E27525" stroke="#E27525" stroke-width="0.25" stroke-linecap="round" stroke-linejoin="round"/>
<path d="M9.0928 9.58325L8.7334 11.4345L8.9909 11.6164L10.5841 10.3751L10.6324 9.13379L9.0928 9.58325Z" fill="#F5841F" stroke="#F5841F" stroke-width="0.25" stroke-linecap="round" stroke-linejoin="round"/>
<path d="M5.32959 9.13379L5.37253 10.3751L6.96571 11.6164L7.22321 11.4345L6.8638 9.58325L5.32959 9.13379Z" fill="#F5841F" stroke="#F5841F" stroke-width="0.25" stroke-linecap="round" stroke-linejoin="round"/>
<path d="M9.13069 13.3221L9.14675 12.8138L9.00731 12.696H6.95814L6.82403 12.8138L6.83476 13.3221L5.11816 12.5088L5.71896 13.001L6.93667 13.8411H9.02337L10.2464 13.001L10.8419 12.5088L9.13069 13.3221Z" fill="#C0AC9D" stroke="#C0AC9D" stroke-width="0.25" stroke-linecap="round" stroke-linejoin="round"/>
<path d="M8.99481 11.6155L8.73731 11.4336H7.22457L6.96712 11.6155L6.82227 12.814L6.95638 12.6963H9.00555L9.14503 12.814L8.99481 11.6155Z" fill="#161616" stroke="#161616" stroke-width="0.25" stroke-linecap="round" stroke-linejoin="round"/>
<path d="M14.4652 5.27506L14.9212 3.05995L14.2346 1L8.99365 4.87915L11.0106 6.58059L13.8591 7.40994L14.4867 6.67693L14.2131 6.47893L14.6476 6.08302L14.3151 5.82618L14.7496 5.49444L14.4652 5.27506Z" fill="#763E1A" stroke="#763E1A" stroke-width="0.25" stroke-linecap="round" stroke-linejoin="round"/>
<path d="M1.03906 3.05995L1.50039 5.27506L1.20536 5.49444L1.64523 5.82618L1.31264 6.08302L1.74715 6.47893L1.47357 6.67693L2.1012 7.40994L4.94968 6.58059L6.96663 4.87915L1.7257 1L1.03906 3.05995Z" fill="#763E1A" stroke="#763E1A" stroke-width="0.25" stroke-linecap="round" stroke-linejoin="round"/>
<path d="M13.8601 7.41134L11.0117 6.58203L11.87 7.87687L10.5879 10.3755L12.283 10.3542H14.815L13.8601 7.41134Z" fill="#F5841F" stroke="#F5841F" stroke-width="0.25" stroke-linecap="round" stroke-linejoin="round"/>
<path d="M4.95075 6.58203L2.10232 7.41134L1.15283 10.3542H3.67943L5.37454 10.3755L4.09248 7.87687L4.95075 6.58203Z" fill="#F5841F" stroke="#F5841F" stroke-width="0.25" stroke-linecap="round" stroke-linejoin="round"/>
<path d="M8.81011 8.016L8.9925 4.88056L9.81859 2.64941H6.13867L6.96476 4.88056L7.14715 8.016L7.21689 9.00049L7.22226 11.435H8.735L8.74037 9.00049L8.81011 8.016Z" fill="#F5841F" stroke="#F5841F" stroke-width="0.25" stroke-linecap="round" stroke-linejoin="round"/>
<path d="M13.4273 16.6667C13.3126 16.5911 13.1862 16.5373 13.0666 16.47C12.989 16.4263 12.9063 16.3876 12.839 16.3321C12.7243 16.238 12.7479 16.0531 12.8677 15.9724C13.0396 15.8581 13.3244 15.9219 13.3547 16.1556C13.3547 16.1607 13.3598 16.164 13.3648 16.164H13.6245C13.6312 16.164 13.6363 16.159 13.6346 16.1523C13.6211 15.9909 13.5587 15.8564 13.4441 15.7706C13.3345 15.6882 13.2098 15.6445 13.0766 15.6445C12.3906 15.6445 12.3282 16.3691 12.6973 16.5978C12.7395 16.6247 13.1019 16.8063 13.23 16.8853C13.3581 16.9643 13.3986 17.1089 13.3429 17.2232C13.2923 17.3274 13.1609 17.3997 13.0295 17.3913C12.8861 17.3829 12.7749 17.3056 12.7361 17.1845C12.7294 17.1627 12.726 17.1206 12.726 17.1022C12.726 17.0971 12.7209 17.0921 12.7159 17.0921H12.4344C12.4294 17.0921 12.4243 17.0971 12.4243 17.1022C12.4243 17.3056 12.4749 17.4182 12.6131 17.5208C12.7428 17.6183 12.8844 17.6586 13.0311 17.6586C13.4154 17.6586 13.6143 17.4417 13.6547 17.2165C13.6901 16.9962 13.6245 16.7978 13.4273 16.6667Z" fill="#111111"/>
<path d="M1.20349 15.6816H1.07876H0.942231C0.937171 15.6816 0.933797 15.685 0.932111 15.6884L0.701201 16.4483C0.697828 16.4584 0.684347 16.4584 0.680974 16.4483L0.450051 15.6884C0.448364 15.6833 0.444991 15.6816 0.439931 15.6816H0.303412H0.178673H0.0101201C0.00505999 15.6816 0 15.6867 0 15.6917V17.6319C0 17.6369 0.00505999 17.6419 0.0101201 17.6419H0.291605C0.296665 17.6419 0.301725 17.6369 0.301725 17.6319V16.1574C0.301725 16.1457 0.318579 16.144 0.321952 16.1541L0.554549 16.919L0.571403 16.9728C0.573089 16.9779 0.576463 16.9795 0.581523 16.9795H0.797278C0.802326 16.9795 0.805699 16.9762 0.807386 16.9728L0.824239 16.919L1.05685 16.1541C1.06022 16.1423 1.07708 16.1457 1.07708 16.1574V17.6319C1.07708 17.6369 1.08214 17.6419 1.08718 17.6419H1.36868C1.37373 17.6419 1.37879 17.6369 1.37879 17.6319V15.6917C1.37879 15.6867 1.37373 15.6816 1.36868 15.6816H1.20349Z" fill="#111111"/>
<path d="M9.11875 15.6816C9.11369 15.6816 9.11032 15.685 9.10863 15.6884L8.87781 16.4483C8.87444 16.4584 8.86095 16.4584 8.85757 16.4483L8.62663 15.6884C8.62494 15.6833 8.62157 15.6816 8.61651 15.6816H8.18834C8.18328 15.6816 8.17822 15.6867 8.17822 15.6917V17.6319C8.17822 17.6369 8.18328 17.6419 8.18834 17.6419H8.46989C8.47495 17.6419 8.48001 17.6369 8.48001 17.6319V16.1574C8.48001 16.1457 8.49688 16.144 8.50025 16.1541L8.73276 16.919L8.74963 16.9728C8.75131 16.9779 8.75468 16.9795 8.75975 16.9795H8.97551C8.98057 16.9795 8.98395 16.9762 8.98563 16.9728L9.0025 16.919L9.23514 16.1541C9.23851 16.1423 9.25538 16.1457 9.25538 16.1574V17.6319C9.25538 17.6369 9.26044 17.6419 9.2655 17.6419H9.54692C9.55198 17.6419 9.55704 17.6369 9.55704 17.6319V15.6917C9.55704 15.6867 9.55198 15.6816 9.54692 15.6816H9.11875Z" fill="#111111"/>
<path d="M5.48406 15.6816H4.95985H4.67836H4.15416C4.1491 15.6816 4.14404 15.6867 4.14404 15.6917V15.9338C4.14404 15.9389 4.1491 15.9439 4.15416 15.9439H4.66826V17.6319C4.66826 17.6369 4.6733 17.6419 4.67836 17.6419H4.95985C4.96491 17.6419 4.96997 17.6369 4.96997 17.6319V15.9439H5.48406C5.48912 15.9439 5.49417 15.9389 5.49417 15.9338V15.6917C5.49417 15.6867 5.49081 15.6816 5.48406 15.6816Z" fill="#111111"/>
<path d="M7.14217 17.6418H7.39829C7.40503 17.6418 7.41009 17.6351 7.40841 17.6284L6.87917 15.6815C6.87748 15.6765 6.87411 15.6748 6.86905 15.6748H6.77131H6.59939H6.50162C6.49656 15.6748 6.49319 15.6782 6.4915 15.6815L5.96224 17.6284C5.96055 17.6351 5.96561 17.6418 5.97236 17.6418H6.22856C6.23362 17.6418 6.23699 17.6385 6.23868 17.6351L6.39207 17.0685C6.39374 17.0635 6.39711 17.0618 6.40217 17.0618H6.96857C6.97363 17.0618 6.977 17.0652 6.97869 17.0685L7.13205 17.6351C7.13373 17.6385 7.13879 17.6418 7.14217 17.6418ZM6.46959 16.7844L6.67524 16.0262C6.6786 16.0161 6.69209 16.0161 6.69546 16.0262L6.9011 16.7844C6.90279 16.7911 6.89773 16.7979 6.89098 16.7979H6.47971C6.47296 16.7979 6.46791 16.7911 6.46959 16.7844Z" fill="#111111"/>
<path d="M11.5142 17.6418H11.7703C11.7771 17.6418 11.7822 17.6351 11.7805 17.6284L11.2512 15.6815C11.2495 15.6765 11.2462 15.6748 11.2411 15.6748H11.1434H10.9715H10.8737C10.8686 15.6748 10.8652 15.6782 10.8635 15.6815L10.3343 17.6284C10.3326 17.6351 10.3377 17.6418 10.3444 17.6418H10.6007C10.6057 17.6418 10.6091 17.6385 10.6108 17.6351L10.7642 17.0685C10.7658 17.0635 10.7692 17.0618 10.7743 17.0618H11.3406C11.3457 17.0618 11.3491 17.0652 11.3507 17.0685L11.5041 17.6351C11.5058 17.6385 11.5092 17.6418 11.5142 17.6418ZM10.8416 16.7844L11.0473 16.0262C11.0506 16.0161 11.0641 16.0161 11.0675 16.0262L11.2732 16.7844C11.2748 16.7911 11.2698 16.7979 11.263 16.7979H10.8517C10.845 16.7979 10.8399 16.7911 10.8416 16.7844Z" fill="#111111"/>
<path d="M2.52242 17.3547V16.7528C2.52242 16.7478 2.52747 16.7428 2.53254 16.7428H3.2826C3.28766 16.7428 3.29272 16.7377 3.29272 16.7327V16.4906C3.29272 16.4855 3.28766 16.4805 3.2826 16.4805H2.53254C2.52747 16.4805 2.52242 16.4754 2.52242 16.4704V15.956C2.52242 15.9509 2.52747 15.9459 2.53254 15.9459H3.38542C3.39048 15.9459 3.39554 15.9408 3.39554 15.9358V15.6937C3.39554 15.6886 3.39048 15.6836 3.38542 15.6836H2.52242H2.23082C2.22576 15.6836 2.2207 15.6886 2.2207 15.6937V15.9459V16.4822V16.7445V17.3665V17.6321C2.2207 17.6372 2.22576 17.6422 2.23082 17.6422H2.52242H3.42082C3.42588 17.6422 3.43094 17.6372 3.43094 17.6321V17.3766C3.43094 17.3715 3.42588 17.3665 3.42082 17.3665H2.53085C2.52579 17.3648 2.52242 17.3614 2.52242 17.3547Z" fill="#111111"/>
<path d="M15.998 17.6254L15.0237 16.6217C15.0204 16.6183 15.0204 16.6116 15.0237 16.6083L15.9003 15.7004C15.907 15.6937 15.902 15.6836 15.8935 15.6836H15.5345C15.5312 15.6836 15.5295 15.6853 15.5278 15.687L14.7845 16.457C14.7777 16.4637 14.7676 16.4586 14.7676 16.4502V15.6937C14.7676 15.6886 14.7626 15.6836 14.7575 15.6836H14.4759C14.4709 15.6836 14.4658 15.6886 14.4658 15.6937V17.6338C14.4658 17.6389 14.4709 17.6439 14.4759 17.6439H14.7575C14.7626 17.6439 14.7676 17.6389 14.7676 17.6338V16.7798C14.7676 16.7713 14.7794 16.7663 14.7845 16.773L15.6272 17.6405C15.6289 17.6422 15.6322 17.6439 15.6339 17.6439H15.9929C15.9997 17.6422 16.0047 17.6304 15.998 17.6254Z" fill="#111111"/>
</svg>
