<svg width="102" height="145" viewBox="0 0 102 145" fill="none" xmlns="http://www.w3.org/2000/svg">
<path fill-rule="evenodd" clip-rule="evenodd" d="M42.7243 59.5651C43.0335 59.2912 43.4911 59.6354 43.2946 60.0054C42.853 60.8371 42.4001 61.6251 41.8075 62.3602C41.4482 62.806 41.0633 63.2275 40.6733 63.6445C41.6743 64.5107 42.5327 65.5862 43.3434 66.5942C44.38 67.8833 45.36 69.2271 46.5237 70.4067C47.6713 71.57 48.9402 72.3833 50.4745 72.9255L50.7844 73.0332C52.3257 73.5745 53.9731 74.3056 54.8418 75.7655C55.0132 76.0534 54.6682 76.4091 54.3782 76.2294C52.8686 75.2943 51.0947 75.1062 49.4515 74.4883C47.8641 73.8915 46.4803 72.9729 45.2576 71.8006C44.0371 70.6301 43.0122 69.2985 41.9432 67.995C40.886 66.7062 39.7478 65.6053 38.4974 64.5149C36.5678 65.8135 34.3653 66.3785 32.1256 66.9335L31.8811 66.9941C29.6388 67.5494 27.4085 68.1945 25.3048 69.1616C23.45 70.0142 21.6257 71.0323 20.1149 72.4197C18.5111 73.8922 17.2629 75.7727 16.1204 77.6118C13.5649 81.7263 11.7682 86.2339 10.1865 90.7963C8.54139 95.5418 7.16536 100.382 6.05452 105.281C5.48954 107.772 5.03069 110.281 4.65356 112.808C4.47204 114.025 4.31078 115.244 4.16915 116.467C4.01797 117.772 3.98324 119.114 3.583 120.369C3.41142 120.907 3.00628 121.13 2.60075 121.111L2.51838 122.142C2.40916 123.516 2.30734 124.89 2.27294 126.273C2.21589 128.572 2.24176 130.864 2.40705 133.158L2.43045 133.47C2.56034 135.145 2.85057 137.026 4.10899 138.251C5.4122 139.521 7.41635 139.92 9.17286 139.943C13.2639 139.997 17.202 138.063 20.8221 136.366C24.5505 134.619 28.177 132.68 31.7167 130.577C33.5193 129.505 35.3024 128.399 37.0628 127.26C37.9266 126.701 38.7844 126.132 39.6358 125.554C40.1234 125.223 40.5855 124.861 41.0819 124.567C40.8387 124.34 40.7301 123.984 40.9338 123.673C39.4988 122.427 38.9015 120.203 38.8317 118.404C38.7753 116.952 38.9889 115.503 39.1575 114.065C39.2426 113.339 39.3477 112.615 39.4568 111.893C39.4999 111.607 39.5329 111.302 39.5832 111.001C35.7083 113.131 31.7248 115.028 27.6358 116.714C25.5399 117.578 23.4171 118.354 21.265 119.066L20.8288 119.21C18.7897 119.878 16.7018 120.508 14.5937 120.89C14.481 120.911 14.3895 120.744 14.5098 120.691C16.5642 119.784 18.6897 119.019 20.7749 118.184L21.1175 118.044C21.0782 118.042 21.0374 118.037 20.9948 118.027C19.7719 117.731 18.5585 117.276 17.3591 116.893C16.2459 116.538 14.9952 116.314 13.9548 115.778C13.8747 115.736 13.9195 115.625 13.9975 115.62C15.167 115.539 16.4365 115.88 17.5831 116.08L18.0138 116.156C18.7354 116.283 19.473 116.42 20.1911 116.598C20.217 116.358 20.3514 116.116 20.5426 115.974C22.6467 114.415 22.433 111.267 22.6581 108.945L22.8249 107.222C23.1185 104.205 23.429 101.189 23.9007 98.1951C23.9259 98.0352 24.1731 98.0811 24.1742 98.2321C24.1985 101.943 23.9185 105.638 23.7781 109.343L23.7563 109.951C23.6787 112.238 23.6179 114.612 22.1784 116.371C22.3797 116.253 22.6519 116.253 22.8149 116.447C23.0153 116.686 23.131 116.954 23.1274 117.217C24.4281 116.671 25.7232 116.111 27.012 115.54C31.1554 113.704 35.212 111.649 39.1613 109.425C39.5863 109.186 39.9903 109.374 40.2005 109.689L40.2308 109.685C40.2359 109.684 40.241 109.684 40.2463 109.684L40.2764 109.683C40.2776 109.683 40.2787 109.683 40.2798 109.683C40.8357 109.377 41.593 109.595 42.0701 110.04C42.0842 110.054 42.0962 110.068 42.1087 110.083C42.7127 109.811 43.2766 109.445 43.7884 108.981C44.8357 108.031 45.7228 106.857 46.4962 105.68C47.9204 103.511 49.1301 101.1 51.0539 99.3147C52.6171 97.8644 54.555 96.9614 56.588 96.3945C56.5795 96.3351 56.6022 96.2718 56.6433 96.2297C56.7477 96.1227 56.8222 96.0856 56.9572 96.1506C56.9679 96.1559 56.9743 96.1631 56.9787 96.1708L57.1771 95.8317C57.2854 95.6477 57.3966 95.4624 57.4351 95.4137C57.666 95.123 57.9035 94.8344 58.1447 94.552C58.5536 94.0737 59.0195 93.6017 59.5591 93.2701C60.7404 92.5441 61.9823 92.9549 63.1968 93.3517C63.9307 93.5915 64.6621 93.8391 65.3946 94.0826L65.4702 94.1073C66.0164 94.2829 66.6556 94.4364 66.8999 95.0154C66.9966 95.2445 67.0116 95.4823 66.9665 95.713C72.1546 94.3931 77.9169 94.9995 82.9796 96.5489C83.1739 96.6083 83.368 96.7682 83.4089 96.9782C83.989 99.9542 84.2474 103.006 83.9849 106.033C83.7584 108.645 83.1798 111.206 82.0893 113.598L82.0273 113.733C81.0025 115.949 79.3783 118.682 76.8978 119.377C75.4 119.796 73.7434 119.549 72.2158 119.472C70.7312 119.397 69.2136 119.386 67.7431 119.153C66.4334 118.945 65.2859 118.358 64.4765 117.292C63.7783 116.373 63.4106 115.262 63.1094 114.157C62.9715 114.201 62.8345 114.248 62.6997 114.301C62.1308 114.523 61.6487 114.882 61.2128 115.304C60.2924 116.196 59.5784 117.279 58.6154 118.13C57.7437 118.9 56.7503 119.499 55.6848 119.96C53.4769 120.914 51.1083 121.295 48.7728 121.801L48.6099 121.837C46.8517 122.223 45.0571 122.697 43.5053 123.612C43.4749 123.882 43.3521 124.135 43.1554 124.302C43.4291 124.559 43.545 124.966 43.3045 125.348C42.6326 126.415 41.4754 127.022 40.4364 127.704L40.3688 127.748C39.3468 128.426 38.3159 129.091 37.2766 129.741C35.1637 131.065 33.0067 132.315 30.8192 133.511C27.3009 135.433 23.7071 137.247 20.0481 138.892C20.2678 139.973 20.1875 141.088 20.3526 142.176L20.3779 142.331C20.4484 142.735 20.3531 143.073 20.0751 143.337L20.0457 143.364L20.0462 143.36L20.0201 143.384L20.0114 143.391L20.0143 143.389C19.9823 143.418 19.9492 143.446 19.9155 143.469L19.8726 143.497C19.6048 143.66 19.26 143.658 18.9858 143.514L18.9545 143.497L18.9018 143.466C18.5395 143.258 18.2897 142.742 18.44 142.331C18.8094 141.323 18.9489 140.246 19.29 139.231L19.0194 139.352L18.6627 139.508C14.8053 141.176 10.5204 142.582 6.31738 141.444C4.46029 140.941 2.72456 139.878 1.79537 138.144C0.881029 136.439 0.751792 134.458 0.703248 132.561C0.643341 130.219 0.768835 127.842 1.07753 125.52C1.28475 123.961 1.53535 122.374 1.9219 120.831C1.72307 120.656 1.57692 120.404 1.53832 120.092C1.35589 118.619 1.67517 117.088 1.87064 115.622C2.06159 114.192 2.27256 112.764 2.51115 111.34C2.99285 108.465 3.55253 105.596 4.20414 102.755C5.36379 97.6983 6.89514 92.7315 8.7388 87.8834L8.90026 87.4611C10.6039 83.0298 12.5765 78.693 15.3232 74.8001C16.6371 72.9377 18.0261 71.2491 19.8826 69.907C21.622 68.6495 23.5839 67.7441 25.6086 67.052C27.6354 66.3595 29.7187 65.8954 31.8388 65.6068C33.9919 65.3136 36.2646 65.1338 38.2732 64.2503C38.0191 63.7947 38.2371 63.1795 38.6647 62.8969C40.1038 61.9458 41.4345 60.7084 42.7243 59.5651ZM88.7907 100.924C88.851 100.833 88.9942 100.891 88.9678 100.999C88.2679 103.868 87.6108 106.742 87.1818 109.665C86.4073 114.941 86.5498 120.286 86.6131 125.601L86.6163 125.876C86.6488 128.739 86.694 131.602 86.7887 134.464C86.8364 135.91 86.9309 137.371 86.8796 138.818C86.8515 139.603 86.6424 140.346 86.5683 141.121C86.5033 141.799 86.5612 142.488 86.5936 143.167C86.6153 143.619 85.9491 143.599 85.9038 143.167L85.8458 142.608C85.7705 141.9 85.6775 141.197 85.4457 140.52C85.167 139.705 85.0332 138.905 84.9365 138.05C84.7884 136.739 84.7225 135.416 84.6653 134.096L84.6262 133.183C84.3875 127.667 84.3959 122.126 84.7824 116.616L84.8106 116.222C85.1933 111.014 85.8573 105.387 88.7907 100.924ZM73.8717 68.0992C73.6889 68.024 73.7529 67.7475 73.9554 67.7957L74.3235 67.8835C77.0212 68.5299 79.6699 69.2303 82.1878 70.4331C84.7073 71.6366 86.8405 73.4333 88.5354 75.6427C91.8302 79.9374 93.1994 85.1567 94.2803 90.3711C95.4815 96.1652 96.5752 101.981 97.7869 107.773L98.0119 108.852C99.1331 114.247 100.192 119.645 100.972 125.104L101.028 125.5C101.814 131.113 102.287 136.921 101.429 142.549C101.259 143.662 99.4071 143.385 99.4795 142.285C99.6886 139.105 99.8384 135.941 99.6937 132.754C99.5488 129.566 99.2499 126.392 98.8044 123.231C98.4294 120.572 97.8705 117.946 97.3759 115.307L97.2983 114.891C96.8842 112.647 96.4572 110.405 96.0311 108.163L95.3945 104.807C94.4402 99.7807 93.4673 94.7504 92.368 89.756L92.3027 89.4621C91.2269 84.6571 89.6408 79.6239 86.4138 75.8083C83.1389 71.936 78.4509 69.9858 73.8717 68.0992ZM61.9722 119.065C62.051 118.889 62.3265 118.909 62.4112 119.065C62.743 119.677 62.7799 120.459 62.8426 121.151L62.8492 121.222C62.929 122.066 62.9996 122.912 63.0429 123.759C63.1249 125.365 63.1641 126.97 63.1591 128.579C63.1539 130.227 63.1207 131.874 63.0319 133.52L63.0078 133.961C62.9267 135.392 62.7907 136.987 62.1112 138.238C61.8643 138.693 61.1925 138.559 61.0495 138.099C60.5808 136.594 60.8215 134.809 60.9417 133.267L61.035 132.064C61.1274 130.86 61.2156 129.657 61.2855 128.452C61.3813 126.804 61.4603 125.154 61.5363 123.505C61.561 122.97 61.5877 122.434 61.616 121.898L61.6594 121.095C61.6964 120.423 61.6933 119.686 61.9722 119.065ZM9.27705 121.199L9.48452 120.998C10.1214 120.375 10.9262 119.414 11.8678 119.474C12.2432 119.498 12.4825 119.809 12.4046 120.179C12.2383 120.969 11.4328 121.379 10.853 121.861C10.2178 122.389 9.6191 122.954 9.02159 123.524C8.4915 124.029 7.98171 124.549 7.48415 125.085L7.29812 125.287C7.11977 125.481 5.84972 126.63 5.98704 126.929L5.99452 126.942C6.03273 126.999 5.96909 127.078 5.90569 127.058C5.35724 126.884 5.39146 126.414 5.5988 125.938C5.99723 125.022 6.69493 124.175 7.30419 123.393C7.91181 122.613 8.56946 121.887 9.27705 121.199ZM63.9596 98.2402C63.5355 97.2374 61.9731 97.2585 61.0862 97.3184C58.8526 97.4694 56.4359 98.0347 54.4486 99.0791C52.3882 100.162 51.0003 101.897 49.7585 103.815L49.7004 103.905C48.49 105.787 47.3243 108.015 45.429 109.31C44.4636 109.969 43.3364 110.571 42.1651 110.832C42.0847 110.973 41.9544 111.085 41.7836 111.126L41.7042 111.144C41.3706 111.218 40.8524 111.299 40.4047 111.25C40.4077 111.47 40.4054 111.687 40.4109 111.894C40.4267 112.489 40.4334 113.087 40.4334 113.682C40.4337 114.929 40.3666 116.178 40.4187 117.425C40.4648 118.528 40.6205 119.68 41.1498 120.666C41.538 121.39 42.0505 121.868 42.669 122.325C44.1907 121.397 45.9113 120.832 47.6576 120.407C49.7696 119.893 51.932 119.549 53.9959 118.852C54.9893 118.517 55.9443 118.077 56.8096 117.481C57.7279 116.847 58.4294 115.99 59.1511 115.152L59.2639 115.021C60.0004 114.176 60.8041 113.368 61.845 112.91C62.7414 112.515 63.9229 112.445 64.7067 111.834C65.1165 111.514 65.1509 111.051 65.194 110.576C64.692 110.648 64.1606 110.533 63.6603 110.474L63.4011 110.444C62.928 110.387 62.4658 110.326 62.0001 110.205C61.9136 110.183 61.9136 110.052 62.0001 110.03C62.5505 109.888 63.096 109.827 63.6603 109.761L63.7929 109.745C64.3034 109.678 64.84 109.577 65.3408 109.689C65.4306 109.347 65.5604 109.02 65.7424 108.693C65.9979 108.234 66.4814 107.713 66.5468 107.176C66.5663 107.016 66.529 106.827 66.4534 106.686L66.4274 106.637C66.3957 106.58 66.358 106.523 66.303 106.487C66.297 106.494 66.284 106.502 66.256 106.511C65.8706 106.633 65.5344 106.444 65.356 106.153C64.5985 106.247 63.7719 106.215 63.0615 106.247L62.3433 106.282C61.5758 106.317 60.7735 106.332 60.0524 106.177C59.9517 106.156 59.9212 105.988 60.022 105.945C60.9086 105.565 61.9841 105.444 62.9333 105.299C63.4634 105.217 63.9974 105.155 64.5291 105.084C64.8831 105.036 65.2588 104.957 65.6256 104.938C66.5452 103.793 66.0497 101.986 64.7699 101.493C64.3037 101.698 63.8844 101.579 63.3751 101.535C62.8667 101.491 62.357 101.462 61.8465 101.464C60.8235 101.468 59.7396 101.737 58.7266 101.622C58.5618 101.603 58.4087 101.383 58.5726 101.249C59.348 100.616 60.4592 100.41 61.4435 100.275L61.6475 100.248C61.9775 100.205 62.3788 100.141 62.795 100.104C62.8891 99.9202 63.058 99.7813 63.3117 99.7468C63.3871 99.7365 63.4629 99.7304 63.5386 99.724L63.5374 99.7165C64.1561 99.6868 64.1292 98.6414 63.9596 98.2402ZM21.6032 117.798C21.5923 117.815 21.5804 117.831 21.5676 117.846L21.548 117.869L21.6497 117.828L21.6032 117.798ZM74.7559 95.9994C72.1517 95.7196 69.5439 95.7786 66.932 95.8538C66.7231 96.5373 65.996 97.1198 65.2915 97.1417C65.8433 97.9819 65.9002 99.119 65.5133 100.01C66.3348 100.337 67.0425 100.925 67.4722 101.762C68.0681 102.922 67.9901 104.213 67.4012 105.285C67.9038 105.741 68.2004 106.48 68.1707 107.176C68.1375 107.953 67.6747 108.617 67.2901 109.26C66.8745 109.956 66.8605 110.568 66.7328 111.347C66.546 112.488 65.7773 113.179 64.7882 113.611L64.8408 113.818C65.0958 114.811 65.4131 115.859 66.1419 116.585C67.0795 117.519 68.5339 117.51 69.7727 117.569L69.8324 117.572C70.9667 117.629 72.1005 117.695 73.2344 117.76L74.0849 117.807C75.3904 117.879 76.6442 117.888 77.71 117.024C79.45 115.615 80.6428 113.283 81.3978 111.218C82.9825 106.884 83.0015 102.127 82.2741 97.6135C79.8346 96.827 77.3034 96.2733 74.7559 95.9994ZM53.0994 103.19L53.1186 103.191C53.6548 103.252 54.0231 103.687 54.1543 104.202C54.3448 104.951 54.2514 105.628 54.7098 106.304C55.1815 106.999 55.4714 107.556 55.54 108.414C55.5681 108.768 55.5552 109.12 55.6339 109.466L55.6909 109.709C55.7514 109.967 55.801 110.216 55.7708 110.493C55.7433 110.746 55.6202 110.943 55.3665 111.024C54.5398 111.289 53.9015 110.68 53.6879 109.909C53.5034 109.243 53.7498 108.45 53.4895 107.825C53.3453 107.478 53.0793 107.188 52.929 106.84C52.7802 106.494 52.7054 106.133 52.6815 105.757C52.6362 105.046 53.2647 104.192 52.9141 103.548C52.8394 103.41 52.924 103.186 53.0994 103.19ZM42.1184 95.8539C42.6783 95.7401 43.3133 95.4794 43.8654 95.6961C44.1492 95.8077 44.2894 96.1538 44.0496 96.3945C43.6334 96.8119 43.0284 96.8351 42.4677 96.9336L42.4184 96.9425C41.7554 97.0652 41.0913 97.1815 40.4262 97.2918C39.175 97.4991 37.9209 97.6824 36.6623 97.8382C35.3697 97.9982 34.0735 98.1407 32.7754 98.2479L32.2729 98.2891C31.1764 98.3769 30.0355 98.443 28.9596 98.275C28.8033 98.2506 28.8285 98.0229 28.9596 97.983C30.1383 97.6261 31.4311 97.5304 32.6497 97.3794C33.9451 97.2186 35.2384 97.0488 36.5283 96.8473C37.8162 96.6461 39.1024 96.4301 40.3838 96.1914C40.9629 96.0837 41.5412 95.9712 42.1184 95.8539ZM62.318 94.7081C61.8267 94.5341 61.2863 94.2763 60.754 94.3626C59.836 94.5114 59.019 95.4061 58.2924 95.9953L58.6572 95.9244C60.524 95.5654 62.9962 95.1788 64.5633 96.3661C64.5673 96.3593 64.5704 96.3524 64.5749 96.3456C64.7014 96.1534 64.848 96.0035 65.0079 95.839C65.0232 95.8246 65.038 95.8097 65.0526 95.7946L65.1389 95.7026L64.9415 95.6342C64.5187 95.4847 64.0178 95.2917 63.9386 95.2635L63.9331 95.2616C63.3941 95.0789 62.8544 94.8984 62.318 94.7081ZM46.9797 55.5635C46.9029 54.575 48.4407 54.5832 48.5169 55.5635C48.683 57.7036 48.2016 59.8235 47.1654 61.6998C47.1578 61.7135 47.1494 61.7256 47.1414 61.7386C47.7895 62.0759 48.445 62.3996 49.115 62.6889C49.9722 63.0591 50.8455 63.3962 51.7344 63.6821C52.5385 63.941 53.5291 64.0431 54.2051 64.5817C55.6306 65.7173 55.0951 68.0739 54.8208 69.6015L54.7781 69.8426C54.6415 70.6287 54.5428 71.4351 54.874 72.1895C55.2278 72.9954 55.9432 73.5931 56.5814 74.1697L56.7103 74.2866C57.2756 74.8018 57.9216 75.4279 58.3363 76.1264C58.7149 75.3435 59.2309 74.7036 59.7765 73.9833C60.1658 73.4692 59.8887 73.2998 59.6091 72.7976C59.3399 72.3143 59.2084 71.7991 59.2926 71.2477C59.4479 70.2294 60.2614 69.4939 61.0712 68.9412C62.0275 68.2888 63.0949 67.8055 64.0834 67.1986C66.1148 65.9517 68.0931 64.5261 69.8755 62.9427C69.9247 62.8989 70.0099 62.9563 69.9705 63.0161C68.5626 65.1584 66.9117 67.0096 64.8827 68.581C64.06 69.2181 63.1958 69.7467 62.3258 70.3022L62.0757 70.4628C61.7263 70.6892 61.2906 70.9917 61.1327 71.3771C60.9737 71.7647 61.3126 72.0574 61.4951 72.3785C62.0744 73.3982 61.7949 74.3495 61.1081 75.2142L61.0761 75.2541C60.3937 76.0954 59.8765 76.8779 59.6291 77.9527C59.0976 80.2617 59.8379 82.6667 60.6129 84.8344L60.6435 84.9198C61.0627 86.0882 61.5082 87.248 61.8725 88.4351L61.9727 88.7633C62.3027 89.8555 62.5729 90.9328 62.2027 92.0557C62.0768 92.4376 61.5561 92.5279 61.3399 92.1684C60.577 90.9009 60.3868 89.3755 59.9086 87.9819C59.4425 86.6237 58.9074 85.29 58.4572 83.9262C57.8775 82.1703 57.4895 80.2802 57.7001 78.4384C57.6939 78.4276 57.687 78.4176 57.6819 78.4062L57.5343 78.0833C57.1319 77.2089 56.7433 76.4453 56.0115 75.7484C55.2482 75.0213 54.4197 74.3778 53.8191 73.4977C52.5145 71.586 53.3213 69.4594 53.4789 67.3691L53.4969 67.1128C53.5256 66.6788 53.5413 66.089 53.2579 65.7886C52.9391 65.4504 52.1916 65.3642 51.7686 65.2145C50.6756 64.8275 49.5984 64.3766 48.5725 63.8352C47.596 63.3198 46.65 62.7505 45.7692 62.0835L45.3228 61.7476C44.6184 61.2159 43.888 60.6353 43.416 59.9116C43.3615 59.8283 43.454 59.6938 43.5527 59.7338C44.3408 60.0537 45.0608 60.5626 45.7981 61.0053C45.8096 60.9783 45.8229 60.9511 45.838 60.9237C46.7503 59.272 47.1255 57.4421 46.9797 55.5635ZM72.1536 66.8797C72.4676 66.0184 73.8987 66.0849 73.8416 67.1083C73.7978 67.8946 73.4641 68.6043 73.159 69.3182L73.1265 69.3947C72.8114 70.1385 72.4476 70.8369 72.0123 71.5186C71.1804 72.8218 70.206 74.0312 69.1653 75.1726C68.2218 76.2074 66.9834 76.8402 65.5564 76.735C64.9551 76.6907 64.3482 76.5377 63.8213 76.2373C63.1955 75.8803 62.5159 74.8084 61.7175 75.068C61.6402 75.0931 61.5682 74.9799 61.635 74.9263C62.5567 74.1838 63.6028 75.3351 64.4853 75.6125C65.815 76.0304 67.1795 75.5684 68.0354 74.493C68.9289 73.3702 69.7513 72.1131 70.5023 70.8906C70.8837 70.2699 71.2317 69.6256 71.5322 68.9616C71.8355 68.2914 71.9045 67.5631 72.1536 66.8797ZM70.0103 61.5788C69.9715 61.4598 70.1192 61.3467 70.2237 61.4146C70.8293 61.809 71.3542 62.3302 71.9128 62.787C72.5327 63.2939 73.157 63.7903 73.7911 64.2792C74.7154 64.992 73.6434 66.3043 72.8297 65.5256C71.7163 64.4604 70.4969 63.0676 70.0103 61.5788ZM66.6851 57.4096C66.9311 56.4604 68.3864 56.8518 68.1743 57.7899L68.1674 57.8185C67.7657 59.368 68.3378 60.9454 69.559 61.95L69.604 61.9864C70.3765 62.605 69.282 63.6863 68.517 63.0737C66.847 61.7367 66.1523 59.4654 66.6851 57.4096Z" fill="black"/>
<path fill-rule="evenodd" clip-rule="evenodd" d="M50.2201 0.116295C54.2495 -0.438182 59.8111 1.36397 61.8178 4.99771C71.3984 2.73821 83.482 2.66421 91.3784 10.186C99.6179 19.1085 89.2686 30.8729 82.4062 33.5253C82.9058 35.9544 82.1268 51.5161 76.6145 58.4575C72.2398 64.3388 62.0523 67.0531 57.3382 60.0283L57.3014 59.9703C56.7964 59.159 57.2313 59.1851 57.7498 59.7886C62.3659 63.8496 68.6422 63.9189 73.4787 59.6332C82.5431 51.7997 81.6085 32.5926 77.2953 21.4809C65.0133 20.1315 51.8631 23.8555 43.3801 33.1044L43.9537 36.5591C44.0514 37.1477 44.1624 37.7358 44.2471 38.3264C44.3014 38.7049 44.3074 39.0812 44.0453 39.3876C43.1799 40.3989 41.7214 38.8792 40.5213 38.2748C40.1671 38.2249 39.8122 38.2057 39.4641 38.2302C33.6984 38.9731 34.8344 50.1621 41.1713 48.2008C41.7037 47.869 42.1611 47.9703 42.3677 48.4518C43.8782 49.8359 44.8741 52.3043 47.3836 54.6819C48.269 55.5737 49.0747 56.3199 50.0707 57.0353C50.6557 57.6271 52.4208 58.2305 51.8613 59.2433C50.8031 61.5477 44.5632 54.309 43.46 52.3072C40.0034 53.6726 36.1727 53.2088 32.5906 52.8751C13.6931 51.8922 16.2159 31.9643 31.7057 19.3829C34.6215 17.2355 37.8385 15.4837 41.1825 14.1357C41.639 13.9516 41.4396 13.2017 40.9766 13.3884C38.7639 14.2805 36.6069 15.3423 34.5507 16.5712L34.5476 15.8365C34.5446 14.599 34.564 13.3106 34.7789 12.18C34.8863 11.3965 35.0669 10.5597 35.345 9.93015C35.6888 8.00013 41.0746 1.37533 50.2201 0.116295ZM39.2119 40.799C39.5037 40.5217 40.0484 40.8523 40.3081 40.8441C40.9724 40.935 41.6035 41.2156 42.0956 41.562C42.4206 41.7442 42.6483 41.9152 42.8387 42.0725L42.8438 42.0711C42.8424 42.0711 42.8406 42.0725 42.839 42.0729L42.857 42.085C43.1341 42.2819 44.1484 43.3913 43.5076 43.093C43.4598 43.0308 43.4109 42.9712 43.3615 42.9127C43.3562 42.9207 43.3489 42.9285 43.3401 42.9362L43.3761 42.9896C43.9208 43.8093 42.9804 42.9457 42.8357 42.7163C42.8288 42.7219 42.8211 42.7256 42.8135 42.7296L43.0019 42.9591C43.0282 42.9916 43.049 43.0176 43.0661 43.0396L43.1059 43.078C43.7357 43.6973 43.7553 44.2546 43.0237 43.339C43.0525 43.3821 43.0756 43.4279 43.0788 43.4684L43.1222 43.5237C43.6966 44.2643 43.2294 44.0013 42.9439 43.685L42.92 43.6578L42.9249 43.6652C43.1905 44.0744 42.6635 43.7873 42.5704 43.5684L42.5665 43.5585C42.465 43.4756 42.4026 43.3827 42.3812 43.3592L42.3772 43.3553C41.8833 42.849 41.1672 42.4206 40.559 42.2259C40.4708 42.2091 40.3816 42.1957 40.2915 42.1861C39.9257 42.1045 39.556 42.0486 39.1823 42.0184C39.1366 42.0129 39.0903 41.9794 39.0557 41.936C38.4907 41.9169 38.6651 41.6852 38.8995 41.6422L38.9036 41.6415L38.8571 41.6376C38.4945 41.6022 38.2469 41.472 38.6135 41.3921L38.6599 41.3829C38.6543 41.374 38.6492 41.3651 38.6443 41.3562C38.3303 41.3217 38.5352 41.0163 38.7095 41.0902C38.6362 40.8504 38.9714 40.9701 39.0132 40.9345C39.0451 40.8991 39.0847 40.8678 39.1076 40.8661C39.2085 40.7948 39.1596 40.8013 39.2119 40.799ZM41.1331 36.9158L41.0595 36.9588C40.9999 36.9935 40.9388 37.0166 40.8773 37.0302C40.9641 37.0671 41.0498 37.107 41.1346 37.1497C41.1332 37.0976 41.1323 37.0455 41.1323 36.9936L41.1331 36.9158Z" fill="black"/>
<path fill-rule="evenodd" clip-rule="evenodd" d="M76.6138 26.3887C79.6442 26.3887 81.3736 27.0406 82.0073 27.0914L82.0264 27.0928C82.29 27.1096 82.5264 27.1317 82.7745 27.2276C83.6867 27.5791 83.8353 28.5362 83.303 29.1394C83.2656 30.3876 83.4297 31.846 83.1482 33.0981C82.8009 38.377 80.3193 39.2678 78.9087 39.5929C78.2005 39.7562 77.3612 39.8212 76.6089 39.6488C75.3256 39.601 74.0569 39.1991 72.9714 38.4993C71.4597 37.5238 70.3368 36.0246 69.9725 34.2454C69.7998 33.3973 69.7191 32.5145 69.813 31.6524L69.827 31.5337C69.3356 31.2985 68.7662 31.254 68.1792 31.2333C67.8988 31.2233 67.6224 31.2144 67.3539 31.2263C67.0915 31.2556 66.8322 31.2946 66.5721 31.3478C66.2881 31.4335 66.0198 31.575 65.7721 31.7991L65.7551 32.1262C65.7086 32.9433 65.6013 33.7628 65.4359 34.5644C65.1917 35.7472 64.7989 36.8768 63.9629 37.7158C63.68 38.1386 63.3298 38.516 62.9047 38.8428C61.3605 40.0322 59.2626 40.4689 57.3371 40.3044C53.4281 39.9707 51.1686 36.8664 50.6479 35.5396L50.6168 35.4592C50.2407 34.4727 49.9409 33.1928 48.7523 32.9809L48.4995 32.9354C47.9571 32.8336 47.4566 32.6918 47.1386 32.1624C46.9992 31.9313 46.9275 31.6728 46.9099 31.4093C46.7244 31.4236 46.5391 31.4372 46.3544 31.4504C44.8815 31.762 36.047 32.0262 35.3418 32.0262C35.3418 32.0262 33.9863 32.597 33.414 32.1548C33.0173 31.8473 32.8868 31.4374 33.1052 30.9731C33.4347 30.2746 34.9547 29.8544 35.6297 29.7213C35.6297 29.7213 46.5218 29.8118 47.3058 29.6631C47.7909 29.1628 48.6585 29.2312 49.3835 29.1521C49.9837 28.724 50.8233 28.4373 51.4865 28.2453C51.6217 28.1941 51.7555 28.1446 51.8856 28.0979C53.1015 27.6647 54.3653 27.4353 55.6483 27.3121C56.9714 27.1863 58.2984 27.2432 59.6138 27.4235C60.1681 27.4987 60.7172 27.596 61.2625 27.7232C62.2388 27.852 63.2095 28.064 64.1862 28.3156L64.3816 28.3665C65.4101 28.6362 66.467 28.8695 67.5317 28.6867C68.3985 28.5388 69.232 28.2051 70.0312 27.8442L70.1353 27.797C71.8925 26.9943 74.6368 26.3887 76.6138 26.3887ZM61.1568 29.3235C60.5084 29.1808 60.2315 30.1808 60.8819 30.3239C61.3425 30.4252 61.7329 30.6576 61.9966 31.0512L62.0244 31.094C62.3783 31.6574 63.2732 31.1373 62.9169 30.5703C62.5159 29.9322 61.8929 29.4853 61.1568 29.3235ZM80.1468 28.7034C79.9182 28.5423 79.5723 28.6619 79.4396 28.8895C79.2936 29.1402 79.3893 29.4192 79.6034 29.5832L79.6252 29.5992C79.8215 29.7376 80.0128 29.9858 80.0368 30.2401L80.0389 30.2719C80.0646 30.9373 81.0984 30.9407 81.0726 30.2719C81.0474 29.6176 80.6687 29.0709 80.1468 28.7034Z" fill="black"/>
<path fill-rule="evenodd" clip-rule="evenodd" d="M68.2571 36.4158C69.232 37.0086 70.7175 38.391 69.6687 39.8608C68.4342 41.1567 66.6567 39.6708 65.7808 38.9988C64.9686 38.478 64.056 39.8175 64.8096 40.4256C71.1389 45.1134 73.7075 36.5708 68.7502 35.7188C68.2044 35.6249 68.0016 36.2324 68.2571 36.4158ZM57.8464 30.936C58.7992 30.7669 59.7752 31.0039 60.5637 31.5617L60.6235 31.6046C61.3831 32.1604 62.233 33.1362 61.7971 34.0942C61.6221 34.4788 61.0982 34.5391 60.7658 34.3648C60.2123 34.0744 60.112 33.3601 59.6181 32.9647C59.2131 32.6406 58.6678 32.4441 58.1462 32.4915C56.9208 32.6028 56.1671 33.8118 55.7865 34.8538C55.7378 34.9871 55.5422 35.0389 55.4657 34.8957C54.5683 33.2177 56.1569 31.2359 57.8464 30.936ZM73.1083 30.3027C74.9335 30.1523 77.0699 32.0452 76.5893 33.9725C76.3589 34.8973 74.9876 34.8708 74.7438 33.9725C74.6097 33.4782 74.6231 33.0409 74.2674 32.6304C73.9738 32.2915 73.5567 32.0947 73.1083 32.1249C72.6141 32.1582 72.1582 32.4053 71.8118 32.7526C71.499 33.0662 71.3119 33.5251 70.9878 33.8027C70.908 33.8709 70.8013 33.8753 70.7225 33.8027C70.1648 33.2882 70.4995 32.2173 70.8532 31.6802C71.3593 30.9117 72.1834 30.3791 73.1083 30.3027ZM54.3707 27.5178C55.5415 26.4809 57.6691 25.4796 59.248 25.9899C60.1557 26.2832 60.5515 27.7464 59.5381 28.2102C58.3646 28.7473 57.0117 28.5287 55.8173 29.0854C55.3157 29.3193 54.844 29.6116 54.4947 30.0403C54.2196 30.3781 53.9397 30.8227 53.5418 31.0175C53.4372 31.0688 53.2956 31.07 53.2118 30.975C52.3395 29.988 53.6091 28.1921 54.3707 27.5178ZM71.0958 25.9384C71.8195 25.7352 72.6223 25.7394 73.3574 25.867C74.0923 25.9946 74.8384 26.2993 75.4384 26.7437L75.508 26.7957C76.163 27.2895 76.9446 28.0079 76.9027 28.8826C76.8677 29.6129 76.0996 30.107 75.4365 29.7242C74.896 29.412 74.6416 28.7866 74.1839 28.3702C73.8063 28.0265 73.3627 27.7555 72.8894 27.5657C72.3636 27.3547 71.837 27.2559 71.2728 27.2465C70.8384 27.2393 70.4013 27.3819 69.975 27.4275C70.0101 27.4995 69.6732 27.4659 69.48 27.402C69.337 27.3411 69.3362 27.1601 69.3858 27.0427C69.6317 26.4611 70.5266 26.098 71.0958 25.9384Z" fill="black"/>
<path fill-rule="evenodd" clip-rule="evenodd" d="M56.7549 52.752C57.8002 50.3022 60.0816 48.5018 62.7083 47.8435C64.6372 47.3614 66.6615 47.3768 68.6277 47.5681C69.6579 47.6677 70.7629 47.7493 71.7338 48.132C72.5629 48.459 73.2385 49.077 73.7465 49.8025C74.3512 50.6622 74.7626 51.6461 75.0514 52.6547C75.0924 52.798 75.1309 52.9425 75.1669 53.0877C75.0413 53.8486 74.7747 54.4962 74.0702 54.9746C73.3827 55.4418 72.5624 55.6329 71.7447 55.7008C71.6645 55.6622 71.587 55.6227 71.5159 55.5821C70.2416 54.8523 69.3448 53.1277 67.7364 53.3611C66.3011 53.5696 65.3562 55.3762 64.5027 56.4357C61.7628 56.755 59.0249 55.9314 56.7956 54.3641C56.6824 53.8276 56.6758 53.2867 56.7549 52.752ZM77.0291 50.8936C76.8099 50.2783 76.5339 49.6824 76.2066 49.121C75.1249 47.2644 73.4642 45.7851 71.4927 44.9395C66.8291 42.9419 60.7948 44.3501 57.0286 47.6263C55.7421 48.7463 54.4412 50.3921 54.0478 52.1624C53.9304 52.1857 53.8195 52.2469 53.7282 52.333C51.0071 50.6191 48.2049 48.9702 46.0123 46.5945C44.4199 44.8684 43.3123 42.8257 42.6341 40.5809C42.5787 40.3962 42.2808 40.4232 42.2899 40.6276C42.2924 40.6755 42.295 40.7232 42.2976 40.771C42.2692 40.6831 42.1351 40.7283 42.1248 40.8137C41.7599 43.5405 41.3035 46.4316 41.7238 49.1727C41.9752 50.8083 42.7179 52.0057 43.7107 53.2987C44.7745 54.6846 45.9787 55.9737 47.2101 57.2099C47.9914 57.9946 48.8076 58.8997 49.7643 59.475C50.877 60.1435 52.1393 60.6518 53.3268 61.1675C54.535 61.6938 55.7612 62.1799 57.0106 62.6014C59.5081 63.447 62.0894 64.0315 64.7158 64.2875C66.8188 64.4918 69.2221 64.7143 71.2374 63.9228C72.7821 63.3164 74.0289 62.2201 75.0178 60.9012C76.0945 59.4647 76.9456 57.8285 77.4161 56.103C77.905 54.3107 77.1321 51.1826 77.0291 50.8936Z" fill="black"/>
</svg>
