<svg width="66" height="66" viewBox="0 0 66 66" fill="none" xmlns="http://www.w3.org/2000/svg">
<path d="M15.0612 42.6676C9.8592 40.2569 6.59995 36.8116 6.59995 32.985C6.59995 26.838 15.0198 21.6864 26.3998 20.2202V13.583C11.3372 15.4184 0 23.4074 0 32.985C0 38.5077 3.77672 43.4865 9.85261 47.073C16.5001 51.1364 19.7999 44.5369 15.0612 42.6676ZM54.692 18.0882C51.1507 14.8364 46.2001 19.7865 49.5762 22.7129C55.5673 25.1331 59.4005 28.8359 59.4005 32.985C59.4005 39.1353 50.9793 44.2874 39.6002 45.7532V52.3875C54.6628 50.5549 66 42.5664 66 32.985C66 27.0377 61.6126 21.7137 54.692 18.0882ZM29.3158 24.7013L40.0579 18.269C41.6206 17.3329 41.6239 15.8083 40.0663 14.8656L29.2249 8.30429C27.6655 7.36306 26.4069 8.07404 26.4144 9.89625L26.4728 23.0962C26.4775 24.9188 27.7512 25.6374 29.3158 24.7013ZM36.7755 41.3045L25.9346 47.8654C24.3756 48.808 24.3789 50.3327 25.9436 51.2692L36.6842 57.7015C38.247 58.6357 39.5234 57.9191 39.5314 56.095L39.5879 42.8951C39.5936 41.0738 38.3336 40.3638 36.7755 41.3045Z" fill="black"/>
</svg>
