<svg width="33" height="33" viewBox="0 0 33 33" fill="none" xmlns="http://www.w3.org/2000/svg"><path d="M15.802 8.124l.81 1.106.806-1.11c1.3-1.795 2.904-2.778 4.873-2.778 3.616 0 6.747 3.316 6.747 7.589 0 2.512-1.096 4.277-2.096 5.866-1.371 2.179-3.75 4.505-5.884 6.352a67.015 67.015 0 0 1-3.873 3.098l-.197.148a.667.667 0 0 1-.397.145.565.565 0 0 1-.376-.129 65.848 65.848 0 0 1-4.088-3.256c-2.132-1.844-4.505-4.169-5.868-6.355l-.002-.003c-1-1.589-2.096-3.354-2.096-5.866 0-4.288 3.129-7.59 6.764-7.59 1.967 0 3.556.981 4.877 2.783z" fill="#E03A3A" stroke="#fff" stroke-width="2"/><path d="M8.418 4.802C5.364 5.957 3.16 9.161 3.16 12.932c0 .494.038.963.107 1.408a12.977 12.977 0 0 1 5.15-9.538zm5.58 23.184c.899.701 1.51 1.142 1.595 1.21.305.241.643.345.998.345s.694-.121.998-.345c.094-.074.815-.596 1.855-1.417a13.09 13.09 0 0 1-5.446.207zm9.586-23.522a12.98 12.98 0 0 1 5.647 10.719c0 .622-.044 1.234-.128 1.833.531-1.144.935-2.478.935-4.084 0-4.238-2.802-7.781-6.454-8.468z" fill="#EF4747"/><path d="M11.074 4.344l-.15-.002c-.876 0-1.72.162-2.507.46a12.977 12.977 0 0 0-5.15 9.537c.324 2.101 1.32 3.681 2.144 4.99.157.253.327.507.507.761a11.163 11.163 0 0 1-1.45-5.519c0-4.551 2.711-8.469 6.606-10.227zm12.51.119a6.983 6.983 0 0 0-1.293-.121c-.558 0-1.089.068-1.593.196a11.214 11.214 0 0 1 6.199 10.033c0 6.194-5.021 11.214-11.215 11.214-2.608 0-5.008-.89-6.913-2.384 1.853 1.866 3.87 3.523 5.23 4.584a13.08 13.08 0 0 0 5.445-.207c2.35-1.857 6.327-5.244 8.344-8.448.431-.686.91-1.446 1.314-2.315a12.98 12.98 0 0 0-5.518-12.552z" fill="#F85353"/><path d="M26.895 14.572c0-4.391-2.523-8.192-6.198-10.033a6.257 6.257 0 0 0-1.794.774 9.434 9.434 0 1 1-5.758-.577 6.249 6.249 0 0 0-2.072-.391 11.216 11.216 0 0 0-6.606 10.227c0 2.006.527 3.89 1.45 5.519.797 1.123 1.797 2.25 2.85 3.31a11.166 11.166 0 0 0 6.914 2.385c6.194 0 11.214-5.021 11.214-11.215z" fill="#FF5959"/><path d="M5.694 13.96a9.434 9.434 0 1 0 13.209-8.647 7.471 7.471 0 0 0-1.273 1.019 7.654 7.654 0 0 1-3.055 14.67 7.653 7.653 0 1 1 .284-15.3c-.53-.41-1.1-.736-1.714-.966-4.258.911-7.45 4.695-7.45 9.225z" fill="#FF6161"/><path d="M6.922 13.35A7.653 7.653 0 1 0 17.63 6.332c-.349.346-.678.731-.986 1.152a5.872 5.872 0 1 1-2.622-.617 5.85 5.85 0 0 1 2.506.56 8.988 8.988 0 0 0-1.669-1.724 7.653 7.653 0 0 0-7.937 7.647z" fill="#FF6767"/><path d="M8.15 12.74a5.872 5.872 0 1 0 8.494-5.256l-.037.05-.08-.106A5.872 5.872 0 0 0 8.15 12.74zm9.41-.611a4.092 4.092 0 1 1-8.183 0 4.092 4.092 0 0 1 8.183 0z" fill="#FF6F6F"/><path d="M9.377 12.129a4.092 4.092 0 1 0 8.183 0 4.092 4.092 0 0 0-8.183 0z" fill="#FF7676"/><path d="M22.291 4.922c.956 0 1.885.21 2.762.622a7.192 7.192 0 0 1 2.28 1.709 8.125 8.125 0 0 1 1.552 2.55 8.71 8.71 0 0 1 .573 3.128c0 1.176-.23 2.3-.703 3.434-.417 1.002-.966 1.874-1.45 2.645l-.007.01c-1.109 1.761-2.959 3.793-5.499 6.038-2.011 1.778-3.8 3.108-4.389 3.546l-.171.128c-.207.151-.425.227-.648.227a.988.988 0 0 1-.637-.219 65.656 65.656 0 0 1-4.574-3.68c-2.534-2.24-4.376-4.272-5.477-6.037v-.001l-.001-.001-.007-.012c-.485-.77-1.034-1.643-1.451-2.644a8.77 8.77 0 0 1-.703-3.434c0-4.416 3.223-8.01 7.184-8.01 1.04 0 2.012.26 2.892.773.84.49 1.62 1.223 2.323 2.181l.47.642.468-.644c.691-.954 1.47-1.687 2.314-2.178a5.69 5.69 0 0 1 2.9-.773zm0-.58c-2.368 0-4.245 1.207-5.683 3.19-1.454-1.983-3.315-3.19-5.683-3.19-4.28 0-7.764 3.846-7.764 8.589 0 2.828 1.252 4.812 2.25 6.399 2.892 4.639 9.878 9.623 10.182 9.865.305.241.643.345.998.345s.694-.121.998-.345c.305-.242 7.29-5.243 10.2-9.866.998-1.586 2.25-3.57 2.25-6.398 0-4.726-3.485-8.59-7.748-8.59z" fill="#E03A3A"/><path d="M7.25 8.83a.58.58 0 0 1-.45-.945c1.852-2.287 4.647-2.017 4.766-2.005a.58.58 0 0 1-.122 1.154 4.665 4.665 0 0 0-1.351.119c-.985.227-1.79.719-2.392 1.462a.579.579 0 0 1-.451.215zM6.039 10.817a.58.58 0 0 1-.533-.809l.17-.396a.58.58 0 1 1 1.066.456l-.17.397a.58.58 0 0 1-.533.352z" fill="#fff"/></svg>