<svg width="33" height="33" viewBox="0 0 33 33" fill="none" xmlns="http://www.w3.org/2000/svg"><path d="M8.417 4.802C5.363 5.957 3.16 9.161 3.16 12.932c0 .494.039.963.107 1.408a12.977 12.977 0 0 1 5.15-9.538zm5.58 23.184c.9.701 1.51 1.142 1.595 1.21.305.241.643.345.998.345s.694-.121.998-.345c.093-.074.815-.596 1.855-1.417a13.09 13.09 0 0 1-5.446.207zm9.586-23.522a12.98 12.98 0 0 1 5.647 10.719c0 .622-.044 1.234-.128 1.833.531-1.144.935-2.478.935-4.084 0-4.238-2.802-7.781-6.454-8.468z" fill="#C9C9C9" fill-opacity=".4"/><path d="M11.072 4.345l-.15-.002c-.876 0-1.72.162-2.507.46a12.977 12.977 0 0 0-5.15 9.537c.324 2.101 1.32 3.681 2.144 4.99.157.253.327.507.507.761a11.163 11.163 0 0 1-1.45-5.52c0-4.55 2.711-8.468 6.606-10.226zm12.51.119c-.426-.08-.86-.121-1.293-.121-.558 0-1.089.068-1.593.196a11.214 11.214 0 0 1 6.199 10.033c0 6.193-5.021 11.214-11.215 11.214-2.608 0-5.008-.89-6.913-2.384 1.853 1.866 3.87 3.523 5.23 4.584a13.068 13.068 0 0 0 5.445-.207c2.35-1.857 6.327-5.244 8.344-8.449.431-.685.91-1.445 1.314-2.314a12.981 12.981 0 0 0-5.518-12.552z" fill="#C9C9C9" fill-opacity=".4"/><path d="M26.895 14.572c0-4.391-2.523-8.192-6.198-10.033a6.257 6.257 0 0 0-1.794.774 9.434 9.434 0 1 1-5.758-.577 6.249 6.249 0 0 0-2.072-.391 11.216 11.216 0 0 0-6.606 10.227c0 2.006.527 3.89 1.45 5.519.797 1.123 1.797 2.25 2.85 3.31a11.166 11.166 0 0 0 6.914 2.385c6.194 0 11.214-5.021 11.214-11.215z" fill="#C9C9C9" fill-opacity=".4"/><path d="M5.693 13.96a9.434 9.434 0 1 0 13.209-8.647 7.468 7.468 0 0 0-1.273 1.019 7.654 7.654 0 0 1-3.055 14.67 7.653 7.653 0 1 1 .284-15.3 6.55 6.55 0 0 0-1.714-.966c-4.258.911-7.45 4.695-7.45 9.225z" fill="#C9C9C9" fill-opacity=".4"/><path d="M6.922 13.35A7.653 7.653 0 1 0 17.63 6.332c-.349.346-.678.731-.986 1.152a5.872 5.872 0 1 1-2.622-.617 5.85 5.85 0 0 1 2.506.56 8.988 8.988 0 0 0-1.669-1.724 7.653 7.653 0 0 0-7.937 7.647z" fill="#C9C9C9" fill-opacity=".4"/><path d="M8.148 12.74a5.872 5.872 0 1 0 8.495-5.256l-.037.05-.08-.106a5.872 5.872 0 0 0-8.378 5.312zm9.411-.611a4.092 4.092 0 1 1-8.183 0 4.092 4.092 0 0 1 8.183 0z" fill="#C9C9C9" fill-opacity=".4"/><path d="M9.376 12.129a4.092 4.092 0 1 0 8.183 0 4.092 4.092 0 0 0-8.183 0zM7.25 8.829a.58.58 0 0 1-.45-.945c1.853-2.287 4.648-2.017 4.766-2.005a.58.58 0 0 1-.121 1.154 4.665 4.665 0 0 0-1.351.119c-.985.227-1.79.719-2.392 1.462a.579.579 0 0 1-.451.215zM6.04 10.817a.58.58 0 0 1-.533-.809l.17-.396a.58.58 0 1 1 1.066.456l-.17.397a.58.58 0 0 1-.533.352z" fill="#C9C9C9" fill-opacity=".4"/></svg>